<?xml version="1.0" encoding="utf-8"?>
<!-- Generator: Adobe Illustrator 19.0.0, SVG Export Plug-In . SVG Version: 6.00 Build 0)  -->
<svg version="1.1" id="Layer_1" xmlns="http://www.w3.org/2000/svg" xmlns:xlink="http://www.w3.org/1999/xlink" x="0px" y="0px"
	 viewBox="-223 25 512 512" style="enable-background:new -223 25 512 512;" xml:space="preserve">
<style type="text/css">
	.st0{fill:#350055;}
	.st1{fill:#1380B6;}
	.st2{fill:#BDC3C7;}
	.st3{fill:#1C99D8;}
	.st4{opacity:0.4;}
	.st5{fill:#2A3E4F;}
</style>
<g id="Others">
</g>
<g id="blueprint">
	<g id="XMLID_1_">
		<g>
			<path class="st0" d="M33,25c141.4,0,256,114.6,256,256S174.4,537,33,537s-256-114.6-256-256S-108.4,25,33,25z"/>
		</g>
		<g>
		</g>
	</g>
	<g>
		<path class="st1" d="M-139,160v263h314.9c15.7,0,28.1-12.6,28.1-27.9v-1.8V160H-139z"/>
		<g>
			<path class="st2" d="M116,300.3c0,2-1.7,3.7-3.7,3.7H-40.3c-2,0-3.7-1.6-3.7-3.7v-33.6c0-2,1.6-3.7,3.7-3.7h152.6
				c2,0,3.7,1.6,3.7,3.7L116,300.3L116,300.3z M-37,298h146v-27H-37V298z"/>
		</g>
		<g>
			<path class="st2" d="M132.6,336H35.8c-2,0-3.7-1.5-3.7-3.5s1.7-3.5,3.7-3.5h96.8c2,0,3.7,1.5,3.7,3.5S134.6,336,132.6,336z"/>
		</g>
		<g>
			<path class="st2" d="M133.5,352H25.6c-2,0-3.7-1.5-3.7-3.5s1.7-3.5,3.7-3.5h107.9c2,0,3.7,1.5,3.7,3.5S135.5,352,133.5,352z"/>
		</g>
		<path class="st3" d="M175.5,139c-15.7,0-28.5,12.9-28.5,28.6v225c0-15.7,12.8-28.6,28.5-28.6s28.5,12.9,28.5,28.6v-225
			C204,151.9,191.2,139,175.5,139z"/>
		<g class="st4">
			<path class="st5" d="M147,392.6v1.8c0,12.5,8,23.2,19,27v-55.9C155,369.4,147,380.1,147,392.6z"/>
		</g>
		<g>
			<path class="st2" d="M62,240.1c0,7.1-5.8,12.9-12.9,12.9H-97.1c-7.1,0-12.9-5.8-12.9-12.9v-51.2c0-7.1,5.8-12.9,12.9-12.9H49.1
				c7.1,0,12.9,5.8,12.9,12.9V240.1z M55,188.5c0-3.1-2.5-5.5-5.5-5.5H-97.5c-3.1,0-5.5,2.5-5.5,5.5v51.9c0,3.1,2.5,5.5,5.5,5.5
				H49.5c3.1,0,5.5-2.5,5.5-5.5V188.5z"/>
		</g>
		<g>
			<path class="st2" d="M-61,394.3c0,2-1.7,3.7-3.7,3.7h-41.6c-2,0-3.7-1.6-3.7-3.7V266.7c0-2,1.7-3.7,3.7-3.7h41.6
				c2,0,3.7,1.6,3.7,3.7V394.3z M-103,391h34V271h-34V391z"/>
		</g>
		<g>
			<path class="st2" d="M-4.9,362h-23.3c-1.3,0-2.5-0.6-3.2-1.8L-43,340c-0.7-1.1-0.7-2.5,0-3.7l11.6-20.4c0.7-1.1,1.9-1.9,3.2-1.9
				h23.3c1.3,0,2.5,0.8,3.2,2l11.6,20.3c0.7,1.1,0.7,2.6,0,3.7l-11.6,20.2C-2.4,361.4-3.6,362-4.9,362z M-26.1,355h19l9.5-16.5
				L-7.1,322h-19l-9.5,16.5L-26.1,355z"/>
		</g>
		<g>
			<path class="st2" d="M40.4,382h-80.2c-2,0-3.7-2-3.7-4s1.7-4,3.7-4h80.2c2,0,3.7,2,3.7,4S42.4,382,40.4,382z"/>
		</g>
		<g>
			<path class="st2" d="M46.8,396h-86.7c-2,0-3.7-1.5-3.7-3.5c0-2,1.7-3.5,3.7-3.5h86.7c2,0,3.7,1.5,3.7,3.5
				C50.5,394.5,48.9,396,46.8,396z"/>
		</g>
		<g>
			<path class="st2" d="M79.5,251.5c-2,0-3.5-1.6-3.5-3.7v-68.2c0-2,1.5-3.7,3.5-3.7s3.5,1.7,3.5,3.7v68.2
				C83,249.8,81.5,251.5,79.5,251.5z"/>
		</g>
		<g>
			<path class="st2" d="M95.5,228.4c-2,0-3.5-1.7-3.5-3.7v-45.2c0-2,1.5-3.7,3.5-3.7c2,0,3.5,1.7,3.5,3.7v45.2
				C99,226.8,97.5,228.4,95.5,228.4z"/>
		</g>
		<g>
			<path class="st2" d="M83.5,396.3c-2,0-3.5-1.6-3.5-3.7v-26.7c0-2,1.5-3.7,3.5-3.7s3.5,1.7,3.5,3.7v26.7
				C87,394.6,85.5,396.3,83.5,396.3z"/>
		</g>
	</g>
</g>
<g id="SEO_x2F__Web">
</g>
<g id="Finance__x2F__Money">
</g>
<g id="E-Commerce__x2F__Shopping">
</g>
<g id="Strategy">
</g>
</svg>
