<?xml version="1.0" standalone="no"?>
<!DOCTYPE svg PUBLIC "-//W3C//DTD SVG 20010904//EN"
 "http://www.w3.org/TR/2001/REC-SVG-20010904/DTD/svg10.dtd">
<svg version="1.0" xmlns="http://www.w3.org/2000/svg"
 width="2400.000000pt" height="1260.000000pt" viewBox="0 0 2400.000000 1260.000000"
 preserveAspectRatio="xMidYMid meet">
<metadata>
Created by potrace 1.15, written by Peter Selinger 2001-2017
</metadata>
<g transform="translate(0.000000,1260.000000) scale(0.100000,-0.100000)"
fill="#000000" stroke="none">
<path d="M1724 10794 c-14 -21 -15 -33 -7 -69 9 -41 8 -46 -13 -60 -13 -9 -24
-22 -24 -30 0 -11 -12 -12 -54 -8 -46 5 -57 2 -75 -16 -23 -23 -28 -75 -10
-115 10 -21 8 -29 -10 -52 -39 -50 -22 -97 49 -129 27 -12 37 -21 28 -26 -7
-5 -26 0 -44 12 -31 19 -87 25 -119 13 -22 -9 -46 -59 -38 -81 3 -10 15 -30
25 -45 15 -22 17 -34 10 -60 l-9 -33 -8 40 c-10 54 -32 77 -69 73 -26 -3 -30
1 -40 37 -9 30 -19 42 -40 50 -25 8 -31 6 -52 -18 -19 -22 -25 -25 -30 -13 -8
22 -62 38 -85 25 -28 -14 -41 -56 -34 -101 4 -23 3 -38 -3 -38 -20 0 -42 -32
-42 -60 0 -22 10 -37 40 -61 22 -18 38 -35 35 -38 -3 -2 -25 -4 -49 -2 -45 2
-76 -16 -76 -45 0 -8 -10 -14 -25 -14 -37 0 -75 -42 -75 -82 1 -37 13 -57 53
-82 19 -13 27 -27 27 -46 0 -56 40 -73 107 -45 39 17 49 14 40 -10 -4 -8 -18
-15 -31 -15 -14 0 -29 -7 -34 -16 -8 -14 -12 -13 -43 5 -61 38 -109 24 -109
-32 0 -26 -3 -28 -24 -23 -92 23 -129 -101 -41 -138 28 -12 31 -17 27 -49 -4
-33 -1 -38 32 -53 29 -14 40 -15 61 -6 33 15 45 15 45 0 0 -7 -15 -20 -33 -28
-73 -34 -30 -130 58 -130 18 0 25 -5 25 -18 0 -52 75 -67 133 -27 37 24 37 24
48 4 9 -17 7 -25 -10 -43 -30 -32 -37 -80 -17 -111 20 -30 40 -31 101 -5 56
24 55 24 55 5 0 -21 37 -37 69 -30 34 7 73 48 91 93 9 23 16 30 23 23 30 -30
77 8 99 80 6 22 16 39 22 39 21 0 83 -58 118 -112 19 -29 67 -107 106 -173 70
-118 72 -121 61 -160 -16 -56 -53 -126 -81 -152 -12 -12 -57 -38 -98 -59 -41
-20 -106 -56 -145 -79 -91 -55 -130 -63 -245 -50 -67 8 -114 -14 -142 -66 -33
-62 -14 -143 42 -177 30 -19 65 -19 843 -19 708 -1 815 1 838 15 86 49 76 199
-16 238 -41 17 -98 18 -126 3 -27 -14 -74 3 -99 34 -17 21 -57 42 -200 105
-120 52 -173 122 -192 250 -24 175 27 318 146 403 43 32 66 37 66 14 0 -8 7
-33 16 -55 12 -31 23 -42 44 -46 20 -4 33 -18 48 -50 25 -50 58 -69 96 -54 19
7 34 4 63 -12 37 -20 41 -21 73 -5 18 9 47 17 65 17 18 0 39 8 48 18 21 23 22
65 2 82 -17 14 -3 50 20 50 8 0 22 11 31 25 10 15 26 25 39 25 24 0 55 23 55
41 0 5 8 17 18 27 14 14 24 15 55 8 45 -12 69 -1 77 35 4 17 13 24 30 25 14 0
33 1 42 2 50 5 67 91 26 130 -13 11 -35 24 -50 27 -17 5 -28 14 -28 25 0 9 -9
29 -21 44 -24 30 -59 34 -103 11 -35 -19 -56 -13 -56 14 0 11 -7 26 -15 35
-21 21 -19 26 10 26 18 0 31 9 43 30 17 30 18 31 75 24 45 -5 63 -2 83 11 23
15 25 22 21 52 -5 31 -2 40 23 63 34 32 40 81 14 118 -12 17 -25 22 -62 22
-41 0 -48 3 -49 21 -1 12 -9 29 -18 39 -12 14 -14 23 -7 37 15 27 3 72 -24 90
-23 15 -50 14 -101 -2 -21 -7 -23 -4 -23 30 0 25 8 47 25 67 32 37 32 68 0 98
-20 19 -32 22 -69 18 -36 -4 -49 -2 -62 13 -24 26 -62 24 -107 -7 -36 -24 -40
-25 -63 -9 -28 18 -51 10 -82 -30 -30 -38 -36 -12 -7 31 30 44 30 47 8 85 -33
56 -92 61 -145 11 -16 -14 -28 -24 -29 -21 -10 42 -5 85 11 107 35 44 23 94
-29 122 -12 6 -18 22 -19 46 -3 79 -69 95 -138 33 -18 -17 -25 -18 -55 -8 -19
7 -42 19 -51 27 -22 19 -66 19 -85 0 -8 -8 -20 -33 -28 -54 -11 -31 -18 -38
-35 -36 -12 2 -32 -4 -46 -12 -29 -20 -32 -59 -6 -112 14 -31 15 -38 3 -42 -7
-2 -23 -14 -34 -25 l-20 -20 7 65 c8 71 -4 117 -32 125 -11 3 -23 21 -30 48
-9 36 -17 46 -39 52 -16 4 -36 6 -46 4 -10 -1 -34 11 -53 28 -44 39 -87 41
-110 5z m103 -56 c40 -39 44 -41 68 -28 32 17 38 10 45 -53 5 -49 6 -52 33
-50 29 2 31 -4 21 -68 -5 -30 -10 -36 -33 -37 -14 -1 -44 -4 -67 -7 l-41 -7
-5 46 c-3 26 -14 56 -23 66 -22 24 -62 26 -85 5 -16 -14 -18 -14 -24 0 -4 12
4 20 29 31 40 16 40 15 19 73 -28 81 -2 93 63 29z m653 -45 c0 -41 2 -45 35
-59 44 -18 45 -43 5 -77 -29 -25 -40 -57 -20 -57 19 0 10 -15 -19 -32 -17 -9
-39 -35 -51 -57 -29 -57 -52 -55 -44 3 6 38 3 46 -14 57 -19 12 -19 15 -6 40
28 55 8 149 -32 149 -8 0 -14 9 -14 20 0 19 1 20 24 5 23 -16 26 -15 64 24 51
52 72 47 72 -16z m-209 20 c6 -16 8 -43 5 -60 -5 -36 7 -49 42 -44 19 2 22 -2
22 -31 0 -21 -10 -48 -25 -68 -33 -44 -32 -59 5 -66 35 -8 36 -13 10 -63 -13
-26 -35 -48 -66 -65 -26 -15 -48 -25 -49 -24 -2 2 3 32 11 68 15 73 18 160 5
160 -4 0 -16 -36 -26 -81 -27 -127 -35 -149 -52 -149 -11 0 -13 5 -7 18 14 32
16 90 4 112 -6 12 -25 27 -42 34 l-30 13 31 11 c37 13 38 24 10 86 -25 58 -21
71 22 71 31 0 36 4 58 53 28 60 55 69 72 25z m-596 -159 c40 -40 65 -39 83 1
22 49 45 22 57 -68 l6 -48 35 7 c34 6 34 6 34 -29 0 -27 -5 -37 -20 -42 -30
-10 -43 -41 -31 -76 7 -22 7 -29 -3 -29 -6 0 -18 16 -25 36 -13 37 -76 114
-92 114 -16 0 -10 -25 16 -62 32 -47 31 -54 -5 -61 -26 -6 -30 -11 -30 -38 0
-28 -3 -31 -22 -25 -13 3 -27 6 -31 6 -5 0 1 16 14 36 22 36 22 37 4 50 -10 8
-26 14 -34 14 -24 0 -81 38 -81 54 0 8 12 23 27 34 27 19 27 22 14 54 -32 79
-27 108 18 108 21 0 41 -11 66 -36z m331 -126 c41 -38 47 -40 68 -28 46 24 59
-12 32 -88 -17 -46 -8 -62 36 -62 18 0 28 -5 28 -14 0 -15 -26 -46 -39 -46 -4
0 -14 -13 -22 -30 -13 -27 -16 -29 -38 -17 -19 9 -29 28 -42 81 -22 87 -39
107 -39 46 0 -25 4 -62 9 -83 7 -30 6 -40 -5 -44 -22 -8 -74 51 -67 76 3 13
-6 33 -28 60 -34 43 -33 55 4 56 20 0 22 6 25 55 3 47 14 80 28 80 3 0 25 -19
50 -42z m678 16 c23 -22 20 -47 -9 -74 -29 -27 -31 -46 -9 -71 21 -24 3 -50
-53 -78 -45 -22 -50 -30 -33 -61 7 -14 6 -23 -6 -34 -23 -24 -43 -19 -50 12
-3 15 -17 37 -31 48 l-25 22 36 39 c20 22 36 46 36 52 0 17 -49 -11 -84 -48
-17 -17 -32 -31 -36 -31 -3 0 -11 19 -18 43 -7 23 -15 48 -18 55 -4 8 4 12 26
12 26 0 33 5 47 38 15 38 41 72 53 72 4 0 12 -11 18 -25 15 -33 29 -31 81 10
50 40 54 41 75 19z m284 -105 c11 -18 19 -20 66 -14 46 6 54 4 60 -12 5 -13
-1 -25 -24 -44 -25 -22 -30 -31 -24 -53 5 -22 3 -26 -15 -26 -11 0 -39 -16
-60 -36 -39 -34 -41 -35 -69 -20 -40 21 -49 47 -22 66 12 8 33 25 48 37 24 20
25 22 7 22 -11 0 -42 -11 -70 -24 -27 -14 -60 -25 -73 -25 -13 0 -37 -7 -54
-16 -25 -13 -32 -14 -39 -2 -15 22 -11 31 40 88 l48 54 27 -17 c26 -18 28 -18
68 12 49 36 68 39 86 10z m-1408 -84 c28 -14 50 -29 50 -34 0 -5 15 -14 34
-21 30 -10 34 -15 40 -58 14 -107 23 -151 35 -165 23 -28 79 -47 138 -47 51 0
59 -3 69 -23 6 -13 9 -28 6 -35 -5 -17 -48 -15 -77 4 -14 9 -35 14 -47 11 -18
-4 -28 2 -43 26 -16 26 -28 33 -59 35 -27 2 -45 11 -58 27 -10 13 -27 26 -37
30 -10 3 -21 18 -24 34 -5 25 -11 29 -57 35 l-52 7 7 49 c6 42 3 54 -14 76
-55 69 -5 96 89 49z m-350 -55 c5 0 20 14 33 32 l25 32 10 -40 c6 -21 12 -48
14 -59 4 -26 35 -31 59 -10 22 21 25 16 37 -55 6 -34 12 -46 27 -48 128 -18
186 -47 73 -37 -42 4 -82 1 -118 -9 l-55 -15 -36 36 c-21 19 -45 50 -55 69
-21 38 -34 44 -34 14 0 -36 38 -98 84 -136 44 -36 62 -77 45 -98 -6 -6 -16
-20 -23 -30 -12 -18 -14 -16 -28 25 l-15 44 -49 -3 c-41 -2 -51 1 -63 20 -12
20 -11 24 13 43 35 28 33 39 -14 60 -22 10 -47 27 -57 37 -17 19 -17 21 11 43
26 21 28 27 23 66 -3 24 -1 51 4 61 10 18 12 17 45 -12 19 -16 39 -30 44 -30z
m610 29 c20 -4 45 -20 57 -36 l23 -28 -51 -22 c-27 -12 -63 -32 -79 -43 l-29
-21 -11 22 c-11 20 -10 38 6 117 5 28 10 32 28 26 11 -4 37 -11 56 -15z m850
-63 c18 -35 33 -38 76 -15 46 23 58 24 74 4 10 -12 7 -22 -17 -55 -17 -22 -32
-38 -35 -35 -7 7 -149 -32 -161 -44 -18 -18 -24 -13 -23 24 1 22 10 42 24 56
15 13 23 31 22 47 -3 38 -2 42 13 42 8 0 20 -11 27 -24z m-190 -39 c0 -29 19
-54 45 -59 32 -5 29 -34 -10 -76 -32 -36 -34 -42 -20 -55 23 -23 19 -29 -37
-66 -51 -34 -52 -35 -30 -49 12 -8 22 -20 22 -28 0 -14 -45 -51 -103 -83 -69
-38 -70 -29 -11 98 19 40 34 80 34 89 0 29 -37 -16 -72 -89 -18 -38 -36 -69
-39 -69 -10 0 -29 77 -23 94 3 8 15 18 26 22 17 5 19 11 13 43 -4 20 -8 54 -9
76 -1 38 0 40 29 40 27 0 31 5 46 50 14 46 18 50 47 50 18 1 40 8 49 18 24 24
43 21 43 -6z m585 -3 l20 -26 43 17 c50 20 72 15 72 -20 0 -18 -12 -33 -42
-56 -60 -43 -67 -58 -34 -81 51 -38 29 -54 -84 -60 -49 -3 -46 2 -37 -73 1
-14 -7 -23 -33 -32 -41 -14 -119 -16 -139 -4 -22 14 -5 57 36 88 59 45 138
121 132 127 -3 3 -31 -10 -63 -29 l-57 -34 3 57 c3 51 1 58 -19 67 -27 12 -29
21 -6 29 9 4 32 -1 50 -11 l33 -18 42 43 c24 23 47 42 52 42 6 0 20 -12 31
-26z m-967 -59 c24 -25 47 -45 50 -45 3 0 13 7 23 16 32 29 46 11 52 -68 3
-52 1 -77 -8 -88 -28 -33 -28 -65 0 -157 4 -13 3 -23 -3 -23 -5 0 -13 15 -16
34 -12 65 -70 108 -102 76 -7 -7 -18 1 -35 24 -14 20 -40 46 -59 58 -53 37
-60 55 -27 79 23 18 27 27 27 73 0 29 3 56 7 59 16 17 49 3 91 -38z m714 -45
l30 0 -4 -56 c-3 -39 -11 -62 -26 -77 -22 -21 -23 -21 -55 -4 -39 21 -67 64
-67 101 0 20 7 27 33 35 17 5 38 7 45 5 8 -2 27 -4 44 -4z m414 -58 l9 -37 55
0 c52 0 55 -1 58 -27 3 -22 -4 -32 -32 -50 -37 -24 -44 -45 -26 -79 15 -27 -5
-33 -74 -20 -67 12 -86 7 -86 -24 0 -13 -5 -27 -10 -30 -20 -12 -218 -6 -240
7 -32 20 -24 38 18 38 97 1 156 35 154 89 -1 29 2 31 33 31 39 0 86 16 97 33
13 21 9 64 -8 78 -14 12 -14 14 1 25 25 18 41 8 51 -34z m-1709 4 c19 -18 -58
-146 -87 -146 -27 0 -59 51 -66 103 l-7 46 39 4 c44 5 113 1 121 -7z m-406
-62 c45 -44 49 -46 79 -36 32 12 32 12 45 -35 2 -6 -5 -19 -16 -29 -29 -26
-25 -79 7 -109 31 -29 26 -55 -10 -55 -14 0 -32 -7 -41 -16 -24 -25 -42 -3
-27 31 26 56 -23 87 -95 60 -51 -20 -61 -15 -45 20 17 38 15 42 -23 55 -61 20
-80 53 -50 84 10 10 26 13 50 9 35 -6 35 -5 35 31 0 31 3 36 22 36 13 0 42
-19 69 -46z m636 -37 c13 -26 19 -29 48 -24 41 7 48 0 30 -26 -10 -14 -13 -33
-9 -58 4 -22 2 -39 -5 -43 -33 -21 7 -106 50 -106 14 0 16 -9 15 -56 -1 -46
-6 -60 -25 -75 -46 -37 -59 -20 -81 111 -14 85 -19 100 -32 100 -7 0 -9 -28
-6 -84 5 -79 5 -84 -13 -78 -17 7 -69 94 -69 116 0 5 7 17 16 27 15 16 14 20
-10 52 -31 41 -32 48 -6 65 15 9 20 23 20 54 0 50 25 85 47 66 8 -6 21 -25 30
-41z m284 -67 c18 -27 34 -50 36 -50 2 0 17 7 32 15 35 17 46 8 56 -46 9 -46
19 -62 42 -64 10 0 19 -5 21 -10 6 -18 -9 -95 -19 -95 -5 0 -23 15 -39 33 -29
34 -150 106 -150 90 0 -5 27 -32 60 -61 61 -54 96 -104 85 -122 -15 -24 -99 2
-101 30 -1 8 -2 18 -2 22 -1 4 -23 1 -49 -7 -64 -20 -72 -19 -82 8 -6 15 -4
29 6 45 21 33 11 48 -41 61 -48 12 -58 29 -30 52 15 12 15 34 0 70 -12 28 21
51 61 43 29 -6 35 -3 40 15 9 36 39 24 74 -29z m-623 -44 c6 -14 23 -31 38
-36 32 -13 95 -13 127 -1 20 8 29 6 43 -10 13 -15 15 -22 6 -31 -7 -7 -12 -20
-12 -29 0 -30 -20 -32 -41 -5 -27 34 -56 42 -79 21 -13 -12 -23 -14 -37 -7
-10 5 -49 12 -86 15 -58 4 -73 9 -98 33 -45 43 -37 73 23 88 15 3 32 15 38 25
9 19 11 18 38 -8 15 -15 33 -40 40 -55z m1186 9 c16 -12 22 -12 47 0 36 19 55
19 63 -1 4 -11 18 -15 48 -14 24 1 49 1 56 1 23 -2 12 -32 -18 -49 -25 -14
-30 -23 -30 -54 l0 -38 -56 0 -56 0 7 -31 7 -32 -67 7 c-63 6 -67 5 -72 -15
-5 -19 -11 -21 -52 -15 -25 3 -50 11 -56 17 -16 16 34 53 113 83 38 15 78 33
88 41 18 13 17 14 -16 15 -19 0 -73 -14 -120 -30 -46 -16 -86 -27 -89 -24 -3
2 5 25 17 49 19 40 25 45 47 39 19 -5 34 2 67 30 49 41 47 40 72 21z m439
-141 c35 -23 37 -27 24 -42 -8 -10 -17 -26 -21 -38 -9 -31 -48 -63 -83 -70
-27 -5 -33 -2 -46 22 -15 29 -21 73 -18 127 1 26 3 27 54 27 40 0 61 -6 90
-26z m-1695 -15 c2 -13 8 -33 13 -45 9 -17 4 -31 -25 -77 -20 -32 -41 -57 -45
-57 -34 0 -101 136 -78 159 6 6 16 11 22 11 6 0 28 9 50 20 47 24 59 22 63
-11z m108 6 c25 -19 50 -19 58 0 10 28 37 16 53 -25 18 -44 36 -51 53 -19 15
28 37 9 46 -40 11 -70 13 -71 40 -59 13 6 27 9 30 6 8 -9 18 -118 10 -118 -13
0 -71 33 -135 76 -68 47 -99 57 -82 27 12 -24 47 -55 98 -88 41 -26 80 -72 70
-82 -3 -2 -33 -7 -67 -10 l-61 -6 3 39 3 39 -52 5 c-66 7 -81 20 -59 51 22 33
21 36 -21 49 -52 17 -59 26 -34 42 26 16 27 40 1 63 -47 43 -5 89 46 50z
m-448 -26 c35 -25 45 -29 57 -19 8 7 15 19 15 26 0 39 80 -22 98 -76 l11 -29
-63 6 c-68 6 -156 -3 -156 -17 0 -4 36 -11 81 -15 l80 -7 -7 -32 c-8 -40 -8
-40 -34 -26 -26 14 -88 7 -130 -15 -16 -8 -36 -12 -44 -9 -18 7 -21 30 -6 39
25 15 9 43 -34 59 -80 30 -70 76 14 68 l50 -5 0 42 c0 50 11 52 68 10z m1287
-59 c9 0 29 7 45 15 35 18 37 13 11 -29 -29 -47 -49 -130 -56 -233 -5 -85 -4
-93 12 -93 10 0 28 15 41 33 12 17 36 47 52 66 l29 34 -2 -29 c-2 -29 -2 -29
48 -26 l50 2 -33 -16 c-151 -77 -233 -265 -204 -466 24 -166 81 -230 278 -316
59 -26 109 -52 111 -58 5 -16 -44 -27 -67 -14 -10 5 -35 10 -54 10 -30 0 -38
5 -52 31 -11 23 -35 40 -88 65 -127 58 -156 111 -175 323 -11 112 -15 131 -27
118 -12 -12 -8 -213 5 -267 28 -114 66 -159 178 -212 35 -16 67 -37 73 -47 8
-16 4 -18 -38 -18 -26 0 -60 -1 -77 -2 -46 -4 -115 10 -115 24 0 7 -11 24 -25
39 -35 38 -87 36 -125 -5 -16 -16 -32 -38 -35 -48 -5 -17 -10 -18 -40 -8 -46
14 -46 39 0 131 34 70 56 156 39 156 -5 0 -34 -50 -64 -110 -48 -97 -57 -110
-80 -110 -45 0 -100 -20 -133 -49 -27 -24 -36 -27 -57 -19 -14 5 -40 8 -59 6
-30 -4 -31 -3 -15 10 11 7 63 36 116 63 121 61 160 95 197 172 55 114 53 126
-35 273 -119 199 -145 235 -201 278 l-52 40 32 11 c24 7 33 17 35 37 2 18 11
28 28 32 25 7 29 18 25 74 -3 39 3 40 25 6 11 -16 20 -60 25 -119 10 -116 37
-175 119 -257 73 -72 105 -78 116 -20 10 50 -11 208 -36 274 -23 63 -66 110
-120 134 -39 17 -39 18 -22 42 14 19 28 24 70 26 47 3 52 1 52 -18 0 -52 33
-140 83 -222 77 -128 92 -124 123 26 14 70 15 94 5 153 -10 60 -10 72 3 79 8
4 18 23 22 41 6 30 7 31 15 10 5 -13 15 -23 24 -23z m455 31 c0 -5 -7 -14 -16
-21 -27 -23 -35 -48 -23 -68 18 -28 5 -49 -33 -57 -70 -14 -70 -14 -64 -50 6
-32 5 -33 -38 -44 -46 -11 -96 -15 -96 -6 0 25 41 80 77 101 24 13 43 29 43
34 0 25 -83 -3 -152 -51 -54 -39 -52 -12 4 41 28 28 50 40 70 40 16 0 31 6 34
15 5 11 22 15 65 15 46 0 64 5 79 20 11 11 20 25 20 30 0 6 7 10 15 10 8 0 15
-4 15 -9z m360 -36 c0 -27 22 -27 75 1 44 24 56 26 69 15 10 -8 13 -22 10 -41
-5 -24 -2 -28 23 -34 66 -16 83 -27 83 -57 0 -28 -1 -29 -54 -29 -54 0 -54 0
-60 -35 -8 -40 -10 -41 -62 -19 -37 15 -39 15 -52 -4 -19 -29 -51 -10 -44 25
8 40 -23 63 -85 63 -29 0 -53 5 -53 10 0 12 24 13 139 10 97 -3 102 11 12 29
l-59 12 21 38 c21 38 37 45 37 16z m-915 -127 c6 -45 -7 -139 -23 -166 -11
-16 -88 118 -100 174 l-9 40 63 0 63 -1 6 -47z m-949 11 c24 -14 34 -28 34
-45 0 -14 10 -35 23 -47 28 -28 25 -65 -8 -73 -13 -3 -31 -14 -41 -25 -9 -10
-24 -19 -33 -19 -9 0 -33 -12 -54 -26 -47 -32 -69 -28 -81 14 -8 28 -13 32
-43 32 -40 0 -73 15 -73 33 0 8 16 21 35 30 30 14 35 21 35 52 0 41 6 42 55
14 47 -28 65 -20 65 29 0 21 3 42 7 45 12 13 46 7 79 -14z m692 -52 c18 -12
42 -41 53 -64 33 -68 63 -273 40 -273 -17 0 -103 102 -122 144 -10 24 -22 66
-24 93 -16 143 -16 136 3 129 9 -4 32 -17 50 -29z m977 17 c66 -2 126 -6 132
-9 8 -3 11 -15 7 -33 -5 -23 -1 -32 20 -45 38 -25 34 -47 -9 -47 -28 0 -38 -5
-47 -25 -11 -25 -32 -30 -75 -19 -17 5 -23 14 -23 34 0 36 -18 50 -75 58 -35
5 -49 13 -58 32 -11 22 -20 25 -70 28 -31 2 -57 7 -57 11 0 14 64 30 100 24
19 -3 89 -7 155 -9z m-1392 -74 c-3 -11 0 -27 7 -35 15 -18 18 -15 -40 -48
-48 -28 -114 -86 -107 -94 3 -2 47 16 98 40 90 43 139 61 139 50 0 -8 -42
-103 -46 -103 -3 0 -13 5 -24 12 -24 15 -54 -9 -70 -58 -6 -19 -23 -43 -38
-55 l-27 -21 -20 26 c-25 31 -39 32 -104 7 -70 -28 -83 -7 -31 52 33 39 36 48
18 78 -11 18 -10 23 11 40 17 14 32 18 53 14 33 -8 48 16 29 46 -10 17 -8 19
18 19 16 0 44 -7 64 -15 42 -17 49 -12 41 32 -5 28 -3 33 14 33 15 0 19 -5 15
-20z m1227 -14 c0 -22 6 -26 48 -31 79 -11 82 -13 75 -45 -6 -31 -6 -30 65
-55 10 -4 10 -10 2 -26 -10 -17 -8 -25 9 -43 33 -36 27 -49 -19 -43 -22 3 -42
1 -46 -4 -17 -28 -42 -28 -80 1 l-37 30 -22 -20 c-21 -19 -24 -20 -38 -5 -9 9
-26 36 -37 62 -17 39 -23 45 -45 41 -25 -5 -32 6 -48 80 -8 37 45 22 119 -34
31 -24 54 -31 54 -16 0 18 -36 56 -78 83 -44 28 -45 29 -21 38 13 5 41 10 62
10 33 1 37 -2 37 -23z m-1307 -939 c13 -8 46 -48 75 -90 l51 -74 -126 -1
c-126 0 -127 0 -155 28 -44 44 -33 114 23 147 29 16 100 11 132 -10z m457 11
c14 0 39 4 56 7 49 11 88 -16 144 -100 27 -41 50 -76 50 -78 0 -8 -216 -4
-231 4 -25 13 -121 158 -113 170 4 7 18 8 38 3 17 -4 42 -7 56 -6z m595 2 c17
0 49 2 71 3 24 1 49 -5 59 -13 16 -13 115 -154 115 -163 0 -2 -51 -4 -113 -3
-84 1 -119 5 -132 16 -9 8 -39 47 -66 86 -51 76 -50 88 6 78 17 -3 44 -5 60
-4z"/>
<path d="M377 7993 c-4 -3 -7 -443 -7 -977 0 -801 3 -994 15 -1100 39 -337
138 -663 296 -975 38 -74 67 -136 66 -137 -1 -1 -26 -9 -55 -19 -93 -30 -144
-92 -234 -286 -42 -91 -82 -185 -87 -210 -26 -112 -2 -233 69 -354 42 -71 180
-214 269 -279 159 -116 429 -261 634 -341 53 -21 97 -43 97 -49 -1 -6 -37 -40
-81 -76 -120 -96 -123 -106 -127 -330 -2 -101 -1 -203 3 -227 12 -83 76 -130
211 -158 70 -14 161 -16 704 -13 l625 3 65 23 c35 13 77 33 92 44 54 38 58 57
58 300 0 261 1 257 -115 354 -107 90 -103 81 -48 105 26 12 64 27 83 34 162
60 432 205 582 311 108 78 245 214 291 291 76 126 101 252 73 363 -9 36 -55
142 -101 237 -74 151 -89 175 -130 206 -26 20 -67 44 -93 53 -26 10 -49 19
-51 20 -1 2 28 65 67 141 166 327 261 648 298 996 12 117 14 313 12 1097 l-3
955 -1736 3 c-954 1 -1739 -1 -1742 -5z m3443 -683 l0 -650 -1705 0 -1705 0 0
650 0 650 1705 0 1705 0 0 -650z m-2618 -830 c20 -6 47 -23 58 -38 21 -26 21
-31 14 -302 -3 -151 -8 -276 -9 -278 -1 -2 -19 7 -39 19 -31 18 -47 21 -104
16 -41 -3 -89 -15 -125 -31 -39 -18 -75 -26 -112 -26 l-55 0 0 280 0 280 43 0
c25 0 59 9 82 21 22 12 60 32 84 45 48 26 103 30 163 14z m351 -11 c23 -12 44
-25 47 -30 11 -16 80 -39 120 -39 l40 0 0 -280 0 -280 -52 0 c-35 0 -79 10
-128 30 -91 35 -159 39 -215 10 -22 -11 -41 -20 -42 -20 -2 0 -3 130 -3 288 0
264 2 290 18 305 46 42 148 50 215 16z m1314 -5 l28 -21 3 -292 c1 -160 0
-291 -3 -291 -2 0 -19 9 -37 20 -50 31 -132 27 -225 -10 -47 -19 -92 -30 -124
-30 l-49 0 0 285 0 285 56 0 c45 0 63 5 99 30 65 45 83 50 157 47 50 -2 75 -8
95 -23z m354 -17 c47 -32 62 -37 112 -37 l57 0 0 -285 0 -285 -49 0 c-30 0
-81 12 -131 30 -97 36 -164 39 -220 10 -22 -11 -42 -20 -45 -20 -10 0 -5 551
6 571 22 42 69 60 145 57 63 -3 77 -7 125 -41z m-2431 -357 l0 -290 79 0 c66
0 93 5 157 31 95 38 154 37 208 -4 19 -15 47 -27 61 -27 14 0 42 12 61 27 54
41 113 42 208 4 64 -26 91 -31 157 -31 l79 0 0 290 c0 160 3 290 6 290 3 0 14
-5 25 -10 18 -10 19 -24 19 -300 l0 -290 -231 0 c-216 0 -233 -1 -256 -20 -34
-26 -98 -26 -138 0 -28 18 -47 20 -257 20 l-228 0 0 290 c0 265 1 290 18 299
9 6 20 11 25 11 4 0 7 -130 7 -290z m1628 -287 c1 -2 36 -3 77 -3 58 0 90 6
138 26 34 14 89 28 122 31 55 5 63 3 102 -26 47 -34 93 -40 114 -15 43 51 115
56 229 14 63 -23 98 -30 156 -30 l74 0 0 290 c0 160 4 290 8 290 5 0 16 -6 25
-12 16 -12 17 -39 15 -298 l-3 -285 -228 -3 c-206 -2 -230 -4 -260 -22 -41
-25 -95 -25 -127 0 -23 18 -42 20 -257 20 l-233 0 0 290 c0 265 1 290 18 299
16 9 17 -8 22 -277 3 -158 7 -288 8 -289z m-1718 242 l0 -305 240 0 c222 0
242 -1 272 -20 21 -13 51 -20 83 -20 32 0 62 7 83 20 30 19 50 20 272 20 l240
0 0 305 c0 298 0 305 20 305 20 0 20 -7 20 -330 l0 -330 -265 0 c-247 0 -267
-1 -297 -20 -19 -11 -51 -20 -73 -20 -22 0 -54 9 -73 20 -30 19 -50 20 -297
20 l-265 0 0 330 c0 323 0 330 20 330 20 0 20 -7 20 -305z m1630 0 l0 -305
240 0 c222 0 242 -1 272 -20 41 -25 112 -26 153 -2 26 14 66 18 275 22 l245 5
3 303 c2 294 3 302 22 302 20 0 20 -7 20 -325 l0 -325 -261 0 c-250 0 -262 -1
-291 -21 -48 -35 -109 -36 -162 -5 l-45 26 -255 0 -256 0 0 325 c0 318 0 325
20 325 20 0 20 -7 20 -305z m68 -671 c112 -23 221 -83 307 -169 78 -77 116
-141 140 -230 48 -185 -29 -430 -184 -584 -31 -31 -88 -105 -126 -166 -89
-141 -250 -306 -340 -349 -69 -34 -203 -49 -230 -26 -24 20 -18 75 16 143 42
83 142 178 312 297 190 132 214 183 101 206 -34 7 -75 19 -92 28 -62 32 -112
116 -112 188 0 47 7 62 72 150 53 72 74 138 44 138 -10 0 -16 -8 -16 -24 0
-13 -21 -52 -46 -87 -91 -124 -104 -187 -55 -283 33 -66 33 -66 -88 -10 -65
30 -73 37 -67 57 10 40 -5 157 -21 157 -12 0 -13 -14 -8 -77 3 -43 2 -90 -2
-104 -8 -26 -159 -158 -212 -186 -14 -7 -52 -13 -83 -13 -50 0 -57 2 -60 21
l-3 21 -27 -21 c-36 -29 -41 -26 -23 9 13 26 21 30 56 30 68 0 119 38 119 88
0 40 -31 121 -57 147 -15 15 -50 38 -77 52 -44 22 -58 25 -116 19 -168 -18
-180 -18 -180 -8 0 6 5 14 10 17 16 10 11 51 -9 69 -12 11 -32 16 -55 14 -23
-1 -42 4 -53 14 -15 15 -15 18 1 33 22 23 20 28 -9 21 -41 -10 -30 15 33 74
42 40 94 73 192 122 117 58 146 68 220 78 61 7 106 20 160 46 81 39 238 89
322 103 84 14 163 12 246 -5z m-1596 -651 c12 -21 59 -93 105 -161 46 -67 83
-125 83 -127 0 -3 -17 -5 -37 -5 -55 1 -119 33 -138 69 -8 17 -21 31 -28 31
-8 0 -39 -38 -71 -85 -32 -47 -61 -87 -66 -90 -15 -9 -53 100 -58 167 -6 91
28 166 96 209 63 40 87 38 114 -8z m2727 18 c104 -53 138 -205 78 -342 l-24
-54 -34 49 c-96 139 -112 153 -129 114 -17 -37 -75 -70 -130 -76 -28 -2 -50
-1 -50 3 0 4 45 75 100 157 55 82 100 154 100 159 0 16 49 10 89 -10z m-1813
-72 c17 -34 18 -65 2 -72 -7 -2 -34 2 -60 11 -55 17 -75 12 -88 -23 -12 -32
-30 -24 -30 13 0 36 -22 14 -24 -25 -1 -34 -20 -43 -24 -12 -11 70 24 112 106
125 23 4 50 12 59 19 21 16 37 6 59 -36z m-1138 -276 c70 -182 341 -413 669
-568 378 -180 438 -219 488 -320 29 -59 30 -63 33 -235 2 -158 1 -173 -13
-155 -65 87 -136 131 -375 230 -459 190 -752 385 -889 590 -67 100 -86 160
-86 265 1 90 0 87 111 325 l29 60 6 -70 c4 -38 16 -94 27 -122z m3198 -4 c70
-158 68 -254 -7 -399 -118 -228 -445 -455 -944 -655 -207 -83 -295 -138 -347
-215 -16 -24 -17 -18 -17 136 -1 212 9 246 95 331 64 63 99 82 466 257 184 87
417 260 531 394 80 94 126 203 127 302 l1 45 26 -50 c14 -27 45 -93 69 -146z
m-1576 126 c47 -8 110 -24 140 -35 30 -10 63 -19 73 -20 9 0 17 -6 17 -14 0
-12 -32 -15 -167 -19 -93 -3 -181 -8 -198 -12 l-30 -6 31 28 c17 15 39 33 50
40 17 11 17 12 -9 12 -32 1 -82 -22 -94 -44 -5 -8 -13 -11 -21 -6 -28 17 59
90 108 90 8 1 53 -6 100 -14z m-1328 -109 c21 -9 53 -16 73 -16 19 0 35 -2 35
-5 0 -7 -137 -205 -155 -223 -10 -11 -24 0 -79 59 -36 40 -66 78 -66 85 0 6
23 45 52 88 l51 77 26 -25 c14 -14 43 -32 63 -40z m2627 -15 c28 -41 51 -80
51 -86 0 -16 -122 -145 -137 -145 -11 0 -163 210 -163 224 0 3 17 6 38 6 44 0
109 28 136 59 11 11 20 20 22 19 1 -2 25 -36 53 -77z m-2348 -146 c168 -198
402 -420 634 -602 92 -72 312 -223 324 -223 26 0 259 161 411 284 192 155 504
464 617 613 27 34 51 62 55 63 8 0 178 -246 178 -258 0 -12 -157 -124 -250
-178 -41 -24 -163 -86 -271 -137 -274 -131 -344 -182 -401 -289 -21 -39 -23
-59 -26 -229 -2 -112 0 -201 7 -225 6 -22 28 -58 51 -81 22 -23 40 -45 40 -48
0 -3 -185 -5 -412 -5 l-412 0 37 37 c70 68 72 75 72 298 0 191 -1 202 -24 249
-52 105 -126 162 -350 268 -291 138 -365 180 -511 288 l-70 52 33 47 c18 25
59 83 91 129 48 68 61 81 71 70 7 -7 54 -62 106 -123z m402 -1021 c125 -64
171 -114 169 -183 -1 -26 -11 -44 -43 -74 l-41 -40 -82 6 c-94 6 -182 35 -226
77 -48 45 -41 69 38 133 37 30 78 67 91 81 14 14 28 26 33 26 5 0 32 -12 61
-26z m1283 -59 c102 -87 111 -104 70 -148 -49 -52 -153 -87 -263 -87 -52 0
-59 3 -93 38 -20 20 -39 45 -43 55 -12 32 6 80 44 118 36 36 164 111 182 106
5 -1 51 -38 103 -82z m-1416 -251 c51 -18 99 -19 700 -19 l645 0 58 24 c32 12
74 37 93 53 l34 30 0 -195 0 -195 -26 -31 c-18 -22 -46 -37 -97 -53 -72 -23
-76 -23 -707 -23 -587 0 -640 1 -702 18 -43 12 -81 31 -105 52 l-38 33 -3 197
-4 198 49 -36 c26 -19 73 -43 103 -53z"/>
<path d="M2000 7695 l0 -65 -32 0 c-17 0 -81 16 -142 36 -90 29 -122 35 -171
32 -159 -10 -239 -129 -190 -280 18 -57 88 -177 129 -221 60 -65 210 -8 189
71 -3 12 -9 22 -14 22 -5 0 -12 0 -16 0 -5 0 -8 -10 -8 -23 0 -13 -7 -23 -19
-25 -12 -3 -16 0 -11 8 4 6 -3 22 -16 36 -18 20 -21 29 -13 42 17 26 53 27 80
1 31 -29 31 -12 -1 31 -29 39 -31 66 -9 98 19 28 34 28 63 0 21 -19 23 -27 18
-82 l-6 -61 16 32 c18 35 40 47 67 37 24 -9 19 -104 -6 -104 -11 0 -18 7 -18
20 0 23 -25 27 -34 5 -26 -68 103 -111 180 -60 33 21 31 37 -3 24 -33 -12 -44
2 -41 51 3 33 5 35 36 32 29 -2 33 0 30 20 -3 21 1 23 56 26 l58 3 -6 -26 c-6
-25 -6 -26 29 -19 l36 6 -3 -48 c-3 -51 -10 -56 -52 -39 -33 14 -13 -18 25
-38 70 -37 176 -1 167 56 -4 28 -25 33 -33 8 -3 -12 -14 -21 -23 -21 -14 0
-17 10 -17 46 0 75 50 88 81 22 15 -33 15 -32 9 25 -6 52 -4 62 16 83 27 29
40 30 62 6 24 -26 21 -61 -8 -104 -32 -47 -32 -58 -1 -29 47 44 117 3 72 -42
-9 -9 -16 -23 -16 -31 0 -9 -4 -16 -9 -16 -14 0 -26 23 -22 43 2 16 0 17 -19
7 -34 -18 -24 -69 19 -97 33 -22 91 -30 126 -17 20 8 94 112 128 179 77 156
42 283 -92 330 -69 24 -131 19 -248 -20 -58 -19 -121 -35 -139 -35 l-34 0 0
66 c0 57 -2 65 -17 62 -16 -3 -18 -20 -21 -161 l-3 -157 -69 0 -70 0 0 160 c0
153 -1 160 -20 160 -18 0 -20 -7 -20 -65z m-226 -55 c70 -22 93 -40 51 -40
-29 0 -91 -24 -115 -44 -8 -7 -36 -16 -62 -18 -54 -6 -102 -37 -125 -81 -15
-29 -17 -30 -24 -12 -12 32 -10 94 5 123 19 38 48 62 93 78 54 19 101 17 177
-6z m848 8 c22 -6 53 -28 73 -50 30 -33 35 -45 35 -87 0 -75 -8 -87 -34 -49
-31 45 -67 69 -116 75 -24 4 -68 19 -98 35 -30 15 -68 28 -85 28 -44 0 -23 17
49 40 69 22 121 25 176 8z m-650 -113 c16 -11 28 -30 28 -42 0 -24 -14 -31
-26 -12 -10 17 -76 41 -85 32 -5 -5 10 -23 36 -41 43 -31 54 -46 37 -56 -12
-7 -82 18 -82 30 0 7 -16 26 -36 44 -48 42 -89 39 -121 -9 -13 -19 -23 -46
-23 -61 0 -18 -10 -33 -30 -48 -35 -27 -38 -52 -11 -113 25 -55 17 -63 -20
-21 -39 44 -39 92 2 156 33 54 32 66 -6 46 -31 -16 -65 -69 -65 -99 0 -31 -17
-25 -25 9 -16 74 34 137 119 149 31 4 64 15 74 24 31 28 65 37 137 34 51 -2
77 -8 97 -22z m484 6 c23 -10 45 -24 48 -30 4 -6 23 -11 43 -11 76 0 133 -55
133 -127 0 -50 -15 -57 -28 -14 -12 40 -61 91 -88 91 -20 0 -18 -8 11 -41 40
-49 48 -96 24 -145 -11 -23 -27 -45 -35 -48 -16 -6 -15 1 8 70 14 41 4 77 -27
94 -18 10 -25 22 -25 44 0 16 -10 45 -22 63 -18 26 -30 33 -55 33 -33 0 -88
-38 -97 -68 -7 -20 -77 -45 -90 -32 -12 12 -2 24 49 58 25 17 42 33 37 36 -13
8 -78 -12 -92 -29 -17 -20 -30 -19 -30 3 0 19 34 55 60 65 35 13 136 6 176
-12z"/>
<path d="M1503 7223 c3 -10 15 -44 26 -75 12 -32 21 -67 21 -78 0 -32 27 -35
78 -7 124 67 286 92 544 84 202 -6 289 -22 407 -77 35 -17 68 -30 75 -30 6 0
17 26 25 58 7 31 20 70 28 85 8 16 13 35 11 44 -2 13 -70 -87 -81 -121 -2 -6
-17 -4 -38 4 -96 35 -117 42 -182 56 -244 51 -623 26 -777 -51 l-44 -22 -43
73 c-42 71 -61 93 -50 57z"/>
<path d="M1915 7029 c-88 -12 -205 -43 -255 -69 -46 -23 -80 -64 -80 -96 0
-32 42 -78 95 -103 66 -31 74 -26 19 12 -58 39 -84 79 -68 104 63 102 469 155
752 97 91 -18 196 -64 211 -93 17 -30 -5 -68 -64 -108 -32 -22 -41 -32 -25
-28 41 12 94 42 115 64 24 28 25 84 0 111 -30 33 -116 70 -216 91 -110 23
-375 33 -484 18z"/>
<path d="M1925 6934 c-83 -12 -174 -36 -203 -54 -28 -17 -33 -25 -30 -53 3
-27 10 -35 51 -55 165 -79 670 -65 765 21 51 47 12 92 -109 123 -62 15 -402
28 -474 18z m461 -58 c80 -19 115 -39 99 -55 -25 -25 -172 -52 -310 -58 -214
-9 -440 26 -440 67 0 18 77 45 167 59 98 15 400 7 484 -13z"/>
<path d="M572 4233 c1 -16 -7 -80 -17 -144 -17 -111 -17 -149 3 -149 5 0 40
28 78 63 37 34 74 61 81 61 22 -3 15 21 -15 49 -15 15 -31 27 -35 27 -12 0 -8
-28 6 -33 7 -3 -7 -24 -38 -56 -27 -28 -51 -48 -52 -44 -2 4 3 42 10 83 11 61
16 74 30 72 24 -4 21 12 -10 57 -33 48 -43 51 -41 14z"/>
<path d="M747 4053 c-4 -3 -2 -12 3 -18 13 -15 -67 -175 -87 -175 -27 0 -10
-27 47 -73 l58 -47 21 29 c24 33 13 49 -18 29 -18 -11 -24 -10 -42 8 -21 21
-21 22 -2 57 19 38 42 38 47 2 4 -29 21 -28 34 0 14 29 8 47 -12 39 -7 -3 -18
2 -25 10 -10 12 -9 21 4 45 18 36 26 38 49 12 11 -13 15 -27 11 -40 -10 -32
19 -26 34 6 10 22 10 29 -1 38 -8 5 -35 27 -60 48 -48 39 -51 41 -61 30z"/>
<path d="M934 3903 c10 -26 -64 -182 -86 -183 -35 0 -17 -26 45 -62 35 -21 67
-38 71 -38 4 0 16 10 26 23 13 16 15 26 8 35 -9 10 -15 9 -29 -4 -16 -14 -24
-15 -44 -6 -14 6 -25 16 -25 22 0 6 18 47 40 91 29 56 45 79 57 77 30 -5 23
17 -12 40 -42 27 -60 28 -51 5z"/>
<path d="M1096 3811 c-4 -5 -1 -11 5 -13 8 -3 3 -21 -13 -53 -36 -71 -51 -122
-44 -150 7 -28 63 -65 98 -65 34 0 81 50 110 116 13 30 28 54 35 54 29 0 20
21 -16 40 -28 14 -42 16 -47 9 -3 -6 -1 -15 6 -19 17 -10 -21 -107 -56 -145
-39 -42 -84 -28 -84 27 0 42 49 138 77 149 12 4 23 11 23 14 0 5 -75 45 -84
45 -3 0 -7 -4 -10 -9z"/>
<path d="M1321 3673 c-15 -32 3 -60 20 -30 10 17 44 23 53 9 2 -4 -13 -46 -34
-92 -27 -60 -43 -85 -56 -85 -35 0 -22 -20 26 -42 38 -16 50 -18 54 -8 2 7 -2
16 -9 19 -11 4 -5 25 27 93 22 48 42 90 44 92 11 12 33 -24 28 -45 -5 -18 -2
-24 10 -24 15 0 36 28 36 50 0 11 -154 90 -175 90 -7 0 -17 -12 -24 -27z"/>
<path d="M3450 4043 c-31 -11 -71 -58 -81 -95 -20 -77 35 -168 102 -168 70 0
119 53 119 130 0 100 -64 161 -140 133z m48 -39 c52 -36 70 -136 32 -174 -28
-28 -48 -25 -85 14 -51 55 -55 137 -8 165 25 14 35 14 61 -5z"/>
<path d="M3273 3916 c-35 -23 -44 -49 -16 -44 19 3 31 -45 32 -130 l1 -43 -55
62 c-38 43 -52 66 -45 73 13 13 13 26 0 26 -20 0 -91 -51 -84 -61 3 -6 9 -8
12 -4 3 3 43 -31 88 -76 112 -111 115 -109 109 72 -3 78 -6 143 -7 144 -2 1
-18 -7 -35 -19z"/>
<path d="M2985 3753 c-38 -19 -71 -36 -71 -37 -1 0 -7 -57 -14 -126 -6 -69
-16 -131 -22 -138 -19 -22 -1 -24 44 -3 39 18 41 20 21 26 -19 6 -23 15 -23
46 0 33 5 41 30 54 38 20 38 20 54 -17 9 -23 10 -37 3 -46 -22 -28 8 -24 82
13 78 38 79 38 69 66 -12 34 -41 40 -36 7 2 -16 -6 -27 -29 -40 l-32 -19 -15
30 c-9 16 -16 34 -16 40 0 12 58 32 62 21 2 -5 8 -6 15 -2 8 5 6 17 -7 42
l-18 35 -10 -26 c-9 -23 -30 -39 -51 -39 -6 0 -41 63 -41 75 0 3 14 12 32 21
27 14 33 14 42 2 6 -8 17 -13 23 -11 10 4 9 11 -2 34 -9 16 -17 29 -18 29 -1
-1 -33 -17 -72 -37z"/>
<path d="M1587 2813 c-3 -5 -22 -54 -43 -108 -20 -55 -43 -104 -50 -108 -27
-16 -13 -27 31 -27 33 0 45 4 45 15 0 8 -4 15 -10 15 -5 0 -10 9 -10 20 0 17
7 20 44 20 32 0 46 -5 51 -17 3 -10 1 -19 -4 -21 -6 -2 -11 -10 -11 -18 0 -10
13 -14 45 -14 32 0 45 4 45 14 0 8 -5 16 -11 18 -7 2 -29 51 -49 108 -34 97
-57 129 -73 103z"/>
<path d="M1760 2806 c0 -9 5 -16 10 -16 6 0 10 -38 10 -95 0 -57 -4 -95 -10
-95 -5 0 -10 -7 -10 -15 0 -11 12 -15 45 -15 33 0 45 4 45 15 0 8 -4 15 -10
15 -5 0 -10 16 -10 36 0 51 28 42 60 -19 22 -41 29 -47 58 -47 34 0 42 13 16
28 -8 4 -26 26 -39 48 -23 38 -23 39 -4 57 10 10 19 30 19 46 0 43 -28 61
-109 68 -62 5 -71 4 -71 -11z"/>
<path d="M2010 2806 c0 -9 7 -16 15 -16 12 0 15 -17 15 -94 0 -74 -3 -95 -15
-100 -8 -3 -15 -11 -15 -17 0 -20 144 -7 169 15 30 27 27 71 -4 92 l-26 17 21
19 c50 47 9 91 -91 96 -58 4 -69 2 -69 -12z"/>
<path d="M2311 2798 c-67 -46 -75 -157 -14 -205 34 -27 107 -31 141 -7 58 40
71 143 24 195 -39 43 -103 51 -151 17z m110 -24 c7 -9 15 -42 17 -74 4 -53 2
-61 -21 -84 -32 -32 -60 -33 -86 -5 -36 39 -36 122 1 166 15 18 73 16 89 -3z"/>
<path d="M2548 2814 c-13 -12 -9 -24 7 -24 12 0 15 -17 15 -94 0 -74 -3 -95
-15 -100 -32 -12 -13 -26 35 -26 48 0 67 14 35 26 -9 4 -15 19 -15 40 0 27 4
34 19 34 14 0 26 -15 42 -50 20 -45 26 -50 56 -50 23 0 33 5 33 15 0 8 -6 15
-14 15 -8 0 -26 20 -39 45 -14 25 -22 45 -17 45 5 0 16 13 25 29 17 35 7 74
-22 85 -29 11 -137 19 -145 10z"/>
<path d="M16141 7948 c-10 -24 -29 -74 -42 -111 -24 -67 -24 -69 -5 -83 27
-19 28 -19 52 29 14 29 34 50 65 67 40 22 55 24 171 25 69 0 130 -4 135 -8 10
-11 11 -802 0 -839 -8 -30 -41 -43 -134 -54 -40 -5 -53 -11 -53 -23 0 -35 12
-37 287 -36 l273 0 0 27 c0 29 -2 30 -81 43 -19 3 -43 11 -53 18 -30 22 -38
140 -34 509 3 296 5 350 18 359 9 6 65 9 140 6 154 -5 182 -16 213 -88 12 -26
24 -48 27 -48 3 0 14 6 24 14 19 14 19 19 7 78 -33 162 -31 157 -55 157 -12 0
-28 -6 -34 -12 -10 -10 -107 -14 -400 -16 -327 -2 -394 -1 -434 13 -65 21 -66
20 -87 -27z"/>
<path d="M9307 7965 c-14 -36 -8 -42 51 -49 72 -8 98 -26 112 -74 6 -22 10
-161 10 -336 l0 -300 -42 45 c-128 134 -504 527 -585 610 l-93 96 -140 6 -140
6 0 -27 c0 -25 6 -30 62 -47 81 -26 97 -48 108 -156 10 -103 -5 -674 -19 -711
-12 -32 -31 -43 -88 -53 -38 -6 -43 -10 -43 -34 l0 -27 223 2 222 2 3 25 c3
23 -1 26 -55 37 -32 7 -73 19 -92 28 -56 26 -61 52 -60 309 1 125 4 261 8 301
l6 74 49 -54 c28 -29 113 -118 191 -198 77 -80 225 -234 329 -342 155 -162
194 -198 216 -198 l28 0 4 458 c4 330 9 466 18 490 14 37 54 62 100 62 27 0
30 3 30 30 l0 30 -137 0 c-76 0 -168 3 -204 6 -56 6 -67 4 -72 -11z"/>
<path d="M14710 7969 c-111 -19 -200 -76 -248 -158 -24 -40 -27 -56 -27 -131
0 -159 40 -197 349 -331 144 -62 196 -115 196 -201 0 -47 -35 -110 -77 -138
-32 -22 -47 -25 -117 -25 -87 1 -142 19 -219 72 -42 29 -81 89 -92 141 -6 28
-11 32 -37 32 -26 0 -30 -3 -25 -22 23 -101 37 -189 37 -238 0 -54 2 -58 25
-62 14 -3 30 1 36 8 15 18 42 17 103 -1 56 -17 190 -19 255 -4 170 39 286 178
267 322 -13 91 -61 160 -156 219 -60 37 -75 44 -197 94 -154 63 -203 109 -203
193 0 58 32 113 84 142 60 34 162 33 232 -3 73 -38 110 -83 138 -170 3 -10 15
-18 28 -18 23 0 23 1 23 134 0 123 -2 135 -19 140 -10 3 -26 0 -36 -6 -13 -9
-32 -9 -72 0 -78 17 -186 22 -248 11z"/>
<path d="M19860 7962 c-97 -27 -166 -69 -246 -147 -120 -118 -171 -248 -161
-410 9 -145 59 -259 157 -356 106 -104 224 -152 375 -153 184 0 346 81 457
229 57 76 72 105 93 185 22 84 16 231 -13 312 -54 150 -181 277 -330 330 -83
29 -246 34 -332 10z m229 -97 c114 -51 215 -187 257 -345 25 -97 24 -249 -4
-320 -31 -79 -88 -148 -152 -184 -50 -28 -63 -31 -140 -31 -73 0 -93 4 -143
28 -161 80 -268 279 -269 502 0 77 4 113 21 159 69 193 248 272 430 191z"/>
<path d="M7253 7963 l-153 -4 0 -29 c0 -29 2 -30 46 -30 25 0 54 -4 64 -10 35
-18 42 -102 38 -424 -3 -275 -1 -306 16 -356 26 -75 101 -149 181 -179 199
-75 491 -40 590 70 90 100 113 207 124 574 5 149 11 277 15 287 8 19 47 36 91
40 24 2 31 8 33 31 l3 27 -206 0 -206 0 3 -27 c3 -26 7 -28 63 -34 73 -8 89
-25 104 -112 13 -77 14 -394 1 -494 -20 -154 -72 -239 -174 -284 -41 -18 -70
-23 -151 -23 -117 -1 -161 12 -218 63 -77 70 -81 88 -85 409 -5 390 5 427 120
440 51 7 53 8 53 37 l0 30 -100 0 c-55 1 -169 -1 -252 -2z"/>
<path d="M9922 7939 c3 -33 4 -34 58 -40 64 -7 95 -21 111 -51 25 -47 38 -552
19 -721 -6 -48 -16 -97 -23 -107 -14 -23 -59 -40 -131 -49 -45 -5 -51 -9 -54
-31 l-3 -25 289 -1 288 -2 -4 28 c-4 27 -6 28 -73 32 -38 2 -74 9 -81 16 -7 7
-16 45 -20 85 -9 98 -9 492 1 651 8 124 10 131 35 153 22 18 39 23 87 23 59 0
59 0 59 30 l0 30 -234 0 c-128 0 -254 3 -280 6 l-47 7 3 -34z"/>
<path d="M10630 7943 c0 -27 3 -30 60 -41 43 -9 68 -21 91 -45 39 -38 372
-707 449 -902 23 -57 33 -71 53 -73 22 -3 26 4 51 75 15 43 114 251 219 462
211 424 229 449 316 472 46 12 51 15 51 41 l0 28 -205 0 -205 0 0 -30 c0 -28
3 -30 35 -30 47 0 84 -19 91 -47 9 -33 -23 -115 -115 -301 -43 -86 -102 -208
-131 -270 -29 -62 -57 -109 -61 -105 -40 42 -327 682 -314 703 3 4 30 11 60
15 53 6 55 8 55 36 l0 29 -227 0 c-126 0 -238 3 -250 6 -20 6 -23 3 -23 -23z"/>
<path d="M12064 7961 c-2 -2 -4 -14 -4 -27 0 -18 7 -23 44 -28 24 -4 50 -13
56 -21 17 -21 29 -178 30 -380 0 -176 -14 -443 -26 -489 -6 -26 -33 -41 -88
-51 -32 -6 -36 -11 -36 -37 l0 -29 48 8 c26 4 217 7 424 7 l377 -2 15 32 c42
89 73 226 53 238 -24 15 -37 7 -58 -37 -26 -56 -86 -108 -148 -131 -101 -36
-360 -28 -375 13 -4 9 -9 98 -13 198 l-6 182 24 6 c38 11 250 8 291 -3 43 -12
74 -47 88 -101 9 -32 15 -39 35 -39 l25 0 0 171 0 170 -26 -3 c-20 -2 -29 -12
-39 -42 -8 -21 -18 -43 -23 -48 -14 -14 -133 -27 -253 -28 l-106 0 -6 77 c-5
73 8 301 18 311 3 3 75 7 160 10 218 7 275 -17 275 -114 0 -37 3 -43 26 -48
15 -4 28 -5 30 -3 4 4 34 200 34 224 0 17 -26 18 -421 18 -231 0 -423 -2 -425
-4z"/>
<path d="M13197 7940 c-7 -34 -1 -40 39 -40 48 0 69 -13 85 -52 20 -48 21
-817 0 -841 -7 -9 -40 -26 -72 -38 -52 -19 -59 -24 -53 -43 4 -12 7 -22 8 -22
0 -1 55 3 121 8 112 8 209 5 313 -9 43 -5 44 -5 40 22 -3 24 -12 30 -67 50
-35 13 -68 28 -75 35 -7 7 -12 77 -14 200 l-4 190 61 0 60 0 42 -62 c137 -204
283 -354 401 -413 62 -30 90 -38 157 -42 81 -6 81 -6 81 19 0 21 -8 27 -52 41
-89 28 -176 117 -351 358 -42 59 -77 111 -77 116 0 5 21 19 47 32 143 69 202
188 161 323 -17 59 -79 122 -156 160 l-67 33 -312 0 -312 0 -4 -25z m520 -56
c93 -31 152 -114 153 -212 0 -68 -21 -113 -68 -145 -51 -35 -103 -47 -200 -47
l-84 0 4 189 c3 169 5 191 22 210 24 26 103 29 173 5z"/>
<path d="M15360 7942 c0 -34 2 -35 84 -46 55 -7 83 -30 97 -78 19 -64 19 -719
0 -771 -15 -45 -50 -64 -139 -75 -51 -6 -57 -10 -60 -32 l-3 -25 288 -1 288
-1 0 28 c0 28 -1 29 -55 29 -78 0 -97 8 -112 43 -19 46 -16 764 3 822 17 48
46 65 117 65 51 0 52 0 52 30 l0 30 -234 0 c-128 0 -254 3 -280 6 l-46 7 0
-31z"/>
<path d="M18040 7939 c0 -24 4 -27 48 -34 117 -17 115 -28 -51 -284 l-81 -123
-23 28 c-136 166 -261 349 -249 361 4 4 33 9 66 11 58 4 60 5 60 33 l0 29
-250 0 -250 0 0 -25 c0 -20 6 -25 38 -30 20 -3 51 -13 69 -22 33 -16 171 -174
318 -363 l90 -115 3 -192 4 -192 -30 -31 c-25 -24 -39 -30 -75 -30 -40 0 -45
-3 -49 -25 -3 -14 -2 -28 3 -31 4 -2 68 -1 141 4 73 5 179 7 236 4 l102 -4 0
25 c0 23 -5 26 -61 36 -34 6 -67 15 -74 21 -16 13 -28 250 -19 365 l7 85 119
182 c160 245 180 266 272 277 48 6 51 8 54 36 l3 30 -211 1 -210 0 0 -27z"/>
<path d="M20813 7962 c-38 -3 -43 -6 -43 -28 0 -19 5 -24 24 -24 38 0 86 -21
99 -44 16 -27 22 -570 9 -732 -11 -129 -19 -144 -82 -163 -22 -6 -40 -16 -40
-21 0 -4 -2 -15 -5 -22 -5 -12 35 -15 255 -15 l260 0 0 27 c0 26 -3 28 -57 35
-79 10 -121 29 -133 60 -6 15 -10 104 -10 199 l0 173 58 7 c60 6 238 -16 272
-34 11 -6 25 -28 31 -50 10 -31 17 -40 35 -40 12 0 25 7 28 16 3 9 6 78 6 155
l0 139 -30 0 c-20 0 -30 -5 -30 -15 0 -9 -7 -29 -15 -45 -22 -42 -67 -52 -220
-48 l-130 3 4 190 c2 105 5 192 8 195 3 3 59 5 126 5 190 -1 273 -36 292 -125
5 -25 12 -30 34 -30 27 0 28 2 34 68 4 37 7 90 7 117 l0 50 -372 0 c-205 0
-392 -1 -415 -3z"/>
<path d="M5087 5736 c-48 -128 -87 -236 -87 -240 0 -7 60 -46 71 -46 4 0 14
20 23 44 23 61 76 131 124 167 95 70 255 95 548 86 105 -4 197 -9 206 -12 20
-8 25 -52 39 -380 13 -291 6 -1168 -11 -1422 -9 -151 -19 -184 -61 -215 -34
-25 -151 -56 -269 -70 -52 -6 -96 -12 -98 -14 -2 -1 0 -23 4 -49 l7 -47 59 6
c131 15 709 25 917 15 118 -5 215 -8 216 -7 1 2 5 24 8 49 l6 45 -109 17
c-141 21 -203 47 -225 94 -39 81 -65 378 -65 742 0 241 20 1154 26 1198 8 51
39 56 345 50 316 -6 380 -19 451 -94 25 -26 98 -169 98 -192 0 -16 8 -14 46
10 19 11 34 26 34 32 -1 7 -22 113 -48 237 -47 225 -47 225 -75 228 -15 2 -39
-5 -55 -16 -65 -47 -67 -47 -957 -47 -462 0 -866 4 -897 8 -33 5 -73 19 -93
33 -20 13 -48 24 -64 24 -27 0 -30 -5 -114 -234z"/>
<path d="M18889 5943 c-6 -16 -33 -86 -59 -158 -26 -71 -62 -167 -79 -212
l-30 -82 35 -20 c19 -12 37 -21 39 -21 2 0 18 30 36 67 58 123 142 183 299
216 61 13 492 16 551 4 l37 -8 8 -147 c13 -217 10 -1596 -4 -1714 -12 -109
-26 -138 -80 -164 -48 -22 -176 -51 -269 -60 -40 -3 -75 -9 -76 -13 -2 -3 0
-26 6 -50 l9 -44 66 7 c144 15 693 24 901 15 237 -10 231 -11 231 51 l0 36
-106 17 c-116 18 -206 53 -224 86 -18 35 -38 155 -50 311 -25 313 -5 1639 26
1670 12 12 57 16 247 18 312 4 433 -14 515 -76 33 -25 78 -102 101 -174 7 -21
16 -40 21 -43 16 -10 81 36 76 54 -3 9 -23 105 -46 214 -54 268 -47 247 -81
247 -17 0 -42 -9 -58 -21 -15 -11 -45 -25 -67 -31 -53 -14 -1428 -23 -1649
-10 -128 7 -179 14 -207 28 -21 10 -38 21 -38 26 0 4 -16 8 -35 8 -29 0 -37
-5 -46 -27z"/>
<path d="M8677 5949 c-324 -34 -664 -237 -861 -514 -102 -143 -179 -320 -210
-484 -20 -107 -21 -312 -1 -427 91 -517 452 -896 944 -990 115 -22 319 -22
436 0 250 48 478 170 664 355 263 261 397 621 362 965 -32 306 -147 553 -355
760 -193 193 -439 306 -730 335 -120 12 -135 12 -249 0z m175 -164 c158 -33
348 -153 460 -292 83 -102 115 -153 173 -276 104 -217 148 -415 149 -672 1
-210 -17 -296 -99 -460 -60 -121 -125 -203 -219 -279 -117 -94 -237 -135 -399
-136 -506 -1 -909 503 -953 1192 -15 247 60 516 190 680 94 117 234 209 373
242 78 19 235 19 325 1z"/>
<path d="M14037 5950 c-308 -35 -620 -210 -821 -462 -109 -135 -185 -285 -233
-453 -34 -123 -43 -365 -19 -509 88 -517 451 -898 945 -992 102 -20 305 -22
406 -5 349 59 681 278 868 573 86 135 153 308 178 455 19 113 14 313 -10 430
-103 496 -464 856 -952 947 -100 19 -267 26 -362 16z m194 -171 c425 -106 735
-586 766 -1185 7 -143 -7 -251 -48 -379 -88 -273 -284 -472 -520 -530 -85 -21
-261 -16 -354 9 -393 109 -690 544 -746 1096 -49 490 172 892 543 990 103 27
249 26 359 -1z"/>
<path d="M22347 5950 c-262 -30 -524 -158 -722 -354 -111 -111 -169 -190 -236
-322 -96 -189 -129 -328 -129 -540 0 -592 382 -1080 935 -1195 127 -27 332
-29 455 -5 404 77 748 344 925 718 80 170 123 386 110 563 -42 573 -433 1022
-978 1119 -109 20 -264 26 -360 16z m178 -165 c377 -95 656 -449 757 -957 32
-162 32 -415 1 -540 -24 -93 -91 -245 -141 -317 -51 -75 -159 -176 -235 -219
-212 -121 -494 -108 -730 34 -78 48 -240 208 -296 294 -138 211 -218 455 -243
737 -42 475 180 867 544 963 92 24 259 26 343 5z"/>
<path d="M11100 5919 c-218 -19 -391 -19 -597 -3 l-73 6 0 -49 0 -50 63 -7
c171 -17 213 -60 243 -246 20 -118 30 -1188 15 -1505 -12 -260 -18 -296 -56
-335 -37 -39 -126 -84 -207 -105 -65 -17 -67 -19 -62 -44 4 -14 10 -30 14 -34
4 -5 129 -1 277 8 277 16 443 12 665 -16 49 -7 91 -9 94 -7 2 3 2 23 -2 45
l-6 39 -101 32 c-136 43 -198 78 -219 122 -28 58 -38 211 -38 570 l0 340 153
-6 c117 -5 154 -10 162 -21 6 -8 50 -76 99 -151 150 -231 336 -468 487 -622
272 -277 504 -392 814 -402 l80 -3 3 42 3 41 -49 11 c-218 46 -401 213 -726
665 -146 202 -338 478 -334 481 2 1 29 12 61 24 174 64 309 166 391 294 9 16
29 59 44 95 23 59 26 81 26 182 -1 94 -5 127 -24 180 -68 191 -236 338 -460
403 -177 51 -360 58 -740 26z m460 -134 c201 -62 333 -209 377 -422 13 -65 14
-91 5 -157 -29 -201 -148 -324 -363 -376 -69 -16 -118 -20 -270 -20 -141 0
-188 3 -191 13 -9 28 10 844 21 878 17 56 47 87 94 98 60 15 261 6 327 -14z"/>
<path d="M17554 5922 c-8 -7 -14 -19 -14 -25 0 -7 -3 -21 -6 -33 -5 -20 -1
-21 81 -28 168 -12 236 -61 270 -191 26 -99 36 -446 29 -976 l-7 -486 -146
156 c-80 85 -216 230 -302 321 -166 176 -558 594 -773 825 -120 129 -184 197
-338 359 l-56 59 -248 2 c-137 1 -270 6 -296 10 l-48 8 0 -51 0 -51 58 -11
c177 -37 247 -96 283 -240 18 -72 19 -1424 1 -1625 -20 -227 -36 -250 -185
-285 -137 -31 -127 -25 -127 -77 l0 -45 73 6 c265 21 487 26 684 16 114 -7
211 -14 216 -17 4 -3 7 19 5 48 l-3 52 -105 23 c-149 33 -217 61 -266 108 -76
74 -74 53 -72 868 l3 717 250 -266 c138 -147 295 -314 350 -372 56 -58 136
-144 180 -191 43 -47 118 -125 165 -175 195 -204 579 -611 695 -736 l80 -87
60 -1 60 -1 0 1067 0 1068 25 44 c38 66 146 111 265 111 l45 0 0 45 0 45 -222
0 c-122 0 -272 4 -332 10 -192 17 -317 18 -332 2z"/>
</g>
</svg>
