<svg id="Layer_1" data-name="Layer 1" xmlns="http://www.w3.org/2000/svg" viewBox="0 0 1562.05 410.14"><title>3dPrint</title><path d="M591,674.91v3c-.83,13.94-7.41,24.59-18.72,32.45a46.74,46.74,0,0,1-26.62,8.81c-14.5.14-29,0-43.49,0-88.29,0-176.59.16-264.89-.11-20.13-.06-34.7-10.15-43.78-28-2.78-5.49-2.92-11.64-2.93-17.58q-.15-141.69-.09-283.38c0-19.09,9.43-32,25.87-40.49,5.65-2.91,11.94-3.11,18-3.12q156.67-.17,313.37-.12c18,0,30.49,8.76,39.4,23.68,3.11,5.2,2.56,11.24,3.84,16.86v2c-.94,1.73-.48,3.6-.48,5.39q0,137.61,0,275.22C590.52,671.31,590.06,673.18,591,674.91Z" transform="translate(-189.93 -345.83)" style="fill:#0f6a78"/><path d="M591,386.91c-1.62-1.67-1.29-4-1.86-6a47,47,0,0,0-44.93-34q-153.25,0-306.5,0A46.71,46.71,0,0,0,191,393.73q0,138.25,0,276.5a46.71,46.71,0,0,0,45.25,46.68c11.66.34,23.34.12,35,.12h268c27.24,0,42.94-11.77,50.81-38.07.12-.4.59-.71.9-1.06,0,25,0,50,.07,75,0,2.5-.57,3.08-3.07,3.07-22.67-.12-45.33-.07-68-.07a1.72,1.72,0,0,1-.28-1.59,4.56,4.56,0,0,1,1.9-2.25c8.17-5.28,7.51-13.44,6.86-21.5-.25-3.1-2.82-3.32-5.24-3.34-8.33-.1-16.66,0-25,0-11.83,0-23.66-.07-35.48,0-5.63,0-5.89.87-6.58,6.34-1.11,8.9,2.36,15.46,9.09,20.75a1.74,1.74,0,0,1-.28,1.6H317a1.72,1.72,0,0,1-.28-1.59,2.54,2.54,0,0,1,.77-1.25c7.75-4.81,8.84-12.19,8.28-20.44-.26-3.72-1.65-5.45-5.43-5.44-6.15,0-12.29,0-18.43,0-14,0-27.9-.06-41.85,0-6,0-6.2.79-6.87,6.53-1,8.82,2.17,15.43,9.09,20.57a1.74,1.74,0,0,1-.28,1.6c-23,0-46,0-69,.06-2.41,0-3.11-.43-3.11-3q.12-201.88,0-403.78c0-2.75.51-3.34,3.31-3.34q197.39.14,394.78,0c2.56,0,3.07.64,3,3.09C590.93,361.59,591,374.25,591,386.91Z" transform="translate(-189.93 -345.83)" style="fill:#fefefe"/><path d="M591,674.91c-1.52-1.71-1-3.8-1-5.74q0-137.26,0-274.53c0-1.93-.54-4,1-5.73Z" transform="translate(-189.93 -345.83)" style="fill:#33808b"/><path d="M317.13,755a.94.94,0,0,0-.13.94H262a2.58,2.58,0,0,0-.22-.9c1.23-2.38,3.55-2.28,5.67-2.31q22-.3,44,0C313.55,752.73,315.87,752.62,317.13,755Z" transform="translate(-189.93 -345.83)" style="fill:#1d7380"/><path d="M520.18,755a1.47,1.47,0,0,0-.18.92H465a1.47,1.47,0,0,0-.18-.92c1.25-2.37,3.56-2.26,5.69-2.29q22-.3,44,0C516.62,752.73,518.93,752.62,520.18,755Z" transform="translate(-189.93 -345.83)" style="fill:#1d7380"/><path d="M390.59,691h-150c-15.37,0-23.65-8.34-23.65-23.83,0-62.16.07-124.33-.13-186.5,0-5,1.45-5.86,6.08-5.83,39.33.19,78.66.13,118,0,1.69,0,4.59,1.43,5-1.4.47-3.19,1.06-6.75-.41-9.77-.69-1.41-3.1-.58-4.71-.58-39.5,0-79-.1-118.5.08-4.39,0-5.5-1-5.44-5.43.26-20.83.09-41.67.12-62.5,0-13.65,8.83-22.43,22.55-22.43q125.25,0,250.5-.11c4.47,0,5.39.94,3.93,5.13-4,11.49-11.91,22.4-29.5,20.2a121.55,121.55,0,0,1-40.29-12.52,46.3,46.3,0,0,0-13.05-4.83c-13.27-2.28-23.79,5.14-26.12,18.42-1,5.8-.79,11.6-.52,17.44.13,2.61,1,3.58,3.6,3.22a13.67,13.67,0,0,1,3.5,0c3.6.42,5-.73,4.66-4.69-.48-4.94-.74-10,.58-14.91,1.72-6.45,6.3-9.31,12.77-7.86a41.59,41.59,0,0,1,9.72,3.86,139.59,139.59,0,0,0,42.13,13.31c26.34,4.12,40.12-13.21,44.31-31.15,1-4.49,2.53-5.8,7.06-5.64,10.31.39,20.66,0,31,.14A21,21,0,0,1,565,394.18c.09,21.5-.11,43,.13,64.5,0,4-1.33,4.52-4.81,4.51q-59.49-.18-119,0c-1.62,0-4.28-1.09-4.63,1.4-.45,3.22-1.06,6.76.4,9.79.68,1.42,3.08.58,4.69.58,39.33,0,78.67.12,118-.1,4.6,0,5.35,1.31,5.34,5.55q-.23,93.5-.1,187c0,15.33-8.39,23.63-23.88,23.63Z" transform="translate(-189.93 -345.83)" style="fill:#fefefe"/><path d="M317.13,755l-55.35,0c-6.48-1.84-10.06-6.41-10.87-12.8-.6-4.75-.14-9.62-.28-14.44-.07-2.33,1.14-2.7,3.1-2.7q35.64.06,71.29,0c2.3,0,3.31.61,3.21,3.07-.17,4.32.21,8.67-.19,13C327.41,747.93,324,752.87,317.13,755Z" transform="translate(-189.93 -345.83)" style="fill:#0f6a78"/><path d="M520.18,755H464.82c-6.48-1.86-10-6.46-10.82-12.84-.61-4.75-.17-9.62-.33-14.44-.08-2.4,1.24-2.64,3.14-2.63q35.64,0,71.28,0c2.37,0,3.25.73,3.16,3.13-.15,4.32.25,8.67-.13,12.95C530.51,748,527,752.9,520.18,755Z" transform="translate(-189.93 -345.83)" style="fill:#0f6a78"/><path d="M429,470c0,9,0,18,0,27-.07,11.39-7.66,19.85-19,20.27-12.13.44-24.3.44-36.43,0-11-.41-18.67-8.24-18.87-19.33q-.51-28.2,0-56.4c.22-11.74,8.51-19.48,20.2-19.63q17-.24,34,0c12,.18,20.12,8.58,20.18,20.7C429.07,451.7,429,460.85,429,470Z" transform="translate(-189.93 -345.83)" style="fill:#0f6a78"/><path d="M346,607.91c0-7.33.12-14.66-.05-22-.1-4.16,1.46-6.92,5.25-8.73q18-8.6,35.9-17.42a8.57,8.57,0,0,1,8.11,0q18.38,9,36.81,17.86a7.12,7.12,0,0,1,4.45,7.08c0,15.48.11,31,.14,46.45a7.56,7.56,0,0,1-4.75,7.51q-18.6,8.51-37.14,17.16a8,8,0,0,1-7.16-.14q-18.35-8.49-36.71-16.92a7.7,7.7,0,0,1-4.9-7.88C346.09,623.23,346,615.57,346,607.91Z" transform="translate(-189.93 -345.83)" style="fill:#0f6a78"/><path d="M390.93,677.9H297a26.62,26.62,0,0,1-5-.18c-3.53-.7-5.62-3-5.63-6.61a6.15,6.15,0,0,1,5.17-6.44,22.76,22.76,0,0,1,5-.4q94.41,0,188.84,0a22.07,22.07,0,0,1,4.95.4,6.11,6.11,0,0,1,5.14,6.45c0,3.66-2.11,5.9-5.62,6.6a25.8,25.8,0,0,1-5,.18Z" transform="translate(-189.93 -345.83)" style="fill:#106a78"/><path d="M391.71,520.25c3.5,0,7,.13,10.49,0,2.64-.13,3.72.41,2.73,3.32-1.76,5.19-3.1,10.52-4.93,15.68-1.35,3.82-3.83,6.68-8.38,6.6-4.33-.08-6.64-2.86-7.88-6.52-1.88-5.5-3.36-11.13-5.21-16.64-.86-2.55.61-2.39,2.2-2.39Z" transform="translate(-189.93 -345.83)" style="fill:#106a78"/><path d="M394.19,648.82c0-14.63,0-28.45,0-42.27,0-1.87.48-3,2.31-3.87q15.68-7.12,31.25-14.47c2.27-1.07,2.85-.5,2.84,1.9-.07,13.16-.05,26.31,0,39.47a3.36,3.36,0,0,1-2.14,3.52C417.23,638.18,406.09,643.34,394.19,648.82Z" transform="translate(-189.93 -345.83)" style="fill:#fefefe"/><path d="M388.13,648.87l-34.49-16a2.66,2.66,0,0,1-1.62-2.77c0-14.11,0-28.22,0-43.08,11.89,5.49,23.17,10.71,34.48,15.89a2.65,2.65,0,0,1,1.61,2.78C388.13,619.8,388.13,633.92,388.13,648.87Z" transform="translate(-189.93 -345.83)" style="fill:#fefefe"/><text transform="translate(471.05 256.48)" style="font-size:200px;font-family:OpenSans-Regular, Open Sans">3D Printing</text><text transform="translate(471.05 256.48)" style="font-size:200px;fill:#0f6a78;font-family:OpenSans-Regular, Open Sans">3D Printing</text></svg>