<?xml version="1.0" encoding="utf-8"?>
<!-- Generator: Adobe Illustrator 19.0.0, SVG Export Plug-In . SVG Version: 6.00 Build 0)  -->
<svg version="1.1" id="Layer_1" xmlns="http://www.w3.org/2000/svg" xmlns:xlink="http://www.w3.org/1999/xlink" x="0px" y="0px"
	 viewBox="57.1 362.7 278.8 67.2" style="enable-background:new 57.1 362.7 278.8 67.2;" xml:space="preserve">
<style type="text/css">
	.st0{fill:#333333;}
	.st1{fill:#FECC08;}
</style>
<g id="XMLID_70_">
	<path id="XMLID_78_" class="st0" d="M74.2,428.6c-5.7,0-11.4,0-17.1,0c8.1-21.6,16.2-43.2,24.3-64.8c6.9,0,13.9,0,20.9,0
		c7.7,20.4,15.3,40.9,23,61.3c0,0,0.1,0,0.1,0c0-20.4,0-40.8,0-61.3c8,0,16,0,24,0c6.9,16,13.7,32.1,20.6,48.1c0,0,0.1,0,0.1,0
		c0-16,0-32,0-48.1c5.2,0,10.3,0,15.4,0c0,21.5,0,43.1,0,64.7c-7.9,0-15.7,0-23.7,0c-6.9-16.5-13.9-33-20.8-49.5c0,0-0.1,0-0.1,0
		c0,16.5,0,33,0,49.5c-11.2,0-22.4,0-33.6,0c-5.4-17.2-10.8-34.5-16.3-51.8c0,0-0.1,0-0.1,0C85.3,394,79.8,411.3,74.2,428.6z"/>
	<path id="XMLID_77_" class="st1" d="M194.8,429.8c-0.7,0-1.4,0-2.1,0c-1-6.8-1.9-13.7-2.9-20.6c0.7,0,1.4,0,2.2,0
		c0.4,0.9,0.8,1.8,1.2,2.6c1.6,3.7,3.7,7.2,6.8,9.9c2.9,2.6,6.3,4.2,10.2,4.5c2.5,0.2,5,0,7.3-1.1c2-0.9,3.6-2.3,4.6-4.2
		c2-3.7,2.1-7.4,0.2-11.2c-0.9-1.8-2.4-3.2-3.9-4.4c-3.5-2.9-7.5-5.2-11.4-7.6c-3.1-1.8-6.2-3.7-8.9-6.1c-2.6-2.4-4.5-5.2-5.1-8.7
		c-1-5.3-0.3-10.3,3.3-14.5c2.4-2.8,5.5-4.4,9.1-5.3c4.3-1.1,8.4-0.5,12.5,1c1.6,0.6,3.1,1.2,4.8,1.6c2.2,0.5,3.7-0.4,4.3-2.6
		c0-0.2,0.1-0.3,0.2-0.5c0.6,0,1.3,0,2,0c0.7,6.9,1.4,13.7,2.1,20.6c-0.8,0-1.6,0-2.4,0c-0.3-1.3-0.7-2.7-1.2-4
		c-1.8-4.4-4.5-8.2-8.7-10.6c-3.8-2.1-7.8-2.9-12-1.5c-4.2,1.4-6.6,5.3-5.9,9.8c0.4,2.7,1.8,4.7,3.7,6.5c2.3,2.3,5.1,4,7.9,5.7
		c3.4,2.1,7,4,10.3,6.3c2.9,2,5.5,4.2,7.5,7.1c2.4,3.4,3.4,7.3,2.9,11.4c-0.5,4.2-2.4,7.7-5.5,10.5c-2.2,2-4.8,3.4-7.6,4.2
		c-2.9,0.9-5.9,1.1-8.9,0.9c-3-0.2-5.9-1-8.7-2c-1.3-0.5-2.6-1-3.9-1.2c-2.2-0.4-3.5,0.6-3.9,2.8
		C194.8,429.6,194.8,429.6,194.8,429.8z"/>
	<path id="XMLID_76_" class="st1" d="M329.5,362.7c0.7,0,1.3,0,2,0c0.7,6.9,1.4,13.7,2.1,20.7c-0.8,0-1.6,0-2.4,0
		c-0.3-1-0.5-2-0.9-3c-1.2-3.4-3-6.5-5.7-9.1c-3.5-3.3-7.8-5-12.6-4.6c-3.5,0.3-6.4,1.8-7.9,5.2c-1.4,3.1-1,6.1,0.8,9
		c1.3,2.2,3.3,3.8,5.3,5.2c3.2,2.3,6.7,4.2,10,6.2c3.8,2.3,7.5,4.6,10.5,7.8c2.5,2.6,4.3,5.6,4.8,9.2c0.7,4.9-0.4,9.4-3.5,13.2
		c-3,3.7-6.9,5.7-11.5,6.6c-2.3,0.5-4.6,0.6-6.9,0.4c-2.9-0.2-5.6-0.9-8.3-1.9c-1.4-0.5-2.8-1.1-4.3-1.3c-2.1-0.4-3.5,0.7-3.9,2.8
		c0,0.1,0,0.1,0,0.3c-0.7,0-1.3,0-2.1,0c-1-6.8-1.9-13.7-2.9-20.6c0.7,0,1.4,0,2.2,0c0.4,1,0.8,2,1.3,3c1.7,3.8,3.9,7.2,7,9.9
		c2.9,2.5,6.1,3.9,9.9,4.2c2.4,0.2,4.8,0,7-1c3.4-1.5,5.4-4.1,6.2-7.7c0.5-2.6,0.3-5.1-0.8-7.5c-0.8-1.7-2.1-3-3.5-4.2
		c-3.9-3.3-8.3-5.9-12.6-8.5c-3-1.8-5.9-3.6-8.5-5.9c-3.8-3.5-5.5-7.8-5.3-12.9c0.1-2.5,0.6-4.8,1.7-7c1.3-2.7,3.3-4.7,5.9-6.3
		c2.7-1.6,5.6-2.4,8.7-2.6c3.2-0.2,6.2,0.5,9.1,1.5c1.4,0.5,2.8,1.1,4.3,1.5c1.3,0.4,2.5,0.4,3.6-0.5
		C329.1,364.6,329.4,363.7,329.5,362.7z"/>
	<path id="XMLID_75_" class="st1" d="M279.9,426.7c0,0.7,0,1.2,0,1.8c-9.9,0-19.8,0-29.7,0c0-0.6,0-1.2,0-1.8c1-0.1,2,0,2.9-0.1
		c1.1-0.1,2.2-0.3,3.3-0.6c2.1-0.7,3.1-2.2,3.3-4.3c0.2-1.2,0.2-2.4,0.2-3.6c0-6,0-12,0-18c-1.4-2-2.7-4-4.1-6
		c-1.8-2.7-3.6-5.3-5.4-8c-3.1-4.6-6.1-9.2-9.5-13.6c-1.4-1.8-2.8-3.6-4.6-4.9c-1.1-0.8-2.4-1.3-3.7-1.4c-0.3,0-0.7-0.1-1.1-0.1
		c0-0.6,0-1.2,0-1.8c9.1,0,18.1,0,27.2,0c0,0.6,0,1.2,0,1.7c-1.2,0.1-2.3,0.2-3.5,0.3c-0.6,0.1-1.3,0.2-1.9,0.4
		c-1.2,0.4-1.8,1.6-1.5,2.9c0.3,1.4,0.9,2.6,1.7,3.8c3.4,5,6.7,10.1,10.1,15.1c1.3,2,2.6,3.9,3.9,5.9c0.1,0.1,0.2,0.3,0.4,0.4
		c0.4-0.4,0.6-0.9,0.9-1.3c2.6-4.1,5.2-8.2,7.8-12.4c1.9-3,3.8-6.1,5.7-9.1c0.5-0.8,0.8-1.8,0.8-2.8c0-1-0.5-1.8-1.4-2.3
		c-1.2-0.7-2.6-0.7-4-0.8c-0.4,0-0.8,0-1.2,0c-0.1-0.6,0-1.2-0.1-1.8c7.1,0,14.1,0,21.2,0c0,0.6,0,1.1,0,1.7
		c-0.8,0.2-1.7,0.2-2.5,0.5c-1.9,0.5-3.5,1.6-4.9,3c-2.5,2.4-4.4,5.3-6.3,8.2c-2.4,3.7-4.9,7.5-7.3,11.2c-2.2,3.3-4.3,6.6-6.5,9.9
		c-0.1,0.2-0.2,0.4-0.2,0.7c0,6.7,0,13.4,0,20.2c0,1.1,0.2,2.3,0.5,3.4c0.5,1.7,1.7,2.7,3.4,3.1c1.7,0.5,3.4,0.6,5.2,0.6
		C279.3,426.7,279.6,426.7,279.9,426.7z"/>
</g>
<g id="XMLID_21_">
</g>
<g id="XMLID_22_">
</g>
<g id="XMLID_23_">
</g>
<g id="XMLID_24_">
</g>
<g id="XMLID_25_">
</g>
<g id="XMLID_26_">
</g>
</svg>
