<?xml version="1.0" encoding="utf-8"?>
<!-- Generator: Adobe Illustrator 19.0.0, SVG Export Plug-In . SVG Version: 6.00 Build 0)  -->
<svg version="1.1" id="Layer_1" xmlns="http://www.w3.org/2000/svg" xmlns:xlink="http://www.w3.org/1999/xlink" x="0px" y="0px"
	 viewBox="0 0 336.9 115.7" style="enable-background:new 0 0 336.9 115.7;" xml:space="preserve">
<style type="text/css">
	.st0{fill:#080A0B;}
	.st1{fill:#020202;}
	.st2{fill:#030303;}
	.st3{fill:#010101;}
	.st4{fill:#6A6A6B;}
	.st5{fill:none;stroke:#414042;stroke-miterlimit:10;}
	.st6{fill:#421413;}
	.st7{fill:#371616;}
	.st8{fill:#7F161B;}
	.st9{fill:#A51E24;}
	.st10{fill:#4A1816;}
	.st11{fill:#BD2928;}
	.st12{fill:#201112;}
	.st13{fill:#551513;}
	.st14{fill:#DE482F;}
	.st15{fill:#B02626;}
	.st16{fill:#B72A27;}
	.st17{fill:#AB2325;}
	.st18{fill:#AF2526;}
	.st19{fill:#B62A27;}
	.st20{fill:#972021;}
	.st21{fill:#85191C;}
	.st22{fill:#AA2325;}
	.st23{fill:#8D191E;}
	.st24{fill:#A12223;}
	.st25{fill:#931E1F;}
	.st26{fill:#A42224;}
	.st27{fill:#9C2222;}
	.st28{fill:#A62224;}
	.st29{fill:#9A2021;}
	.st30{fill:#9F2222;}
	.st31{fill:#AB2125;}
	.st32{fill:#B22627;}
	.st33{fill:#B52727;}
	.st34{fill:#C14342;}
	.st35{fill:#7B1518;}
	.st36{fill:#881A1C;}
	.st37{fill:#83181B;}
	.st38{fill:#7F161A;}
	.st39{fill:#8D191C;}
	.st40{fill:#901A1F;}
	.st41{fill:#8B1A1D;}
	.st42{fill:#471816;}
	.st43{fill:#CB3429;}
	.st44{fill:#CB2C29;}
	.st45{fill:#C52C29;}
	.st46{fill:#AE2626;}
	.st47{fill:#DA432E;}
	.st48{fill:#A62324;}
	.st49{fill:#A02322;}
	.st50{fill:#951E1F;}
	.st51{fill:#D63F2C;}
	.st52{fill:#D7422D;}
	.st53{fill:#D0392B;}
	.st54{fill:#CE362A;}
	.st55{fill:#D43D2B;}
	.st56{fill:#BD2A28;}
	.st57{fill:#B02527;}
</style>
<g id="XMLID_2_">
	<path id="XMLID_115_" class="st0" d="M174.9,68.6c1.3,0,2.5,0,3.8,0c0,0.2,0.1,0.4,0.1,0.5c0,7.6,0.1,15.2-0.1,22.8
		c-0.1,3.6-1,7-3.6,9.6c-3.7,3.7-8.2,4.1-13,2.9c-4.4-1.1-6.5-4.4-7.5-8.6c-0.4-1.7-0.6-3.4-0.6-5.1c0-7.1,0-14.2,0-21.3
		c0-0.2,0-0.5,0-0.8c1.3,0,2.5,0,3.7,0c0.3,0.4,0.1,0.9,0.1,1.4c0,6.8,0,13.5,0,20.3c0,1.9,0.2,3.8,0.7,5.6c1.1,3.8,3.8,5.8,7.5,5.9
		c4,0,6.7-2,7.9-5.8c0.5-1.7,0.8-3.5,0.8-5.3c0-7.2,0-14.4,0-21.5C174.9,68.9,174.9,68.8,174.9,68.6z"/>
	<path id="XMLID_113_" class="st0" d="M269.7,69.4c-0.4,1.1-0.7,2.2-1,3.3c-2.2-0.9-4.5-1.4-6.9-1.4c-7.1,0-12.2,4.4-13.3,11.4
		c-0.5,3.1-0.5,6.2,0.3,9.3c1.8,6.7,7.4,10.3,14.5,9.5c1.8-0.2,3.6-0.6,5.3-1.3c0.6,1,0.6,2.1,1,3.1c-2.1,1.1-4.2,1.4-6.4,1.6
		c-5.1,0.5-9.9-0.4-13.8-3.9c-2.2-1.9-3.6-4.3-4.4-7.1c-1.3-4.6-1.4-9.3,0-13.9c2.3-7.6,8.9-12.2,17.1-11.9
		C264.7,68.1,267.2,68.3,269.7,69.4z"/>
	<path id="XMLID_112_" class="st0" d="M207.7,68.6c0,1.2,0,2.2,0,3.3c-3.5,0-6.9,0-10.4,0c0,10.8,0,21.6,0,32.4c-1.4,0-2.7,0-4,0
		c0-10.8,0-21.5,0-32.3c-3.5,0-6.9,0-10.4,0c-0.2-1.2-0.2-2.3,0-3.4C191.1,68.6,199.3,68.6,207.7,68.6z"/>
	<path id="XMLID_109_" class="st1" d="M173.1,21.8c0.6,0,1,0,1.5,0c0,0.2,0.1,0.3,0.1,0.5c0,7.2,0,14.4-0.1,21.5
		c-0.1,3.6-1,7.1-3.9,9.6c-3.4,3-7.4,3.4-11.5,2c-4-1.3-5.8-4.5-6.6-8.4c-0.3-1.4-0.4-2.9-0.4-4.3c0-6.7,0-13.3,0-20
		c0-0.3,0-0.5,0-0.7c0.5-0.3,1-0.1,1.6-0.2c0,0.8,0,1.5,0,2.2c0,6.3,0,12.6,0,18.8c0,2,0.3,3.9,1,5.8c1.5,4,4.4,6.1,8.4,6.1
		c4.3,0,7.4-2.2,8.8-6.1c0.7-1.9,1-3.9,1-5.9c0-6.5,0-13,0-19.5C173.1,22.7,173.1,22.2,173.1,21.8z"/>
	<path id="XMLID_105_" class="st2" d="M286.9,23.1c-4.8,0-9.6,0-14.3,0c0,4.6,0,9.1,0,13.8c4.5,0,9,0,13.5,0c0.2,0.5,0.1,0.9,0,1.5
		c-4.5,0-9,0-13.5,0c0,5.3,0,10.4,0,15.6c5,0,10.1,0,15.1,0c0,0.5,0,0.9,0,1.4c-5.6,0-11.1,0-16.8,0c0-11.2,0-22.4,0-33.6
		c5.3,0,10.6,0,15.9,0C287.1,22.2,286.9,22.5,286.9,23.1z"/>
	<path id="XMLID_104_" class="st3" d="M333.6,21.8c0.7,0,1.2,0,2,0c-5.6,6.1-11.1,12.1-16.6,18.1c6,5.2,11.9,10.3,17.9,15.5
		c-0.8,0-1.4,0-2.1,0c-5.5-4.7-11.1-9.5-16.9-14.4c0,4.9,0,9.7,0,14.3c-0.6,0.3-1,0.2-1.5,0.1c0-11.2,0-22.4,0-33.6
		c0.5,0,0.9,0,1.5,0c0,5.7,0,11.4,0,17.4C323.2,33.2,328.4,27.5,333.6,21.8z"/>
	<path id="XMLID_103_" class="st3" d="M308.5,22.8c-0.3,0.5-0.6,0.9-0.8,1.3c-2.5-1.5-5.2-1.9-8-1.3c-2.7,0.6-4.6,2.2-5.2,5
		c-0.6,2.8,0.2,5.2,2.5,7c1.3,1,2.8,1.7,4.4,2.3c1.7,0.7,3.3,1.4,4.8,2.5c3.1,2.2,4.1,5.2,3.5,8.8c-0.5,3.4-2.5,5.6-5.7,6.8
		c-3.8,1.4-9.2,0.7-12.3-1.6c0.1-0.5,0.4-0.8,0.7-1.3c1.6,0.9,3.3,1.7,5.2,2c1.6,0.3,3.2,0.3,4.8-0.2c3.1-0.9,5.1-2.8,5.6-6
		c0.5-3.1-0.4-5.7-3.1-7.6c-1.2-0.8-2.5-1.4-3.9-1.9c-1.7-0.6-3.4-1.4-4.9-2.5c-2.8-2-4-4.8-3.4-8.1c0.5-3.3,2.6-5.4,5.6-6.3
		C301.8,20.7,305.1,21,308.5,22.8z"/>
	<path id="XMLID_101_" class="st3" d="M189.5,23.1c-3.9,0-7.5,0-11.2,0c-0.3-0.5-0.2-0.9-0.1-1.3c8,0,16,0,24,0
		c0.2,0.4,0.1,0.8,0.1,1.3c-3.8,0-7.4,0-11.2,0c0,10.8,0,21.6,0,32.3c-0.6,0.2-1,0.2-1.6,0.1C189.5,44.7,189.5,34,189.5,23.1z"/>
	<path id="XMLID_56_" class="st4" d="M109.1,122.1c-0.1,0-0.1,0-0.2,0"/>
	<g id="XMLID_63_">
		<path id="XMLID_128_" class="st0" d="M240,82.2c-0.2-1.1-0.4-2.3-0.8-3.4c-1.8-6.2-6.6-10.3-12.6-10.8c-6.5-0.6-12.2,2.5-15,8.4
			c-3,6.5-3.1,13.2-0.4,19.7c2.4,5.8,7,8.8,13.3,8.8c6.4,0,11-3,13.6-8.8c1.5-3.2,1.9-6.5,1.9-10.4C240.4,84.8,240.2,83.5,240,82.2z
			 M233.7,96.3c-4.2,7-13.3,7.3-17.3,0.2c-3.9-6.8-3.8-13.9,0.2-20.6c3.8-6.3,12.4-6.3,16.6-0.2c1.9,2.7,3.1,6.9,3,10.3
			C236,89.9,235.5,93.3,233.7,96.3z"/>
	</g>
	<g id="XMLID_1_">
		<path id="XMLID_124_" class="st0" d="M333.7,83.1c-0.6-7.6-4.9-12.6-12.3-14.2c-5-1.1-10-0.6-15.1,0.1c0,11.9,0,23.6,0,35.4
			c5.4,0.4,10.7,0.8,15.9-0.8c5.1-1.5,8.6-4.9,10.3-10C333.7,90.2,334,86.6,333.7,83.1z M328.9,91.6c-1.5,5.6-5.6,9.1-11.4,9.6
			c-2.4,0.2-4.8,0.2-7.3-0.1c0-9.8,0-19.5,0-29.3c3.8-0.6,7.6-0.8,11.2,0.4c4.1,1.4,6.6,4.3,7.6,8.4C329.9,84.4,329.9,88,328.9,91.6
			z"/>
	</g>
	<g id="XMLID_119_">
		<path id="XMLID_126_" class="st0" d="M289.2,68.5c-1.6,0-3.1,0-4.6,0c-4,12-7.9,23.8-11.8,35.8c1.4,0,2.7,0,4.1,0
			c1.3-3.9,2.5-7.7,3.7-11.5c4.2,0,8.3,0,12.4,0c1.3,3.9,2.6,7.7,3.9,11.5c1.4,0,2.7,0,4.2,0C297.1,92.4,293.1,80.5,289.2,68.5z
			 M281.5,89.5c1.7-5.6,3.9-11.1,5.3-16.8c1.4,5.7,3.6,11.2,5.3,16.8C288.5,89.5,285,89.5,281.5,89.5z"/>
	</g>
	<g id="XMLID_57_">
		<path id="XMLID_136_" class="st0" d="M137.1,68.5c-1.6,0-3,0-4.6,0c-4,12-7.9,23.9-11.8,35.8c1.5,0,2.8,0,4.1,0
			c1.3-3.9,2.5-7.7,3.7-11.5c4.2,0,8.3,0,12.4,0c1.3,3.9,2.6,7.7,3.8,11.5c1.4,0,2.8,0,4.2,0C144.9,92.3,141,80.4,137.1,68.5z
			 M129.4,89.5c1.7-5.7,3.9-11.1,5.3-16.9c1.4,5.7,3.6,11.2,5.3,16.9C136.4,89.5,133,89.5,129.4,89.5z"/>
	</g>
	<g id="XMLID_58_">
		<path id="XMLID_132_" class="st1" d="M264.7,34.4c-0.9-5.8-3.9-9.9-9.6-11.8c-5.3-1.8-10.7-1.2-16.1-0.4c0,11.1,0,22.1,0,33.4
			c5.2,0.1,10.3,0.7,15.3-1.1c5.3-1.9,8.7-5.5,10-11C265,40.5,265.1,37.4,264.7,34.4z M262.3,44.2c-1.8,5.6-5.8,8.7-11.5,9.8
			c-3.3,0.6-6.7,0.5-10.1,0.1c0-10.2,0-20.4,0-30.7c5.3-0.9,10.6-1.2,15.7,1.4c3.3,1.7,5.4,4.5,6.2,8
			C263.5,36.6,263.5,40.4,262.3,44.2z"/>
	</g>
	<g id="XMLID_65_">
		<path id="XMLID_130_" class="st3" d="M232.1,32c-1.7-6.1-6.4-10.3-12-10.8c-6.8-0.6-12.3,2.5-14.9,8.5c-2.5,5.9-2.6,11.9-0.1,17.8
			c4.1,9.5,16.7,11.5,23.5,3.6c3.2-3.7,4.2-8.1,4.2-13.7C233,36.2,232.7,34.1,232.1,32z M231.2,38.6c-0.2,4.6-1.2,8.2-3.5,11.3
			c-4.7,6.2-13.5,6.4-18.5,0.5c-5.3-6.3-5.3-17.4,0-23.7c5.2-6.1,14.8-5.4,19.1,1.3C230.4,31.2,231.4,35.4,231.2,38.6z"/>
	</g>
	<g id="XMLID_59_">
		<path id="XMLID_134_" class="st3" d="M134.6,21.8c-0.5-0.1-0.8-0.1-1.3,0c-4.1,11.1-8.3,22.3-12.4,33.5c0.6,0.2,1.1,0.2,1.7,0.1
			c1.5-4.1,3-8.1,4.4-12.2c4.6,0,9.1,0,13.8,0c1.5,4.1,3,8.2,4.5,12.2c0.6,0,1.1,0,1.6,0C142.8,44.1,138.7,33,134.6,21.8z
			 M127.5,41.7c2-5.8,4.5-11.5,6.4-17.4c0.9,3,2,5.8,3.1,8.7c1.1,2.9,2.1,5.7,3.2,8.7C135.9,41.7,131.8,41.7,127.5,41.7z"/>
	</g>
</g>
<line id="XMLID_61_" class="st5" x1="104.4" y1="1.1" x2="104.4" y2="115.8"/>
<path id="XMLID_188_" class="st6" d="M73.2,52.5c0.2,0.2,0.4,0.5,0.4,0.8c0.8,5.3,1.5,10.6,2.3,15.8c1.1,7.5,2.2,15,3.3,22.6
	c0.1,0.6,0.3,1.3-0.3,1.8c-0.4,0.2-0.7,0.2-1.1,0.2c-4.7,0-9.3,0-14,0c-0.3,0-0.7,0-1-0.2c-0.6-0.4-0.7-1.1-0.8-1.8
	c-0.2-1.5-0.4-3-0.8-4.5c-0.5-2.1-0.5-4.2-1-6.3c-0.3-2.1-0.7-4.3-1.1-6.4c-0.4-2.6-0.8-5.1-1.3-7.7c-0.6-2.6-1-5.2-1.1-7.8
	c0.2-0.7,0.8-0.8,1.3-1.1c1.8-0.7,3.6-1.4,5.4-2.1c2.2-0.8,4.4-1.8,6.7-2.6C71.2,53,72.1,52.4,73.2,52.5z"/>
<path id="XMLID_187_" class="st7" d="M79.1,93.3c-0.4-2.7-0.8-5.4-1.2-8.2c-0.6-3.8-1.1-7.6-1.7-11.4c-0.5-3.2-1-6.4-1.4-9.7
	c-0.5-3.2-0.9-6.4-1.4-9.7c-0.1-0.4-0.1-0.8,0.2-1.1c3.7,6.9,7.4,13.8,11.1,20.7c3.4,6.4,6.7,12.7,10.1,19.1
	c-0.3,0.6-0.9,0.6-1.4,0.6c-4.3,0-8.7,0-13,0C79.9,93.8,79.4,93.7,79.1,93.3z"/>
<path id="XMLID_186_" class="st8" d="M7.5,78.5c2.5-4.8,5-9.5,7.5-14.3c0.7-1.2,1.4-2.5,2-3.7c0.4-0.6,1-0.7,1.6-0.7
	c4.6,0,9.2,0,13.8,0c0.5,0,1.1,0,1.5,0.6c0.2,0.4,0.2,0.8,0.1,1.2c-0.6,2.3-0.9,4.7-1.7,7c0,0.1-0.1,0.3-0.2,0.4
	c-0.4,0.4-0.9,0.5-1.3,0.7c-4.9,2-9.9,3.9-14.9,5.9c-2.2,0.9-4.5,1.8-6.7,2.7C8.5,78.5,8,78.9,7.5,78.5z"/>
<path id="XMLID_185_" class="st9" d="M79.1,93.3c5,0,9.9,0,14.9,0c0.3,0,0.6,0,0.8-0.2c0.2,0.6-0.4,0.8-0.6,1.1
	c-3.2,3.6-6.3,7.3-9.5,10.9c-0.1,0.2-0.2,0.5-0.4,0.7c-0.2,0.2-0.3,0.4-0.5,0.7c-0.2,0.2-0.4,0.4-0.5,0.6c-0.2,0.2-0.4,0.4-0.5,0.5
	c-0.1,0.1-0.2,0.2-0.3,0.4c-0.2,0.2-0.3,0.5-0.5,0.7c-0.1,0.1-0.3,0.2-0.5,0.3c-0.2,0-0.4-0.1-0.5-0.2c-0.2-0.3-0.3-0.6-0.4-1
	c-0.5-2.9-0.6-5.9-1.1-8.9c-0.2-1.5-0.3-3.1-0.7-4.5C78.2,93.9,77.5,94,77,94c-4.1,0-8.2,0-12.3,0c-0.6,0-1.2,0.1-1.8-0.2
	c-0.1-0.1-0.3-0.2-0.3-0.3c0-0.1,0.1-0.1,0.1-0.2C68.1,93.3,73.6,93.3,79.1,93.3z"/>
<path id="XMLID_184_" class="st10" d="M7.5,78.5c2.7-1,5.5-2.1,8.2-3.1c0.5,0.5,0.4,1.1,0.4,1.7c0,4.9,0,9.7,0,14.6
	c0,0.6,0,1.1-0.3,1.6c-0.3,0.3-0.7,0.4-1,0.4c-1.9,0-3.8,0.2-5.8-0.1c-0.2,0-0.3-0.1-0.4-0.2c-0.8-1.2-0.5-2.6-0.7-3.8
	c-0.3-2.8-0.5-5.5-0.8-8.3c-0.1-0.8,0-1.5,0.1-2.3C7.3,78.8,7.4,78.7,7.5,78.5z"/>
<path id="XMLID_183_" class="st11" d="M54.4,17.2c2.2,3.8,4.2,7.6,6.1,11.5c-0.4,0.5-0.9,0.6-1.5,0.6c-2.4,0.1-4.7,0.2-7.1-0.1
	c-0.9-0.4-0.8-1.2-0.9-1.9c-0.4-2.3-0.8-4.7-1.2-7c0-1.2-0.8-2.3-0.2-3.5C51.2,16.8,52.9,16.5,54.4,17.2z"/>
<path id="XMLID_182_" class="st11" d="M33.4,29.5c2.1-4.2,4.3-8.4,6.6-12.6c1.3-0.2,2.5-0.2,3.8,0.1c0.5,0.6,0.1,1.3,0,1.9
	c-0.1,0.7-0.3,1.4-0.4,2.1c-0.7,2.6-1.2,5.2-1.8,7.8c-0.1,0.5-0.1,1.2-0.8,1.3c-1.8-0.4-3.7-0.2-5.5-0.2
	C34.6,29.8,33.9,30,33.4,29.5z"/>
<path id="XMLID_181_" class="st12" d="M7.2,79c0.6,1,0.3,2.2,0.5,3.4c0.4,3.3,0.6,6.7,0.9,10c0,0.3,0.1,0.7,0.2,1
	c-0.4,0.5-0.9,0.6-1.5,0.6c-2,0.1-4.1,0.1-6.2,0c-0.4,0-0.7-0.2-1.1-0.4c-0.5-0.4-0.2-0.7,0-1.1C2.4,88,4.8,83.5,7.2,79z"/>
<path id="XMLID_180_" class="st13" d="M0,93.6c1.9,0,3.7-0.1,5.6,0c1.1,0,2.1-0.1,3.1-0.3c0,0,0.1,0.1,0.1,0.1
	c0.5,1,0.5,2.1,0.6,3.3c-0.1,1,0.3,1.9,0.3,2.8c-0.1,1,0.3,2,0.3,3c0,0.9,0.3,1.8,0.2,2.8c0,0.6,0.2,1.2,0.2,1.8
	c0,0.4,0,0.8-0.1,1.2c-0.1,0.1-0.1,0.2-0.2,0.3c-0.2,0-0.4,0-0.5-0.1c-0.1-0.1-0.3-0.2-0.3-0.4c-0.1-0.2-0.2-0.4-0.3-0.6
	c-0.1-0.3-0.3-0.5-0.5-0.8c-0.4-0.5-0.6-1-0.8-1.6C5,101.3,2.5,97.5,0,93.6z"/>
<path id="XMLID_179_" class="st14" d="M43.1,21c0.1-1.3,0.5-2.6,0.8-3.8c-0.4-1.2,0.4-2.2,0.5-3.4c0.7-3.1,1.4-6.1,2.2-9.2
	c0.2-0.3,0.2-0.9,0.7-1c0.2,0.4,0.3,0.8,0.5,1.1c0.9,3.3,1.3,6.7,1.9,10c0,0.7,0.4,1.4-0.1,2.1c0.2,1.1,0.6,2.2,0.5,3.3
	c0.3,0.7,0,1.2-0.7,1.3c-1.9,0.2-3.8,0.2-5.7,0C43.4,21.5,43.1,21.4,43.1,21z"/>
<path id="XMLID_177_" class="st15" d="M63.4,34.1c1.1,1.6,2,3.4,2.8,5.1c-0.2,0.3-0.6,0.4-0.9,0.4c-3.8,0-7.6,0.2-11.4-0.1
	c-0.6-0.2-0.7-0.7-0.8-1.2c-0.1-0.7-0.2-1.5-0.4-2.2c-0.1-0.5-0.1-1,0-1.4c0.2-0.5,0.5-0.7,1-0.7C56.9,34,60.1,33.8,63.4,34.1z"/>
<path id="XMLID_176_" class="st16" d="M63.4,34.1c-0.5,0.3-1,0.3-1.5,0.3c-2.6,0-5.3,0-7.9,0c-0.4,0-1-0.2-1.1,0.5
	c-0.7-0.1-0.5-0.6-0.6-1c-0.2-0.7-0.2-1.4-0.4-2.1c-0.1-0.9-0.7-1.9,0-2.8c2.9-0.1,5.8,0.2,8.7-0.3C61.6,30.5,62.6,32.2,63.4,34.1z"
	/>
<path id="XMLID_175_" class="st17" d="M53.6,39.2c4.2,0,8.3,0,12.5,0c0.7,1.2,1.4,2.3,1.9,3.6c-0.4,0.8-1.1,0.6-1.8,0.7
	c-2.7,0-5.5,0-8.2,0c-1.3,0-2.6,0-3.8,0.2C53.5,42.3,53.1,40.8,53.6,39.2z"/>
<path id="XMLID_174_" class="st18" d="M27.8,40c0.9-1.6,1.7-3.2,2.6-4.9c0.2-0.2,0.5-0.3,0.8-0.4c2.6-0.1,5.1-0.1,7.7,0
	c0.3,0,0.5,0.1,0.7,0.3c0.3,0.4,0.2,0.9,0.1,1.4c-0.2,1.3-0.1,2.8-1.3,3.8c-3.2,0.3-6.5,0.1-9.7,0.1C28.3,40.4,28,40.2,27.8,40z"/>
<path id="XMLID_173_" class="st19" d="M39.5,35.4c-0.4-0.4-0.9-0.3-1.3-0.3c-2.6,0-5.2,0-7.9,0c0.9-1.9,1.9-3.8,3-5.6
	c1.9,0,3.9,0,5.8,0c0.6,0,1.2,0,1.6,0.5c0.6,1-0.2,1.9-0.2,2.8C40.3,33.7,40.6,34.8,39.5,35.4z"/>
<path id="XMLID_172_" class="st20" d="M73.2,52.5c-1,0.4-1.9,0.7-2.9,1.1c-3.4,0.3-6.8,0.1-10.3,0.1c-1.3,0-2.5,0.1-3.8,0
	c-1-0.9-1-2-0.7-3.1c0.5-0.5,1.1-0.5,1.7-0.5c4.4,0,8.9,0,13.3,0c0.6,0,1.1,0,1.6,0.4C72.6,51.1,72.9,51.8,73.2,52.5z"/>
<path id="XMLID_171_" class="st21" d="M33.6,60.8c-0.1-0.5-0.5-0.5-0.9-0.5c-5,0-10,0-15,0c-0.3,0-0.6,0.2-0.8,0.2
	c0.4-1.1,1-2.1,1.6-3.1c0.4-0.3,0.8-0.4,1.3-0.4c4.5,0,9,0,13.4,0c0.3,0,0.6,0,0.9,0.2c0.8,1.2,0.2,2.3-0.2,3.5
	C33.9,60.8,33.8,60.9,33.6,60.8z"/>
<path id="XMLID_169_" class="st22" d="M27.8,40c3.6,0,7.1,0,10.7,0c0.4,1.4-0.3,3.9-1.1,4.4c-3.2-0.4-6.4-0.1-9.7-0.2
	c-0.7,0-1.4,0.1-1.9-0.4C26.4,42.6,27.1,41.3,27.8,40z"/>
<path id="XMLID_168_" class="st23" d="M34.4,57.4c-5.3,0-10.6,0-15.8,0c0.5-0.9,1-1.9,1.5-2.8c0.5-0.3,1-0.4,1.6-0.4
	c3.9,0,7.9,0,11.8,0c0.7,0,1.5,0,1.8,0.9C35.2,56,35.4,56.9,34.4,57.4z"/>
<path id="XMLID_167_" class="st24" d="M69.5,45.6c0.5,0.7,0.9,1.5,1.2,2.3c-0.3,0.6-0.9,0.6-1.5,0.6c-4.4,0-8.7,0-13.1,0
	c-0.3,0-0.7-0.1-1-0.2c-0.7-0.6-0.7-1.3-0.6-2.1c0.1-0.7,0.6-1,1.3-1c4.2-0.1,8.5-0.1,12.7,0C69,45.3,69.3,45.4,69.5,45.6z"/>
<path id="XMLID_166_" class="st25" d="M34.9,55.4c0-1-0.7-0.8-1.3-0.8c-4.5,0-9.1,0-13.6,0c0.5-0.9,1-1.9,1.5-2.8
	c0.2-0.1,0.5-0.2,0.7-0.2c4,0.1,8.1,0,12.1,0.1c0.4,0,0.8,0,1.1,0.2c0.7,0.5,0.4,1.2,0.3,1.9c-0.1,0.5-0.2,1.1-0.5,1.6
	C35.2,55.4,35.1,55.5,34.9,55.4z"/>
<path id="XMLID_165_" class="st26" d="M25.8,43.8c3.5,0,7,0,10.5,0c0.4,0,1.1-0.3,1.2,0.5c0.2,0.2,0.3,0.5,0.3,0.8
	c-0.1,0.6-0.3,1.3-0.4,1.9c-0.1,0.3-0.1,0.8-0.7,0.7c-0.6-0.4-1.3-0.4-2-0.4c-2.7,0-5.4,0-8.1,0c-0.8,0-1.6,0-2.4-0.4
	C24.7,45.9,25.2,44.9,25.8,43.8z"/>
<path id="XMLID_164_" class="st27" d="M55.2,48.2c4.6,0,9.1,0,13.7,0c0.6,0,1.3-0.1,1.9-0.3c0.5,0.8,1,1.6,1.3,2.6
	c-5,0-10.1,0-15.1,0c-0.4,0-0.9-0.2-1.3,0.3c-0.3,0.1-0.4-0.1-0.5-0.3C55.1,49.7,54.6,49,55.2,48.2z"/>
<path id="XMLID_163_" class="st28" d="M69.5,45.6c-4.5,0-8.9,0-13.4,0c-0.5,0-1.3-0.2-1.2,0.8c-0.8-0.2-0.5-1-0.7-1.5
	c-0.1-0.4-0.4-0.9,0-1.3c0.4-0.6,0.9-0.5,1.5-0.5c3.6,0,7.2,0,10.8,0c0.6,0,1.1,0,1.6-0.3C68.7,43.7,69.2,44.6,69.5,45.6z"/>
<path id="XMLID_162_" class="st29" d="M35.7,52.1c-4,0-8,0-12,0c-0.7,0-1.4-0.1-2.1-0.3c0.5-0.9,0.9-1.7,1.4-2.6
	c0.3-0.2,0.6-0.2,0.9-0.2c3.6,0.1,7.2,0,10.8,0c0.6,0,1.2,0,1.7,0.4c0.2,0.3,0.2,0.6,0.2,0.9C36.3,51,36.5,51.8,35.7,52.1z"/>
<path id="XMLID_161_" class="st30" d="M36.2,49.8c-0.4-0.4-0.9-0.3-1.3-0.3c-3.4,0-6.7,0-10.1,0c-0.6,0-1.3-0.1-1.9-0.3
	c0.4-0.8,0.8-1.5,1.2-2.3c0.7-0.4,1.4,0,2.1,0c3.1-0.1,6.2,0,9.3,0c0.6,0,1.2-0.1,1.1,0.8C37.1,48.5,37.1,49.3,36.2,49.8z"/>
<path id="XMLID_160_" class="st31" d="M49.3,14.9c-0.6-3.4-1.2-6.8-1.8-10.3c-0.1-0.2,0-0.3,0.2-0.2c1.7,3.3,3.5,6.6,5.2,9.9
	c0.1,0.5-0.2,0.7-0.6,0.8C51.3,15.3,50.2,15.5,49.3,14.9z"/>
<path id="XMLID_159_" class="st31" d="M46.5,4.6c0.5,1-0.2,2-0.4,2.9c-0.4,2.1-1,4.2-1.5,6.3c-0.7,1.2-2.3,1.3-3.1,0.2
	C43.2,10.9,44.9,7.7,46.5,4.6z"/>
<path id="XMLID_158_" class="st32" d="M41.6,14c1.1,0.4,2.1,0.6,3.1-0.2c-0.3,1.1-0.5,2.2-0.8,3.3c-1.3-0.1-2.6,0.3-3.8-0.3
	C40.3,15.8,41,15,41.6,14z"/>
<path id="XMLID_157_" class="st33" d="M49.3,14.9c0.8,0,1.6,0,2.4,0c0.5,0,0.9,0,1.2-0.6c0.6,0.9,1.1,1.9,1.5,2.9
	c-1.6-0.1-3.3,0.3-4.9-0.3C49.5,16.2,49.2,15.6,49.3,14.9z"/>
<path id="XMLID_156_" class="st34" d="M47.7,4.4c-0.1,0.1-0.1,0.2-0.2,0.2c-0.3-0.3-0.2-0.6-0.2-1C47.5,3.8,47.6,4.1,47.7,4.4z"/>
<path id="XMLID_155_" class="st35" d="M61.6,87.2c0.5,2,0.7,4.1,1,6.1c0,0,0,0.1-0.1,0.1c-0.4,0.4-0.9,0.4-1.5,0.4
	c-11,0-22.1,0-33.1,0c-0.3,0-0.5,0-0.8-0.1c-0.2,0-0.3-0.1-0.4-0.2c-0.3-0.3-0.2-0.7-0.2-1.1c0.3-1.6,0.6-3.3,1-4.9
	c0.1-0.4,0.2-1,0.8-0.9c0.8,0.2,1.7,0.2,2.6,0.2c9.5,0,18.9,0,28.4,0C60.1,86.8,60.9,86.7,61.6,87.2z"/>
<path id="XMLID_154_" class="st36" d="M31.8,69c0-0.1,0-0.2,0-0.3c2-1.1,4-1.9,6.2-2.3c0.9,0.2,1.8,0.2,2.7,0.2c5.1,0,10.3,0,15.4,0
	c0.7,0,1.5-0.1,2.1,0.4c0.6,2.5,1,5.1,1.3,7.7c-0.5,0.5-1.1,0.4-1.7,0.4c-8.5,0-17,0-25.5,0c-0.5,0-0.9,0-1.4-0.2
	c-0.4-0.2-0.5-0.5-0.5-0.8C30.8,72.3,30.9,70.5,31.8,69z"/>
<path id="XMLID_153_" class="st37" d="M30.8,74.6c9.6,0,19.2,0,28.8,0c0.5,2.1,0.9,4.2,1,6.4c0,0.5-0.4,0.5-0.7,0.6
	c-0.4,0.1-0.8,0.1-1.3,0.1c-9.1,0-18.1,0-27.2,0c-0.8,0-1.8,0.2-2.2-0.9c-0.1-1.9,0.6-3.8,1-5.6C30.3,74.9,30.4,74.6,30.8,74.6z"/>
<path id="XMLID_152_" class="st38" d="M29.5,80.5c0,1,0.7,0.8,1.3,0.8c6.1,0,12.2,0,18.3,0c3.4,0,6.8,0,10.1,0c0.4,0,1,0.2,1.3-0.3
	c0.5,1.4,0.6,2.9,0.7,4.3c0.1,0.6,0.1,1.3,0.3,1.9c-10.7,0-21.3,0-32,0c-0.5,0-1.2,0.3-1.4-0.5C28,86.5,28,86.2,28,85.9
	c0.3-1.6,0.6-3.2,1-4.8C29,80.8,29.1,80.5,29.5,80.5z"/>
<path id="XMLID_151_" class="st39" d="M58.3,66.9c-5.6,0-11.2,0-16.7,0c-1.3,0-2.5,0.1-3.8-0.3c0.1-0.8,0.8-0.8,1.3-1
	c3.6-1.5,7.3-2.9,10.9-4.3c2.3-0.8,4.4-1.9,6.7-2.5c0.1,0,0.2,0.1,0.3,0.2c0.3,2.1,0.7,4.2,1,6.3C58.1,65.9,58.2,66.4,58.3,66.9z"/>
<path id="XMLID_150_" class="st40" d="M56.2,53.6c0.3-0.4,0.8-0.3,1.2-0.3c3.8,0,7.5,0,11.3,0c0.6,0,1.1,0.2,1.6,0.3
	c-2.2,0.9-4.4,1.9-6.7,2.6c-2.3,0.3-4.6-0.2-6.9,0.3c-0.9-0.2-0.5-1.1-0.8-1.6C55.9,54.4,55.8,54,56.2,53.6z"/>
<path id="XMLID_149_" class="st41" d="M56.7,56.4c0-0.3,0.2-0.5,0.6-0.5c2,0,4,0,5.9,0c0.1,0,0.3,0.2,0.4,0.2
	c-1.7,1-3.7,1.5-5.5,2.3c-0.4,0.2-0.8,0.4-1.1,0.6L57,59C56.4,58.2,56.1,57.3,56.7,56.4z"/>
<path id="XMLID_148_" class="st42" d="M29.5,80.5c-0.6,2-1,4.1-1.3,6.2c-0.7,1.9-0.8,3.9-1.3,5.8c-0.1,0.3-0.2,0.6-0.3,0.8
	c-0.4,0.4-0.9,0.4-1.4,0.4c-2.7,0-5.5,0-8.2,0c-0.5,0-1,0-1.4-0.4c0-6,0-12,0-18C21,73.1,26.4,71,31.8,69c-0.2,1.9-1,3.7-1,5.6
	C30.1,76.5,29.8,78.5,29.5,80.5z"/>
<path id="XMLID_147_" class="st43" d="M50.1,61.6c-2.6,1.4-5.4,2.2-8.1,3.3c-1.4,0.6-2.8,1.2-4.2,1.8c-1.6,0.6-3.2,1.2-4.8,1.8
	c-0.4,0.1-0.7,0.3-1.1,0.3c0.5-2.3,1.1-4.5,1.6-6.8c0.1-0.4,0.1-0.7,0.2-1.1c0.1,0,0.2,0,0.2,0c4.8,0.3,9.6,0,14.3,0.1
	C48.9,60.9,49.7,60.6,50.1,61.6z"/>
<path id="XMLID_145_" class="st44" d="M63.9,100.3c-0.4-2.2-0.8-4.4-1.2-6.7c5.5,0,11,0,16.5,0c0.6,4.9,1.1,9.6,1.6,14.4
	c0,0.6-0.4,0.4-0.7,0.3c-0.5-0.1-1-0.4-1.5-0.7c-4.5-2.2-8.9-4.6-13.5-6.6C64.7,100.8,64.3,100.7,63.9,100.3z"/>
<path id="XMLID_142_" class="st45" d="M63.9,100.3c1.4,0.2,2.5,1,3.8,1.5c4,1.9,7.9,4,11.9,5.9c0.4,0.2,0.7,0.7,1.2,0.3
	c0.3,0.2,0.2,0.5,0.3,0.8c-0.3,0.5-0.8,0.5-1.3,0.6c-0.7,0-1.4,0.3-2.2,0.2c-0.1,0-0.3-0.1-0.4-0.1c-2.3-1.6-4.9-2.6-7.3-3.9
	c-1.8-0.9-3.6-1.9-5.5-2.7C64.2,102,63.8,101.2,63.9,100.3z"/>
<path id="XMLID_121_" class="st46" d="M27,93.4c-0.7,1.4-0.7,3-1.3,4.4c-4.9-0.3-9.8,0-14.7-0.1c-0.8,0-1.7,0.2-2-0.9
	c0-1.1-0.4-2.2-0.2-3.3c2.3,0,4.6,0,6.9-0.1c3.7,0,7.4,0,11,0C26.8,93.4,26.9,93.4,27,93.4z"/>
<path id="XMLID_118_" class="st47" d="M40.3,32.8c0-1,0.6-1.8,0.5-2.8c0.9-2.8,1.4-5.6,2-8.4c0-0.2,0.2-0.4,0.3-0.6
	c0.9,0.6,1.9,0.2,2.8,0.2c1.2,0.1,2.4,0,3.5,0c0.6-0.3,0.6-0.6,0.6-1c0.7,2.1,0.8,4.4,1.3,6.5c0.1,0.7,0.2,1.5,0.5,2.2
	c0.1,0.9,0.2,1.9,0.3,2.8c0.4,1.2-0.5,1.4-1.3,1.4c-1.9,0.1-3.8,0-5.7,0c-1.1,0-2.1,0-3.2,0C41.3,33.2,40.8,33.2,40.3,32.8z"/>
<path id="XMLID_116_" class="st48" d="M25.2,99.8c-0.1,1.1-0.4,2.1-0.8,3.1c-1.9,0.2-3.8,0.1-5.7,0.1c-2.6,0-5.2,0-7.8,0
	c-0.5,0-1,0.2-1.4-0.4c-0.1-1-0.2-2.1-0.3-3.1c0.4-0.2,0.7-0.2,1.1-0.2c4.3,0,8.6,0,13,0C24,99.4,24.7,99.3,25.2,99.8z"/>
<path id="XMLID_114_" class="st17" d="M25.2,99.8c-4.8,0-9.5,0-14.3,0c-0.5,0-1.1,0.1-1.6-0.2c0-1-0.4-1.9-0.3-2.8
	c0.4,0.6,0.9,0.5,1.5,0.5c4.6,0,9.3,0,13.9,0c0.5,0,1.1-0.3,1.2,0.5C25.7,98.5,25.5,99.1,25.2,99.8z"/>
<path id="XMLID_107_" class="st49" d="M9.6,102.6c4.5,0,9,0,13.5,0c0.5,0,1-0.2,1.4,0.3c-0.1,0.7-0.2,1.3-0.3,2
	c-0.1,0.4,0.2,0.9-0.3,1.2c-0.2,0-0.3,0-0.5,0c-1.4-0.3-2.8-0.2-4.2-0.2c-2.5,0-5,0-7.5,0c-0.6,0-1.3,0.1-1.8-0.4
	C9.7,104.5,9.6,103.5,9.6,102.6z"/>
<path id="XMLID_100_" class="st50" d="M10.5,108.8c-0.2-0.1-0.3-0.2-0.5-0.2c0-0.4,0-0.9,0-1.3c0.3-0.3,0.8-0.4,1.2-0.4
	c3.7,0,7.5,0,11.2,0c0.2,0,0.4,0.1,0.6,0.1c0.2,0.1,0.4,0.2,0.5,0.5c0,0.1,0.1,0.3,0,0.4c-0.1,0.4-0.2,0.8-0.3,1.2
	c-0.1,0.4-0.1,0.8-0.3,1.2c-0.2,0.4-0.5,0.6-1,0.7c-0.8,0-1.7-0.3-2.5-0.2c-1.3-0.2-2.6-0.6-3.9-0.7c-0.6,0-1.2-0.1-1.8-0.3
	c-0.5-0.1-1-0.3-1.6-0.3C11.7,109.2,11,109.2,10.5,108.8z"/>
<path id="XMLID_99_" class="st29" d="M23.3,107.2c-4.4,0-8.9,0-13.3,0c0-0.6-0.4-1.2-0.2-1.8c4.2,0,8.4,0,12.5,0
	c0.5,0,1.2-0.3,1.3,0.6c0.2,0.2,0.2,0.4,0.2,0.6c0,0.2-0.1,0.4-0.3,0.5C23.4,107.2,23.4,107.2,23.3,107.2z"/>
<path id="XMLID_94_" class="st51" d="M54.2,43.6c0.1,0.4,0.2,0.8,0.2,1.3c-0.1,0.7-0.7,0.6-1.2,0.7c-4.9,0.1-9.7,0-14.6,0
	c-0.4,0-0.9,0-1.2-0.4c0-0.3,0-0.5,0-0.8c0.5-1.4,0.8-2.9,1-4.4c0.4-1.2,0.8-2.3,0.8-3.6c4,0.8,8,0.2,11.9,0.4
	c0.6,0,1.1-0.4,1.6-0.6c0.6,0.9,0.3,2.1,0.8,3.1C53.8,40.7,54,42.1,54.2,43.6z"/>
<path id="XMLID_93_" class="st52" d="M52.9,36.1c0,0.8-0.5,1-1.2,1c-3.7,0-7.4,0-11,0c-0.6,0-1-0.4-1.4-0.8c0.1-0.3,0.2-0.7,0.2-1
	c0.5-0.8,0.5-1.7,0.8-2.6c3.8,0,7.6,0,11.2,0c0.6-0.3,0.6-0.6,0.6-1c0.5,1,0.2,2.1,0.8,3.1C52.9,35.3,52.9,35.7,52.9,36.1z"/>
<path id="XMLID_92_" class="st53" d="M56.2,53.6c0,0.4,0,0.8,0,1.3c0.2,0.6-0.2,0.7-0.6,0.8c-0.5,0.1-1,0.1-1.5,0.1
	c-5.6,0-11.2,0-16.8,0c-0.7,0-1.5,0.1-2.1-0.4c-0.1-1.2,0.6-2.2,0.5-3.3c0.4-0.4,0.1-1.1,0.5-1.5c0.5-0.4,1.1-0.4,1.7-0.4
	c5.3,0,10.6,0,15.8,0c0.6,0,1.2,0,1.7,0.4c0.1,0.1,0.2,0.2,0.3,0.3C55.7,51.8,55.9,52.7,56.2,53.6z"/>
<path id="XMLID_91_" class="st54" d="M35.2,55.4c6.6,0,13.2,0,19.8,0c0.5,0,1.1,0.3,1.2-0.5c0.5,0.4,0,1.1,0.5,1.6
	c0.1,0.8,0.2,1.7,0.2,2.5c-2.3,0.8-4.5,2-6.9,2.6c-0.4-0.4-0.9-0.3-1.3-0.3c-4.5,0-9.1,0-13.6,0c-0.5,0-1.1,0.3-1.2-0.5
	c0.2-1.1,0.4-2.2,0.5-3.3c0.3-0.6,0.5-1.3,0.5-2C35,55.4,35.1,55.4,35.2,55.4z"/>
<path id="XMLID_90_" class="st55" d="M55.4,50.5c-6.4,0-12.8,0-19.2,0c0-0.3,0-0.5,0-0.8c0.4-0.6,0.5-1.3,0.5-2.1
	c0.3-0.9,0.5-1.7,0.8-2.6c5.2,0,10.3,0,15.5,0c0.5,0,1,0.2,1.5-0.3c0.5,0.4,0,1.1,0.5,1.6c-0.1,0.6,0.1,1.2,0.3,1.8
	C55.3,49,55.4,49.7,55.4,50.5z"/>
<path id="XMLID_88_" class="st56" d="M64.4,102.9c0.4-0.5,0.7-0.1,1,0.1c3.6,1.8,7.2,3.6,10.8,5.4c0.4,0.2,0.8,0.4,1,0.9
	c-0.5,0.6-1.3,0.6-2,0.6c-0.3,0-0.7,0-1-0.1c-2.7-1.6-5.5-2.7-8.3-4.1c-0.5-0.3-1-0.4-1.3-1C64.5,104.1,64.4,103.5,64.4,102.9z"/>
<path id="XMLID_87_" class="st16" d="M64.7,104.7c2.8,1.4,5.6,2.7,8.4,4.1c0.4,0.2,0.9,0.3,1.1,0.8c-0.2,0.4-0.6,0.5-1,0.5
	c-0.6-0.1-1.3,0.2-1.9,0.1c-1.8-1.6-3.9-2.4-6.1-3.1c-0.1,0-0.2-0.1-0.3-0.2c-0.1-0.1-0.1-0.2-0.1-0.3c0-0.4,0.3-0.8,0-1.2
	c0-0.1,0-0.2,0-0.2C64.7,105,64.7,104.8,64.7,104.7z"/>
<path id="XMLID_67_" class="st57" d="M71.1,110c-1.5,0.2-3,0.4-4.5,0.6c-0.5,0.1-0.9,0-1.1-0.5c0-0.1,0-0.2-0.1-0.2
	c0-0.5,0-0.9-0.2-1.3l0,0c-0.2-0.1-0.2-0.3-0.1-0.5c0-0.3,0-0.6,0-1c0.1-0.2,0.3-0.3,0.5-0.2c1.7,0.8,3.5,1.6,5.2,2.5
	C71.2,109.4,71.3,109.7,71.1,110z"/>
</svg>
