<?xml version="1.0" encoding="utf-8"?>
<!-- Generator: Adobe Illustrator 19.0.0, SVG Export Plug-In . SVG Version: 6.00 Build 0)  -->
<svg version="1.1" id="Layer_1" xmlns="http://www.w3.org/2000/svg" xmlns:xlink="http://www.w3.org/1999/xlink" x="0px" y="0px"
	 viewBox="58.4 345.9 280 101.4" style="enable-background:new 58.4 345.9 280 101.4;" xml:space="preserve">
<style type="text/css">
	.st0{fill:#0E8B4C;}
	.st1{fill:#4FA97C;}
	.st2{fill:#018543;}
	.st3{fill:#038443;}
</style>
<g id="XMLID_21_">
</g>
<g id="XMLID_22_">
</g>
<g id="XMLID_23_">
</g>
<g id="XMLID_24_">
</g>
<g id="XMLID_25_">
</g>
<g id="XMLID_26_">
</g>
<g>
	<path class="st0" d="M58.4,356.1c0.8,0.7,0.5,1.7,0.5,2.5c0,25.4,0,50.7,0,76.1c0,0.8,0.3,1.8-0.5,2.5
		C58.4,410.1,58.4,383.1,58.4,356.1z"/>
	<path class="st1" d="M338.4,421.7c-0.2,0-0.3,0-0.5,0c-0.8-0.9-0.8-2.1-0.8-3.2c0-15.6,0-31.1,0-46.7c0-1.1-0.1-2.3,0.7-3.2
		c0.2,0,0.3,0,0.5-0.1C338.4,386.3,338.4,404,338.4,421.7z"/>
	<path class="st2" d="M216.7,371.6c0,1.7,0,3.3,0,5.2c-6.6,0-13.1,0-19.7,0c0,5.7,0,11.1,0,16.8c6.1,0,12.1,0,18.2,0
		c0,1.8,0,3.5,0,5.3c-6.1,0-12.1,0-18.2,0c0,5.9,0,11.6,0,17.5c6.8,0,13.7,0,20.6,0c0.6,1.8,0.1,3.5,0.4,5.3c-9.1,0-18,0-27.1,0
		c0-16.7,0-33.3,0-50C199.5,371.6,208,371.6,216.7,371.6z"/>
	<path class="st2" d="M246.7,421.8c-3-4.9-5.9-9.5-8.9-14.4c-3.1,4.9-6,9.6-9,14.3c-2.1,0-4.2,0-6.7,0c4.2-5.9,8.2-11.6,12.3-17.5
		c-3.9-6-7.7-11.9-11.7-18.1c2.3,0,4.4,0,6.8,0c2.7,4.7,5.5,9.7,8.6,14.9c3.1-5.1,6.1-10,9.1-15c2,0,4,0,6.4,0
		c-4.1,6.1-8.1,12-12.1,18.1c3.9,5.7,7.8,11.5,11.8,17.5C251,422.1,248.9,421.7,246.7,421.8z"/>
	<path class="st2" d="M285.4,386.9c0,1.8,0,3.5,0,5.4c-7.7-3.7-14.7-4-19.6,4.2c-3.3,5.5-2.2,14,1.9,18c4.2,4.2,10.2,4.4,17.5,0.5
		c0,1.7,0,3.3,0,5c-5.7,4.3-16.5,3.4-22-1.9c-6.2-6-7-18.1-1.8-25.6C266.5,385.3,277.1,382.8,285.4,386.9z"/>
	<path class="st3" d="M337.9,368.7c0,17.7,0,35.4,0,53c-1.7,0-3.5,0-5.4,0c0-17.7,0-35.3,0-53C334.4,368.7,336.2,368.7,337.9,368.7z
		"/>
	<g>
		<path class="st3" d="M115.5,345.9c-1.9,0.5-3.9,0.3-5.9,0.6c-16.3,2.4-32.4,5.1-48.6,7.8c-1,0.2-2,0.3-2.5,1.3c0,0.2,0,0.3,0,0.5
			c0.4,0.6,0.2,1.4,0.2,2.1c0,25.7,0,51.3,0,76.9c0,0.7,0.2,1.4-0.2,2.1c0,0.2,0,0.3,0,0.5c1,1.5,2.7,1.3,4.1,1.5
			c17.6,2.8,35.1,6.2,52.8,8.1c0.4,0,0.7,0,1,0c0-33.8,0-67.6,0-101.4C116,345.9,115.7,345.9,115.5,345.9z M92.7,414.7
			c-2.3-4.9-4.6-9.7-6.2-15.3c-2.1,5.1-4,9.7-6,14.5c-2.6-0.1-5.2-0.2-8-0.4c3.2-6.3,6.3-12.3,9.5-18.5c-2.8-6.1-5.7-12.3-8.6-18.6
			c2.8-0.2,5.4-0.4,8.1-0.6c1.6,4.7,3.3,9.3,5.1,14.1c2-4.9,3.9-9.6,5.9-14.4c2.7-0.6,5.4-0.5,8.4-0.7c-3.3,6.8-6.5,13.4-9.7,20.1
			c3.3,6.7,6.6,13.4,10,20.3C98.2,415,95.5,414.9,92.7,414.7z"/>
	</g>
	<g>
		<path class="st2" d="M155.5,356.6c-11.1,0-22.2,0-33.3,0c-0.7,0-1.5-0.2-2.2,0.3c0,2.9,0,5.9,0,9.1c4.4,0,8.7,0,13,0
			c0,3.2,0,6,0,9.2c-4.5,0-8.7,0-13.2,0c0.2,1.4-0.2,2.5,0.4,3.9c4.2,0,8.5,0,12.7,0c0,3.2,0,6,0,9.1c-4.4,0-8.7,0-12.9,0
			c-0.2,1.2-0.3,2.2,0.1,3.5c4.3,0,8.5,0,12.8,0c0,3.2,0,6,0,9.1c-4.3,0-8.6,0-12.9,0c-0.2,1.4-0.3,2.5,0.1,3.9c4.3,0,8.5,0,12.8,0
			c0,3.2,0,6.1,0,9.2c-4.4,0-8.6,0-13.1,0c0.3,1.4-0.2,2.6,0.5,3.9c4.2,0,8.4,0,12.7,0c0,3.1,0,6,0,9c-4.3,0-8.6,0-12.9,0
			c0,3.3,0,6.3-0.1,8.9c0.7,0,1.2,0.1,1.8,0.1c11.3,0,22.5,0,33.8,0c2.9,0,3.5-0.6,3.5-3.5c0-24,0-48.1,0-72.1
			C159.1,357.1,158.7,356.6,155.5,356.6z M137.1,379.3c4.8,0,9.6,0,14.6,0c0,2.8,0,5.7,0,8.8c-4.9,0-9.7,0-14.6,0
			C137.1,385.1,137.1,382.3,137.1,379.3z M151.8,426.6c-4.8,0-9.7,0-14.6,0c0-2.9,0-5.8,0-8.8c5,0,9.7,0,14.6,0
			C151.8,420.7,151.8,423.6,151.8,426.6z M151.8,413.7c-4.8,0-9.6,0-14.6,0c0-2.8,0-5.7,0-8.8c4.8,0,9.6,0,14.6,0
			C151.8,407.9,151.8,410.7,151.8,413.7z M151.8,400.8c-4.9,0-9.7,0-14.6,0c0-3,0-5.8,0-8.9c4.8,0,9.6,0,14.6,0
			C151.8,394.9,151.8,397.8,151.8,400.8z M151.8,375.2c-4.9,0-9.6,0-14.6,0c0-2.9,0-5.8,0-8.9c4.8,0,9.6,0,14.6,0
			C151.8,369.3,151.8,372.2,151.8,375.2z"/>
	</g>
	<g>
		<path class="st2" d="M323.5,405.3c0-2.2,0.2-4.1,0-6c-0.7-6.2-3.1-11.4-9.6-13.4c-6.6-2-12.6-0.7-17.3,4.6
			c-5.1,5.7-5.7,12.6-4.1,19.7c2.7,12.1,19.1,17.1,28.5,8.8c0-1.6,0-3.2,0-4.8c-13.6,8.4-23.6,1.2-23-8.9
			C306.4,405.3,314.9,405.3,323.5,405.3z M309.6,389.9c5,0.5,8.2,4.7,7.8,10.4H298C299,393.5,303.7,389.3,309.6,389.9z"/>
	</g>
</g>
</svg>
