<svg id="Layer_1" data-name="Layer 1" xmlns="http://www.w3.org/2000/svg" viewBox="0 0 1225.62 454.46"><title>gd&amp;amp;t</title><path d="M1073.21,525.43v65.16c-3.15-2.11-.09-5.87-2.24-8.06.17-1.58,2.19-3.29-.26-4.71,2.41-14,.36-28.17.89-42.26C1071.69,532.66,1071.07,529.67,1073.21,525.43Z" transform="translate(-626.13 -280.47)" style="fill:#050606"/><path d="M1072.06,514.69c.32,4.81-1.26,7-5.73,9-5.51,2.34-10.51,6-15.6,9.22-17,11-34,22.15-51.06,33.17-3.61,2.34-7.13,2.63-11.25.33-11.14-6.26-22.58-12-33.83-18-3.63-2-6.47-2.38-10.36.22A303.1,303.1,0,0,1,918,563.94c-4.39,2.32-6,5.13-5.64,10,.93,11.31.83,22.75,2.32,34,1,7.79-1.45,12.39-8.35,15.2-1.29.53-2.56,1.16-3.86,1.75l-2.75-1.31a18.18,18.18,0,0,1,6.37-4.39c3.25-1.18,4.9-3.46,4.71-7.05-.59-11.52-1.26-23.06-1.62-34.6-.17-6.29-2.18-6.38-7.09-3.4-21.91,13.38-42.9,28.28-65.74,40.13-3,1.55-3.81,3.91-3.67,7,.45,12,1.1,24.1,1.23,36.16,0,3.3,1.64,4,4,4.48.61.38,1.24.76,1.84,1.16-6.06,6-11.63,3.36-17.08-1l1.71-1.5c2.39.15,7.22,5.48,6.36-1.78-1.44-12.23-.22-24.47-1.46-36.65-.28-2.7-1.8-3.56-3.69-4.58q-26.14-14.12-52.29-28.29l-102-55c-2.91-1.57-5.34-2.49-5,2.59.68,11.54,1.33,23.09,1.73,34.65.13,3.56,1.69,5.65,4.62,7.26,12.41,6.83,24.92,13.46,37.12,20.63,10.93,6.42,23.15,10.45,33.21,18.41-.51.52-1,1-1.58,1.56q-37.6-18.18-73.5-39.55a6.06,6.06,0,0,1-3.33-5.61q-1.05-20.48-2.57-40.94c-.34-4.51,1.16-6.83,5.25-9.34,16.71-10.2,33.23-20.73,49.27-31.95,7-4.88,9.47-13.93,14.88-20.49,3.12-3.78,5.9-7.85,8.82-11.8.46.53.91,1.06,1.39,1.59-5,7.44-9.79,15-15,22.26-3.23,4.54-3.42,7.53,2.17,10.53,21.57,11.64,42.94,23.67,64.45,35.43,8.67,4.74,8.5,4.43,14.11-3.86,8.84-13.05,17.07-26.55,26.91-38.89.5.56,1,1.13,1.47,1.68-8.46,12.87-16.94,25.73-25.7,39,4,.74,5.8-1.5,7.91-2.81,19.59-12.3,39-24.83,58.71-36.95,31.38-19.32,62.73-38.68,94.49-57.33,11.06-6.48,17.28-13.88,13.19-27.09a14.31,14.31,0,0,1-.05-3.53c-.78-21.29-1.68-42.56-2.27-63.85-.15-5.65-2.37-5.19-6-3-9.3,5.65-18.4,11.69-28,16.73-17.24,9-32.33,20.23-42.16,37.49l-1.92-1.87c3.48-5,6.83-10.17,10.46-15.09,2.83-3.86,2.81-6-2.06-8.5C890.17,350.35,868.1,339,846.39,327c-6.37-3.54-10.19-3-13.76,2.89q-.69-.86-1.41-1.71c3.22-10.46,12.91-13.88,20.89-19,14.51-9.26,29.28-18.12,43.87-27.24,2.87-1.81,5-2,8.27-.25,24.2,13.4,48.15,27.32,73.35,38.68,6.87,3.12,7.85,6.37,8,13.12.62,27.41,2.22,54.8,3.25,82.21.13,3.61,1.54,5.3,4.56,7,24.1,13.65,48.05,27.56,72.17,41.17,3.56,2,4.55,3.92,4.56,8.24C1070.19,486.31,1071.1,500.51,1072.06,514.69Zm-16.24,11.1c6.12-4.14,13.42-7.54,12.11-17a141.44,141.44,0,0,1-.84-31.53c.27-3.22-1.5-6.33-5.72-3.63-5.38,3.4-10.77,6.8-15.87,10.6-7,5.25-14.31,10.88-21.46,15.06-8.91,5.19-17.66,10.93-26.71,16-2.54,1.43-3.78,3.82-3.59,7.11.74,13.36,1.24,26.73,1.88,41.32,10.08-5.89,19.53-11.08,28.63-16.84C1034.93,540.13,1045.33,532.88,1055.82,525.79Zm1.43-53.5c2.7-1.92,6.29-4.55.85-8-21.57-13.53-44-25.45-66.28-37.79-3.29-1.82-6-1.76-9.22.31-11.14,7.11-22.43,14-33.68,20.94q-58.33,35.93-116.65,71.85c-9.85,6.09-19.58,12.36-29.41,18.48-1.82,1.14-5.83,3-5.64.87.44-5.24-3.63-4.9-5.89-6.29C783.67,528,775.61,524,768,519.25c-3.52-2.16-5.9-2.26-9.22.56-3.06,2.58-6.52,5.66-11.33,4.29l-.17-3.25c3.44-3.06,9.29-.66,12.5-5.85-11.55-6.16-23.15-12-34.36-18.48-3.8-2.18-6.5-1.65-9.68.4-14.67,9.5-29.29,19.12-44.11,28.4-4.3,2.7-2.7,3.76.47,5.51,7,3.84,13.88,8,20.89,11.82,6.73,3.69,13.53,10.27,20.4-.17a2,2,0,0,1,.89-.61c1.31-.49,3.52-.43,4.31,1.49.9,2.11-1,2.62-2.77,3.06-2.47.62-5,1.21-6.86,3.82,5,4.6,11.38,6.59,17.12,9.69q48.87,26.4,97.72,52.88c3,1.64,5.25,2.44,8.41.48q33.27-20.67,66.71-41.12c6.66-4.1,6.68-4.5-.19-8.27-9.33-5.09-18.68-10.16-28.09-15.11-4.11-2.16-3.86-4.39-.29-6.57,7.25-4.45,14.58-8.71,21.88-13l1.9,1.63c-5.68,3.77-11.25,7.74-17.12,11.22-4.64,2.75-3.79,4.33.4,6.5,9.63,5,19.16,10.26,28.66,15.56,2.76,1.54,5,.71,7.28-.68,8.1-4.87,15.89-10.32,24.33-14.48,9-4.45,13.48-9.91,11.35-20.65-1.5-7.56-.61-15.58-1-23.4-.19-4-.84-7.29-6-3.36-3.35,2.57-7.22,4.41-10.85,6.56l-2.89-1.31c4.92-3.23,10.22-6,14.67-9.81s7.64-3.73,12.49-.84c10.34,6.14,21.14,11.54,31.76,17.22,2.11,1.12,4,1.83,6.48.19,13.29-8.65,26.75-17,40.09-25.6C1041.72,482.84,1049.61,477.72,1057.25,472.29Zm-75.41,86.6c9.32,4.67,9.37,4.54,9.28-5.52,0-3.78,0-7.56,0-11.34H991c-.44-6.35-1-12.68-1.28-19-.09-2.26-.39-3.92-2.73-5.13-10.44-5.44-20.74-11.14-31.18-16.6-2.33-1.23-4.31-1.71-4,2.61.73,10.59.61,21.23,1.35,31.82.27,3.91.17,8.34,5,10.7C966.18,550.26,973.86,554.88,981.84,558.89Zm-2.9-233c-9.3-4.79-18.35-8.48-26.29-13.84-9.68-6.5-18.33-8.56-27.2.63-1.14-1.45-3-2.48-3-4.6,3.38-2.23,8.34-1,11.36-5.8-10.72-5.76-21.38-11.52-32.08-17.24-1.73-.92-3.2,0-4.62.89q-25.29,15.6-50.6,31.23c-3.69,2.26-3.27,3.8.44,5.74,7.73,4,15.54,8,22.81,12.76,5.34,3.51,8.4,1.74,11.59-2.55,1-1.27,1.22-4.92,4.28-2,.51,1.49,1,3,1.56,4.45-1.53,2.51-5.63,1.24-6.79,4.83,6.82,5,15.32,7.24,22.09,12.14,12.12,8.75,22.77,9.09,35.22-.39C950.31,342.54,965.06,335.77,978.94,325.91Z" transform="translate(-626.13 -280.47)" style="fill:#050606"/><path d="M1070.71,577.82c2.45,1.42.43,3.13.26,4.71C1069.51,581.05,1070.84,579.4,1070.71,577.82Z" transform="translate(-626.13 -280.47)" style="fill:#080b09"/><path d="M1070.71,577.82c.13,1.58-1.2,3.23.26,4.71-3.78,6-10.93,6.22-16.35,9.54C1059.8,587.08,1062.8,579.7,1070.71,577.82Z" transform="translate(-626.13 -280.47)" style="fill:#080b09"/><path d="M1067.93,508.78c1.31,9.47-6,12.87-12.11,17-10.49,7.09-20.89,14.34-31.57,21.1-9.1,5.76-18.55,11-28.63,16.84-.64-14.59-1.14-28-1.88-41.32-.19-3.29,1-5.68,3.59-7.11,9-5.09,17.8-10.83,26.71-16,7.15-4.18,14.43-9.81,21.46-15.06,5.1-3.8,10.49-7.2,15.87-10.6,4.22-2.7,6,.41,5.72,3.63A141.44,141.44,0,0,0,1067.93,508.78Zm-22.43,4.62-8.89-8.17c-.82-6.33-5.5-1.52-8.24-2.8,2.27,1.56,2.08,5.25,5.42,5.61C1038.45,506.71,1039.46,512.94,1045.5,513.4Z" transform="translate(-626.13 -280.47)" style="fill:#ffe600"/><path d="M1060.18,686.64a1.6,1.6,0,0,1,1.31,2.11c-2,4.5-6.22,9,.89,12.58-.61,2.87-2.32,3-3.65,1.64-2.41-2.44-4.37-3.35-6.73,0-.74,1-2,2.38-3.38.7a2.1,2.1,0,0,1,.47-3.11c4-3.14,1.49-5.44-.89-7.87-1.1-1.13-2.77-2.53-1.14-4.17,1.41-1.42,2.53.29,3.42,1.2,2.68,2.78,4.64,2.41,6.27-1.06A3.13,3.13,0,0,1,1060.18,686.64Z" transform="translate(-626.13 -280.47)" style="fill:#0c100e"/><path d="M976.5,472.19c-2.18-3.61-3.88-8.12-9.67-5.47v-.14l-.19,0c-1.79-4.12-5.84-3.93-9.22-5,3.12,1.54,5.15,5.33,9.22,5a.69.69,0,0,1,.07.15l.12,0C966.83,474.13,973.08,470.69,976.5,472.19Zm0,0,.19.3.17,0c.61,2.21-.85,3.08-2.49,4.07-4,2.36-7.87,4.87-11.78,7.3l-8.46,4.87c4.14,1.38,6.12-3,9.83-2.17,11.29-3.76,17.84-14.2,28.22-19.35-5.87,0-9.39,5.87-15.32,5.28a.68.68,0,0,0,0-.15Zm81.58-7.87c5.44,3.4,1.85,6-.85,8-7.64,5.43-15.53,10.55-23.44,15.64-13.34,8.57-26.8,16.95-40.09,25.6-2.51,1.64-4.37.93-6.48-.19-10.62-5.68-21.42-11.08-31.76-17.22-4.85-2.89-8.16-2.85-12.49.84s-9.75,6.58-14.67,9.81c-12.7,6.4-24.28,14.65-36.14,22.41-7.3,4.33-14.63,8.59-21.88,13-3.57,2.18-3.82,4.41.29,6.57,9.41,5,18.76,10,28.09,15.11,6.87,3.77,6.85,4.17.19,8.27q-33.39,20.54-66.71,41.12c-3.16,2-5.44,1.16-8.41-.48Q775,586.25,726,559.93c-5.74-3.1-12.14-5.09-17.12-9.69,1.84-2.61,4.39-3.2,6.86-3.82,1.75-.44,3.67-.95,2.77-3.06-.79-1.92-3-2-4.31-1.49l-.32-1.33c-.55-5.17-.06-10.26,4.08-9.77s5.93,4.81,2.44,9.07c-.16.19,0,.78.13,1.08,3.53,6.69,9.1,7.72,14.73,2.7,1.26-1.12,3.86-2.16,2-4.18a1.67,1.67,0,0,0-1.18-.64l.89-3.08a8,8,0,0,0,7.76-.29c3.34-2,2.75-5.21,1.86-8.17-.44-1.43.34-2.15.76-3.16,4.81,1.37,8.27-1.71,11.33-4.29,3.32-2.82,5.7-2.72,9.22-.56,7.66,4.72,15.72,8.77,23.38,13.46,2.26,1.39,6.33,1,5.89,6.29-.19,2.17,3.82.27,5.64-.87,9.83-6.12,19.56-12.39,29.41-18.48q58.31-36,116.65-71.85c11.25-6.93,22.54-13.83,33.68-20.94,3.23-2.07,5.93-2.13,9.22-.31C1014.06,438.89,1036.53,450.81,1058.1,464.34Zm-43.85,21.73c0-4.2-2.81-6.29-7-6.31-1.32,0-3.14-.48-3.25,1.63-.08,1.64,1.27,1.6,2.5,1.46,2.55-.26,4.68,1.15,4.43,3.39-.4,3.7-3.76,1.21-5.72,1.88-3.65-2.6-7.72-1.75-11.55-1-2.46.51-4.91,2.49-1.85,4.92,3.44,2.72,6.88,5.91,12,6.68-.95-5.17-7.32-4.38-8-9.2h6.44a4.79,4.79,0,0,0,1.77.58,28.75,28.75,0,0,0,2.83.86C1011.06,491.92,1014.23,490.7,1014.25,486.07Zm-30-.44c5.64-3.48,12.3-5.44,16.17-11.82-5.93,3-11.88,6-17.77,9.14-.72.38-1.65,1.24-.91,2.22A1.81,1.81,0,0,0,984.24,485.63Z" transform="translate(-626.13 -280.47)" style="fill:#ffe600"/><path d="M1036.61,505.23l8.89,8.17c-6-.46-7-6.69-11.71-5.36l.46-.46C1035.29,507.05,1037.35,507.55,1036.61,505.23Z" transform="translate(-626.13 -280.47)" style="fill:#050606"/><path d="M1036.61,505.23c.74,2.32-1.32,1.82-2.36,2.35Z" transform="translate(-626.13 -280.47)" style="fill:#050606"/><path d="M1036.61,505.23l-2.36,2.35a.94.94,0,0,0-.46.46c-3.34-.36-3.15-4.05-5.42-5.61C1031.11,503.71,1035.79,498.9,1036.61,505.23Z" transform="translate(-626.13 -280.47)" style="fill:#111616"/><path d="M1020.62,613.12c7.22-6.35,15.95-10.32,24.18-15.1-7,6.45-15.06,11.37-23.36,16A6.57,6.57,0,0,1,1020.62,613.12Z" transform="translate(-626.13 -280.47)" style="fill:#050606"/><path d="M1034.25,507.58l-.46.46A.94.94,0,0,1,1034.25,507.58Z" transform="translate(-626.13 -280.47)" style="fill:#fdfdfd"/><path d="M1015.24,673.45c8.78,2.54,15.49,9,23.76,12.7-9.31,0-16.31-5.76-24-9.68.65.29,1.39.44,1.7-.32C1017.16,674.82,1016.23,674.09,1015.24,673.45Z" transform="translate(-626.13 -280.47)" style="fill:#050606"/><path d="M1018,401l10.37-6.59c-2.41,4.16-5.68,7-10.18,8.13.13,0,.26-.19.36-.57S1018.47,401.33,1018,401Z" transform="translate(-626.13 -280.47)" style="fill:#050606"/><path d="M1024.86,356.11c3.13,3.72,2.68,8.31,1.14,11.75-2,4.39-5.74,1.95-9,.41-2.49-1.17-3.82-7.12-7.57-3-3.21,3.55,0,6.88,2.64,9.88-4.84.4-6.31-2.31-6.72-6.19-.36-3.33.49-6.12,3.44-7.89,3.53-2.11,5.6.32,7.69,2.68,1.43,1.58,3,3.61,5.31,2.77s2-3.38,1.75-5.56C1023.38,359.38,1023.07,357.69,1024.86,356.11Z" transform="translate(-626.13 -280.47)" style="fill:#050606"/><path d="M1020.66,341c3.19.63,4.94,2.45,4.14,6.19-2.79-.6-3.65-5.56-7.58-3.13-3.25,2-2.15,4.62-1.9,7.49.4,4.79-4.07,4.29-6.85,5.09-3.42,1-3.21-2-3-4,.21-2.81-1.2-5.95,1.14-9,3,2.68.36,6.23,3.12,9.67C1013.26,348.58,1011.27,339.15,1020.66,341Z" transform="translate(-626.13 -280.47)" style="fill:#050606"/><path d="M1021.44,614c-.67.1-1-.17-.82-.85A6.57,6.57,0,0,0,1021.44,614Z" transform="translate(-626.13 -280.47)" style="fill:#555656"/><path d="M1020.62,613.12c-.13.68.15,1,.82.85-5.08,3.65-10,7.55-15.87,9.89-.23-.23-.46-.48-.67-.73A63.19,63.19,0,0,1,1020.62,613.12Z" transform="translate(-626.13 -280.47)" style="fill:#050606"/><path d="M1018,401c.47.29.64.61.55,1s-.23.57-.36.57C1018.11,402.07,1018.05,401.56,1018,401Z" transform="translate(-626.13 -280.47)" style="fill:#568469"/><path d="M1018,401c0,.52.11,1,.19,1.54-1.43.71-1.77,3.27-3.84,2.61-1.77-.59-.57-2.45-.86-3.69-.8-3.46-1.12-7-2-10.42-.57-2.12-.57-3.61,1.65-4.65,1.24-.57,2.32-1.85,3.75-.59s1.14,3,.85,4.64C1017.12,394,1015.26,397.58,1018,401Z" transform="translate(-626.13 -280.47)" style="fill:#050606"/><path d="M1015.24,673.45c1,.64,1.92,1.37,1.43,2.7-.31.76-1,.61-1.7.32C1016.67,675.6,1015.6,674.49,1015.24,673.45Z" transform="translate(-626.13 -280.47)" style="fill:#202e25"/><path d="M1015.24,673.45c.36,1,1.43,2.15-.27,3-7.92-3-16.32-5.17-22.43-11.75-.91-1-2.49-1.4-2.58-3.65C1000,662.14,1008.13,666.72,1015.24,673.45Z" transform="translate(-626.13 -280.47)" style="fill:#050606"/><path d="M1014.12,304.52c2.17,9.22,1.39,18.27-1,28.15C1010.87,322.5,1008.28,313.23,1014.12,304.52Z" transform="translate(-626.13 -280.47)" style="fill:#050606"/><path d="M1007.28,479.76c4.16,0,7,2.11,7,6.31,0,4.63-3.19,5.85-7.34,4.92a28.75,28.75,0,0,1-2.83-.86c.72.06,1.22-.41,1.16-2,2-.67,5.32,1.82,5.72-1.88.25-2.24-1.88-3.65-4.43-3.39-1.23.14-2.58.18-2.5-1.46C1004.14,479.28,1006,479.76,1007.28,479.76Z" transform="translate(-626.13 -280.47)" style="fill:#050606"/><path d="M1004.9,623.13c.21.25.44.5.67.73a50.37,50.37,0,0,1-16.47,9.69C994.12,629.65,998.93,625.49,1004.9,623.13Z" transform="translate(-626.13 -280.47)" style="fill:#050606"/><path d="M1005.24,488.12c.06,1.6-.44,2.07-1.16,2l-1.77-.58C1003.44,489.39,1004.61,489.32,1005.24,488.12Z" transform="translate(-626.13 -280.47)" style="fill:#050606"/><path d="M1002.31,489.55l1.77.58A4.79,4.79,0,0,1,1002.31,489.55Z" transform="translate(-626.13 -280.47)" style="fill:#1e2420"/><path d="M1002.92,313.65c-3.68,2.41-7.37,4.8-11.06,7.22C993.91,316.08,998.36,314.84,1002.92,313.65Z" transform="translate(-626.13 -280.47)" style="fill:#050606"/><path d="M1005.24,488.12c-.63,1.2-1.8,1.27-2.93,1.43h-6.44c.7,4.82,7.07,4,8,9.2-5.17-.77-8.61-4-12-6.68-3.06-2.43-.61-4.41,1.85-4.92C997.52,486.37,1001.59,485.52,1005.24,488.12Z" transform="translate(-626.13 -280.47)" style="fill:#050606"/><path d="M995.47,593.39c2.87,5.77.67,11.82,1.35,18.59-4-3.08-1.54-7-3-9.79C998.23,600,995.28,596.39,995.47,593.39Z" transform="translate(-626.13 -280.47)" style="fill:#050606"/><path d="M995.47,593.39c-.19,3,2.76,6.61-1.69,8.8C996.75,599.72,994.9,596.31,995.47,593.39Z" transform="translate(-626.13 -280.47)" style="fill:#050606"/><path d="M995.47,571.58v21.81c-.57,2.92,1.28,6.33-1.69,8.8-3.29-.21-4.77,2.71-7.11,4.16-1.94,1.2-3.44.63-5.07-.29,1-1.5-.5-4.44,2.71-4.63,9-.55,10.12-6.37,9.53-13.77A41.56,41.56,0,0,1,995.47,571.58Z" transform="translate(-626.13 -280.47)" style="fill:#080c0a"/><path d="M1000.41,473.81c-3.87,6.38-10.53,8.34-16.17,11.82a1.81,1.81,0,0,1-2.51-.46c-.74-1,.19-1.84.91-2.22C988.53,479.85,994.48,476.85,1000.41,473.81Z" transform="translate(-626.13 -280.47)" style="fill:#050606"/><path d="M991.12,553.37c.09,10.06,0,10.19-9.28,5.52-8-4-15.66-8.63-23.7-12.51-4.87-2.36-4.77-6.79-5-10.7-.74-10.59-.62-21.23-1.35-31.82-.3-4.32,1.68-3.84,4-2.61,10.44,5.46,20.74,11.16,31.18,16.6,2.34,1.21,2.64,2.87,2.73,5.13.31,6.37.84,12.7,1.28,19h.17C991.12,545.81,991.1,549.59,991.12,553.37Z" transform="translate(-626.13 -280.47)" style="fill:#ffe600"/><path d="M984.35,403.19c4.09,13.21-2.13,20.61-13.19,27.09-31.76,18.65-63.11,38-94.49,57.33C857,499.73,837.55,512.26,818,524.56c-2.11,1.31-3.92,3.55-7.91,2.81,8.76-13.27,17.24-26.13,25.7-39,.17-.23.32-.48.47-.71a3.79,3.79,0,0,1,.14.48c-3.52,10-10.65,17.87-15.89,26.82-1.79,3-4.15,5.76-6.16,9.66,18.61-11.22,36.25-22.59,54.07-33.69,26.81-16.71,53.89-32.92,80.75-49.55q13.92-8.61,27.83-17.28c5.07-3.17,7-7.34,6.52-13.11-1.92-23.42-2.3-46.92-2.85-70.39-.16-6.54-1.54-7.32-7.15-4-15.05,9-30.13,18.05-45.33,26.85-6,3.48-9.3,9.36-13.35,14.58-2.7,3.48-4.26,8.12-9.16,9.49l-.17,0,.34-.51c9.83-17.26,24.92-28.46,42.16-37.49,9.62-5,18.72-11.08,28-16.73,3.67-2.2,5.89-2.66,6,3,.59,21.29,1.49,42.56,2.27,63.85A14.31,14.31,0,0,0,984.35,403.19Z" transform="translate(-626.13 -280.47)" style="fill:#ffe600"/><path d="M983.48,411c.47,5.77-1.45,9.94-6.52,13.11q-13.92,8.64-27.83,17.28c-26.86,16.63-53.94,32.84-80.75,49.55-17.82,11.1-35.46,22.47-54.07,33.69,2-3.9,4.37-6.62,6.16-9.66,5.24-9,12.37-16.82,15.89-26.82a3.79,3.79,0,0,0-.14-.48q34.65-50.06,69.25-100.11l.17,0c4.9-1.37,6.46-6,9.16-9.49,4.05-5.22,7.32-11.1,13.35-14.58,15.2-8.8,30.28-17.83,45.33-26.85,5.61-3.37,7-2.59,7.15,4C981.18,364.07,981.56,387.57,983.48,411Z" transform="translate(-626.13 -280.47)" style="fill:#ffe600"/><path d="M981.48,626.1c.72,2.58-.83,3.27-2.11,4.1a32.34,32.34,0,0,0-3.59,2.23c-1.06.91-3,2.09-.17,3.32,8.06,3.46,8.63,7,2.41,14.87l-1.31-1.71a9.69,9.69,0,0,0,1-1.83c.68-2.37,2.94-4.79.76-7.24s-4.24,1.12-6.44.55C968.77,631.4,975.51,629.33,981.48,626.1Z" transform="translate(-626.13 -280.47)" style="fill:#050606"/><path d="M992.2,467.25c-10.38,5.15-16.93,15.59-28.22,19.35-.46-.89-.92-1.81-1.37-2.7,3.91-2.43,7.81-4.94,11.78-7.3,1.64-1,3.1-1.86,2.49-4.07C982.81,473.12,986.33,467.27,992.2,467.25Z" transform="translate(-626.13 -280.47)" style="fill:#050606"/><polygon points="351.89 370.14 351.89 370.16 351.88 370.16 351.89 370.14" style="fill:#232b27"/><path d="M976.71,648.91l1.31,1.71,0,0C976.62,650.79,976.08,650.3,976.71,648.91Z" transform="translate(-626.13 -280.47)" style="fill:#050606"/><path d="M976.71,648.91c-.63,1.39-.09,1.88,1.29,1.73-3.68,3.32-6.35,2.11-9.33-2.64C972,648.34,974.3,650.56,976.71,648.91Z" transform="translate(-626.13 -280.47)" style="fill:#050606"/><path d="M976.88,472.53l-.17,0,.13-.13A.68.68,0,0,1,976.88,472.53Z" transform="translate(-626.13 -280.47)" style="fill:#1d2624"/><path d="M976.84,472.38l-.13.13-.19-.3Z" transform="translate(-626.13 -280.47)" style="fill:#181e1e"/><path d="M976.5,472.19c-3.42-1.5-9.67,1.94-9.67-5.47C972.62,464.07,974.32,468.58,976.5,472.19Z" transform="translate(-626.13 -280.47)" style="fill:#050606"/><path d="M952.65,312.07c7.94,5.36,17,9.05,26.29,13.84-13.88,9.86-28.63,16.63-41.27,26.25-12.45,9.48-23.1,9.14-35.22.39-6.77-4.9-15.27-7.12-22.09-12.14,1.16-3.59,5.26-2.32,6.79-4.83.19-.4.39-.84.6-1.23,1.47-2.15,4.7-2.72,6.16-5.44a5.36,5.36,0,0,0-2.85.51l-1.8-3.69c1.12,0,1.92-.91,2-2.49.12-3.42,2.57-2.77,4.6-2.81,2.84-.06,2.59,2,2.78,3.94,1.18,12.75,1.54,13,12.3,6.9a30.26,30.26,0,0,0,3-2.36,21.47,21.47,0,0,0-2.26-.69l1.27-2.77a8.45,8.45,0,0,0,7.45-.51c3.38-1.85,2.05-5,1-7.51-2-4.68,0-5.44,4.05-4.73C934.32,303.51,943,305.57,952.65,312.07Z" transform="translate(-626.13 -280.47)" style="fill:#ffe600"/><path d="M965.27,635.81c1.48-.85,2.43,1,2,2.53-.93,3.78-2,7.51-3.1,11.25-.36-.8-.7-1.57-1.08-2.35,0,0,0,0,0,0a1.74,1.74,0,0,0-.36-.78c1.22-10.59-6-1-8.52-3.94C956.77,638.63,961.58,638,965.27,635.81Z" transform="translate(-626.13 -280.47)" style="fill:#050606"/><path d="M966.83,466.58v.14l-.12,0Z" transform="translate(-626.13 -280.47)" style="fill:#181e1e"/><path d="M966.83,466.58l-.12.17a.69.69,0,0,0-.07-.15Z" transform="translate(-626.13 -280.47)" style="fill:#505f5f"/><path d="M966.64,466.6c-4.07.31-6.1-3.48-9.22-5C960.8,462.67,964.85,462.48,966.64,466.6Z" transform="translate(-626.13 -280.47)" style="fill:#050606"/><path d="M965.61,617.53c3.14,4.62.13,8.06-2.7,10.94-2.36,2.4-5.43,1.68-10.15-1.25,8-.28,12.43-2.49,12.43-9.29Z" transform="translate(-626.13 -280.47)" style="fill:#050606"/><path d="M957.4,611.6c3,1.33,9.94-1.71,8.21,5.93l-.42.4c-1.77-.95-2.62-4.19-5.72-1.89-1.29,1-3.8,4.07-4.85.69-.76-2.4-1.86-6.14.76-8.5,2.19-2,5-3.33,8.16-5.43C963.73,608,958.27,607.74,957.4,611.6Z" transform="translate(-626.13 -280.47)" style="fill:#050606"/><path d="M963.12,647.24c.38.78.72,1.55,1.08,2.35C963.12,649.12,963.29,648.11,963.12,647.24Z" transform="translate(-626.13 -280.47)" style="fill:#050606"/><path d="M964.2,649.59c-.19,2.82-.38,5.65-.55,8.46-3-3.91-.51-7.79-.89-11.63.11.26.25.51.36.78,0,0,0,0,0,0C963.29,648.11,963.12,649.12,964.2,649.59Z" transform="translate(-626.13 -280.47)" style="fill:#000b00"/><path d="M962.61,483.9c.45.89.91,1.81,1.37,2.7C963.14,485.9,961.68,485.52,962.61,483.9Z" transform="translate(-626.13 -280.47)" style="fill:#050606"/><path d="M964,486.6c-3.71-.88-5.69,3.55-9.83,2.17l8.46-4.87C961.68,485.52,963.14,485.9,964,486.6Z" transform="translate(-626.13 -280.47)" style="fill:#050606"/><path d="M951.47,633l1.2,1.54c-3.43,2.45-6.83,4.92-10.84,7.81-1.65-6-.25-10.17,2.61-14.52,1.5-2.28,6.76-4.76,2.66-8-3.18-2.49-5.82,1.1-7.59,6.16-1-6.27,1.16-8.59,4.64-9.69,2.34-.73,5-.25,6.33,2,2.11,3.42.49,6.24-2.13,8.77s-4.71,5.2-4.16,10.24C947.23,635.56,949.34,634.29,951.47,633Z" transform="translate(-626.13 -280.47)" style="fill:#050606"/><path d="M949,528.28c2.13,10.74-2.36,16.2-11.35,20.65-8.44,4.16-16.23,9.61-24.33,14.48-2.3,1.39-4.52,2.22-7.28.68-9.5-5.3-19-10.53-28.66-15.56-4.19-2.17-5-3.75-.4-6.5,5.87-3.48,11.44-7.45,17.12-11.22q18.57-11.34,37.13-22.73c3.63-2.15,7.5-4,10.85-6.56,5.13-3.93,5.78-.65,6,3.36C948.37,512.7,947.48,520.72,949,528.28Z" transform="translate(-626.13 -280.47)" style="fill:#ffe600"/><path d="M941,661.83c2.94-2,5.49-4.79,11.5-5.32-4.41,3-7.23,4.85-10.06,6.75C942.74,662,942.46,661.3,941,661.83Z" transform="translate(-626.13 -280.47)" style="fill:#050606"/><path d="M941,661.83c1.48-.53,1.76.14,1.44,1.43C942,662.78,941.45,662.31,941,661.83Z" transform="translate(-626.13 -280.47)" style="fill:#050606"/><path d="M942.42,663.26,931,670.58c1.82-4.91,6.25-6.37,10-8.75C941.45,662.31,942,662.78,942.42,663.26Z" transform="translate(-626.13 -280.47)" style="fill:#050606"/><path d="M931.21,508.08q-18.57,11.37-37.13,22.73a12.2,12.2,0,0,1,2.11-2.72,39.29,39.29,0,0,0,6-3.76l1.25-.84c.84-.43,1.66-.87,2.46-1.33,2-1.19,4-2.49,6-3.8l.14-.09a108.76,108.76,0,0,0,10.72-6.79.06.06,0,0,1,0,0A38.13,38.13,0,0,1,931.21,508.08Z" transform="translate(-626.13 -280.47)" style="fill:#171f1e"/><path d="M928.32,506.77l2.89,1.31a38.13,38.13,0,0,0-8.41,3.38A47.05,47.05,0,0,0,928.32,506.77Z" transform="translate(-626.13 -280.47)" style="fill:#171f1e"/><path d="M928.94,639.21c1.68,2.51-.45,3.29-2,4.19-3.38,1.9-7.59,2.37-10.23,5.66l-2.85,1.9c-3.63,2.42-7.16,5.06-11.92,5.38.76-7.37,8.48-5.19,12-8.71,2.26-.3.91-3.07,2.58-3.78,3.92.93,5.59-2.39,8-4.27C926,638.36,927.25,636.71,928.94,639.21Z" transform="translate(-626.13 -280.47)" style="fill:#050606"/><path d="M933.77,302.3c-3,4.84-8,3.57-11.36,5.8-1.54,4.44-3.24,5.89-6.77,1.19-1.88-2.47-5.42-2.83-8.52-2.15-2.2.5-2.72,2.91-2.56,4.6.43,5,1.92,9.66,6.5,12.7a11.11,11.11,0,0,0,1.88,1l-1.27,2.77a.49.49,0,0,0-.25.06c-6.18,3.27-10.34,4.05-9.3-5.53.38-3.48-3.21-6.25-6.46-6.5a8.33,8.33,0,0,0-8.17,4.66c-.76,1.57-1.43,3.38.36,4.39a3,3,0,0,0,1.41.43l1.8,3.69c-1.5.71-2.79,1.79-4.33,1.86a6.46,6.46,0,0,0-1.14-.15c-3.06-2.92-3.33.73-4.28,2-3.19,4.29-6.25,6.06-11.59,2.55-7.27-4.78-15.08-8.73-22.81-12.76-3.71-1.94-4.13-3.48-.44-5.74q25.32-15.6,50.6-31.23c1.42-.87,2.89-1.81,4.62-.89C912.39,290.78,923.05,296.54,933.77,302.3Z" transform="translate(-626.13 -280.47)" style="fill:#ffe600"/><path d="M925.45,312.7c-4-.71-6,.05-4.05,4.73,1,2.49,2.37,5.66-1,7.51a8.45,8.45,0,0,1-7.45.51,11.11,11.11,0,0,1-1.88-1c-4.58-3-6.07-7.68-6.5-12.7-.16-1.69.36-4.1,2.56-4.6,3.1-.68,6.64-.32,8.52,2.15,3.53,4.7,5.23,3.25,6.77-1.19-1,5.3-3.5,6.34-7.66,2.83-2.17-1.83-4.66-2.93-7.06-1.12-2.7,2.05-.87,4.77-.07,7.12a11.11,11.11,0,0,0,4.67,6.05,5.77,5.77,0,0,0,6.05.47c2.11-1.16,1.59-3.15,1.25-5C918.72,313.65,919.65,310.7,925.45,312.7Z" transform="translate(-626.13 -280.47)" style="fill:#161d1c"/><path d="M922.41,308.1c.09,2.12,1.9,3.15,3,4.6-5.8-2-6.73.95-5.86,5.74.34,1.86.86,3.85-1.25,5a5.77,5.77,0,0,1-6.05-.47,11.11,11.11,0,0,1-4.67-6.05c-.8-2.35-2.63-5.07.07-7.12,2.4-1.81,4.89-.71,7.06,1.12C918.91,314.44,921.45,313.4,922.41,308.1Zm-7.36,14.69c2.43.21,4.16-.78,4.1-3.94-.77-5-4.9-6.9-9.16-8.44-2.16-.79-3.23,1.13-2.73,2.87C908.45,317.49,909.35,322.26,915.05,322.79Z" transform="translate(-626.13 -280.47)" style="fill:#161d1c"/><path d="M928.32,506.77a47.05,47.05,0,0,1-5.52,4.69.06.06,0,0,0,0,0A117.89,117.89,0,0,0,912,518.27l-.14.09c-2.83,1.66-5.68,3.31-8.42,5.13-2.56,1.32-5.2,2.57-7.28,4.6a12.78,12.78,0,0,1-4,1.09C904,521.42,915.62,513.17,928.32,506.77Z" transform="translate(-626.13 -280.47)" style="fill:#171f1e"/><path d="M912,518.27a117.89,117.89,0,0,1,10.72-6.79A108.76,108.76,0,0,1,912,518.27Z" transform="translate(-626.13 -280.47)" style="fill:#171f1e"/><path d="M919.15,318.85c.06,3.16-1.67,4.15-4.1,3.94-5.7-.53-6.6-5.3-7.79-9.51-.5-1.74.57-3.66,2.73-2.87C914.25,312,918.38,313.89,919.15,318.85Z" transform="translate(-626.13 -280.47)" style="fill:#ffe600"/><path d="M922.27,675c-2.94,5-8.3,6.12-13.19,8C912.67,679.09,917.37,677,922.27,675Z" transform="translate(-626.13 -280.47)" style="fill:#050606"/><path d="M913.85,651l2.85-1.9C916.08,650.16,915.58,651.49,913.85,651Z" transform="translate(-626.13 -280.47)" style="fill:#050606"/><path d="M916.7,649.06c-.45,6.79.57,13.71-1,20.4l-1.9,0V651C915.58,651.49,916.08,650.16,916.7,649.06Z" transform="translate(-626.13 -280.47)" style="fill:#050606"/><path d="M916.51,625.38v18.47c-3.42-.49-.53,3.35-2.58,3.78C914.73,640.3,912.35,632.64,916.51,625.38Z" transform="translate(-626.13 -280.47)" style="fill:#050606"/><path d="M913.93,647.63c2.05-.43-.84-4.27,2.58-3.78C914.84,644.56,916.19,647.33,913.93,647.63Z" transform="translate(-626.13 -280.47)" style="fill:#050606"/><path d="M912.29,361.58c4.87,2.47,4.89,4.64,2.06,8.5-3.63,4.92-7,10.06-10.46,15.09a0,0,0,0,1,0,0l-.57.8-.07-.15c-.78-5.59,4.14-8.18,6.57-12,5.5-8.64,5.59-8.4-3.72-13.32-18.84-9.92-37.79-19.6-56.48-29.79-6-3.27-11.19-5.28-17-.4a3.39,3.39,0,0,0,0-.45c3.57-5.89,7.39-6.43,13.76-2.89C868.1,339,890.17,350.35,912.29,361.58Z" transform="translate(-626.13 -280.47)" style="fill:#ffe600"/><path d="M911.67,328.22a21.47,21.47,0,0,1,2.26.69,30.26,30.26,0,0,1-3,2.36c-10.76,6.06-11.12,5.85-12.3-6.9-.19-1.94.06-4-2.78-3.94-2,0-4.48-.61-4.6,2.81,0,1.58-.83,2.49-2,2.49a3,3,0,0,1-1.41-.43c-1.79-1-1.12-2.82-.36-4.39a8.33,8.33,0,0,1,8.17-4.66c3.25.25,6.84,3,6.46,6.5-1,9.58,3.12,8.8,9.3,5.53A.49.49,0,0,1,911.67,328.22Z" transform="translate(-626.13 -280.47)" style="fill:#181e1f"/><path d="M910.83,612.15c.19,3.59-1.46,5.87-4.71,7.05a18.18,18.18,0,0,0-6.37,4.39c-.15.09-.33.19-.48.3a.58.58,0,0,1-.09-.21c.09-2.5,1.9-3.85,3.78-4.75,5.38-2.51,7-6.86,6.25-12.3-1-8-1.21-16.06-1.5-24.14-.26-7.35-1.88-8.17-7.94-4.54-20.38,12.19-39.86,25.8-60.71,37.18-2.7,1.46-4.57,3.69-4.32,6.83.93,11.57,1.35,23.17,1.69,34.78a4.28,4.28,0,0,0,2,3.59l.21.19a6.47,6.47,0,0,0-.67,1.37c-2.41-.53-4-1.18-4-4.48-.13-12.06-.78-24.11-1.23-36.16-.14-3.06.64-5.42,3.67-7,22.84-11.85,43.83-26.75,65.74-40.13,4.91-3,6.92-2.89,7.09,3.4C909.57,589.09,910.24,600.63,910.83,612.15Z" transform="translate(-626.13 -280.47)" style="fill:#ffe600"/><path d="M906.08,360.52c9.31,4.92,9.22,4.68,3.72,13.32-2.43,3.82-7.35,6.41-6.57,12l.07.15c-9.41,13.31-18.93,26.52-28.17,39.95-2.64,3.84-4.71,4.83-7.81.76a21.35,21.35,0,0,0-3.16-2.81l-.85-.3L849,418.4c2.33,3,5.36,4.5,8.59,5.66.36,1.47-1.83,3.23,1.42,4.37,12.21,4.24,12.15,4.41,4.51,15-.4.57-1,1-1.41,1.58q-13.74,20.56-27.45,41.12a1.32,1.32,0,0,0-.3-.1c-3.18.08-4.24,2.66-5.67,4.79-7.83,11.6-16.15,22.87-23.39,34.82-3,5-6,5.34-11,2.76-20.62-10.7-40.62-22.56-61-33.74-7.71-4.24-7.49-5.59-2.87-13.34,4-6.66,10.38-11.86,11.83-20,0,0,0-.06,0-.08,3.36-.28,4.27-3.49,5.91-5.7,13.68-18.74,25.58-38.74,39.59-57.29,5.49-7.26,5.7-7.49,12.36-1.77,1.65,1.43,3.27,3.29,5.28.78,1.83-2.28,3.31-4.82.72-7.6a9.44,9.44,0,0,0-3.67-2.11c-4.06-1.6-5-4.05-2.18-7.62,8.8-11.16,15.6-23.72,24.41-34.94,3.34-4.29,8.17-8.25,8-14.62,5.76-4.88,11-2.87,17,.4C868.29,340.92,887.24,350.6,906.08,360.52ZM844.3,406.39c1.69.79,3.08,3.38,5.53,1.38-7.58-6.92-8.23-6.95-16.15-1.4.62,1.84,2.71,1.82,3.78,3s2.36,2.53,1.58,4.37a4.92,4.92,0,0,1-5.06,3.15c-1.88,0-4,.31-5-1.78-.34-.74.3-2,0-2.7-1.31-2.91-2.43-.93-3,.42-.89,2,.27,3.49,1.63,5,3.65,4,7.49,3.49,11.33.6,5.33-4,4.45-8.3-.43-12.31A6.11,6.11,0,0,1,844.3,406.39Zm-13.13-4.22a3.29,3.29,0,0,0-.74-4.47c-3-2.26-6.3-3-10.27.32,2.87,1.64,8.23-1.31,7.78,3.21s-5.1,2.38-8.14,2.06c-.91-.1-1.9-.71-2.68-.5-3.57,1-8.55,1.52-9.35,5.06-.65,2.83,4.48,3,7,4.56,1,.61,2.17,2.15,3.6.72,1.18-3.86-4.72-2.77-4.24-6.23,2.85-.91,5.63-.57,8.42-.1C826.59,407.51,829.19,405.45,831.17,402.17Z" transform="translate(-626.13 -280.47)" style="fill:#ffe600"/><path d="M909.21,606.63c.73,5.44-.87,9.79-6.25,12.3-1.88.9-3.69,2.25-3.78,4.75a.58.58,0,0,0,.09.21q-17.44,10.64-34.88,21.33c-3.67,2.74-8.66,3.94-10.3,9-2.34,1-4.68,1.94-7,2.89-3.06.63-6.58.48-8.42,3.42l-.21-.19a4.28,4.28,0,0,1-2-3.59c-.34-11.61-.76-23.21-1.69-34.78-.25-3.14,1.62-5.37,4.32-6.83,20.85-11.38,40.33-25,60.71-37.18,6.06-3.63,7.68-2.81,7.94,4.54C908,590.57,908.17,598.61,909.21,606.63Z" transform="translate(-626.13 -280.47)" style="fill:#ffe600"/><path d="M911.89,518.36c-1.95,1.31-3.93,2.61-6,3.8-.8.46-1.62.9-2.46,1.33C906.21,521.67,909.06,520,911.89,518.36Z" transform="translate(-626.13 -280.47)" style="fill:#171f1e"/><path d="M905.81,387l-.34.51a2.53,2.53,0,0,1-.74-.21A4.26,4.26,0,0,1,905.81,387Z" transform="translate(-626.13 -280.47)" style="fill:#131818"/><path d="M903.89,385.17l1.92,1.87a4.26,4.26,0,0,0-1.08.3,2.82,2.82,0,0,1-1.28-1.08,8.78,8.78,0,0,0,.42-1.07A0,0,0,0,0,903.89,385.17Z" transform="translate(-626.13 -280.47)" style="fill:#131818"/><path d="M905.47,387.55q-34.62,50.07-69.25,100.11a2.08,2.08,0,0,0-.26-.59c.8-3.61,3.72-6.06,5.68-9l.29-.43c7.47-9.57,13.81-19.92,20.37-30.15q10.07-14.81,20.26-29.54s.06-.09.1-.13c.89-1.16,1.77-2.32,2.55-3.54l1.19-1.8c.4-.59.82-1.18,1.24-1.77,4.47-6.27,9.48-12.2,13.19-19a0,0,0,0,0,0,0c1.06-1.58,1.94-3.61,3.88-4.41A2.53,2.53,0,0,0,905.47,387.55Z" transform="translate(-626.13 -280.47)" style="fill:#131818"/><path d="M903.87,385.19a8.78,8.78,0,0,1-.42,1.07,1.49,1.49,0,0,0-.15-.27Z" transform="translate(-626.13 -280.47)" style="fill:#131818"/><path d="M903.45,386.26a2.82,2.82,0,0,0,1.28,1.08c-1.94.8-2.82,2.83-3.88,4.41A46.73,46.73,0,0,0,903.45,386.26Z" transform="translate(-626.13 -280.47)" style="fill:#131818"/><path d="M903.47,523.49l-1.25.84a39.29,39.29,0,0,1-6,3.76C898.27,526.06,900.91,524.81,903.47,523.49Z" transform="translate(-626.13 -280.47)" style="fill:#171f1e"/><path d="M903.3,386a1.49,1.49,0,0,1,.15.27,46.73,46.73,0,0,1-2.6,5.49,0,0,0,0,1,0,0c-4.33,6.37-8.78,12.66-13.19,19-.42.59-.84,1.18-1.24,1.77-1.25,1.78-2.5,3.55-3.74,5.34,0,0-.06.09-.1.13-1.23,1.62-2.5,3.23-3.65,4.92-6.48,9.62-6.82,9.72-15.43,2.59a21.72,21.72,0,0,0-3.25-1.5c1.31,0,2.62-.06,3.93-.1a21.35,21.35,0,0,1,3.16,2.81c3.1,4.07,5.17,3.08,7.81-.76C884.37,412.51,893.89,399.3,903.3,386Z" transform="translate(-626.13 -280.47)" style="fill:#050606"/><path d="M902.5,624.9l-.59.36c-1.25.65-2,.06-2.6-1.25.15-.14.29-.29.44-.42Z" transform="translate(-626.13 -280.47)" style="fill:#1d2222"/><path d="M901.91,625.26l.59-.36A2.75,2.75,0,0,1,901.91,625.26Z" transform="translate(-626.13 -280.47)" style="fill:#050606"/><path d="M901.91,625.26q-17.35,10.66-34.74,21.29l-1.54-.74c2.43-1.46,5-2.79,7.28-4.41,8.65-6,18.7-9.94,26.4-17.39C899.86,625.32,900.66,625.91,901.91,625.26Z" transform="translate(-626.13 -280.47)" style="fill:#050606"/><path d="M899.75,623.59c-.15.13-.29.28-.44.42a.17.17,0,0,1,0-.12C899.42,623.78,899.6,623.68,899.75,623.59Z" transform="translate(-626.13 -280.47)" style="fill:#1d2222"/><path d="M899.27,623.89a.17.17,0,0,0,0,.12c-7.7,7.45-17.75,11.36-26.4,17.39-2.32,1.62-4.85,3-7.28,4.41l-1.24-.59Q881.85,634.53,899.27,623.89Z" transform="translate(-626.13 -280.47)" style="fill:#050606"/><path d="M900.83,391.77c-3.71,6.77-8.72,12.7-13.19,19C892.05,404.43,896.5,398.14,900.83,391.77Z" transform="translate(-626.13 -280.47)" style="fill:#131818"/><path d="M896.19,528.09a12.2,12.2,0,0,0-2.11,2.72l-1.9-1.63A12.78,12.78,0,0,0,896.19,528.09Z" transform="translate(-626.13 -280.47)" style="fill:#171f1e"/><path d="M891.06,329.42a5.36,5.36,0,0,1,2.85-.51c-1.46,2.72-4.69,3.29-6.16,5.44.63-1.37,1-2.63-1-3.07C888.27,331.21,889.56,330.13,891.06,329.42Z" transform="translate(-626.13 -280.47)" style="fill:#050606"/><path d="M890.24,668.54c.54,5-3.3,8-10.22,7.42,4.83-2,8-4.05,7.45-8.67-.4-3.06-2.72-2.62-4.79-2.64,0-.73,0-1.45,0-2.17C888.49,660.33,889.79,664.4,890.24,668.54Z" transform="translate(-626.13 -280.47)" style="fill:#050606"/><path d="M886.73,331.28c2,.44,1.65,1.7,1,3.07a3.81,3.81,0,0,0-.6,1.23c-.52-1.48-1-3-1.56-4.45A3.89,3.89,0,0,0,886.73,331.28Z" transform="translate(-626.13 -280.47)" style="fill:#050606"/><path d="M887.15,335.58a3.81,3.81,0,0,1,.6-1.23C887.54,334.74,887.34,335.18,887.15,335.58Z" transform="translate(-626.13 -280.47)" style="fill:#050606"/><path d="M886.73,331.28a3.89,3.89,0,0,1-1.14-.15A6.46,6.46,0,0,1,886.73,331.28Z" transform="translate(-626.13 -280.47)" style="fill:#050606"/><path d="M886.4,412.51l-1.19,1.8c-.78,1.22-1.66,2.38-2.55,3.54C883.9,416.06,885.15,414.29,886.4,412.51Z" transform="translate(-626.13 -280.47)" style="fill:#131818"/><path d="M882.66,662.48c0,.72,0,1.44,0,2.17A1.29,1.29,0,0,1,882.66,662.48Z" transform="translate(-626.13 -280.47)" style="fill:#1b382b"/><path d="M878.78,658c2.49.51.21,5.09,3.88,4.52a1.29,1.29,0,0,0,0,2.17C877.89,666.45,877.89,666.45,878.78,658Z" transform="translate(-626.13 -280.47)" style="fill:#050606"/><path d="M879.9,701.56c-5.17,3.14-10.36,6.25-15.53,9.39a1.45,1.45,0,0,0-.7-.8A31.6,31.6,0,0,1,879.9,701.56Z" transform="translate(-626.13 -280.47)" style="fill:#050606"/><path d="M878.91,422.9c1.15-1.69,2.42-3.3,3.65-4.92q-10.2,14.72-20.26,29.54c2.3-3.59,4.62-7.15,7-10.66s.19-6.24-3.18-8.06c-2.56-1.37-5.7-1.94-7.26-4.78.46,0,.89,0,1.35,0a21.72,21.72,0,0,1,3.25,1.5C872.09,432.62,872.43,432.52,878.91,422.9Z" transform="translate(-626.13 -280.47)" style="fill:#050606"/><path d="M874.52,665.73c1.66,3.52-.76,5.7-2.6,8.1-.57.74-1.29,1.4-1.79,2.18-1.06,1.68-4.62,1.58-3.72,4.34.82,2.54,4,.74,5.83,2.11-.43.47-.78,1.14-1.31,1.37-2.3,1-4.62,4.92-6.9,2.16-2-2.35-.57-6.25,1.26-9a32.12,32.12,0,0,1,4.43-4.62c1.84-1.84,4.44-3.93,1.72-6.46-2.43-2.26-4.79-.47-6.5,1.84-.49.67-.81,1.72-2.31,1.09.53-4.15,3.4-5.8,7-6.43C872.15,662,873.55,663.66,874.52,665.73Z" transform="translate(-626.13 -280.47)" style="fill:#050606"/><path d="M866.14,428.8c3.37,1.82,5.57,4.54,3.18,8.06s-4.72,7.07-7,10.66q-10.23,15-20.37,30.15c-2.25,2.9-4.62,5.74-7.13,8.45l-.12,0q13.73-20.56,27.45-41.12c.38-.57,1-1,1.41-1.58,7.64-10.55,7.7-10.72-4.51-15-3.25-1.14-1.06-2.9-1.42-4.37l1.27,0C860.44,426.86,863.58,427.43,866.14,428.8Z" transform="translate(-626.13 -280.47)" style="fill:#050606"/><path d="M867.17,646.55c-4.35,2.57-8.71,5.11-13.08,7.66,2.57-3.88,7-5.26,10.53-7.77C865.08,647.29,866.14,646.87,867.17,646.55Z" transform="translate(-626.13 -280.47)" style="fill:#050606"/><path d="M865.63,645.81l1.54.74c-1,.32-2.09.74-2.55-.11a2.09,2.09,0,0,0,.44-.29Z" transform="translate(-626.13 -280.47)" style="fill:#050606"/><path d="M865.63,645.81l-.57.34a2.09,2.09,0,0,1-.44.29,2.51,2.51,0,0,1-.23-1.22Z" transform="translate(-626.13 -280.47)" style="fill:#565c47"/><path d="M864.39,645.22a2.51,2.51,0,0,0,.23,1.22c-3.57,2.51-8,3.89-10.53,7.77C855.73,649.16,860.72,648,864.39,645.22Z" transform="translate(-626.13 -280.47)" style="fill:#050606"/><path d="M864.37,711l-10,6.35.15-.25c.17-.28,0-.59-.36-.91a16.32,16.32,0,0,1,9.5-6C863.56,710.72,863.78,711,864.37,711Z" transform="translate(-626.13 -280.47)" style="fill:#050606"/><path d="M864.37,711c-.59,0-.81-.23-.7-.8A1.45,1.45,0,0,1,864.37,711Z" transform="translate(-626.13 -280.47)" style="fill:#050606"/><path d="M864.16,423.89c-1.31,0-2.62.08-3.93.1l-1.29-.5a6.5,6.5,0,0,1,4.37.1Z" transform="translate(-626.13 -280.47)" style="fill:#050606"/><path d="M849,418.4l14.29,5.19a6.5,6.5,0,0,0-4.37-.1,25.71,25.71,0,0,1-6.16-3c1.22,1.31,2.45,1.39,3.38,2a21.82,21.82,0,0,0,2.38,1.16,6,6,0,0,0-.93.43C854.38,422.9,851.35,421.38,849,418.4Z" transform="translate(-626.13 -280.47)" style="fill:#050606"/><path d="M860.23,424c-.46,0-.89,0-1.35,0a2.27,2.27,0,0,1-.19-.34c-.06,0-.09-.05-.15-.05a1,1,0,0,1,.4-.14Z" transform="translate(-626.13 -280.47)" style="fill:#050606"/><path d="M858.94,423.49a1,1,0,0,0-.4.14,21.82,21.82,0,0,1-2.38-1.16c-.93-.63-2.16-.71-3.38-2A25.71,25.71,0,0,0,858.94,423.49Z" transform="translate(-626.13 -280.47)" style="fill:#050606"/><path d="M858.88,424l-1.27,0a6,6,0,0,1,.93-.43c.06,0,.09,0,.15.05A2.27,2.27,0,0,0,858.88,424Z" transform="translate(-626.13 -280.47)" style="fill:#050606"/><path d="M862.3,447.52c-6.56,10.23-12.9,20.58-20.37,30.15Q852.1,462.58,862.3,447.52Z" transform="translate(-626.13 -280.47)" style="fill:#131818"/><path d="M854.17,716.14c.4.32.53.63.36.91l-.15.25-.29.17A2.74,2.74,0,0,1,854.17,716.14Z" transform="translate(-626.13 -280.47)" style="fill:#050606"/><path d="M854.09,717.47l.29-.17C854.26,717.41,854.17,717.47,854.09,717.47Z" transform="translate(-626.13 -280.47)" style="fill:#121714"/><path d="M854.17,716.14a2.74,2.74,0,0,0-.08,1.33c-3.46,6.12-10.49,6.67-15.68,10.09-1.26-.76-1.27-2-1.22-3.23,4.07-.82,7.23-3.34,9.75-6.31C849.15,715.44,851.43,715.51,854.17,716.14Z" transform="translate(-626.13 -280.47)" style="fill:#050606"/><path d="M849,686.2c1.48,1.9,1.21,4-1.05,5.31a14.19,14.19,0,0,1-3.29,1.19c-6.76,1.94-10.43,5.84-8.55,13.31a.56.56,0,0,0-.68.38c-.78-8.46-5.67-12.57-13.92-12.49-3.89,0-2.45-4.88-5.59-5.19.76-.89,2.46-.66,2.66-2.22,5.74-.06,8.31,6.44,13.9,6.71,2.64-.12,1.37-3.1,2.95-4,.57,2.43,1.44,4.22,4,1.69a41.66,41.66,0,0,0,4.36-4.56C845.59,683.92,847.44,684.21,849,686.2Z" transform="translate(-626.13 -280.47)" style="fill:#050606"/><path d="M849.83,407.77c-2.45,2-3.84-.59-5.53-1.38a6.11,6.11,0,0,0-5.83-.21c4.88,4,5.76,8.28.43,12.31-3.84,2.89-7.68,3.42-11.33-.6-1.36-1.53-2.52-3-1.63-5,.59-1.35,1.71-3.33,3-.42.34.74-.3,2,0,2.7,1,2.09,3.1,1.75,5,1.78a4.92,4.92,0,0,0,5.06-3.15c.78-1.84-.5-3.16-1.58-4.37s-3.16-1.2-3.78-3C841.6,400.82,842.25,400.85,849.83,407.77Z" transform="translate(-626.13 -280.47)" style="fill:#050606"/><path d="M847.08,657.1c-.73,4-4.76,4-7.25,5.95a2.43,2.43,0,0,0-.55-1.84C841.94,659.93,844.87,659.21,847.08,657.1Z" transform="translate(-626.13 -280.47)" style="fill:#050606"/><path d="M847.08,657.1c-2.21,2.11-5.14,2.83-7.8,4.11a3.65,3.65,0,0,0-.62-.69C840.5,657.58,844,657.73,847.08,657.1Z" transform="translate(-626.13 -280.47)" style="fill:#050606"/><path d="M841.93,477.67l-.29.43c-2,2.91-4.88,5.36-5.68,9a2.5,2.5,0,0,0-1.16-.95C837.31,483.41,839.68,480.57,841.93,477.67Z" transform="translate(-626.13 -280.47)" style="fill:#131818"/><path d="M839.28,661.21a2.43,2.43,0,0,1,.55,1.84c-.6-.4-1.23-.78-1.84-1.16C838.41,661.64,838.85,661.42,839.28,661.21Z" transform="translate(-626.13 -280.47)" style="fill:#050606"/><path d="M839.28,661.21c-.43.21-.87.43-1.29.68a6.47,6.47,0,0,1,.67-1.37A3.65,3.65,0,0,1,839.28,661.21Z" transform="translate(-626.13 -280.47)" style="fill:#050606"/><path d="M838.41,727.56c-.23,1.85-.46,3.69-.93,7.38-2.78-10.53-2.3-19.54-2.07-28.55l.68-.38c2.09,6,.51,12.24,1.1,18.32C836.2,726,835.58,727.41,838.41,727.56Z" transform="translate(-626.13 -280.47)" style="fill:#050606"/><path d="M837.19,724.33c-.05,1.26,0,2.47,1.22,3.23C835.58,727.41,836.2,726,837.19,724.33Z" transform="translate(-626.13 -280.47)" style="fill:#050606"/><path d="M836.22,487.66c-.15.23-.3.48-.47.71a6.79,6.79,0,0,1,.21-1.3A2.08,2.08,0,0,1,836.22,487.66Z" transform="translate(-626.13 -280.47)" style="fill:#131818"/><path d="M836.09,706l-.68.38A.56.56,0,0,1,836.09,706Z" transform="translate(-626.13 -280.47)" style="fill:#212121"/><path d="M836,487.07a6.79,6.79,0,0,0-.21,1.3c-.48-.55-1-1.12-1.47-1.68l.52-.57A2.5,2.5,0,0,1,836,487.07Z" transform="translate(-626.13 -280.47)" style="fill:#131818"/><path d="M835.41,675.06v14.13c-3.43-.44-.71,3.59-2.95,4L833.6,675Z" transform="translate(-626.13 -280.47)" style="fill:#050606"/><path d="M832.46,693.2c2.24-.42-.48-4.45,2.95-4C833.83,690.1,835.1,693.08,832.46,693.2Z" transform="translate(-626.13 -280.47)" style="fill:#050606"/><path d="M834.8,486.12l-.52.57c.14-.2.27-.39.4-.6Z" transform="translate(-626.13 -280.47)" style="fill:#131818"/><path d="M834.68,486.09c-.13.21-.26.4-.4.6-9.84,12.34-18.07,25.84-26.91,38.89-5.61,8.29-5.44,8.6-14.11,3.86-21.51-11.76-42.88-23.79-64.45-35.43-5.59-3-5.4-6-2.17-10.53,5.19-7.3,10-14.82,15-22.26.23,0,.44,0,.65,0,0,0,0,.06,0,.08-1.45,8.14-7.87,13.34-11.83,20-4.62,7.75-4.84,9.1,2.87,13.34,20.38,11.18,40.38,23,61,33.74,5,2.58,8,2.24,11-2.76,7.24-12,15.56-23.22,23.39-34.82,1.43-2.13,2.49-4.71,5.67-4.79A1.32,1.32,0,0,1,834.68,486.09Z" transform="translate(-626.13 -280.47)" style="fill:#ffe600"/><path d="M832.65,330.33c.21,6.37-4.62,10.33-8,14.62-8.81,11.22-15.61,23.78-24.41,34.94-2.81,3.57-1.88,6,2.18,7.62a9.44,9.44,0,0,1,3.67,2.11c2.59,2.78,1.11,5.32-.72,7.6-2,2.51-3.63.65-5.28-.78-6.66-5.72-6.87-5.49-12.36,1.77-14,18.55-25.91,38.55-39.59,57.29-1.64,2.21-2.55,5.42-5.91,5.7,0-.2-.12-.41-.17-.58,10.43-13.12,19.33-27.32,28.58-41.27,5.65-8.5,12-16.48,17.68-24.9,4.35-6.39,7.47-6.39,12.26-.31.91,1.16.51,4,2.83,3.18,1.47-.51,2.49-2.13,2.66-4.39.23-2.95-1.46-2.87-3.21-3.52-9.25-3.48-9.08-3.4-3.23-11.76,11-15.69,21.76-31.52,32.62-47.28.07,0,.13.06.21.08S832.59,330.35,832.65,330.33Z" transform="translate(-626.13 -280.47)" style="fill:#ffe600"/><path d="M832.63,329.88a3.39,3.39,0,0,1,0,.45c-.06,0-.1.08-.15.12s-.14-.06-.21-.08C832.4,330.2,832.52,330.05,832.63,329.88Z" transform="translate(-626.13 -280.47)" style="fill:#ffe600"/><path d="M831.22,328.17q.72.85,1.41,1.71c-.11.17-.23.32-.34.49C831.34,330,830.67,329.4,831.22,328.17Z" transform="translate(-626.13 -280.47)" style="fill:#101413"/><path d="M830.43,397.7a3.29,3.29,0,0,1,.74,4.47c-2,3.28-4.58,5.34-8.67,4.63-2.79-.47-5.57-.81-8.42.1-.48,3.46,5.42,2.37,4.24,6.23-1.43,1.43-2.59-.11-3.6-.72-2.47-1.52-7.6-1.73-7-4.56.8-3.54,5.78-4.07,9.35-5.06.78-.21,1.77.4,2.68.5,3,.32,7.64,2.58,8.14-2.06s-4.91-1.57-7.78-3.21C824.13,394.66,827.42,395.44,830.43,397.7Z" transform="translate(-626.13 -280.47)" style="fill:#050606"/><path d="M831.22,328.17c-.55,1.23.12,1.8,1.07,2.2-10.86,15.76-21.63,31.59-32.62,47.28-5.85,8.36-6,8.28,3.23,11.76,1.75.65,3.44.57,3.21,3.52-.17,2.26-1.19,3.88-2.66,4.39-2.32.83-1.92-2-2.83-3.18-4.79-6.08-7.91-6.08-12.26.31-5.72,8.42-12,16.4-17.68,24.9-9.25,13.95-18.15,28.15-28.58,41.27a1.47,1.47,0,0,0-1.87-1c8.29-15.15,19.14-28.63,28.69-43,17.77-26.73,36.51-52.79,54.91-79.07C826.11,334.33,828.75,331.3,831.22,328.17Z" transform="translate(-626.13 -280.47)" style="fill:#101413"/><path d="M830.82,658.74c.86,7.26-4,1.93-6.36,1.78a2.81,2.81,0,0,0-.08-.93c2.74-.36,4.94-1,4.35-4.75-1.35-8.71-.66-17.53-.57-26.27.06-5.11-1.63-8.33-6.23-10.82-27.52-14.86-54.95-29.91-82.59-44.59-22-11.67-44-23.36-65.79-35.32-4.46-2.43-6.29-1.63-5.64,3.26,1.18,8.95,1.14,17.94,1.67,26.93.27,4.52,2.53,7.81,6.54,10.3,19.18,11.88,39.46,21.69,59.32,32.3,3.12,1.67,7.09,2.51,8.1,6.69a3.44,3.44,0,0,0-.55.43c-10.06-8-22.28-12-33.21-18.41-12.2-7.17-24.71-13.8-37.12-20.63-2.93-1.61-4.49-3.7-4.62-7.26-.4-11.56-1-23.11-1.73-34.65-.3-5.08,2.13-4.16,5-2.59l102,55q26.14,14.14,52.29,28.29c1.89,1,3.41,1.88,3.69,4.58C830.6,634.27,829.38,646.51,830.82,658.74Z" transform="translate(-626.13 -280.47)" style="fill:#ffe600"/><path d="M828.73,654.84c.59,3.8-1.61,4.39-4.35,4.75a2.93,2.93,0,0,0-1.71-1.8c-10-4.7-19.63-10.17-29.46-15.25-1.33-.68-2.82-1.33-4.3-.46-.59-1.86-2.11-2.85-3.63-3.85-12-8-25.26-13.71-37.69-20.91a3.68,3.68,0,0,0-4.05,0c-1-4.18-5-5-8.1-6.69-19.86-10.61-40.14-20.42-59.32-32.3-4-2.49-6.27-5.78-6.54-10.3-.53-9-.49-18-1.67-26.93-.65-4.89,1.18-5.69,5.64-3.26,21.84,12,43.82,23.65,65.79,35.32,27.64,14.68,55.07,29.73,82.59,44.59,4.6,2.49,6.29,5.71,6.23,10.82C828.07,637.31,827.38,646.13,828.73,654.84Z" transform="translate(-626.13 -280.47)" style="fill:#ffe600"/><path d="M824.38,659.59a2.81,2.81,0,0,1,.08.93l-1-.49a6.13,6.13,0,0,1,.81-.44Z" transform="translate(-626.13 -280.47)" style="fill:#fdfdfd"/><path d="M824.46,660.52l-1.71,1.5a1.67,1.67,0,0,1,.74-2Z" transform="translate(-626.13 -280.47)" style="fill:#050606"/><path d="M824.38,659.59h-.08a6.13,6.13,0,0,0-.81.44Q806.21,651.24,789,642.5s0-.11,0-.17a1.44,1.44,0,0,0-.08-.25c1.48-.87,3-.22,4.3.46,9.83,5.08,19.42,10.55,29.46,15.25A2.93,2.93,0,0,1,824.38,659.59Z" transform="translate(-626.13 -280.47)" style="fill:#ffe600"/><path d="M789,642.5q17.28,8.76,34.54,17.53a1.67,1.67,0,0,0-.74,2l-36-18.17C788.09,644.31,788.72,643.66,789,642.5Z" transform="translate(-626.13 -280.47)" style="fill:#050606"/><path d="M818.56,686.49c-.2,1.56-1.9,1.33-2.66,2.22C815.2,686.07,817.9,687.49,818.56,686.49Z" transform="translate(-626.13 -280.47)" style="fill:#050606"/><path d="M815.9,688.71,797,678.07c.15,0,.28-.17.46-.54a1,1,0,0,0-.35-1.14c7.51,2.57,13.18,9.09,21.44,10.1C817.9,687.49,815.2,686.07,815.9,688.71Z" transform="translate(-626.13 -280.47)" style="fill:#050606"/><path d="M797.12,676.39a1,1,0,0,1,.35,1.14c-.18.37-.31.54-.46.54C797.05,677.52,797.09,677,797.12,676.39Z" transform="translate(-626.13 -280.47)" style="fill:#455254"/><path d="M797.12,676.39c0,.56-.07,1.13-.11,1.68-8.84-3.1-16.25-8.65-24.18-13.31.31-.57.63-1.12.93-1.67Q785.46,669.73,797.12,676.39Z" transform="translate(-626.13 -280.47)" style="fill:#050606"/><path d="M788.91,642.08a1.44,1.44,0,0,1,.08.25c0,.06,0,.12,0,.17l-.38-.21Z" transform="translate(-626.13 -280.47)" style="fill:#fdfdfd"/><path d="M788.57,642.29l.38.21c-.23,1.16-.86,1.81-2.2,1.35.6-.53,1.19-1,1.8-1.56Z" transform="translate(-626.13 -280.47)" style="fill:#050606"/><path d="M788.91,642.08l-.34.21h0c-10.64-7.37-22.31-13-33.81-18.83-3.69-1.88-6.56-5.52-11.1-5.69v0a2.71,2.71,0,0,0-.1-.43,3.68,3.68,0,0,1,4.05,0c12.43,7.2,25.68,13,37.69,20.91C786.8,639.23,788.32,640.22,788.91,642.08Z" transform="translate(-626.13 -280.47)" style="fill:#ffe600"/><path d="M788.55,642.29c-.61.54-1.2,1-1.8,1.56-15.34-7.75-30.78-15.34-45.34-24.54,1.48.54,1.92-.38,2.23-1.54,4.54.17,7.41,3.81,11.1,5.69C766.24,629.29,777.91,634.92,788.55,642.29Z" transform="translate(-626.13 -280.47)" style="fill:#121516"/><path d="M760.06,652.06a37.43,37.43,0,0,1,.45,6.22c-.32,4.11-.3,8.93-5.81,9.56-6.2.7-6.58-4.33-7.4-8.65.5,0,1,0,1.47,0,0,.38,0,.78,0,1.16.89,3,2.05,6.12,6,5.31,3.5-.75,4.24-4,4.49-7.11.15-2.13.51-4.36-.34-6.45C759.28,652.06,759.66,652.06,760.06,652.06Z" transform="translate(-626.13 -280.47)" style="fill:#050606"/><path d="M760.06,652.06c-.4,0-.78,0-1.16,0,0-.13-.1-.26-.15-.4C759.18,651.46,759.62,651.59,760.06,652.06Z" transform="translate(-626.13 -280.47)" style="fill:#686852"/><path d="M760.06,652.06c-.44-.47-.88-.6-1.31-.38-2.36-2.64-5-3.13-8-1.08v0C753.5,646,755.21,646.29,760.06,652.06Z" transform="translate(-626.13 -280.47)" style="fill:#050606"/><path d="M758.9,652.08c.85,2.09.49,4.32.34,6.45-.25,3.06-1,6.36-4.49,7.11-3.91.81-5.07-2.3-6-5.31,0-.38,0-.78,0-1.16h1.1c1.22,2,.7,6,4.16,5.5,3.29-.5,4.34-3.86,4.56-7a38,38,0,0,0-.34-5.61Z" transform="translate(-626.13 -280.47)" style="fill:#050606"/><path d="M758.75,651.68c0,.14.11.27.15.4h-.65A1.6,1.6,0,0,1,758.75,651.68Z" transform="translate(-626.13 -280.47)" style="fill:#686852"/><path d="M758.25,652.08a38,38,0,0,1,.34,5.61c-.22,3.12-1.27,6.48-4.56,7-3.46.53-2.94-3.46-4.16-5.5l.91-8.55C753.31,651,756.12,649.78,758.25,652.08Z" transform="translate(-626.13 -280.47)" style="fill:#f9faf9"/><path d="M758.75,651.68a1.6,1.6,0,0,0-.5.4c-2.13-2.3-4.94-1.12-7.47-1.46v0C753.77,648.55,756.39,649,758.75,651.68Z" transform="translate(-626.13 -280.47)" style="fill:#050606"/><path d="M759.73,515c-3.21,5.19-9.06,2.79-12.5,5.85-3,5.78-5.21.36-7.72-.47-3.71-1.22-7.45-6-11.25-1.3-4.18,5.14,0,9.13,3.25,12.85a14.86,14.86,0,0,0,3.31,2.63,21.1,21.1,0,0,0,2.2,1.16l-.89,3.08c-1.07,0-1.94,1.59-2.7,2.35-4.77,4.74-6.81,1.9-8.08-2.87-.36-1.33-.21-2.79-.57-4.12-.84-3-1.88-5.88-5.49-6.73-3-.7-5.17.78-6.54,3-1.68,2.66-3.75,5.69,1.16,10.13l.32,1.33a2,2,0,0,0-.89.61c-6.87,10.44-13.67,3.86-20.4.17-7-3.85-13.88-8-20.89-11.82-3.17-1.75-4.77-2.81-.47-5.51,14.82-9.28,29.44-18.9,44.11-28.4,3.18-2.05,5.88-2.58,9.68-.4C736.58,503,748.18,508.84,759.73,515Z" transform="translate(-626.13 -280.47)" style="fill:#ffe600"/><path d="M750.78,650.58v0a0,0,0,0,0,0,0c-2.3,2.32-2.13,5.11-2,7.93a1.74,1.74,0,0,0-1.45.64C747.51,655.94,745.84,651.91,750.78,650.58Z" transform="translate(-626.13 -280.47)" style="fill:#050606"/><path d="M750.78,650.6v0h0A0,0,0,0,1,750.78,650.6Z" transform="translate(-626.13 -280.47)" style="fill:#6f6f68"/><path d="M750.78,650.62l-.91,8.55a1.93,1.93,0,0,0-1.12-.62c-.12-2.82-.29-5.61,2-7.93Z" transform="translate(-626.13 -280.47)" style="fill:#050606"/><path d="M749.87,659.17h-1.1c0-.21,0-.42,0-.62A1.93,1.93,0,0,1,749.87,659.17Z" transform="translate(-626.13 -280.47)" style="fill:#6f6f68"/><path d="M748.75,658.55c0,.2,0,.41,0,.62-.5,0-1,0-1.47,0A1.74,1.74,0,0,1,748.75,658.55Z" transform="translate(-626.13 -280.47)" style="fill:#6f6f68"/><path d="M747.23,520.85l.17,3.25c-2.66.61-1.94,2.78-2.15,4.56-.65,5.84-3.46,7.4-8.5,4.76a19.8,19.8,0,0,1-6.27-5.67c-1.73-2.26-2.07-5-.28-7.2s3.91-.5,5.81.28a34.32,34.32,0,0,1,5,2.64C744.4,525.57,746.16,524.1,747.23,520.85Zm-3,9.83c.19-3.25-9.29-11.37-12.26-10.72a2.12,2.12,0,0,0-1.78,1.86c-.67,3.46,1.27,5.7,3.4,8.06s4.77,3.84,8,3.52A3,3,0,0,0,744.24,530.68Z" transform="translate(-626.13 -280.47)" style="fill:#050606"/><path d="M746.64,527.26c.89,3,1.48,6.14-1.86,8.17a8,8,0,0,1-7.76.29,21.1,21.1,0,0,1-2.2-1.16,14.86,14.86,0,0,1-3.31-2.63c-3.29-3.72-7.43-7.71-3.25-12.85,3.8-4.71,7.54.08,11.25,1.3,2.51.83,4.77,6.25,7.72.47-1.07,3.25-2.83,4.72-6.2,2.62a34.32,34.32,0,0,0-5-2.64c-1.9-.78-4.1-2.39-5.81-.28s-1.45,4.94.28,7.2a19.8,19.8,0,0,0,6.27,5.67c5,2.64,7.85,1.08,8.5-4.76.21-1.78-.51-3.95,2.15-4.56C747,525.11,746.2,525.83,746.64,527.26Z" transform="translate(-626.13 -280.47)" style="fill:#050606"/><path d="M744.4,648.51c.3,2.07,1.5,5.61-1.34,6.06-4,.63-1.4-3.08-1.55-4.5-.38-4-3.31-3.88-5.73-4.56.88.17,1.49-.17,1.43-1.9C740.92,643.32,743.81,644.59,744.4,648.51Z" transform="translate(-626.13 -280.47)" style="fill:#050606"/><path d="M732,520c3-.65,12.45,7.47,12.26,10.72a3,3,0,0,1-2.64,2.72c-3.23.32-5.78-1-8-3.52s-4.07-4.6-3.4-8.06A2.12,2.12,0,0,1,732,520Z" transform="translate(-626.13 -280.47)" style="fill:#ffe600"/><path d="M738.67,637.24c2,1.18,6.73.68,5.38,3.8-1.46,3.38-4.12-.55-6.23-1.35-1.35-.49-2.78-1.25-3.38.74-.71,2.32,1.33,2.57,2.77,3.18L734.44,645c-5.8-1.31-2.91-5.83-2.32-8.38.66-2.89,3.47-.47,5.36-.07A5.4,5.4,0,0,1,738.67,637.24Z" transform="translate(-626.13 -280.47)" style="fill:#050606"/><path d="M743.54,617.32a2.71,2.71,0,0,1,.1.43v0c-.21,0-.42,0-.65,0A3.44,3.44,0,0,1,743.54,617.32Z" transform="translate(-626.13 -280.47)" style="fill:#fdfdfd"/><path d="M743,617.75c.23,0,.44,0,.65,0-.31,1.16-.75,2.08-2.23,1.54C741.94,618.78,742.48,618.27,743,617.75Z" transform="translate(-626.13 -280.47)" style="fill:#121516"/><path d="M742.27,461.2c-.21,0-.42,0-.65,0,.15-.21.32-.4.48-.6C742.15,460.79,742.23,461,742.27,461.2Z" transform="translate(-626.13 -280.47)" style="fill:#ffe600"/><path d="M742.1,460.62c-.16.2-.33.39-.48.6-.48-.53-.93-1.06-1.39-1.59A1.47,1.47,0,0,1,742.1,460.62Z" transform="translate(-626.13 -280.47)" style="fill:#101413"/><path d="M737.31,539.44c1.84,2-.76,3.06-2,4.18-5.63,5-11.2,4-14.73-2.7-.15-.3-.29-.89-.13-1.08,3.49-4.26,1.84-8.55-2.44-9.07s-4.63,4.6-4.08,9.77c-4.91-4.44-2.84-7.47-1.16-10.13,1.37-2.2,3.51-3.68,6.54-3,3.61.85,4.65,3.72,5.49,6.73.36,1.33.21,2.79.57,4.12,1.27,4.77,3.31,7.61,8.08,2.87.76-.76,1.63-2.35,2.7-2.35A1.67,1.67,0,0,1,737.31,539.44Z" transform="translate(-626.13 -280.47)" style="fill:#050606"/><path d="M737.21,643.61c.06,1.73-.55,2.07-1.43,1.9a6.59,6.59,0,0,1-1.34-.54Z" transform="translate(-626.13 -280.47)" style="fill:#050606"/><path d="M731.07,650.83c2.85,1,3.92,3.31,5.27,5.66C730.42,658.15,731.66,653.6,731.07,650.83Z" transform="translate(-626.13 -280.47)" style="fill:#050606"/><path d="M727.86,642.12c-.34.57-.67,1.16-1,1.73-7.77-3-14.37-8.21-21.76-11.92-8.35-4.2-15.4-10.91-24.9-12.83.49-.93,1-1.88,1.52-2.83Z" transform="translate(-626.13 -280.47)" style="fill:#050606"/><path d="M681.73,616.27c-.52,1-1,1.9-1.52,2.83C679.69,617.62,680.41,616.78,681.73,616.27Z" transform="translate(-626.13 -280.47)" style="fill:#121717"/><path d="M681.73,616.27c-1.32.51-2,1.35-1.52,2.83-4.13-.68-6.41-4.39-10-6-.36-1.41-2.77-.59-2.68-2.42s1.6-1.08,2.51-1.42C674,611.56,680.07,610.25,681.73,616.27Z" transform="translate(-626.13 -280.47)" style="fill:#121717"/><path d="M670.09,609.26a3.49,3.49,0,0,1-1-.46A2.74,2.74,0,0,1,670.09,609.26Z" transform="translate(-626.13 -280.47)" style="fill:#121717"/><path d="M669.12,608.8a3.49,3.49,0,0,0,1,.46c-.91.34-2.43-.31-2.51,1.42s2.32,1,2.68,2.42c-1.8-.23-3.89-.38-3.25-3C667.32,608.88,668.14,608.48,669.12,608.8Z" transform="translate(-626.13 -280.47)" style="fill:#050606"/><path d="M669.12,608.8c-1-.32-1.8.08-2.11,1.31-.64,2.61,1.45,2.76,3.25,3-3.4,2.16.14,6.44-3.51,9.6V601.86C668.19,603.57,666.67,607.22,669.12,608.8Z" transform="translate(-626.13 -280.47)" style="fill:#050606"/><path d="M648,517.94c2.39,1.45,8.91.17,6.86,4.15-2.4,4.65-5.57-1.28-8.25-2.55-7-3.27-13.67-7.13-20.47-10.74C634.49,509.67,641.31,513.88,648,517.94Z" transform="translate(-626.13 -280.47)" style="fill:#050606"/><path d="M660.11,574.4c-6-.88-10.72-4.43-15.64-7.57l.11-1.48A43.87,43.87,0,0,1,660.11,574.4Z" transform="translate(-626.13 -280.47)" style="fill:#050606"/><path d="M650,542.84c.49,2.4-2,1.64-3.61,1.11a13.41,13.41,0,0,1-8.73-9.49c-.83-3-1.16-7.37-4.88-6-3.9,1.47-2,5.48-.23,8.44.17.27-.15.82-.32,1.52-4.47-2.26-4.41-6.14-3.86-10.11.36-2.64,2.28-3.38,4.66-3.32,4.43.11,6.06,3.55,7.14,6.84,1.22,3.61,2,7.18,6.66,9.18,1.33-4.13-1.43-8,1.23-11.9C651.1,533.61,649.13,538.47,650,542.84Z" transform="translate(-626.13 -280.47)" style="fill:#050606"/><path d="M648,581.16c3,3.44,3.71,5.21-2.22,4.32-3-.46-1.84,2-1.84,3.86,0,5.17,2.34,10.34-.14,15.95-2.26-4.21-1.84-8-2.14-11.66-.23-2.92,2.12-7.94-4.53-7.07-1,.15-1.21-1.18-.87-2.15a7,7,0,0,1,1.12-2.58c2.68-2.76.93-9.12,4.56-9.31C645.14,572.34,645.63,578.37,648,581.16Z" transform="translate(-626.13 -280.47)" style="fill:#101111"/><path d="M644.58,565.35l-.11,1.48q-.71-.54-.42-1C644.22,565.5,644.41,565.35,644.58,565.35Z" transform="translate(-626.13 -280.47)" style="fill:#050606"/><path d="M629.32,556.93c5.08,2.79,10.17,5.61,15.26,8.42-.17,0-.36.15-.53.46s0,.66.42,1c-6.08-1.44-10.8-5.28-16.25-7.81C628.58,558.34,628.94,557.63,629.32,556.93Z" transform="translate(-626.13 -280.47)" style="fill:#050606"/><path d="M642.7,495.17c.82.61,1.16,2,.38,2.38-3.78,2-1.75,7.72-5.62,9.12-1.41.5-4.26-1.46-4.47-3.44-.32-3.21-2.51-4.92-5.66-8.72,7.83,2,7.07-1.92,7-5.78-.06-5.15-2.55-10.3.08-17.24,2.37,7.47,2.07,13.63,2.49,19.69.17,2.32-1.16,6.5,3.89,3.42C641.2,494.35,642.17,494.79,642.7,495.17Z" transform="translate(-626.13 -280.47)" style="fill:#111513"/><path d="M630.23,545.39c7.17,2,14.15,4.45,20,9.22C642.72,553.37,636.52,549.29,630.23,545.39Z" transform="translate(-626.13 -280.47)" style="fill:#050606"/><text transform="translate(522.98 277.32)" style="font-size:180px;fill:#383835;font-family:OpenSans-Regular, Open Sans">GD&amp;T</text></svg>