<?xml version="1.0" encoding="utf-8"?>
<!-- Generator: Adobe Illustrator 19.0.0, SVG Export Plug-In . SVG Version: 6.00 Build 0)  -->
<svg version="1.1" id="Layer_1" xmlns="http://www.w3.org/2000/svg" xmlns:xlink="http://www.w3.org/1999/xlink" x="0px" y="0px"
	 viewBox="32.9 343.8 339.7 109.1" style="enable-background:new 32.9 343.8 339.7 109.1;" xml:space="preserve">
<style type="text/css">
	.st0{fill:#A23C22;}
	.st1{fill:#9A3720;}
	.st2{fill:#852C1A;}
	.st3{fill:#9F5124;}
	.st4{fill:#B74D26;}
	.st5{fill:#9E5024;}
	.st6{fill:#954320;}
	.st7{fill:#CD6228;}
	.st8{fill:#A15425;}
	.st9{fill:#A55926;}
	.st10{fill:#B24926;}
	.st11{fill:#BD5127;}
	.st12{fill:#B94F27;}
	.st13{fill:#722514;}
	.st14{fill:#A65B26;}
	.st15{fill:#CE6428;}
	.st16{fill:#C95F28;}
	.st17{fill:#7C2A17;}
	.st18{fill:#C15527;}
	.st19{fill:#D16728;}
	.st20{fill:#C75B28;}
	.st21{fill:#772615;}
	.st22{fill:#C95E28;}
	.st23{fill:#B54A26;}
	.st24{fill:#D46728;}
	.st25{fill:#CC6528;}
	.st26{fill:#A13B22;}
	.st27{fill:#D86C27;}
	.st28{fill:#BD5627;}
	.st29{fill:#853A1C;}
	.st30{fill:#7E2818;}
	.st31{fill:#9D3A21;}
	.st32{fill:#A43E23;}
	.st33{fill:#A03721;}
	.st34{fill:#7F2C18;}
	.st35{fill:#A74124;}
	.st36{fill:#A45725;}
	.st37{fill:#A35525;}
	.st38{fill:#A25525;}
	.st39{fill:#782716;}
	.st40{fill:#A53A23;}
	.st41{fill:#924020;}
	.st42{fill:#974521;}
	.st43{fill:#611F0C;}
	.st44{fill:#903F1F;}
	.st45{fill:#8E3D1E;}
	.st46{fill:#6F2512;}
	.st47{fill:#67210E;}
	.st48{fill:#6B2311;}
	.st49{fill:#772515;}
	.st50{fill:#84321A;}
	.st51{fill:#8A391D;}
	.st52{fill:#702713;}
	.st53{fill:#43160C;}
	.st54{fill:#B95227;}
	.st55{fill:#541B0B;}
	.st56{fill:#030303;}
	.st57{fill:#080808;}
	.st58{fill:#040404;}
	.st59{fill:#060606;}
	.st60{fill:none;stroke:#414042;stroke-miterlimit:10;}
</style>
<g id="XMLID_99_">
	<g id="XMLID_132_">
		<path id="XMLID_193_" class="st0" d="M52.3,402.3c0-9.1,0-18.2,0-27.2c1.8-1.3,3.8-0.9,5.8-0.5c2.9,7.1,10,10.9,13.5,17.6
			c2,4,4.2,7.8,5.1,12.1c0.6,2.8,1.7,5.4,2.7,8.1c0,2.3,0.4,4.6-0.2,6.9c-0.5,0.7-1.1,0.7-1.9,0.5c-1.4-4.2-3.4-8.3-4.5-12.6
			c-0.9-3.9-2.5-7.3-4.9-10.4c-3-3.8-5.5-7.9-9.3-11c-2.6-2.1-4.7-5-5.2-7.5c0.8,2.7,0.1,6.5,0.4,10.2c0.1,3.3,0.1,6.5,0.1,9.8
			c-0.2,1.3,0.1,2.6-0.5,3.8C53,402.3,52.7,402.4,52.3,402.3z"/>
		<path id="XMLID_192_" class="st1" d="M52.8,402.3c0-1.3,0-2.5,0-3.8c2.7-0.1,3.7,1.9,4.7,3.9c1.5,2.9,2.1,6.1,4.4,8.7
			c1.3,1.4,2.8,2.5,4.2,3.8c2.9,2.6,2.8,3.5-0.6,5.2c-0.5,0.2-0.9,0.5-1.4,0.7c-4,0.2-8,1.1-11.8-0.7c0-0.2,0-0.4,0-0.6
			c0.5-4.6,0.1-9.1,0.2-13.7C52.6,404.5,52.3,403.3,52.8,402.3z"/>
		<path id="XMLID_191_" class="st2" d="M52.2,348.5c0.2,0,0.4,0,0.6,0c2.6,1.2,4,3.8,6.4,5.2c1.5,1.1,2.7,2.6,4,3.8
			c0.7,0.7,1.4,1.4,2.2,2.1c3.9,4.3,8.5,7.7,12.5,11.9c0.8,0.8,2.5,1.6,1.2,3.3c-1.9,0.6-3.9,0.4-5.8,0.2c-0.3-0.1-0.6-0.2-0.9-0.3
			c-4.3-1.2-6.4-4.8-8.9-8c-3.4-4.3-7.3-8.2-11.8-11.5C51.4,353,50.8,350.6,52.2,348.5z"/>
		<path id="XMLID_190_" class="st3" d="M59.2,354.2c-2.8-1.1-4.4-3.6-6.3-5.7c3.2,0,6.3,0,9.5,0c5.8,3.3,11.8,6.3,16.6,11.1
			c0.6,0.6,1.3,1,1.6,1.9c0.4,1.4,0.3,2.9,0.3,4.4c0,0.5-0.2,0.9-0.4,1.4c-2.1,1.1-3.5-0.4-4.7-1.6c-3.8-3.7-8.3-6.5-12.4-9.7
			C62.1,355,61,353.7,59.2,354.2z"/>
		<path id="XMLID_189_" class="st4" d="M32.7,440.9c0-3.4,0-6.8,0-10.1c4.4,1.2,9,1.7,13.5,2.6c3.1,0.6,5.2,1.9,6,5.1
			c0.3,1,0.3,2-0.3,2.9c-2,0.2-4.1,0-6.1-0.1c-3.3-0.2-6.6-0.5-9.9,0.6C34.7,442.3,33.4,442.5,32.7,440.9z"/>
		<path id="XMLID_188_" class="st5" d="M59.2,354.2c-0.1-0.5-0.6-1.5,0.6-1.2c1.1,0.3,2.3,0.7,3.1,1.5c4.1,3.6,9.1,6,12.8,10.1
			c1.2,1.4,2.9,2.1,4.5,2.9c0.9,0.8,0.8,1.9,0.9,3c0,1.1,0.1,2.1-0.3,3.2c-0.2,0.3-0.3,0.6-0.6,0.9c0,15.4,0.1,30.7,0.1,46.1
			c-0.3,0.2-0.7,0.2-1-0.1c-0.2-0.3-0.2-0.7-0.2-1.1c0-0.4,0.1-0.8,0.1-1.1c-0.4-8.1-0.8-16.2-0.6-24.3c0.1-6-0.1-12,0.1-18.1
			c0.1-0.6,0.4-1.1,0.8-1.6c-3.4-4.5-8.3-7.6-12.1-11.7c-0.8-0.9-1.7-1.8-2.5-2.8c-0.3-1-1.1-1.4-1.9-1.9
			C61.5,356.9,60.2,355.6,59.2,354.2z"/>
		<path id="XMLID_187_" class="st6" d="M79.4,420.6c0.3,0,0.5,0,0.8-0.1c4.8,0.1,9.7,0.1,14.5,0.2c1.2,0.8,3-0.8,3.9,1
			c-1.5,1.5-3.4,0.8-5.1,0.9c-1.7,0.1-3.5-0.1-5.3,0.3c2.7,1.2,5,3.5,8.3,3.3c1-0.1,1.2,0.7,1.3,1.5c-0.4,1.7,0,3.6-1.4,5
			c-7.4-1.3-14.2-4.2-20.2-8.8C76.2,421.9,77.3,420.8,79.4,420.6z"/>
		<path id="XMLID_186_" class="st7" d="M35.5,360.4c0.5-2.1,1-4.2,1.5-6.3c0.5-0.4,1-0.5,1.4-0.1c4.1,3.5,8.3,6.9,12.5,10.3
			c0.5,2.5,0.3,5,0.2,7.4c0,1.2-0.3,2.3-1.9,2.4c-0.5,0-1-0.1-1.4-0.6C44.2,368.7,40.2,364.1,35.5,360.4z"/>
		<path id="XMLID_185_" class="st8" d="M80.1,361.1c-3.9-2.3-6.8-5.9-10.8-7.9c-2.5-1.3-5.2-2.2-6.9-4.7c5.9,0,11.8,0,17.7,0
			c1.5,1.9,0.8,4.2,0.9,6.3C80.8,356.9,81.7,359.2,80.1,361.1z"/>
		<path id="XMLID_184_" class="st9" d="M80.1,354.7c0-2.1,0-4.2,0-6.3c1.3,0,2.5,0,3.8,0c3.7,2.1,7.9,2.5,11.7,4.4
			c2.7,1.4,3.9,2.9,2.9,5.8c-1.1,0.7-2.2,0.3-3.4,0c-3.5-0.7-7-1.7-10.6-1.6C82.7,357.2,81,356.6,80.1,354.7z"/>
		<path id="XMLID_183_" class="st10" d="M32.7,440.9c0.8,0.5,1.7,0.9,2.7,0.4c3.5-1.8,7.2-1.3,10.8-0.8c1.8,0.2,4-1.4,5.4,1
			c0.6,0.5,0.7,1.2,0.7,1.9c-0.1,0.5-0.2,1-0.6,1.4c-4.3,0.8-8.7,1.5-13.2,1.5c1.2,0.3,2.4-0.5,3.4,0.5c-1.1,0.1-2.3,0.2-3.4,0.2
			C32.4,447,32.4,447,32.7,440.9z"/>
		<path id="XMLID_182_" class="st11" d="M32.7,426.3c0-1.7,0-3.4,0-5.1c2.8-0.5,5.3,0.8,7.8,1.6c3.2,1,6.5,1.8,9.5,3.2
			c1.1,0.5,0.7-2.4,1.9-0.7c0.7,2.1,0.7,4.3,0,6.4c-0.6,0.7-1.3,0.7-2,0.3c-3.1-1.9-6.7-1.9-10.1-2.3
			C37.1,429.4,34.6,428.5,32.7,426.3z"/>
		<path id="XMLID_181_" class="st12" d="M32.7,426.3c4.2,2.3,8.8,2.9,13.5,3.2c2,0.1,3.6,1.5,5.3,2.5c1.4,2.1,1.4,4.2,0,6.3
			c-2.1-5.4-7.3-4.2-11.4-5.2c-2.6-0.6-5.3-0.4-7.5-2.4C32.7,429.3,32.7,427.8,32.7,426.3z"/>
		<path id="XMLID_180_" class="st13" d="M51.5,438.4c0-2.1,0-4.2,0-6.3c0-2.3,0-4.6,0-7c-1.1-1.5-1.1-2.9,0.1-4.4
			c0.2-0.1,0.3-0.1,0.5-0.1c5.5,0.5,11,1.1,16.1,3.5c1.3,0.6,2.6,1.3,3.6,2.5c0.7,1.2-0.2,1.9-0.8,2.7c-0.8,0.7-1.5,1.4-2.7,1.2
			c-4.1-2.7-8.7-3.8-13.5-4.6c-1.6-0.3-2.6-0.8-2.3-2.1c0,0.4,0.1,1.3,0.4,2.1c0.2,1.3,0.1,2.5,0.2,3.8c0,2.1,0,4.2,0,6.2
			c0,1.6,0.1,3.3-0.1,4.9c-0.1,1,0.2,2.4-1.4,2.6c0-0.6-0.1-1.3-0.1-1.9C51.5,440.5,51.5,439.4,51.5,438.4z"/>
		<path id="XMLID_179_" class="st14" d="M98.4,358.6c0.5-2.4-0.3-3.7-2.7-4.7c-2.8-1.1-5.4-2.5-8.4-3.1c-1.3-0.3-2.9-0.6-3.3-2.4
			c4.3,0,8.6,0,12.9-0.2c1.6,0,2.2,0.4,2.2,2.1c-0.1,7.3-0.1,14.5,0,21.8c0,2-1,2.1-2.5,2.1c-5.5,0-10.9,0.1-16.4,0.1
			c0-0.2,0-0.5,0-0.7c1.3-1.1,3-0.9,4.5-0.9c3,0,5.9,0,8.9,0c3.7,0,3.9-0.3,4-3.9c0-0.6,0-1.3,0.1-1.9c0-1.5-0.1-3,0-4.5
			C97.6,361.1,97.5,359.7,98.4,358.6z"/>
		<path id="XMLID_178_" class="st15" d="M50.3,363.6c-5-1.1-7.5-5.6-11.3-8.3c-0.7-0.5-1.1-1.2-2-1.2c-0.1-1.3,0.3-2.6,0.8-3.8
			c0.5-2.1,1.9-1.8,3-0.7c3.3,3.1,7,5.8,10.1,9.1c0.1,0.3,0.2,0.6,0.3,1C51.1,361,51.5,362.5,50.3,363.6z"/>
		<path id="XMLID_177_" class="st16" d="M35.5,360.4c4.4,1.2,6.5,5,9.2,8.1c1.4,1.6,3.6,2.8,3.7,5.3c-1.8,0.7-3.8,0.2-5.6,0.4
			c-0.7,0-1.2-0.4-1.5-0.9c-1.8-2.9-4.2-5.4-6.8-7.6C34.8,363.8,35.2,362.1,35.5,360.4z"/>
		<path id="XMLID_176_" class="st17" d="M52.2,374.4c-0.2-0.1-0.4-0.1-0.6-0.2c-0.2-0.3-0.2-0.7-0.2-1c0.3-3.1-0.4-6.2,0.5-9.3
			c1.3-1.3,2.3-0.3,3.2,0.5c1.5,1.3,2.9,2.8,4.2,4.2c1.8,1.9,3.6,3.8,6.3,4.5c0.9,0.2,2.3,0.8,0.5,2
			C61.4,375.8,56.8,374.5,52.2,374.4z"/>
		<path id="XMLID_175_" class="st18" d="M51.6,420.7c0,1.5-0.1,2.9-0.1,4.4c-0.6,0.9-0.6,2-2.5,1.4c-5.3-2-10.9-3.5-16.3-5.2
			c0.2-0.9,1-0.6,1.5-0.6C40,420.7,45.8,420.7,51.6,420.7z"/>
		<path id="XMLID_174_" class="st19" d="M50.3,358.5c-3.6-2.2-6.6-5.2-9.7-8.2c-1-1-1.9-1.7-2.9-0.1c-0.2-1.5,0.5-2,2-2
			c3.5,0.1,7.1,0.1,10.6,0.2C51.7,351.8,51.7,355.2,50.3,358.5z"/>
		<path id="XMLID_173_" class="st20" d="M95.9,432.7c1.1-1.5,0.4-3.5,1.3-5.1c0.6-0.7,0-1.4,0.2-2.1c0.2-0.7,0.3-1.9,1.4-0.6
			c-0.2,7.2,0.4,14.4-0.3,21.6c-0.2,0-0.4,0-0.6,0.1c-1.5-1-3.7,1.1-4.9-1.1C92.8,440.9,94,436.7,95.9,432.7z"/>
		<path id="XMLID_172_" class="st21" d="M71.9,427c-5.2-3-10.8-5-16.9-5.2c-1,0-1.9-0.8-2.9-1.2c0-0.2,0.1-0.4,0.2-0.6
			c4.2,0,8.4,0,12.6,0c1.2-0.9,2.5-0.6,3.8-0.5c0.7,1.5,1.8,2.5,3.3,3.3c1,0.5,1.8,1.4,2.1,2.6c0,0.5-0.2,0.9-0.5,1.2
			C73,426.9,72.5,427.3,71.9,427z"/>
		<path id="XMLID_171_" class="st22" d="M34.5,365.5c4,1.4,6,4.5,7.6,8.2c-2.5,0.8-5.1,0.2-7.6,0.3c-1.8,0.1-1.7-1-1.3-2.3
			C33.3,369.6,33.8,367.5,34.5,365.5z"/>
		<path id="XMLID_170_" class="st23" d="M93.4,445.3c1.2,1.4,3.2-0.1,4.4,1.3c-1.1,0.1-2.3,0.4-3.4,0.4c-14,0-28-0.1-42.1-0.1
			c0.1-0.4,0.4-0.6,0.7-0.8c0.3-0.1,0.7-0.2,1.1-0.3c5.1-0.2,10.2,0.1,15.2-0.1c7.3-0.2,14.7,0.3,22-0.1c0.3-0.1,0.7-0.2,1-0.4
			C92.7,445.1,93.1,445.1,93.4,445.3z"/>
		<path id="XMLID_169_" class="st24" d="M33.2,371.8c0,1.4,0.6,2.1,2.1,2c2.3-0.1,4.6,0,6.9-0.1c2.1,0,4.2,0,6.3,0
			c1.6,0.2,2-0.6,1.9-2c-0.1-2.7,0-5.4,0-8.1c0-1.5,0-3,0-4.4c0.4-0.2,0.7-0.1,1,0.2c1.1,3.2-0.1,6.4,0.3,9.6c0.1,1.3,0,2.7,0.1,4.1
			c0,0.2,0.1,0.4,0.1,0.5c0,0.2,0,0.4-0.1,0.5c-5.6,0-11.3,0-16.9,0.2C32.3,374.4,32.2,373.5,33.2,371.8z"/>
		<path id="XMLID_168_" class="st0" d="M41.9,446.7c-1.2-0.1-2.4-0.2-4.4-0.4c4.5-0.8,8.1-1.3,11.7-2.1c0.9-0.2,1.6,0,2.4,0.4
			c0.4,0.4,0.5,0.9,0.4,1.4c-0.1,0.4-0.3,0.6-0.7,0.7c-2.8,0-5.6,0.2-8.3-0.2C42.6,446.7,42.2,446.7,41.9,446.7z"/>
		<path id="XMLID_167_" class="st25" d="M98.5,446.5c0-7.4-0.1-14.7-0.1-22.1c-0.7-0.8-0.6-1.7,0-2.5c-0.9-1.4-2.7,0-3.6-1.1
			c4.3-0.3,4.2-0.3,4.2,3.9c0,6.3,0,12.6,0,18.9C98.9,444.6,99.5,445.7,98.5,446.5z"/>
		<path id="XMLID_166_" class="st26" d="M52.2,374.4c4.9,0,9.7,0,14.6,0c1.9-1.4,3.8-0.7,5.7,0l0,0c-0.3,1.7-1.8,1.4-3,1.5
			c-1.1,0.2-2.3-0.1-3.4,0c-2.5-0.2-5.2,0.7-7.5-1c-2.1,0-4.2,0-6.2,0C52.2,374.8,52.2,374.6,52.2,374.4z"/>
		<path id="XMLID_165_" class="st26" d="M52.8,402.3c0,4.7,0,9.4,0,14.1c0,1,0.3,2.1-0.5,3c0-5.7,0-11.4,0-17.1
			C52.5,402.3,52.7,402.3,52.8,402.3z"/>
		<path id="XMLID_164_" class="st27" d="M50.9,359.2c-0.2,0-0.4,0-0.6,0c0-0.2,0-0.4,0-0.6c0-3.4,0-6.7,0-10.1c0.2,0,0.4,0,0.6,0
			c1.2,3.2,0.5,6.5,0.6,9.8C51.5,358.6,51.2,358.9,50.9,359.2z"/>
		<path id="XMLID_163_" class="st28" d="M51,358.6c0-3.4,0-6.7,0-10.1c0.2,0,0.4,0,0.6,0c0.6,2.4,0.1,4.8,0.3,7.2
			c0.3,0.9,0.5,1.8,0,2.7C51.7,358.7,51.4,358.7,51,358.6z"/>
		<path id="XMLID_162_" class="st29" d="M43,446.7c2.9-0.1,5.8-0.2,8.7-0.3c0.2-0.1,0.4,0,0.6,0.2c0,0,0.1,0.2,0.1,0.2
			C49.2,447,46.1,447.2,43,446.7z"/>
		<path id="XMLID_161_" class="st30" d="M51.6,356c0-2.5,0-5,0-7.6c0.2,0,0.4,0,0.6,0c0,2.5,0,5,0,7.6c-0.1,0.1-0.2,0.1-0.3,0.2
			C51.8,356.2,51.7,356.1,51.6,356z"/>
		<path id="XMLID_160_" class="st31" d="M69.3,420c-1.5,0-3,0-4.4,0c0.1-0.3,0.2-0.8,0.3-0.8c4.8-0.9,1.7-2.8,0.3-3.7
			c-4.2-2.8-6.6-6.6-8-11.3c-0.7-2.5-2.2-4.5-4.7-5.6c0-3.6,0-7.2,0-10.8c1.9-0.9,2.8,0.6,3.6,1.7c3.6,5,8.2,9,11.8,13.9
			c1,1.4,1.7,2.9,2.2,4.5c0.8,2.5,1.9,4.9,3,7.3c0.6,1.3,1.2,2.8-0.3,4c1.3-0.6,2.6-0.8,3.9,0.3c0.6,0,1.3,0,1.9,0
			c0.2-0.3,0.4-0.3,0.6,0c0,0.2,0,0.4,0,0.7C76,421.4,72.7,421.6,69.3,420z"/>
		<path id="XMLID_159_" class="st26" d="M76.9,419.4c-1.3,0-2.5,0-4,0c0.7-1.8,0.1-3.3-0.6-4.8c-0.5-1-1.2-2-1.5-3.1
			c-1.2-3.8-2.6-7.4-5.4-10.4c-3.7-3.9-6.9-8.1-10.4-12.1c-0.6-0.6-1.2-1.2-2.1-1.2c0-3.8,0-7.5,0-11.3c2,5.5,7,8.5,10.3,12.7
			c4.1,5.2,9,10.1,10.2,17.3c0.5,2.7,1.6,5.4,2.9,8C77,415.9,78.1,417.5,76.9,419.4z"/>
		<path id="XMLID_158_" class="st32" d="M58.6,375c2.5,0,5.1,0,7.6,0c2.7,1,3.7,3.7,5.2,5.8c3.2,4.4,6.4,8.9,7.8,14.3
			c-0.2,5.5,0.4,11.1-0.3,16.6c-1.9-1.7-2.2-4-2.5-6.2c-1.2-7.3-5.4-13.2-9.4-19c-1.8-2.7-5-4.4-7-7.1C58.9,378,58.4,376.6,58.6,375
			z"/>
		<path id="XMLID_157_" class="st33" d="M78.8,411.8c0-5.9,0-11.8,0-17.7c0.1-0.1,0.2-0.2,0.3-0.2c0.1,0.1,0.2,0.2,0.3,0.2
			c0,8.4,0,16.9,0,25.3c-0.2,0-0.4,0-0.6,0C78.8,416.8,78.8,414.3,78.8,411.8z"/>
		<path id="XMLID_156_" class="st34" d="M72.5,374.4c-1.9,0-3.8,0-5.7,0c-4.4-0.9-7-4.2-10-7.1c-1.4-1.3-2.4-3.3-4.6-3.7
			c-1.3-2.5-0.3-5.1,0-7.6l0,0c4.6,0.6,6.6,4.5,9.3,7.4c2.6,2.7,4.8,5.7,7.1,8.7C69.6,373.5,71.8,372.6,72.5,374.4z"/>
		<path id="XMLID_155_" class="st35" d="M78.8,394c-2.8-2.5-3.2-6.4-5.6-9.2c-2.6-3.1-4.7-6.5-7.1-9.8c2.1-0.3,4.3,0.6,6.3-0.6
			c2.3,0,4.6,0,7-0.1c0,0.4,0,0.9,0,1.3c-0.6,4.9-0.1,9.8-0.3,14.6C79.1,391.6,79.4,392.8,78.8,394L78.8,394z"/>
		<path id="XMLID_154_" class="st3" d="M63,357.9c1.1,0.2,2.2,0.3,1.9,1.9C64,359.4,63.4,358.8,63,357.9z"/>
		<path id="XMLID_153_" class="st36" d="M98.4,358.6c0,1.3,0,2.5,0,3.8c-1.4,1.2-3,0.6-4.5,0.2c-4.7-1.3-8.9-1.3-12,3.2
			c-0.4,0.6-1.1,1-1.9,0.4c0-1.7,0-3.4,0-5.1c0-2.1,0-4.2,0-6.3c2,1.3,4,1.5,6.4,1.5c3.4,0,6.7,1.2,10.1,1.9
			C97.2,358.4,97.8,358.4,98.4,358.6z"/>
		<path id="XMLID_152_" class="st37" d="M80.1,366.2c1.9-0.1,1.7-2.1,2.8-3c3-2.4,6.2-2.6,9.7-1.8c1.9,0.4,3.8,1.2,5.8,1
			c0,1.5,0,3,0,4.4c-1,0.8-2,0.2-3,0c-2.2-0.5-4.4-0.6-6.6-0.5c-2.5,0.1-4.4,1-6,3c-0.6,0.9-1.2,2.2-2.7,1.3c0-1.1,0-2.1,0-3.2
			C80.1,367,80.1,366.6,80.1,366.2z"/>
		<path id="XMLID_151_" class="st38" d="M80.1,370.6c2.2,0.1,1.8-2.2,3-3.2c3.9-3,8-2.2,12.2-1.5c1,0.2,2,0.6,3,0.9
			c0.2,7,0.2,7-6.7,7c-3.9,0-7.7,0-11.6,0C80.1,372.7,80.1,371.6,80.1,370.6z"/>
		<path id="XMLID_150_" class="st39" d="M69.3,420c3.4,0,6.7,0,10.1,0c0,0.2,0,0.4,0,0.6c-1.3,0.8-2.3,1.9-3.1,3.2
			c-0.4,1.2-1,2.1-2.5,1.9c-1-1.4-2.1-2.7-3.9-3.3C68.6,422,67.9,421.1,69.3,420z"/>
		<path id="XMLID_149_" class="st40" d="M78.8,394c0-5.1,0-10.3,0-15.4c0-1-0.4-2.1,0.6-3c0,6.1,0,12.2,0,18.3
			C79.2,394,79,394,78.8,394z"/>
		<path id="XMLID_148_" class="st41" d="M73.8,425.7c0.8-0.6,1.7-1.3,2.5-1.9c3.9,1.9,7.8,3.8,11.6,5.8c2.2,1.2,4.6,1.2,6.9,2
			c0.6,0.2,1.2,0.2,1.2,1c-0.9,4.2-1.7,8.4-2.6,12.6c-0.2,0-0.4,0-0.6,0c-0.5,0-0.9,0-1.3-0.2c-2.7-0.8-4.1-2.3-4.1-5.4
			c0.1-4-3.2-7.4-7.6-8.5c-2.8-0.8-5.5-1.8-6.7-4.9C73.3,426.1,73.5,425.9,73.8,425.7z"/>
		<path id="XMLID_147_" class="st42" d="M98.4,421.9c0,0.8,0,1.7,0,2.5c-1,0.9,0,2.4-1.2,3.2c-3.1-0.1-5.5-2.1-8.3-3.1
			c-1.1-0.4-2-1-3.5-2.6C90.2,421.9,94.3,421.9,98.4,421.9z"/>
		<path id="XMLID_146_" class="st43" d="M51.6,446c0-0.4-0.1-0.9-0.1-1.3c0-0.4,0.1-0.8,0.1-1.3c1.2-2.5,0.3-5.1,0.6-7.6
			c0.2-0.1,0.5-0.1,0.6,0c0.6,2.3,2.2,4,3.2,6c-0.2,1.3-1.1,2.2-2,3C53.3,445.5,52.7,446.2,51.6,446z"/>
		<path id="XMLID_145_" class="st44" d="M73.1,426.3c2.3,1.8,4.5,3.6,7.7,4.4c4.1,1,7.8,4.4,7.4,10.4c-0.2,2.9,2.4,2.7,3.9,3.7
			c-0.8,2.3-2.4,1-3.7,0.8c-2.6-1-4.8-2.5-5.9-5.2c-0.3-0.7-0.8-1.3-1.5-1.6c-4.2-1.8-6.2-6.2-9.9-8.5c-0.4-0.3-0.7-0.8-0.5-1.3
			c0.4-0.6,0.9-1.3,1.3-1.9C72.3,426.8,72.7,426.5,73.1,426.3z"/>
		<path id="XMLID_144_" class="st45" d="M70.6,428.9c2.3,2.1,5.1,3.6,6.8,6.4c0.6,0.9,1.6,1.5,2.7,2c1.5,0.6,2.9,1.4,3.5,3.3
			c0.7,2.3,2.9,3.1,4.8,4.1c-2.6,1.6-4.9,0.2-7.1-0.7c-3.1-1.3-6.2-2.6-9.2-4c-2.9-1.3-4.9-3-5.4-6.3c-0.2-1.7,0.7-2.8,2.1-3.5
			C69.3,429.7,69.9,429.3,70.6,428.9z"/>
		<path id="XMLID_143_" class="st46" d="M68.7,430.1c-0.7,1-1.3,2.1-2,3.1c-0.5,0.8-1.2,1.1-2,1c-3.6-2-7.2-4.2-11.5-4.3
			c-0.3-0.1-0.5-0.4-0.6-0.7c-0.3-1.2,0.3-2.5-0.4-3.6c0-1,0-2.1,0-3.1c0.6,1.3,0.9,2.3,2.8,2.6C59.9,425.8,64.9,426.5,68.7,430.1z"
			/>
		<path id="XMLID_142_" class="st47" d="M55.4,442.2c0-0.2,0-0.6,0-0.6c-3.4-0.6-2-3.9-3.1-5.7c0-2.1,0-4.2,0-6.3
			c0.2-0.3,0.4-0.3,0.6,0c0.6,0.6,0.8,1.4,0.8,2.3c-0.1,2,0.8,3,2.7,3.5c1.7,0.5,3.4,1.3,2.9,3.7C58.4,440.5,57.6,442.3,55.4,442.2z
			"/>
		<path id="XMLID_141_" class="st48" d="M52.9,429.5c-0.2,0-0.4,0-0.6,0c0-1.3,0-2.5,0-3.8C53.4,426.8,52.6,428.2,52.9,429.5z"/>
		<path id="XMLID_140_" class="st49" d="M52.2,356c0,2.5,0,5.1,0,7.6c-0.3,3.3,0.6,6.8-0.5,10.1l-0.1,0c-0.5-5.1-0.4-10.1,0-15.2
			c0-0.8,0.1-1.7,0.1-2.5C51.8,356,52,356,52.2,356z"/>
		<path id="XMLID_139_" class="st50" d="M92.8,446c-0.4,0.6-1.1,0.6-1.7,0.6c-7.3,0-14.6-0.1-21.9-0.1c-3.8,0.1-7.6-0.9-11.5-0.5
			c-1.1,0.1-2.1-0.1-2.9-0.9c-0.4-2,1.4-2.4,2.4-3.4c2.2-2,4.6-1.4,7.3-1.2C74.2,441.4,83.1,445.7,92.8,446z"/>
		<path id="XMLID_138_" class="st51" d="M92.8,446c-6.5,0.2-12.9-0.9-19-3.1c-3-1.1-6.3-0.4-9.1-1.4c-2.8-1.1-5.1-0.9-7.4,0.7
			c-0.1-1.7,1.8-2.1,2.2-3.5c1.8-1.7,3.1-3.8,5.4-4.8c0.6-0.2,1.2-0.4,1.8-0.7c0.2,0.1,0.6,0.1,0.6,0.2c0.4,4.8,4.6,5.6,7.8,7
			c4.2,1.8,8.3,4.5,13.2,4.2c1.3,0.6,2.5,1.2,3.8,0c0.2,0.2,0.4,0.4,0.6,0.7C92.8,445.6,92.8,445.8,92.8,446z"/>
		<path id="XMLID_137_" class="st52" d="M54.7,444.7c3.7,0.4,7.4,0.8,11.2,1.3c1.1,0.1,2.3-0.4,3.3,0.5c-5.4,0-10.9,0-16.3,0
			c-0.2-0.6,0.2-0.9,0.6-1.3C53.8,444.9,54.1,444.3,54.7,444.7z"/>
		<path id="XMLID_136_" class="st53" d="M53.5,445.3c-0.2,0.4-0.4,0.7-0.6,1.1c-0.2,0.1-0.4,0.1-0.6,0.2c-0.2-0.1-0.4-0.1-0.6-0.2
			c-0.1-0.2-0.1-0.3,0-0.5c0.6-0.4,1.2-0.9,1.9-1.3c0.2,0.1,0.3,0.3,0.2,0.4C53.6,445.3,53.5,445.3,53.5,445.3z"/>
		<path id="XMLID_135_" class="st54" d="M51.5,358.5c0,5.1,0,10.1,0,15.2c-1.3-3-0.3-6.1-0.6-9.2c-0.1-1.8,0-3.6,0-5.3
			c0-0.2,0-0.4,0-0.6C51.2,358.5,51.3,358.5,51.5,358.5z"/>
		<path id="XMLID_134_" class="st55" d="M53.5,445.3c0-0.2,0-0.4,0-0.7c0.6-0.8,1.3-1.7,1.9-2.5c1.3-0.8,2.4-1.9,3.2-3.2
			c0.4-0.4,0.9-0.4,1.3,0c-0.9,1.1-1.7,2.1-2.6,3.2c-1.1,0.6-1.9,1.5-2.5,2.5C54.3,444.9,53.9,445.1,53.5,445.3z"/>
		<path id="XMLID_133_" class="st48" d="M59.9,439c-0.4,0-0.9,0-1.3,0c0.8-1.5-0.4-2.4-1.4-2.5c-4.6-0.5-4.7-3.5-4.3-7
			c4.7-0.4,8.5,1.7,12.1,4.5C63.5,435.9,61.8,437.6,59.9,439z"/>
	</g>
	<g id="XMLID_122_">
		<path id="XMLID_131_" class="st56" d="M250.5,437.7c-1.3,0-2.7,0-4.2,0c0-11.7,0-23.5,0-35.4c2.7,0,5.2,0,8.1,0
			c4.6,9.1,9.3,18.3,14.7,28.7c0-10.1,0-19,0-27.3c1.9-2.2,3.6-1.3,5.6-1.4c0,11.7,0,23.4,0,35.3c-2.8,0-5.4,0-8.1,0
			c-4.9-9.1-9.8-18.2-14.7-27.3c-1.4,6.9-0.2,13.8-0.7,20.7C251.1,433.3,251.9,435.6,250.5,437.7z"/>
		<path id="XMLID_128_" class="st57" d="M239.2,437.7c-6.8,0-13.4,0-20.3,0c0-11.7,0-23.4,0-35.3c6.5,0,12.8,0,19.4,0
			c1.3,0.9,0.8,2.4,0.4,4.3c-4.5,0-9.1,0-13.9,0c0,3.5,0,6.6,0,10c4.1,1.3,8.5,0.1,12.7,0.7c1.5,1.1,0.7,2.5,1.1,4.3
			c-4.7,0-9.1,0-13.7,0c0,3.9,0,7.3,0,11.1c4.4,1.2,9.2-0.1,13.9,0.6C240.1,434.6,239.7,435.9,239.2,437.7z"/>
		<path id="XMLID_127_" class="st58" d="M181.6,402.3c2.7,0,4.4,0,6.4,0c3.3,9.3,6.5,18.6,10.2,29c3.7-10.3,7.1-19.6,10.5-29
			c1.9,0,3.6,0,6,0c-4.4,11.9-8.8,23.5-13,35c-2.2,0.9-4.3,0.5-6.9,0.4C190.4,426.1,186.1,414.5,181.6,402.3z"/>
		<path id="XMLID_126_" class="st59" d="M280.2,407.4c-1.3-1.8-0.9-3.2-0.5-5c8.7,0,17.5,0,26.2,0c1.2,1.5,0.6,3,0.4,4.8
			c-3.3,0-6.5,0-10.3,0c0,10.3,0,20.2,0,29.9c-2.1,1.1-3.8,0.8-5.9,0.4c0-9.9,0-19.9,0-30.1C286.4,407.4,283.2,407.4,280.2,407.4z"
			/>
		<path id="XMLID_125_" class="st56" d="M134.9,402.4c1.9,0,3.5,0,5.3,0c0,11.7,0,23.2,0,34.7c-1.5,1.3-3.3,0.5-5.3,0.7
			C134.9,426.1,134.9,414.5,134.9,402.4z"/>
		<g>
			<path class="st56" d="M324.2,401.9c-10.2,0-16.6,6.8-16.6,18c-0.1,11.4,6,18.2,16.2,18.4c10.4,0.1,17.2-7.1,17.1-18.3
				C340.8,408.8,334.4,401.9,324.2,401.9z M332.8,427.9c-1.7,3.6-4.4,5.6-8.6,5.7c-4.2,0-6.9-2-8.6-5.6c-2.2-4.7-2.3-9.7-0.6-14.6
				c1.4-4.1,4.1-6.9,8.8-7c4.9-0.1,7.7,2.5,9.5,6.9c0.9,2.2,1,4.5,1.1,7.6C334.6,422.9,333.9,425.5,332.8,427.9z"/>
		</g>
		<g>
			<path class="st58" d="M363.9,419.8c4.8-1.8,7-5.1,6.2-10.3c-0.8-5-4.6-6.4-8.7-7c-4.7-0.7-9.5-0.8-14.1,0.1c0,11.9,0,23.4,0,34.9
				c1.9,0.4,3.6,0.8,5.5-0.4c0-4.7,0-9.5,0-14.4c2.9-0.5,5-0.4,7,0.7c3.3,4.2,3.8,9.9,6.7,14.3c2,0,3.9,0.6,6-0.6
				C369.7,431.3,368.8,424.7,363.9,419.8z M353,417.6c0-3.9,0-7.2,0-10.9c3.9,0,7.8-0.9,10.6,2.7c1.2,1.5,1.1,3.3,0.1,4.9
				C361.2,418.4,357.2,417.6,353,417.6z"/>
		</g>
	</g>
	<g id="XMLID_102_">
		<path id="XMLID_119_" d="M153.4,383.6h-1.2l-3.6-9.8h-11l-3.6,9.8h-1.3l10-26.9h0.9L153.4,383.6z M148.1,372.8l-3.6-9.6
			c-0.7-1.9-1.1-3.2-1.5-4.7H143c-0.5,1.9-0.9,3-1.5,4.7l-3.6,9.6L148.1,372.8L148.1,372.8z"/>
		<path id="XMLID_117_" d="M175.6,372.9c0,8.3-4.5,11.1-9.3,11.1c-4.3,0-8.7-2.6-8.7-10.8v-16.6h1.2V373c0,7.2,3.4,10,7.5,10
			c4.6,0,7.9-3.1,7.9-10v-16.2h1.2V372.9z"/>
		<path id="XMLID_115_" d="M197.6,357.8h-9v25.8h-1.2v-25.8h-9v-1.1h19.2L197.6,357.8L197.6,357.8z"/>
		<path id="XMLID_112_" d="M221.9,369.9c0,9.6-5.9,14.1-11.8,14.1c-6.4,0-11.6-5.1-11.6-13.6c0-9,5.3-14.1,11.9-14.1
			C217.1,356.3,221.9,361.6,221.9,369.9z M199.8,370.4c0,5.7,3.6,12.6,10.3,12.6c6.7,0,10.5-6.1,10.5-13c0-5.8-3.1-12.7-10.3-12.7
			C203.1,357.3,199.8,364.1,199.8,370.4z"/>
		<path id="XMLID_109_" d="M226.8,357.1c2-0.3,4.2-0.6,6.7-0.6c8.4,0,14,4.1,14,13c0,12.9-10.2,14.3-14.9,14.3c-1.9,0-3.8,0-5.8-0.2
			L226.8,357.1L226.8,357.1z M228,382.5c1.2,0.2,2.7,0.3,4.5,0.3c9.1,0,13.6-5.3,13.6-13.2c0-7.4-4.1-12-12.9-12
			c-2.2,0-4,0.3-5.2,0.5L228,382.5L228,382.5z"/>
		<path id="XMLID_107_" d="M265.7,383.6h-13.4v-26.9H265v1.1h-11.5v11h10.9v1.1h-10.9v12.5h12.1V383.6z"/>
		<path id="XMLID_105_" d="M281.5,358.6c-0.7-0.5-2.2-1.3-4.5-1.3c-4.6,0-6.2,3-6.2,5.3c0,3.1,1.6,4.8,5.6,6.4
			c4.4,1.8,6.8,3.7,6.8,7.8c0,3.9-2.8,7.2-8.2,7.2c-2.2,0-4.8-0.7-6.3-1.8l0.6-1c1.6,1.1,3.5,1.8,5.7,1.8c4.3,0,6.8-2.6,6.8-6.1
			c0-3.2-1.5-5.1-5.5-6.6c-4.3-1.5-6.9-3.7-6.9-7.4c0-3.9,3.2-6.6,7.5-6.6c2.5,0,4.3,0.7,5.1,1.3L281.5,358.6z"/>
		<path id="XMLID_103_" d="M304.9,383.6h-1.6L289.7,372l0,0.1v11.5h-1.3v-26.9h1.3v13.9h0.1c0.8-1,1.6-1.9,2.4-2.7l10.1-11.2h1.5
			l-13.3,14.5L304.9,383.6z"/>
	</g>
	<line id="XMLID_101_" class="st60" x1="117.9" y1="343.8" x2="117.9" y2="452.9"/>
	<path id="XMLID_100_" class="st56" d="M152.3,437.9c-1.3,0-2.7,0-4.2,0c0-11.7,0-23.5,0-35.4c2.7,0,5.2,0,8.1,0
		c4.6,9.1,9.3,18.3,14.7,28.7c0-10.1,0-19,0-27.3c1.9-2.2,3.6-1.3,5.6-1.4c0,11.7,0,23.4,0,35.3c-2.8,0-5.4,0-8.1,0
		c-4.9-9.1-9.8-18.2-14.7-27.3c-1.4,6.9-0.2,13.8-0.7,20.7C152.8,433.5,153.7,435.8,152.3,437.9z"/>
</g>
<g id="XMLID_21_">
</g>
<g id="XMLID_22_">
</g>
<g id="XMLID_23_">
</g>
<g id="XMLID_24_">
</g>
<g id="XMLID_25_">
</g>
<g id="XMLID_26_">
</g>
</svg>
