<?xml version="1.0" encoding="utf-8"?>
<!-- Generator: Adobe Illustrator 19.0.0, SVG Export Plug-In . SVG Version: 6.00 Build 0)  -->
<svg version="1.1" id="Layer_1" xmlns="http://www.w3.org/2000/svg" xmlns:xlink="http://www.w3.org/1999/xlink" x="0px" y="0px"
	 viewBox="0 0 770.9 176" style="enable-background:new 0 0 770.9 176;" xml:space="preserve">
<style type="text/css">
	.st0{fill:#1A3C6A;}
	.st1{fill:#5D92BC;}
	.st2{fill:#5D92BD;}
	.st3{fill:#5C92BC;}
	.st4{fill:#5F92BD;}
	.st5{fill:#6092BC;}
	.st6{fill:#193D6C;}
</style>
<g id="XMLID_2_">
	<path id="XMLID_81_" class="st0" d="M168,79.9c2.2,2.2,4.3,4.4,6.6,6.4c1.1,1,0.8,1.6-0.1,2.5c-8.9,8.9-17.8,17.8-26.7,26.7
		c-19.7,19.7-39.4,39.4-59.1,59.2c-1.2,1.2-1.8,1.3-3,0c-1.9-2.1-4-4.1-6-6.1c-0.5-1.3,0.6-1.8,1.3-2.5c6.4-6.4,12.7-12.8,19.1-19.2
		c12-12,24-24,36-36c1.3-1.2,2.5-2.5,3.8-3.8c4.6-4.6,9.2-9.2,13.8-13.8c0.5-0.4,0.9-0.9,1.4-1.4c1.2-1.2,2.5-2.5,3.7-3.7
		c2.4-2.4,4.8-4.8,7.2-7.2C166.5,80.6,167,79.7,168,79.9z"/>
	<path id="XMLID_80_" class="st0" d="M138,79.1c1.8,1.8,3.5,3.7,5.4,5.3c1.5,1.3,1.5,2,0.1,3.4c-14.1,14-28.2,28.1-42.2,42.1
		c-9.6,9.6-19.2,19.2-28.8,28.9c-1.1,1.1-1.7,1.1-2.7,0c-1.8-2-3.8-3.9-5.7-5.9c-0.4-0.6-0.1-1,0.2-1.5c0.4-0.5,0.9-1,1.4-1.5
		c23.1-23.1,46.2-46.2,69.3-69.2C135.9,80,136.4,78.6,138,79.1z"/>
	<path id="XMLID_79_" class="st0" d="M107.6,79.9c1.9,1.9,3.7,3.8,5.7,5.6c1.1,1,1.2,1.6,0,2.7c-10.2,10.1-20.3,20.2-30.4,30.4
		c-8.5,8.6-17.1,17.1-25.6,25.7c-0.8,0.8-1.2,0.7-1.9,0c-2-2.1-4-4.1-6.1-6.1c-0.5-1.3,0.6-1.8,1.3-2.5c7.1-7.1,14.2-14.2,21.3-21.3
		c11-11,22-22,33.1-33C105.7,80.6,106.3,79.4,107.6,79.9z"/>
	<path id="XMLID_78_" class="st1" d="M138,79.1c-1,0-1.4,0.8-1.9,1.4c-23.6,23.6-47.1,47.1-70.6,70.7c-0.5,0.5-1.2,0.9-1.3,1.8
		c-1.1-1.1-2.1-2.3-3.3-3.3c-1.1-1-1-1.5,0-2.5c7.9-7.8,15.7-15.6,23.5-23.5c20.7-20.7,41.4-41.3,62-62.1c1.4-1.4,2-1.6,3.4-0.1
		c2.7,2.9,2.8,2.8-0.1,5.6c-3.7,3.7-7.4,7.3-11,11C138.4,78.4,138.2,78.8,138,79.1z"/>
	<path id="XMLID_77_" class="st2" d="M3.8,92.7c-0.5-0.5-1-1.1-1.5-1.6c-3-3.1-3-3.1,0-6.1c28-28,55.9-56,83.9-84
		c1.2-1.2,1.9-1.4,3.1,0c2.7,3,2.8,2.9-0.1,5.8C65.7,30.2,42.3,53.7,18.9,77.1c-0.6,0.6-1.5,1.1-1.6,2.1
		C12.9,83.8,8.4,88.3,3.8,92.7z"/>
	<path id="XMLID_76_" class="st2" d="M107.6,79.9c-0.9-0.1-1.3,0.6-1.8,1.1c-18.5,18.5-36.9,37-55.4,55.5c-0.5,0.5-1.1,0.8-1.1,1.7
		c-0.6-0.6-1.2-1.3-1.8-1.9c-2.8-2.8-2.8-2.8,0.1-5.7c25.5-25.5,51.1-51.1,76.6-76.6c2.6-2.6,5.2-5.2,7.8-7.9
		c0.9-0.9,1.4-1.1,2.4-0.1c3.3,3.3,3.3,3.3,0,6.6c-8.6,8.5-17.1,17.1-25.6,25.7C108.3,78.8,107.6,79.1,107.6,79.9z"/>
	<path id="XMLID_75_" class="st1" d="M18.6,107.4c-1.1-1.1-2.1-2.3-3.3-3.3c-1.1-0.9-1-1.5,0-2.5c7.8-7.7,15.6-15.5,23.3-23.3
		C56.4,60.5,74.1,42.8,91.9,25c0.4-0.4,0.9-0.8,1.4-1.2c1.2-0.5,2.3-0.9,2.9,0.8c0.2,0.5,0.7,0.6,1.2,0.7c0.9,0.2,1.4,0.7,1.3,1.7
		c-6.5,6.5-12.9,13.1-19.4,19.6c-10.6,10.7-21.3,21.3-32,32c-0.4,0.4-1,0.8-1.1,1.4c-6.3,6.5-12.8,12.8-19.2,19.2
		C24.1,102,21.5,104.8,18.6,107.4z"/>
	<path id="XMLID_74_" class="st0" d="M76,79.2c2.3,2.3,4.5,4.6,6.8,6.8c0.8,0.7,1,1.2,0.1,2.1c-13.6,13.5-27.2,27.1-40.7,40.7
		c-0.9,1-1.4,0.8-2.2-0.1c-2.1-2.2-4.3-4.4-6.5-6.5c-0.5-1.3,0.6-1.8,1.2-2.5c7.7-7.7,15.4-15.4,23.1-23.1
		c5.3-5.3,10.6-10.6,16-15.9C74.3,80,74.8,79.1,76,79.2z"/>
	<path id="XMLID_73_" class="st0" d="M548,116c-4.8,0-9.7,0-14.5,0c-0.7,0-1.6,0.3-1.7-0.9c-0.1-1.1,0.5-1.3,1.5-1.5
		c4.7-0.7,4.7-0.8,4.7-5.5c0-8.1,0-16.3,0-24.4c0-4.1,0-4.1-3.9-5.3c-0.8-0.3-1.1-0.7-1-1.5c0.2-1,1-1,1.7-0.9
		c6.8,0.3,13.5,0.3,20.3,0.2c2.2,0,4.4,0,6.5-0.2c1-0.1,1.5,0.1,1.6,1.2c0.1,2.5,0.3,4.9,0.5,7.4c0.1,0.7,0,1.2-0.8,1.4
		c-0.7,0.1-1.4,0.1-1.6-0.8c-1.3-5.5-5.2-6.3-10-6c-4.5,0.2-4.5,0.1-4.5,4.5c0,2.7,0.1,5.3,0,8c0,1.5,0.3,2.2,1.9,2
		c1.3-0.1,2.6,0,3.9,0c2.9,0,3.6-0.5,4.2-3.3c0.1-0.4,0.1-0.8,0.3-1.2c0.3-0.7,1-0.7,1.6-0.6c0.6,0.1,0.9,0.5,0.8,1.2
		c-0.3,3.7-0.3,7.5,0,11.2c0.1,0.6-0.1,1.1-0.8,1.2c-0.6,0.1-1.3,0.1-1.6-0.6c-0.1-0.1-0.1-0.3-0.1-0.4c-0.4-1.4-0.3-3.2-1.9-3.8
		c-2.4-0.9-5-0.4-7.5-0.4c-0.7,0-0.7,0.7-0.7,1.3c0,3.6,0,7.2,0.2,10.8c0.1,2.6,1.3,3.6,3.9,3.8c1.2,0.1,2.3,0,3.5,0.1
		c4.5,0.4,7.6-1.6,9.4-5.7c0.2-0.4,0.4-0.9,0.7-1.2c0.4-0.5,0.9-0.5,1.5-0.3c0.7,0.2,0.8,0.6,0.7,1.3c-0.3,2.9-1.1,5.6-2.1,8.3
		c-0.3,0.9-1,0.8-1.7,0.8C558,116,553,116,548,116C548,116,548,116,548,116z"/>
	<path id="XMLID_72_" class="st0" d="M233.1,95.6c0,4.6,0,9.3,0,13.9c0,3.1,0.5,3.6,3.6,4.1c0.8,0.1,1.9,0.1,1.8,1.4
		c-0.1,1.4-1.1,0.9-1.8,0.9c-5.3,0-10.5,0-15.8,0c-0.8,0-1.6,0.1-1.7-1c-0.1-1.2,0.7-1.3,1.5-1.4c3.1-0.6,3.5-0.9,3.5-4
		c0.1-9.1,0-18.1,0-27.2c0-2.8-0.4-3.2-3.3-3.7c-0.8-0.1-1.5-0.1-1.5-1.2c0-0.9,0.6-1.2,1.3-1.2c7.2-0.3,14.3-1.1,21.4,0.3
		c8.5,1.8,12.6,9.8,8.6,16.9c-2.4,4.2-8.3,6.1-13.2,5.7c-0.5,0-0.8-0.2-0.8-0.7c-0.1-0.6,0.2-1,0.7-1.3c5.4-3.2,7-8.9,4.2-14.4
		c-1.3-2.5-3.3-3.8-6-4c-1.7-0.1-2.7,0.4-2.7,2.4C233.2,86,233.1,90.8,233.1,95.6C233.1,95.6,233.1,95.6,233.1,95.6z"/>
	<path id="XMLID_71_" class="st3" d="M76,79.2c-4.4,3.8-8.3,8.2-12.6,12.3c-1.8,1.7-3.4,3.7-5.4,5.2c-1.8,0.2-1.3-1.3-1.2-2.1
		c0.1-1.1,0.7-2.2,1.1-3.3c0.7-1.7,0.8-2.1,0.5-3.3c6-6.1,12-12.1,18-18.2c13.1-13.2,26.3-26.3,39.3-39.5c1.3-1.3,2-1.2,3.1,0.1
		c2.7,2.9,2.8,2.9,0,5.7C105,50,91.3,63.8,77.5,77.6C77,78.1,76.5,78.7,76,79.2z"/>
	<path id="XMLID_70_" class="st1" d="M136.4,111.2c-7.4,7.5-14.8,14.9-22.2,22.4c-11.1,11.1-22.1,22.1-33.2,33.2
		c-0.5,0.5-1.2,0.9-1.2,1.8c-1.1-1.1-2.2-2.3-3.4-3.3c-1.1-0.9-1-1.6,0-2.6c7.3-7.3,14.6-14.6,21.9-21.9
		c10.3-10.3,20.6-20.6,30.8-30.9c0.3-0.3,0.7-0.6,1.1-0.9c1.1-0.5,1.7,0.1,2.1,1.2c0.4-0.6,0.6-1.1,0.9-1.5c0.7-1,2.1-0.8,2.5,0.4
		C135.8,109.8,136.2,110.5,136.4,111.2z"/>
	<path id="XMLID_69_" class="st0" d="M468.2,104.3c0,2.2,0,4.4,0,6.6c0,1.6,0.5,2.8,2.4,2.8c1,0,1.3,0.5,1.2,1.5
		c-0.1,1-0.8,0.9-1.5,0.9c-3.9,0-7.8,0-11.7,0c-0.7,0-1.4,0-1.5-0.9c-0.1-0.9,0.3-1.5,1.2-1.5c1.2,0,1.7-0.8,1.7-1.9
		c0.3-4.3,0.3-8.6,0-12.9c-0.2-3.1-3.7-4.5-6.4-2.9c-0.8,0.5-1.3,1.1-1.3,2.1c0,4.4,0,8.9,0,13.3c0,1.2,0.4,2.2,1.8,2.2
		c0.9,0,1.2,0.5,1.1,1.4c-0.1,1-0.7,1-1.4,1c-4,0-7.9,0-11.9,0c-0.8,0-1.4-0.1-1.4-1c0-0.8,0.3-1.3,1.2-1.3c2,0,2.5-1.2,2.5-3
		c0-4,0-7.9,0-11.9c0-1.3-0.3-2.3-1.5-3.1c-1.3-0.9-1.1-2,0.4-2.5c2.4-0.8,4.8-1.6,7-2.7c1.8-0.9,2.3-0.6,2.1,1.4
		c-0.3,2.2,0.6,1.7,1.9,1c2.1-1.2,4.3-2.1,6.8-2c4.1,0.2,6.9,2.8,7,7C468.3,100,468.2,102.2,468.2,104.3
		C468.2,104.3,468.2,104.3,468.2,104.3z"/>
	<path id="XMLID_68_" class="st0" d="M18.6,107.4c0-0.8,0.7-1.2,1.1-1.6c8.2-8.2,16.3-16.4,24.5-24.6c0.5-0.5,0.9-1.3,1.8-1.2
		c2.2,2.2,4.4,4.5,6.6,6.7c0.8,0.7,1,1.2,0.1,2.1c-8.5,8.4-16.9,16.9-25.3,25.4c-0.9,0.9-1.4,0.8-2.3-0.1
		C23.1,111.9,20.8,109.7,18.6,107.4z"/>
	<path id="XMLID_67_" class="st0" d="M317.6,103.9c0,2.4,0,4.8,0,7.2c0,1.7,0.7,2.7,2.5,2.7c0.3,0,0.7,0.1,1,0.1c0.8,0,1,0.6,1,1.2
		c-0.1,0.6-0.4,0.9-1.1,0.9c-4.6,0-9.3,0-13.9,0c-0.6,0-1.1-0.1-1.2-0.8c-0.1-0.7,0.1-1.3,0.9-1.3c2.7,0,2.8-1.9,2.8-3.8
		c0-4.2-0.1-8.5,0-12.7c0-1.8-0.5-2.6-2.3-2.3c-0.6,0.1-1.4,0.4-1.7-0.6c-0.3-1,0.4-1.4,1.1-1.6c2.3-0.7,3-2.3,3-4.6
		c0-3.7,0.8-7.3,3.1-10.4c3-4.2,8.9-6.1,13.7-4.4c1.7,0.6,3.1,1.5,3.5,3.4c0.4,1.6,0.1,3-1.5,3.9c-1.5,0.8-3.1,0.7-4.3-0.6
		c-0.9-0.9-1.6-1.9-2.4-2.8c-1.8-1.9-3.2-1.5-3.8,1.1c-0.3,1.3-0.4,2.7-0.4,4.1c0,2.3,0.1,4.5,0,6.8c-0.2,2.2,0.7,2.8,2.7,2.5
		c1.1-0.1,2.3,0,3.5,0c1-0.1,1.6,0.3,1.5,1.3c-0.1,0.9-0.1,2-1.5,2c-1.5,0-3,0.1-4.5,0c-1.2-0.1-1.7,0.4-1.7,1.7
		C317.7,99.1,317.6,101.5,317.6,103.9C317.6,103.9,317.6,103.9,317.6,103.9z"/>
	<path id="XMLID_66_" class="st0" d="M499.9,114.9c0.3-0.9,1.4-0.6,2-1.1c1.4-0.4,1.6-1.6,1.6-2.7c0-10,0-20,0-29.9
		c0-1.1-0.4-2-1.5-2.5c-0.7-0.3-1.1-0.8-1-1.6c0.1-0.8,0.7-0.9,1.3-1c2.5-0.7,4.9-1.7,7.3-2.7c1.4-0.6,2.1-0.4,2.1,1.4
		c-0.5,11.4-0.2,22.8-0.3,34.2c0,0.9,0.1,1.8,0.2,2.7c0.1,1.4,0.7,2.2,2.1,2.2c1,0,1.5,0.4,1.5,1.5c-0.1,1.1-0.9,0.9-1.7,0.9
		c-4,0-8.1,0-12.1,0C500.6,116,499.7,116.2,499.9,114.9z"/>
	<path id="XMLID_65_" class="st0" d="M763.4,90.9c0.6,0,1.1,0.1,1.7,0.1c4.5,0.3,5.8,1.9,5.4,6.4c-0.1,0.7-0.2,1.2-1,1.3
		c-0.7,0.1-1.2,0-1.5-0.8c-0.4-1.1-0.9-2.1-1.7-3c-1-1.1-2.3-1.4-3.7-1.1c-1,0.2-1.7,0.9-1.8,2c-0.2,1.6,0.8,2.4,1.9,3.1
		c1.4,0.9,3,1.7,4.4,2.6c3.2,2,4.5,4.9,3.9,8.6c-0.6,3.5-3.2,5.3-6.4,6.1c-3,0.7-6,0.6-8.9-0.2c-1.8-0.5-2.9-1.6-3-3.6
		c-0.1-1.2-0.3-2.3-0.3-3.5c0-0.7,0.1-1.4,1-1.5c0.8-0.1,1.2,0.2,1.5,1c0.7,1.6,1.6,3.2,3,4.3c1.9,1.4,4.3,1.3,5.3-0.2
		c1.1-1.6,0.5-3.7-1.5-5.1c-1.3-0.9-2.7-1.5-4-2.4c-3.3-2.2-4.6-4.9-3.9-8.1c0.7-3.3,3.4-5.5,7.2-6C761.6,91,762.5,91,763.4,90.9z"
		/>
	<path id="XMLID_64_" class="st0" d="M358.3,116.8c-0.8-0.1-1.5-0.1-2.1-0.2c-6.2-0.7-6-2.1-6.3-7.8c0-0.7,0.2-1.2,1-1.3
		c0.7-0.1,1.1,0,1.4,0.8c0.6,1.7,1.6,3.2,3,4.4c1.8,1.5,4.2,1.5,5.3,0.1c1.2-1.5,0.7-3.7-1.3-5.1c-1.3-0.9-2.8-1.6-4.2-2.5
		c-3.2-2.1-4.5-4.7-3.9-7.9c0.7-3.3,3.2-5.6,6.8-6.1c2.4-0.3,4.7-0.2,7.1,0.3c1.7,0.4,2.5,1.2,2.6,2.9c0.1,1.1,0.2,2.2,0.3,3.3
		c0,0.7-0.1,1.2-0.9,1.3c-0.7,0.1-1.2-0.1-1.5-0.8c-0.3-0.8-0.7-1.6-1.2-2.4c-0.8-1.2-1.9-1.9-3.4-1.8c-1.2,0.1-2.1,0.6-2.5,1.7
		c-0.4,1.1,0,2,0.9,2.8c1.2,1.1,2.8,1.7,4.2,2.5c3.1,1.8,5.3,4.1,5.2,7.9c-0.1,3.9-2.7,6.7-7,7.6
		C360.5,116.6,359.3,116.7,358.3,116.8z"/>
	<path id="XMLID_63_" class="st0" d="M382.3,91c0.5,0,1,0,1.4,0c4.8,0.3,6.1,1.8,5.7,6.6c-0.1,0.7-0.3,1.2-1,1.3
		c-0.7,0.1-1.2-0.1-1.5-0.8c-0.3-0.8-0.7-1.6-1.2-2.4c-0.9-1.5-2.3-2.1-4.1-1.7c-1.9,0.4-2.6,2.4-1.5,3.9c0.8,1,1.9,1.6,3,2.1
		c1.6,0.8,3.1,1.7,4.4,2.9c4.2,4.2,2.9,10.6-2.6,12.8c-3.4,1.4-6.9,1.2-10.5,0.3c-1.8-0.5-2.9-1.5-3-3.4c-0.1-1.3-0.2-2.6-0.3-3.9
		c0-0.6,0.1-1.2,0.9-1.3c0.7-0.1,1.2,0.1,1.5,0.8c0.4,0.8,0.7,1.6,1.2,2.3c0.4,0.6,0.9,1.2,1.4,1.7c1.9,1.7,4.5,1.9,5.6,0.3
		c1.2-1.6,0.6-3.9-1.6-5.4c-1.3-0.9-2.7-1.5-4-2.4c-2.9-1.9-4.4-4.5-3.6-8c0.7-3.4,3.1-5,6.2-5.7c1.1-0.3,2.3-0.3,3.4-0.4
		C382.3,90.9,382.3,90.9,382.3,91z"/>
	<path id="XMLID_62_" class="st0" d="M291.4,164.7c0,2.2,0,4.4,0,6.6c0,1.9,0.7,3,2.7,3.1c0.7,0,1.2,0.2,1.1,1.1
		c-0.1,0.8-0.7,0.6-1.3,0.6c-3.1,0-6.3,0-9.4,0c-0.5,0-1.2,0.3-1.3-0.5c-0.1-0.8,0.3-1.1,1.1-1.1c2.1-0.1,2.6-1.4,2.6-3.2
		c0-3.7,0.1-7.4,0-11.1c0-2.2-0.6-4.3-2.9-5.2c-2.5-1-5-0.7-7.1,1c-1,0.8-1.4,2-1.4,3.3c0,4.1,0,8.2,0,12.3c0,1.7,0.6,2.8,2.4,2.9
		c0.7,0.1,1.3,0.2,1.1,1c-0.1,0.7-0.7,0.6-1.3,0.6c-3.1,0-6.3,0-9.4,0c-0.6,0-1.2,0.1-1.3-0.6c-0.1-0.8,0.5-1,1.2-1
		c2-0.1,2.6-1.3,2.5-3.1c-0.1-4.4,0-8.9,0-13.3c0-1.2-0.2-2.1-1.3-2.8c-1.5-0.9-1.1-1.6,0.3-2.2c1.4-0.6,2.9-1.3,4.2-2.1
		c1-0.5,1.5-0.6,1.5,0.8c0.1,2.7,0.1,2.7,2.6,1.4c2.1-1.1,4.4-1.9,6.8-1.7c3.9,0.3,6.3,2.8,6.5,6.8
		C291.4,160.3,291.4,162.5,291.4,164.7C291.4,164.7,291.4,164.7,291.4,164.7z"/>
	<path id="XMLID_61_" class="st0" d="M261,116.1c-2.2,0-4.4,0-6.6,0c-0.7,0-1.2,0.1-1.3-0.8c0-0.8,0.1-1.4,1-1.4
		c2.1,0,2.6-1.4,2.6-3.1c0-4.1,0-8.2,0-12.3c0-1.1-0.5-1.9-1.4-2.6c-1.4-1-1.2-2,0.4-2.5c2.4-0.8,4.7-1.7,7-2.8
		c1.7-0.8,2-0.6,1.9,1.3c0,0.6-0.5,1.4,0.2,1.7c0.7,0.4,1.2-0.5,1.7-0.8c1.2-0.9,2.5-1.7,4.1-1.8c1.6-0.1,2.9,0.5,3.4,2.1
		c0.5,1.6,0.5,3.3-0.9,4.5c-1.3,1.1-2.8,1.3-4.4,0.4c-0.1-0.1-0.2-0.2-0.3-0.2c-0.9-0.6-1.7-1.8-2.8-1.3c-1.1,0.6-0.8,2-0.9,3.2
		c0,3.6,0,7.1,0,10.7c0,2.9,0.2,3.1,2.9,3.6c0.8,0.1,1.7,0.2,1.5,1.4c-0.1,1.2-0.9,0.9-1.7,0.9C265.4,116.1,263.2,116.1,261,116.1z"
		/>
	<path id="XMLID_60_" class="st0" d="M737.9,116.1c-2.2,0-4.4,0-6.6,0c-0.7,0-1.4,0.1-1.4-0.9c0-0.9,0.3-1.3,1.2-1.3
		c2,0,2.5-1.3,2.5-3c0-4.1,0-8.2,0-12.3c0-1.2-0.5-2-1.5-2.7c-1.3-0.9-1.1-1.9,0.4-2.5c2.4-0.8,4.7-1.7,7-2.8c1.7-0.8,2-0.6,1.9,1.3
		c0,0.6-0.4,1.4,0.2,1.7c0.7,0.4,1.2-0.5,1.7-0.8c1.3-0.9,2.6-1.8,4.3-1.8c1.5,0,2.7,0.6,3.2,2c0.6,1.6,0.5,3.3-0.9,4.5
		c-1.1,1.1-2.5,1.3-4,0.7c-0.4-0.2-0.7-0.4-1-0.7c-0.7-0.6-1.5-1.6-2.5-1.1c-1.1,0.5-0.9,1.8-0.9,2.7c-0.1,3.8,0,7.6,0,11.5
		c0,1.9,0.5,3.4,2.9,3.2c0.8,0,1.7,0.1,1.6,1.3c-0.1,1.3-1,1-1.8,1C742.1,116.1,740,116.1,737.9,116.1z"/>
	<path id="XMLID_59_" class="st4" d="M58.4,88.1c0.4,0.5,0.9,1,1.2,1.6c0.1,0.2,0.9,1-0.6,1.3c-1.3,0.3-1.2,2.6-1.8,3.9
		c-0.4,0.7,0,1.5,0.8,1.9c-4,4.1-8,8.2-12,12.2c-3.8,3.9-7.7,7.7-11.5,11.6c-0.5,0.5-1.1,0.8-1,1.7c-0.5-0.5-1-0.9-1.4-1.5
		c-1-1.1-3-2-2.8-3.3c0.1-1.2,1.9-2.2,2.9-3.3c8.3-8.4,16.7-16.7,25-25.1C57.5,88.8,57.9,88.5,58.4,88.1z"/>
	<path id="XMLID_58_" class="st0" d="M404.3,101.1c0,3.1,0,6.1,0,9.2c0,1.8,0.2,3.5,2.7,3.4c0.9,0,1.1,0.7,1,1.4
		c-0.1,0.9-0.6,0.9-1.3,0.9c-4.2,0-8.5,0-12.7,0c-0.7,0-1.2,0-1.3-0.9c0-0.8,0.1-1.4,1-1.4c2.2,0,2.6-1.3,2.6-3.1c0-4,0-8.1,0-12.1
		c0-1.2-0.5-2-1.5-2.8c-1.4-1-1.2-2,0.4-2.5c2.5-0.8,4.9-1.7,7.2-2.8c1.3-0.6,1.9-0.3,1.9,1.2c-0.1,3.1,0,6.3,0,9.4
		C404.4,101.1,404.4,101.1,404.3,101.1z"/>
	<path id="XMLID_57_" class="st0" d="M3.8,92.7c-0.1-0.6,0.3-1,0.7-1.4c3.8-3.8,7.6-7.6,11.4-11.4c0.4-0.4,0.7-0.8,1.4-0.7
		c2,2,4,4.1,6.1,6.1c0.8,0.8,1.1,1.2,0.1,2.2c-3.8,3.7-7.5,7.5-11.2,11.3c-0.9,1-1.5,1-2.4,0C7.9,96.7,5.9,94.7,3.8,92.7z"/>
	<path id="XMLID_56_" class="st0" d="M349.4,154.8c1.5-1,2.6-1.9,3.8-2.6c1.1-0.7,2.2-1,3.5-0.8c1,0.2,1.8,0.6,2.1,1.7
		c0.3,1.1,0,2.1-0.7,2.8c-0.8,0.7-1.7,1.1-2.8,0.5c-0.5-0.3-0.9-0.6-1.4-0.8c-2-0.9-3.8,0-4.1,2.2c-0.6,4.8-0.4,9.7-0.1,14.5
		c0.1,1.9,1.6,1.9,3,2.1c0.7,0.1,1.7-0.3,1.6,0.9c-0.1,1.2-1.1,0.7-1.7,0.7c-3.3,0-6.6,0-9.8,0c-0.6,0-1.3,0.2-1.4-0.7
		c-0.1-0.9,0.6-0.9,1.2-1c1.8-0.1,2.4-1.2,2.4-2.9c0-4.5,0-9,0-13.5c0-1.2-0.4-2.1-1.4-2.8c-1.5-1-1.1-1.6,0.3-2.1
		c1.4-0.6,2.9-1.3,4.2-2.1c1.2-0.7,1.4-0.2,1.4,0.9C349.3,152.7,349.4,153.5,349.4,154.8z"/>
	<path id="XMLID_55_" class="st0" d="M301.7,164.2c0-2.5,0-4.9,0-7.4c0-1.4-0.4-2.2-2-2.1c-0.5,0.1-1.2,0.2-1.3-0.6
		c-0.1-0.7,0.4-0.9,1-1.1c2.2-0.7,3.8-2.1,4.9-4.1c0.3-0.5,0.5-1.2,1.3-1c0.9,0.2,0.6,1,0.6,1.5c0.1,2.7,0.1,2.7,2.9,2.7
		c1.4,0,2.7,0,4.1,0c1.1-0.1,1.3,0.5,1.3,1.4c0,0.8-0.4,1.2-1.2,1.2c-1.8,0-3.7,0-5.5,0c-1.1,0-1.5,0.4-1.5,1.6
		c0.1,4.2-0.1,8.3,0.1,12.5c0.1,4.6,2.6,6.1,6.7,4.4c0.4-0.2,0.9-0.5,1.2,0.1c0.3,0.5,0,0.9-0.3,1.2c-2.1,2.4-7.5,3.1-10.1,1.3
		c-1.5-1.1-2.1-2.7-2.1-4.4C301.6,168.9,301.7,166.5,301.7,164.2z"/>
	<path id="XMLID_54_" class="st0" d="M369.4,161.5c0,3.3,0,6.6,0,9.8c0,1.8,0.7,2.9,2.5,3c0.7,0,1.3,0.1,1.2,1
		c-0.1,1-0.9,0.6-1.4,0.6c-3.1,0-6.1,0-9.2,0c-0.6,0-1.3,0.2-1.5-0.6c-0.1-1,0.7-1,1.4-1.1c1.4-0.1,2.3-0.8,2.3-2.3
		c0-4.9,0.1-9.8,0.1-14.7c0-1-0.7-1.7-1.5-2.3c-1-0.6-1.2-1.3,0.1-1.9c1.7-0.8,3.3-1.6,5-2.4c1.1-0.5,1.3-0.2,1.2,0.9
		c-0.1,3.3,0,6.6,0,9.8C369.4,161.5,369.4,161.5,369.4,161.5z"/>
	<path id="XMLID_53_" class="st5" d="M168,79.9c-3,2.9-6,5.8-9,8.7c-1.5-1.2-1.5-1.3,0.1-2.2c0.9-0.5,1-2.1,0-3.6
		c0.3,0.7,1,1.5,0.2,2.3c-0.6,0.6-1.3,1-2.1,0.2c-0.3-0.3-0.6-0.1-0.9,0.2c-0.9,1.1-2,1.8-1.9,3.6c0.1,1.2-0.2,2.3,0.9,3.2
		c-0.4,0.4-0.8,0.8-1.3,1.2c-2-1-4.5-0.2-6.2-2.1c5-5.1,10-10.1,15-15.2c0.6-0.6,1-0.6,1.6,0C165.6,77.5,166.8,78.7,168,79.9z"/>
	<path id="XMLID_52_" class="st3" d="M147.8,91.5c2,0.8,4.5,0.4,6.2,2.1c-4.5,4.8-9.2,9.4-14,14c-1-0.3-1.6-1.1-2.1-1.8
		c-0.3-0.5-0.5-1.3-0.2-1.5c0.8-0.3,0.8-0.8,1-1.5c0.3-1.1,1.2-1.2,2.2-0.2c0.2-0.4-0.2-1,0.1-1.1c1.6-0.8,2-2.3,2.7-3.8
		c0.5-1-0.1-2.1,0.7-2.8C145.5,93.5,146.6,92.4,147.8,91.5z"/>
	<path id="XMLID_51_" class="st4" d="M98.6,27c-0.5-0.4-0.4-1.7-1.7-1.1c-0.4,0.2-0.7-0.3-0.9-0.7c-0.5-1.2-1.5-1.6-2.8-1.5
		c2.9-2.9,5.7-5.8,8.6-8.7c0.6-0.6,1-0.5,1.5,0.1c0.1,0.1,0.2,0.2,0.3,0.3c3.5,3.3,3.5,3.3,0.1,6.7C102,23.7,100.3,25.4,98.6,27z"/>
	<path id="XMLID_50_" class="st4" d="M144.5,94.7c0.6,0.7-0.7,2,0.9,2.4c-1.2,0.4-2.5,0.5-1.4,2.1c0.3,0.4,0.2,1.3-0.5,1.3
		c-1.8,0.1-2.4,1.1-2.3,2.8c-0.8-0.3-0.4-1.5-1.3-1.4c-0.9,0.1-0.6,1.2-0.9,1.5c-0.9,0.9-1.5,1.5-0.2,2.5c0.2,0.2,0.4,0.4,0.6,0.6
		c0.2,0.3,0.4,0.5,0.6,0.8c-1.1,1.3-2.3,2.6-3.7,3.7c-0.7-0.4-1.3-0.8-1.2-1.7c0-0.4,0.5-1-0.4-0.8c-0.5,0.1-1.2-0.4-1.2,0.6
		c0,0.1-0.2,0.2-0.3,0.3c-0.4,0.7-1.2,0.7-1.6,0.1c-0.4-0.6-1-0.1-1.4-0.5C134.8,104.2,139.6,99.4,144.5,94.7z"/>
	<path id="XMLID_49_" class="st0" d="M400.5,75.5c2.8,0,4.6,1.8,4.5,4.6c0,2.6-2,4.6-4.7,4.6c-2.7,0-4.7-1.9-4.7-4.6
		C395.7,77.5,397.7,75.5,400.5,75.5z"/>
	<path id="XMLID_48_" class="st0" d="M637.2,75.5c2.8,0,4.6,1.8,4.5,4.6c0,2.7-2,4.6-4.7,4.6c-2.7,0-4.6-1.8-4.6-4.5
		C632.4,77.4,634.4,75.5,637.2,75.5z"/>
	<path id="XMLID_47_" class="st6" d="M369.8,139.2c0,1.9-1.2,3.1-3,3.1c-2,0-3.2-1.1-3.2-3.1c0-1.9,1.3-3.1,3.3-3.1
		C368.6,136.1,369.8,137.3,369.8,139.2z"/>
	<path id="XMLID_46_" class="st3" d="M155.3,92.3c-1.9-0.8-1.9-0.8-1.2-2.7c0.3-0.9-1-0.6-1-1.5c1.8-0.3,1.7-2.5,3.1-3.3
		c0.5-0.3,0.9-0.8,1.3,0c0.5,1.1,1.2,0.3,1.5,0.1c0.6-0.3,0.5-1,0-1.4c-0.4-0.3-0.7-0.6-0.6-1.2c0.1-0.6,0.5-0.1,0.8-0.1
		c0.9-0.2,0.6,0.7,0.9,0.9c1,0.8-0.7,2.2,0.6,2.9c0,0-0.5,0.6-1.1,0.7c-1.1,0.2-1,0.3-0.6,1.1c0.1,0.2-0.1,0.5-0.1,0.8
		C157.8,90,156.6,91.2,155.3,92.3z"/>
	<g id="XMLID_42_">
		<path id="XMLID_43_" class="st0" d="M242.5,135.2c-13.4-0.4-22.5,9.8-22.1,21.1c-0.1,11.6,8.7,20.2,20.2,20.6
			c11.4,0.4,21.9-7.6,22.1-20.9C262.8,144.1,254.2,135.5,242.5,135.2z M255,166.1c-2,4.8-5.4,7.9-10.6,8.6
			c-5.4,0.7-10.1-0.9-13.3-5.4c-5.1-7.2-6-15.1-3-23.3c1.9-5.3,6.1-8.3,11.8-8.7c6-0.4,10.6,2.1,13.6,7.4c2.3,4,3,8.4,3.1,13
			C256.4,160.6,256.1,163.4,255,166.1z"/>
	</g>
	<g id="XMLID_38_">
		<path id="XMLID_39_" class="st0" d="M289.5,91c-3.5-0.1-6.6,0.8-9.3,3c-4.5,3.7-5.6,8.6-4.1,14c1.3,5.1,5.1,7.7,10.2,8.5
			c7.5,1.1,13.7-1.9,15.8-7.6C305.5,99.4,299.6,91,289.5,91z M293.1,111.2c-1.4,3.1-4.6,3.5-6.6,0.7c-2.5-3.4-2.9-12.5-0.7-16.1
			c1.7-2.7,4.7-2.7,6.4,0.1c1.2,1.8,1.8,4.9,1.8,8.9C294,107,294,109.2,293.1,111.2z"/>
	</g>
	<g id="XMLID_34_">
		<path id="XMLID_35_" class="st0" d="M424.4,91c-3.6,0-6.6,0.9-9,2.7c-4.4,3.3-6.2,9.4-4.4,14.9c1.6,5,6.2,8,12.5,8.2
			c6.7,0.2,11.9-3.1,13.6-8.6C440,98.9,434.2,91,424.4,91z M428.4,109.9c-0.5,1.8-1.2,3.6-3.4,3.8c-2.3,0.3-3.5-1.2-4.4-3
			c-1.3-2.7-1.5-5.7-1.4-8.6c0-1.8,0.2-3.5,0.9-5.2c0.7-1.7,1.7-3,3.7-3.1c2-0.1,2.9,1.2,3.7,2.8c1.2,2.6,1.6,5.5,1.5,8.7
			C429,106.7,428.8,108.3,428.4,109.9z"/>
	</g>
	<g id="XMLID_30_">
		<path id="XMLID_31_" class="st0" d="M499.8,112.1c-1,0-2,1-3.1,0.4c-0.3-0.2-0.7-0.4-1-0.7c-0.7-0.9-0.9-2-0.9-3.1
			c0.1-3.5,0.4-7,0.4-10.4c0-4.1-2.1-6.7-5.6-7.2c-4.8-0.6-9,0.8-12.7,3.9c-1.1,0.9-2,2.1-2.4,3.5c-0.3,1-0.2,2,1,2.3
			c1.9,0.6,5.4-1.5,5.8-3.4c0.4-1.7,1-3.2,3-3.3c1.6-0.1,2.8,1.2,3.2,3.4c0.1,0.7,0.2,1.5,0.2,2.2c0.1,1.6-0.6,2.4-2.2,2.8
			c-2.7,0.7-5.4,1.3-7.9,2.7c-2.6,1.4-3.5,3.3-3.2,6.3c0.3,2.4,2.2,4.4,4.8,5c2.6,0.6,4.9-0.1,6.9-1.6c0.8-0.6,1.5-0.9,2.5-0.1
			c3.2,2.8,6.6,2.3,10,0.3c0.3-0.2,0.7-1.1,1.3-0.3c0.8-0.1,1.7-0.1,2-1.1C500.3,114.2,500.8,112.1,499.8,112.1z M487.5,108
			c-0.1,0.8-0.1,1.9-0.3,3c-0.3,1.5-1.4,2.1-2.9,1.5c-2.3-0.9-2.9-4.2-1-6c0.3-0.2,0.5-0.4,0.8-0.6c1-0.5,2.1-1.2,3.1-0.7
			C488,105.6,487.3,106.8,487.5,108z"/>
	</g>
	<g id="XMLID_26_">
		<path id="XMLID_27_" class="st0" d="M347.6,108.5c-0.9-0.6-1.2,0.2-1.6,0.7c-0.7,0.9-1.7,1.6-2.8,1.9c-5.2,1.6-10.8-3-10.4-8.4
			c0.1-1.1,0.6-1.2,1.5-1.2c1.9,0,3.8,0,5.7,0c0,0,0,0,0,0c1.9,0,3.8,0,5.7,0c1.7,0,2.3-0.9,2.2-2.4c-0.1-3.6-2.3-6.7-5.9-7.7
			c-5.1-1.4-9.8-0.5-13.4,3.7c-3.8,4.4-4.6,9.6-2.2,14.9c2.2,4.9,6.5,6.8,11.7,6.7c4.4-0.1,7.6-2.3,9.8-6
			C348.3,109.9,348.4,109.1,347.6,108.5z M335,94.9c1.9-1.5,4.5-1.3,5.4,0.3c1.1,1.9,0.3,3.5-2,3.6c-0.7,0-1.4,0-2,0
			c-0.1,0-0.1,0-0.2,0c-1-0.2-2.5,0.6-2.9-0.7C332.9,96.8,334,95.7,335,94.9z"/>
	</g>
	<g id="XMLID_12_">
		<path id="XMLID_22_" class="st0" d="M611.2,109.8c7.5,0.5,12.7-3.2,13.1-9.7c0.1-2.5,0.8-3.3,3.1-2.9c1.9,0.3,2-1.1,2.1-2.5
			c0.1-1.5-0.8-1.6-2-1.6c-3.1,0.2-6-0.3-9-1.3c-4-1.4-8.1-1.4-12,0.5c-5.9,2.9-7.2,10.8-2.3,14.9c2.4,2,2.4,2-0.3,4
			c-0.2,0.1-0.3,0.2-0.5,0.4c-2.1,1.5-2.3,3-0.8,5.1c0.7,1.1,1.8,1.6,3.3,2.3c-1.3,0.9-2.4,1.6-3.5,2.2c-1.7,1.1-2.3,2.6-1.7,4.6
			c0.8,3.1,3,4.6,5.8,5.5c4.2,1.2,8.4,1,12.5-0.2c4.4-1.3,7.7-3.8,9-8.4c1.4-5-1-8.7-6.1-9.5c-1.6-0.3-3.3-0.3-4.9-0.3
			c-2,0-4,0.1-5.9,0.1c-1.3,0-2.4-0.6-2.4-2C608.8,109.3,610.1,109.7,611.2,109.8z M610.3,95.5c1.2-2.1,3.9-2.3,5.1-0.2
			c1.8,3.2,1.9,6.7,0.4,10c-0.9,2.1-3.4,2.2-4.8,0.3c-1.3-1.7-1.6-3.7-1.6-5.8C609.3,98.3,609.5,96.8,610.3,95.5z M610.9,119.4
			c2.1-0.1,4.2-0.1,6.4,0c2.7,0.1,4.4,1.8,4.6,4.1c0.2,2.5-1.2,4.4-3.9,5c-0.8,0.2-1.6,0.2-1.9,0.3c-4.9,0-7.8-2.5-8-6.2
			C607.9,120.5,608.7,119.5,610.9,119.4z"/>
		<path id="XMLID_21_" class="st0" d="M597.4,113.6c-1.5-0.1-2-1-2-2.3c0-2.2,0-4.5,0-6.7c0,0-0.1,0-0.1,0c0-1.3,0-2.6,0-3.9
			c0-1.4,0-2.7-0.2-4.1c-0.7-3.4-3.1-5.5-6.6-5.7c-2.6-0.2-5,0.7-7.2,2c-1.1,0.7-2.1,1.3-1.8-1c0.2-1.9-0.3-2.2-2.1-1.4
			c-2.3,1.1-4.7,1.9-7,2.7c-1.5,0.5-1.8,1.5-0.4,2.5c1.1,0.8,1.5,1.8,1.5,2.9c0,4.2,0.2,8.5-0.1,12.7c-0.1,1.5-0.7,2.3-2.2,2.3
			c-1,0-1.4,0.5-1.3,1.4c0,1,0.7,1,1.4,1c4,0,7.9,0,11.9,0c0.6,0,1.3,0.1,1.3-0.9c0-0.7,0-1.4-1-1.5c-1.8-0.1-2-1.4-2-2.7
			c0-3.9,0-7.8,0-11.7c0-2.6,1.2-3.8,3.7-3.9c2.4-0.1,4.1,1.3,4.1,3.6c0.1,4.2,0,8.5,0,12.7c0,1.1-0.4,1.9-1.6,1.9
			c-0.9,0-1.4,0.5-1.3,1.4c0.1,1.1,0.9,1,1.6,1c3.8,0,7.5,0,11.3,0c0.8,0,1.7,0.3,1.8-1C599,113.9,598.3,113.7,597.4,113.6z"/>
		<path id="XMLID_20_" class="st0" d="M676.8,113.7c-2.6,0-2.7-1.7-2.7-3.6c0-3.8,0.1-7.7,0-11.5c-0.1-4-2.1-6.9-5.4-7.5
			c-2.3-0.4-4.6-0.2-6.8,0.9c-1.1,0.6-2.2,1.4-3.8,1.7c0.1-0.8,0.1-1.3,0.2-1.8c0.1-1.7-0.4-2.1-2-1.3c-2.3,1.1-4.8,2-7.2,2.8
			c-1.4,0.5-1.6,1.4-0.4,2.4c0.8,0.7,1.6,1.3,1.6,2.5c0,4.3,0,8.6,0,12.9c0,1.5-0.5,2.7-2.4,2.6c-0.8,0-1.2,0.4-1.2,1.3
			c0,0.9,0.5,1.1,1.3,1.1c4,0,8.1,0,12.1,0c0.7,0,1.2-0.1,1.3-0.9c0-0.6,0-1.4-0.8-1.4c-2.2-0.1-2.2-1.7-2.2-3.2
			c-0.1-3.6,0-7.2,0-10.9c0-2.9,1.1-4.2,3.7-4.3c2.5-0.1,4.1,1.3,4.1,4c0.1,4,0,7.9,0,11.9c0,1.3-0.3,2.3-1.9,2.4
			c-0.9,0-1.1,0.6-1.1,1.4c0,0.9,0.6,0.9,1.2,0.9c4.1,0,8.2,0,12.3,0c0.8,0,1.1-0.3,1.2-1C677.8,114.3,677.6,113.7,676.8,113.7z"/>
		<path id="XMLID_17_" class="st0" d="M727.8,108.6c-0.9-0.7-1.3,0.1-1.8,0.7c-1.2,1.5-2.8,2.1-4.7,2.2c-4.7,0.1-8.5-3.6-8.6-8.3
			c0-1,0.3-1.5,1.4-1.5c1.9,0.1,3.8,0,5.7,0c2,0,4,0,5.9,0c1.4,0,2.1-0.7,2.1-2.2c0-3.3-1.9-6.3-4.9-7.7c-4.4-2-10.1-0.9-13.7,2.5
			c-4,3.8-5.3,10.1-3.1,15.1c1.9,4.5,6.2,7.3,11.4,7.2c4.5-0.1,8-2,10.3-6C728.4,110,728.7,109.3,727.8,108.6z M714.6,95.4
			c1.8-1.9,4.7-2.1,5.9-0.4c0.6,0.9,0.8,2,0.3,2.9c-0.4,0.8-1.3,0.9-2.2,0.9c-0.6,0-1.2,0-1.8,0c-0.3,0-0.6,0-0.8,0
			c-0.9-0.1-2.1,0.5-2.5-0.7C713.2,97.1,713.9,96.2,714.6,95.4z"/>
		<path id="XMLID_14_" class="st0" d="M702.7,108.6c-0.9-0.7-1.3,0.1-1.8,0.7c-0.9,1.1-2,1.8-3.4,2c-5,1-10-3.3-9.8-8.4
			c0-1,0.4-1.3,1.4-1.3c2,0,4,0,5.9,0c1.9,0,3.8,0,5.7,0c1.6,0,2.2-0.8,2.2-2.3c0-3.8-2.7-7.2-6.7-8.2c-7.3-1.8-14.6,3.1-15.8,10.5
			c-1.3,8.2,3.2,14.3,11.3,15c4.4,0.4,9-2.1,11.1-5.9C703.2,110,703.6,109.3,702.7,108.6z M689.7,95.1c1.9-1.8,4.8-1.7,5.8,0.3
			c1,2,0.2,3.3-2,3.4c-0.7,0-1.4,0-2,0c-0.1,0-0.3,0-0.4,0c-1-0.1-2.4,0.4-2.8-0.6C687.8,97,688.8,95.9,689.7,95.1z"/>
		<path id="XMLID_13_" class="st0" d="M643.4,113.7c-1.7,0-2.3-1-2.3-2.5c0-3.4,0-6.8,0-10.2c0,0,0,0,0.1,0c0-3.1,0-6.3,0-9.4
			c0-1.4-0.6-1.8-1.8-1.2c-2.4,1.2-4.9,2.1-7.4,2.9c-1.5,0.5-1.7,1.6-0.5,2.5c1,0.7,1.5,1.5,1.5,2.7c0,4.1,0,8.2,0,12.3
			c0,1.6-0.4,3-2.5,3c-0.8,0-1.2,0.5-1.2,1.3c0,1,0.6,1,1.4,1c4.2,0,8.3,0,12.5,0c0.7,0,1.4,0.1,1.4-0.9
			C644.8,114.1,644.4,113.7,643.4,113.7z"/>
	</g>
	<g id="XMLID_8_">
		<path id="XMLID_9_" class="st0" d="M389.5,151.3c-7.3-0.2-13,5.3-13.2,12.7c-0.2,7.2,4.8,12.6,11.8,12.8
			c7.8,0.2,13.1-4.8,13.3-12.6C401.6,156.9,396.6,151.5,389.5,151.3z M396.1,164.9c0.1,2.2-0.3,4.3-1.3,6.3c-2,4.2-7,4.9-10.2,1.5
			c-3.6-3.9-4-12.8-0.8-17.1c2.6-3.4,7.6-3.1,10,0.7C395.6,158.9,396.2,161.8,396.1,164.9z"/>
	</g>
	<g id="XMLID_4_">
		<path id="XMLID_5_" class="st0" d="M339.4,173.5c-0.2-0.5-0.5-0.2-0.8-0.1c-3,0.9-4.3,0-4.4-3.2c-0.1-2.2,0-4.4,0-6.5
			c0.1,0,0.3,0,0.4,0c0-2.1,0-4.2,0-6.3c-0.1-3.8-2.2-6.1-6-6c-4.3,0-7.9,2.1-10.7,5.3c-0.4,0.5-0.6,1.2-0.8,1.8
			c-0.2,0.5,0,0.9,0.6,1.2c1.3,0.6,4-0.9,4.3-2.4c0.5-2.5,1.6-3.4,4-3.4c2.2,0.1,3.7,1.3,4.1,3.6c0.2,1.2,0,2.5,0.1,3.7
			c0.1,1.5-0.6,2.2-1.9,2.7c-2.8,0.9-5.5,1.9-8.2,3.1c-2.5,1.1-3.2,2.6-3,5c0.2,2.2,1.8,4,4,4.7c2.7,0.8,5-0.3,7.1-1.6
			c1.1-0.7,1.8-0.9,2.9,0.4c2,2.4,6.6,1.9,8.4-0.6C339.5,174.3,339.6,173.9,339.4,173.5z M329.7,167.3c-0.1,0.4,0,0.8,0,1.2
			c-0.3,3.7-0.9,4.7-3.8,5.3c-1.6,0.3-3.4-0.6-4-2.1c-0.7-1.6-0.2-3.4,1.5-4.2c1.4-0.7,2.9-1.2,4.3-1.8
			C329.3,165.1,330,165.6,329.7,167.3z"/>
	</g>
	<path id="XMLID_3_" class="st4" d="M145,99c0.2,0.5,0,0.8-0.3,1.2C144.5,99.7,144.4,99.3,145,99z"/>
</g>
</svg>
