<?xml version="1.0" encoding="utf-8"?>
<!-- Generator: Adobe Illustrator 19.0.0, SVG Export Plug-In . SVG Version: 6.00 Build 0)  -->
<svg version="1.1" id="Layer_1" xmlns="http://www.w3.org/2000/svg" xmlns:xlink="http://www.w3.org/1999/xlink" x="0px" y="0px"
	 viewBox="0 0 200 73.1" style="enable-background:new 0 0 200 73.1;" xml:space="preserve">
<style type="text/css">
	.st0{fill-rule:evenodd;clip-rule:evenodd;fill:#007AC2;}
	.st1{fill-rule:evenodd;clip-rule:evenodd;fill:#FFFFFF;}
	.st2{fill-rule:evenodd;clip-rule:evenodd;fill:#2879BE;}
</style>
<g id="XMLID_2_">
	<g id="XMLID_40_">
		<path id="XMLID_85_" d="M7.1,56.6c-0.5-0.3-1.2-0.4-2.1-0.4c-0.5,0-0.9,0-1.3,0.1l-1.4,0.1c-0.4,0-0.6,0-0.7,0c-0.1,0-0.2,0-0.4,0
			c-0.4,0-0.7,0-0.9,0c0,0-0.1,0-0.2,0l-0.1,0l0,0C0,56.4,0,56.5,0,56.6c0,0.1,0,0.1,0,0.2l0,0.1l0.1,0c1,0.2,1.3,0.3,1.4,0.5
			c0.1,0.1,0.1,0.2,0.1,0.8v0.2c0,1.1,0,2.2,0,3.4c0.1,2.3,0.1,3.9,0.1,4.6c0,0.2,0,0.4,0,0.5l0,0.2c0,0.1,0,0.1,0,0.1
			c0,0.3,0,0.4-0.1,0.4c0,0,0,0.1-0.2,0.1l-1.1,0.2l0,0.4l0.1,0c0.3,0,0.4,0,0.5,0l0.9,0l1.4-0.1c0.3,0,0.6,0,1.1,0.1
			c0.3,0,0.4,0,0.5,0c0.1,0,0.2,0,0.3-0.1c0.1,0,0.1-0.1,0.1-0.2l0,0l0,0C5.1,68,5,67.9,5,67.9c0,0-0.1,0-0.5-0.1
			c-0.6-0.2-0.9-0.2-1.1-0.3c0-0.1,0-0.3,0-0.6c0-0.1,0-0.3,0-0.4c0-0.2,0-0.3,0-0.4l-0.1-4.2l0-0.5c0-0.3,0-1.1,0-2.3
			c0-0.4,0-0.6,0-0.8l0-0.2l0-1l0-0.1c0.1,0,0.3-0.1,1.1-0.1c0.2,0,0.5,0.1,0.9,0.2c0.4,0.1,0.6,0.2,0.8,0.4c0.3,0.3,0.6,0.6,0.8,1
			c0.2,0.4,0.3,0.9,0.3,1.3c0,0.5-0.1,0.9-0.3,1.4c-0.2,0.4-0.5,0.7-0.8,1c-0.4,0.2-0.7,0.3-1.1,0.3c-0.3,0-0.5,0-0.6-0.1
			c-0.1,0-0.2-0.1-0.3-0.1l0,0c-0.1,0-0.1,0.1-0.1,0.1l0,0l0,0c0,0.1,0.1,0.2,0.2,0.3c0.3,0.2,0.5,0.3,0.7,0.4
			c0.2,0.1,0.4,0.1,0.7,0.1c1,0,1.9-0.4,2.5-1.1c0.6-0.7,0.9-1.6,0.9-2.6c0-0.6-0.1-1.2-0.4-1.8C8.1,57.3,7.7,56.8,7.1,56.6z"/>
		<path id="XMLID_84_" d="M13.8,60.5c-0.2,0-0.5,0.1-0.9,0.4c-0.1,0.1-0.2,0.1-0.2,0.2l-0.2,0.2c-0.2,0.3-0.4,0.5-0.6,0.8
			c0-1,0-1.7,0-2l0-0.1l-0.4,0l0,0.1c-0.2,0.4-0.4,0.8-0.7,1.1c-0.2,0.2-0.6,0.4-1.1,0.7l-0.1,0l0,0.4l0.1,0
			c0.1,0.1,0.3,0.1,0.5,0.1c0.4,0.1,0.5,0.1,0.5,0.2c0,0,0.1,0.1,0.1,0.5c0,0.3,0,1.5,0,3.6c0,0.5,0,0.6,0,0.7c0,0,0,0-0.1,0.1
			l-0.7,0.1l-0.5,0.1l0,0c-0.1,0.1-0.1,0.2-0.1,0.2l0.1,0.2l1.4,0l0.4,0H12l0.5,0l1.3,0l0,0c0.1-0.1,0.1-0.1,0.1-0.2
			c0-0.1,0-0.2-0.1-0.2c-0.1-0.1-0.3-0.1-0.5-0.1c0,0-0.1,0-0.2,0c-0.1,0-0.4-0.1-1-0.1C12,67.4,12,67.4,12,67.4c0,0,0-0.1-0.1-0.4
			l0-1.8l0-1.5c0-0.2,0.1-0.5,0.2-0.8c0.3-0.5,0.4-0.7,0.5-0.8c0,0,0.1-0.1,0.2-0.1c0,0,0.1,0,0.5,0.1c0.4,0.1,0.5,0.2,0.5,0.2
			c0.2,0,0.4-0.1,0.6-0.3c0.1-0.1,0.2-0.3,0.2-0.6c0-0.3-0.1-0.5-0.2-0.7C14.2,60.6,14,60.5,13.8,60.5z"/>
		<path id="XMLID_81_" d="M18.9,60.5c-0.7,0-1.3,0.1-1.8,0.4c-0.4,0.2-0.7,0.5-1,0.9c-0.3,0.4-0.6,0.8-0.7,1.3
			c-0.2,0.5-0.2,0.9-0.2,1.4c0,0.8,0.2,1.5,0.5,2.1c0.3,0.6,0.7,1.1,1.2,1.4c0.6,0.4,1.3,0.6,1.9,0.6c1.1,0,2-0.4,2.8-1.2
			c0.7-0.8,1.1-1.7,1.1-2.7c0-1.1-0.3-2.1-1-2.9C20.8,60.9,19.9,60.5,18.9,60.5z M19.9,67.6c-0.4,0.2-0.7,0.4-1.1,0.4
			c-0.6,0-1.1-0.3-1.6-0.8c-0.4-0.6-0.6-1.4-0.6-2.5c0-1,0.1-1.7,0.4-2.3c0.2-0.5,0.5-0.9,0.9-1c0.4-0.2,0.7-0.3,1-0.3
			c0.5,0,0.9,0.2,1.2,0.4c0.3,0.3,0.6,0.8,0.8,1.4c0.2,0.6,0.3,1.2,0.3,1.6c0,0.7-0.1,1.3-0.3,1.9C20.5,66.9,20.2,67.3,19.9,67.6z"
			/>
		<path id="XMLID_80_" d="M25.6,60.2L25.6,60.2L25.6,60.2c-0.1-0.1-0.2-0.1-0.2-0.1c0,0,0,0,0,0l-0.1,0l0,0
			c-0.1,0.1-0.2,0.2-0.2,0.3c-0.3,0.5-0.8,0.8-1.5,1l-0.1,0l0,0.4l0,0.1l0.1,0c0.1,0,0.1,0,0.2,0c0.4,0,0.6,0.1,0.6,0.2
			c0,0,0.1,0.1,0.1,0.5c0,0.5,0,1.6,0,3.5l0,1.4c0,0.3,0,0.5,0,0.6c0,0.5,0,1.2-0.1,1.9c0,0.4-0.1,0.8-0.2,1
			c-0.1,0.3-0.2,0.5-0.3,0.8l-0.6,0.9l0,0.1c0,0.1,0.1,0.2,0.2,0.2l0.1,0.1l0.2-0.1l0.3-0.3c0.4-0.4,0.7-0.8,0.9-1.2
			c0.3-0.5,0.5-1.1,0.6-1.6c0.1-0.5,0.2-1.4,0.2-2.6c0-0.2,0-1.6-0.1-3.8L25.6,60.2z"/>
		<path id="XMLID_79_" d="M24.7,58c0.2,0,0.4-0.1,0.6-0.2c0.2-0.2,0.2-0.5,0.2-0.7c0-0.3-0.1-0.5-0.2-0.7c-0.2-0.2-0.4-0.3-0.6-0.3
			c-0.2,0-0.4,0.1-0.6,0.3c-0.2,0.2-0.2,0.4-0.2,0.7c0,0.3,0.1,0.5,0.2,0.7C24.3,57.9,24.5,58,24.7,58z"/>
		<path id="XMLID_76_" d="M32.6,66.8c-0.3,0.2-0.6,0.4-0.7,0.5c-0.2,0.1-0.4,0.1-0.7,0.1c-0.6,0-1-0.2-1.4-0.4
			c-0.4-0.3-0.6-0.7-0.8-1.2c-0.2-0.5-0.3-1-0.3-1.3l0-0.5l0-0.2c0,0,0-0.1,0.1-0.3c0.2,0,0.5,0,0.7,0l0.6,0l3.3,0v-0.2
			c0-0.4-0.1-0.8-0.3-1.2c-0.2-0.5-0.6-0.8-1-1.1c-0.3-0.2-0.8-0.3-1.3-0.3c-0.5,0-0.9,0.1-1.3,0.3c-0.3,0.1-0.5,0.3-0.9,0.6
			c-0.2,0.2-0.4,0.5-0.6,0.8c-0.2,0.5-0.4,0.9-0.5,1.4c-0.1,0.4-0.1,0.8-0.1,1.1c0,0.9,0.2,1.6,0.5,2.2c0.3,0.6,0.8,1.1,1.3,1.3
			c0.4,0.2,0.8,0.3,1.2,0.3c0.4,0,0.7,0,0.9-0.1c0.4-0.1,0.8-0.3,1.2-0.6c0.4-0.3,0.7-0.6,0.9-0.9l0,0l0,0c0-0.1,0-0.1,0-0.2
			l-0.1-0.6L32.6,66.8z M28.8,62.9c0-0.3,0.2-0.6,0.4-1c0.4-0.5,0.8-0.8,1.4-0.8c0.3,0,0.5,0.1,0.7,0.2c0.2,0.1,0.4,0.3,0.5,0.5
			c0.1,0.2,0.2,0.4,0.2,0.6c0,0.1,0,0.1-0.1,0.2c0,0-0.1,0-0.3,0.1c-1.3,0.1-2.2,0.1-2.4,0.1H28.8z"/>
		<path id="XMLID_75_" d="M40,66.4c-0.4,0.4-0.8,0.7-1.1,0.8c-0.3,0.1-0.7,0.2-1.1,0.2c-0.6,0-1.1-0.3-1.5-0.8
			c-0.4-0.6-0.7-1.3-0.7-2.3c0-0.9,0.2-1.7,0.6-2.3c0.3-0.4,0.7-0.6,1.1-0.6c0.2,0,0.3,0,0.5,0.1c0.1,0.1,0.3,0.2,0.5,0.5
			c0.3,0.4,0.7,0.6,1,0.6c0.2,0,0.4-0.1,0.5-0.2c0.1-0.1,0.2-0.3,0.2-0.6c0-0.3-0.1-0.6-0.4-0.7c-0.4-0.3-1-0.5-1.8-0.5
			c-0.8,0-1.5,0.2-2,0.5c-0.5,0.3-1,0.8-1.3,1.4c-0.3,0.6-0.5,1.3-0.5,2c0,0.6,0.1,1.3,0.4,2c0.3,0.7,0.7,1.2,1.2,1.6
			c0.5,0.4,1.1,0.6,1.7,0.6c0.6,0,1.1-0.1,1.5-0.3c0.4-0.2,0.8-0.6,1.3-1.1l0,0l0-0.9L40,66.4z"/>
		<path id="XMLID_74_" d="M45.2,67.2h-0.1l0,0c-0.2,0.2-0.4,0.3-0.4,0.3c-0.5,0.1-0.7,0.1-0.8,0.1c-0.2,0-0.4-0.1-0.5-0.3
			c-0.1-0.2-0.2-0.6-0.2-1.2l0-2.4l0-1.4c0-0.2,0-0.3,0-0.4l1.9-0.1h0.2l0-0.1c0-0.2,0.1-0.3,0.1-0.4c0-0.1,0-0.2,0-0.3l0-0.1
			l-0.1,0c-0.2,0-0.4,0-0.5,0c-0.2,0-0.5,0-0.7,0c-0.4,0-0.6,0-0.8,0c0,0,0,0-0.1,0l0-1l0-1l-0.4,0l0,0.1c0,0.1-0.1,0.3-0.2,0.5
			c-0.1,0.4-0.2,0.6-0.3,0.7c-0.1,0.2-0.3,0.4-0.5,0.6c-0.2,0.2-0.3,0.3-0.5,0.4c-0.3,0.1-0.4,0.2-0.4,0.2c-0.1,0.1-0.1,0.1-0.1,0.2
			c0,0.1,0,0.1,0.1,0.2c0,0,0.1,0.1,0.2,0.1c0,0,0,0,0,0l0.7,0l0,0c0,0.1,0,0.3,0,0.4l0,1.4l0,2.1c0,0.9,0,1.4,0.1,1.7
			c0.1,0.3,0.2,0.5,0.5,0.7c0.2,0.2,0.6,0.3,0.9,0.3c0.5,0,0.9-0.1,1.2-0.2c0.3-0.1,0.6-0.4,0.8-0.7l0,0l0-0.1c0-0.1,0-0.1-0.1-0.2
			C45.4,67.2,45.3,67.2,45.2,67.2z"/>
		<path id="XMLID_73_" d="M63,67.8c-0.6-0.1-1.1-0.2-1.4-0.3c-0.2-0.1-0.3-0.2-0.3-0.2c0,0,0-0.2,0-0.8l0-1.2l0-1.8
			c0-2.1-0.1-3.7-0.1-4.6l0-0.4l0-0.4c0-0.6,0.1-0.8,0.1-0.8c0-0.1,0.1-0.1,0.2-0.2c0.1,0,0.3-0.1,0.9-0.1c0.3,0,0.5-0.1,0.7-0.2
			l0,0l0,0c0-0.1,0-0.1,0-0.2c0,0,0-0.1,0-0.2l0-0.1l-0.1,0c-0.3,0-0.6,0-1,0c-0.7,0-1.2,0-1.5,0c-0.3,0-0.4-0.1-0.7,0.1l0,0l0,0
			c-0.1,0.1-0.2,0.7-0.5,1.7c-0.1,0.2-0.2,0.5-0.3,0.9c-0.3,0.9-0.5,1.3-0.5,1.5c0,0.1-0.1,0.2-0.1,0.3c0,0.1-0.1,0.2-0.1,0.3
			c-0.4,1.2-0.9,2.7-1.6,4.3l-3.1-7.9l-0.3-0.9c0-0.1-0.1-0.1-0.1-0.2l0,0l0,0c-0.1,0-0.2-0.1-0.3-0.1c0,0-0.3,0-0.4,0
			c-0.3,0-0.6,0-0.8,0c-0.5,0-0.8,0-1.1-0.1c-0.2,0-0.3,0-0.3,0c-0.1,0-0.1,0-0.2,0.1l0,0l0,0c-0.1,0.1-0.1,0.2-0.1,0.2
			c0,0.1,0,0.2,0.1,0.3l0,0l0.1,0c0.8,0.1,1.4,0.2,1.8,0.3v0.2c0,0.4,0,1.4-0.1,3.1c-0.1,2.1-0.2,3.8-0.2,5.2c0,1.2-0.1,1.7-0.2,1.8
			c0,0,0,0.1-0.1,0.1c0,0-0.1,0.1-0.6,0.1c-0.5,0.1-0.8,0.2-1,0.3l0,0l0,0.4l0.1,0c0.4,0,0.7,0,0.9,0c0.4,0,0.7,0,0.8,0l2.6,0.1
			l0-0.1c0-0.1,0-0.1,0-0.2c0-0.1,0-0.1-0.1-0.2l0-0.1l-0.1,0c-0.2,0-0.4-0.1-0.6-0.1c-0.7,0-0.9-0.1-1-0.1
			c-0.1-0.1-0.2-0.2-0.2-0.4c-0.1-0.7-0.1-1.4-0.1-2c0-1.9,0-3.6,0.1-5.1c0-0.9,0.1-1.5,0.1-1.9c0.3,0.8,0.9,2.1,1.6,3.9
			c0.8,2.1,1.6,4.2,2.2,6.2l0,0.1l0.3,0l0-0.1c0-0.1,0.1-0.3,0.2-0.6c0.2-0.5,0.4-1.1,0.6-1.8l0.6-1.5l0.4-1.2l1.2-3.2l0.1-0.4
			c0.1-0.4,0.3-0.7,0.4-1c0,0.5,0,1.1,0,1.8c0,1.2,0,2.1,0,2.7c0,0.6,0,0.9,0,1.1l0,1.9c0,0.7,0,1.1-0.1,1.4
			c-0.1,0.1-0.4,0.2-0.7,0.3c-0.3,0-0.6,0.1-0.8,0.2l0,0l0,0c0,0.1,0,0.1,0,0.2v0.2l0.1,0c0.1,0,0.1,0.1,0.2,0.1c0.1,0,0.2,0,0.4,0
			c0.4,0,1.1,0,2.2,0c0,0,0.2,0,0.6,0c0.4,0,0.7,0,1,0h0.5l0-0.1c0-0.1,0-0.1,0-0.2C63.2,68,63.2,67.9,63,67.8L63,67.8z"/>
		<path id="XMLID_70_" d="M69.8,66.8L69.8,66.8c-0.2,0.1-0.3,0.1-0.3,0.1l-0.1,0.2c-0.1,0.2-0.3,0.3-0.4,0.3c-0.1,0-0.2,0-0.3-0.1
			c-0.1-0.1-0.1-0.2-0.1-0.4c0-0.1,0-0.2,0-0.3l0,0c0-0.1,0-0.2,0-0.4l0-1.1l0-1.5c0-1.1,0-1.4,0-1.5c0-0.3-0.2-0.6-0.3-0.8
			c-0.2-0.3-0.4-0.4-0.6-0.5c-0.2-0.1-0.6-0.2-1.1-0.2c-0.4,0-0.8,0.1-1.2,0.4c-0.5,0.3-0.9,0.7-1.2,1.3c-0.4,0.8-0.5,1-0.5,1.1
			c0,0.1,0,0.2,0.1,0.2c0.2,0.2,0.5,0.2,1-0.1l0,0c0.1-0.2,0.2-0.4,0.2-0.5c0.1-0.6,0.2-0.9,0.4-1.1c0.3-0.3,0.6-0.5,1-0.5
			c0.3,0,0.6,0.1,0.7,0.4c0.2,0.3,0.3,0.8,0.3,1.5c0,0.2,0,0.4,0,0.6c-0.1,0.1-0.5,0.2-1,0.5c-0.8,0.4-1.4,0.9-1.9,1.5
			c-0.5,0.6-0.7,1.1-0.7,1.6c0,0.3,0.1,0.6,0.3,0.8c0.2,0.2,0.4,0.3,0.7,0.3c0.4,0,0.7,0,1-0.1c0.2-0.1,0.4-0.2,0.8-0.4l0.8-0.6
			c0.1,0.3,0.1,0.6,0.2,0.7c0.2,0.3,0.5,0.5,1,0.5c0.2,0,0.4-0.1,0.6-0.2c0.2-0.1,0.4-0.4,0.6-0.7c0.1-0.3,0.2-0.4,0.2-0.5
			C69.9,67,69.9,67,69.8,66.8L69.8,66.8z M67.3,65c0,0.3,0,0.8-0.1,1.6c-0.3,0.4-0.6,0.6-0.9,0.8c-0.5,0.3-0.8,0.2-1,0
			c-0.1-0.1-0.2-0.3-0.2-0.5c0-0.2,0.1-0.5,0.2-0.7c0.2-0.4,0.5-0.7,0.9-1c0.3-0.3,0.7-0.5,1-0.6C67.3,64.7,67.3,64.8,67.3,65z"/>
		<path id="XMLID_69_" d="M77.3,67.5c-0.1-0.1-0.1-0.1-0.1-0.2c0-0.1,0-0.3,0-0.8c0-0.3,0-0.5,0-0.7l0-0.2c0-0.1,0-0.1,0-0.1V64
			c0-1.1,0-1.8-0.1-2.2c-0.1-0.4-0.3-0.7-0.7-1c-0.3-0.3-0.7-0.4-1.2-0.4c-0.2,0-0.4,0-0.6,0.1c-0.3,0.1-0.6,0.2-0.9,0.4
			c-0.3,0.2-0.7,0.4-1,0.7c0,0,0,0-0.1,0V61c0-0.1,0-0.3,0-0.6l0-0.1l-0.4,0l0,0.1c-0.2,0.5-0.5,0.8-0.7,1.1
			c-0.2,0.2-0.5,0.3-0.9,0.5l-0.1,0v0.5l0.1,0c0.4,0.1,0.6,0.2,0.7,0.3c0,0.1,0.1,0.2,0.1,0.7l0,2.8c0,0.2,0,0.3,0,0.5l0,0.3
			c0,0.3-0.1,0.4-0.1,0.4c0,0-0.1,0.1-0.5,0.2c-0.2,0-0.3,0.1-0.5,0.1l-0.1,0l0,0.1c0,0.1,0,0.2,0,0.2l0,0.2h0.3c0.1,0,0.4,0,0.8,0
			l1.7,0h0.9l0-0.3l0,0c0-0.1-0.1-0.2-0.3-0.2c-0.1,0-0.2,0-0.3-0.1c-0.2-0.1-0.3-0.1-0.5-0.1c-0.1,0-0.2-0.1-0.2-0.1c0,0,0,0,0-0.2
			c0-0.2,0-0.9,0-1.9l0-2c0-0.2,0-0.4,0-0.7c0.3-0.3,0.6-0.6,0.9-0.8c0.3-0.2,0.7-0.3,1-0.3c0.4,0,0.8,0.1,1,0.4
			c0.3,0.3,0.4,0.8,0.4,1.6l0,0.7v0.5c0,1.1,0,1.8,0,2.1c0,0.1,0,0.2,0,0.2c0,0.1,0,0.2-0.1,0.3c-0.1,0.1-0.1,0.1-0.2,0.1
			c0,0-0.1,0-0.3,0c-0.3,0-0.5,0.1-0.6,0.2l0,0l0,0c0,0.1-0.1,0.1-0.1,0.2l0.1,0.3l0.1,0c0.2,0,0.4,0,0.6,0c0.1,0,0.3,0,0.5,0l1,0
			l1.1,0h0.2l0-0.1c0-0.1,0.1-0.2,0.1-0.3v-0.1l0,0C78.2,67.7,78,67.6,77.3,67.5z"/>
		<path id="XMLID_66_" d="M85,66.9L85,66.9l-0.1-0.1c-0.1,0-0.2,0.1-0.2,0.1l-0.1,0.2c-0.1,0.2-0.3,0.3-0.4,0.3
			c-0.1,0-0.2,0-0.3-0.1c-0.1-0.1-0.1-0.2-0.1-0.4c0-0.1,0-0.2,0-0.4c0-0.1,0-0.2,0-0.4l0-1.1l0-1.5c0-1.1,0-1.4,0-1.5
			c0-0.3-0.2-0.6-0.3-0.8c-0.2-0.3-0.4-0.4-0.6-0.5c-0.2-0.1-0.6-0.2-1.1-0.2c-0.4,0-0.8,0.1-1.2,0.4c-0.5,0.3-0.9,0.7-1.2,1.3
			c-0.4,0.8-0.5,1-0.5,1.1c0,0.1,0,0.1,0.1,0.2c0.2,0.2,0.5,0.2,1-0.1l0,0c0.1-0.2,0.2-0.4,0.2-0.5c0.1-0.6,0.2-0.9,0.4-1.1
			c0.3-0.3,0.6-0.5,1-0.5c0.3,0,0.6,0.1,0.7,0.4c0.2,0.3,0.3,0.8,0.3,1.5c0,0.2,0,0.4,0,0.6c-0.1,0.1-0.5,0.2-1,0.5
			c-0.8,0.4-1.4,0.9-1.9,1.5c-0.5,0.6-0.7,1.1-0.7,1.6c0,0.3,0.1,0.6,0.3,0.8c0.2,0.2,0.4,0.3,0.7,0.3c0.4,0,0.7,0,1-0.1
			c0.2-0.1,0.4-0.2,0.8-0.4l0.8-0.6c0.1,0.3,0.1,0.6,0.2,0.7c0.2,0.3,0.5,0.5,1,0.5c0.3,0,0.4-0.1,0.6-0.2c0.2-0.1,0.4-0.4,0.6-0.7
			c0.2-0.3,0.2-0.5,0.2-0.5C85,67,85,67,85,66.9z M82.5,65c0,0.3,0,0.8-0.1,1.6c-0.3,0.4-0.6,0.6-0.9,0.8c-0.5,0.3-0.8,0.2-1,0
			c-0.1-0.1-0.2-0.3-0.2-0.5c0-0.2,0.1-0.5,0.2-0.7c0.2-0.4,0.5-0.7,0.9-1c0.3-0.3,0.7-0.5,1-0.6C82.5,64.7,82.5,64.9,82.5,65z"/>
		<path id="XMLID_62_" d="M92.6,61.4c-0.1-0.1-0.2-0.1-0.4-0.1c0,0-0.2,0-0.6,0.1c-0.4,0.1-0.6,0.1-0.6,0.1c-0.1,0-0.2,0-0.2,0
			c0,0-0.1-0.1-0.4-0.2c-0.4-0.3-0.6-0.4-0.8-0.5c-0.3-0.1-0.7-0.2-1-0.2c-0.8,0-1.5,0.3-2,0.9c-0.5,0.6-0.8,1.3-0.8,2.2
			c0,1,0.4,1.9,1.2,2.4c0.1,0.1,0.1,0.1,0.2,0.1c-0.2,0.1-0.4,0.2-0.7,0.3c-0.4,0.1-0.6,0.3-0.7,0.4c-0.1,0.1-0.1,0.3-0.1,0.5
			c0,0.2,0.1,0.4,0.2,0.6c0.1,0.2,0.4,0.4,0.8,0.7c0.2,0.1,0.3,0.2,0.4,0.2c-0.1,0-0.1,0.1-0.2,0.1c-0.7,0.4-1.2,0.8-1.4,1.2
			c-0.2,0.4-0.3,0.7-0.3,1c0,0.3,0.1,0.6,0.3,0.9c0.2,0.3,0.5,0.6,1,0.8c0.5,0.2,1.2,0.4,2,0.4c0.8,0,1.5-0.1,2.1-0.4
			c0.6-0.3,1.1-0.6,1.4-1.1c0.3-0.4,0.5-0.9,0.5-1.4c0-0.4-0.1-0.8-0.3-1.1c-0.2-0.4-0.5-0.6-0.8-0.8c-0.4-0.2-0.9-0.3-1.5-0.3
			c-1.4,0-2.4-0.2-2.8-0.5c-0.1-0.1-0.2-0.2-0.2-0.3c0-0.1,0.1-0.2,0.3-0.3c0.4-0.3,0.8-0.4,1.3-0.4c0.2,0,0.2,0,0.3,0
			c0.5,0,0.9-0.1,1.3-0.4c0.4-0.3,0.8-0.6,1-1.1c0.2-0.5,0.4-1,0.4-1.4c0-0.4-0.1-0.9-0.3-1.4c0,0,0.1,0,0.6,0.2
			c0.6,0.2,0.9,0.2,1.1,0.1c0.1-0.1,0.1-0.2,0.1-0.3C92.7,61.8,92.7,61.6,92.6,61.4L92.6,61.4z M87.4,61.6c0.2-0.4,0.6-0.6,1.1-0.6
			c0.4,0,0.8,0.2,1.1,0.6c0.3,0.4,0.5,1,0.5,1.9c0,0.8-0.1,1.4-0.4,1.8c-0.3,0.4-0.6,0.6-1.1,0.6c-0.2,0-0.5-0.1-0.7-0.3
			c-0.2-0.2-0.4-0.4-0.6-0.8C87.1,64.5,87,64,87,63.5C87,62.7,87.1,62,87.4,61.6z M88.5,72.6c-0.7,0-1.3-0.2-1.8-0.6
			c-0.3-0.3-0.5-0.7-0.5-1.1c0-0.5,0.2-0.8,0.5-1.2c0.4-0.4,0.9-0.6,1.5-0.6c0.2,0,0.8,0,1.7,0.1c0.3,0,0.5,0.1,0.7,0.1
			c0.2,0.1,0.4,0.2,0.5,0.3c0.1,0.1,0.2,0.3,0.3,0.4c0.1,0.2,0.1,0.4,0.1,0.5c0,0.3-0.1,0.6-0.3,1c-0.2,0.3-0.6,0.6-1.1,0.8
			C89.5,72.5,89,72.6,88.5,72.6z"/>
		<path id="XMLID_59_" d="M98.4,66.8c-0.3,0.2-0.6,0.4-0.7,0.5c-0.2,0.1-0.4,0.1-0.7,0.1c-0.5,0-1-0.2-1.4-0.4
			c-0.4-0.3-0.6-0.7-0.8-1.2c-0.2-0.5-0.3-1-0.3-1.3l0-0.5l0-0.2c0,0,0-0.1,0.1-0.3c0.2,0,0.5,0,0.7,0l0.6,0l3.3,0v-0.2
			c0-0.4-0.1-0.8-0.3-1.2c-0.2-0.5-0.6-0.8-1-1.1c-0.3-0.2-0.8-0.3-1.3-0.3c-0.5,0-0.9,0.1-1.3,0.3c-0.3,0.1-0.5,0.3-0.9,0.6
			c-0.2,0.2-0.4,0.5-0.6,0.8c-0.2,0.5-0.4,0.9-0.5,1.4c-0.1,0.4-0.1,0.8-0.1,1.1c0,0.9,0.2,1.6,0.5,2.2c0.3,0.6,0.8,1.1,1.3,1.3
			c0.4,0.2,0.8,0.3,1.2,0.3c0.4,0,0.7,0,0.9-0.1c0.4-0.1,0.8-0.3,1.2-0.6c0.4-0.3,0.7-0.6,0.9-0.9l0,0c0-0.1,0-0.1,0-0.2l-0.1-0.6
			L98.4,66.8z M94.7,62.9c0-0.3,0.2-0.6,0.4-1c0.4-0.5,0.8-0.8,1.4-0.8c0.3,0,0.5,0.1,0.7,0.2c0.2,0.1,0.4,0.3,0.5,0.5
			c0.1,0.2,0.2,0.4,0.2,0.6c0,0.1,0,0.1-0.1,0.2c0,0-0.1,0-0.3,0.1c-1.3,0.1-2.2,0.1-2.4,0.1H94.7z"/>
		<path id="XMLID_58_" d="M111.6,67.6c-0.3-0.1-0.4-0.1-0.5-0.2c-0.1-0.1-0.1-0.3-0.1-0.5v-3.8c0-0.9-0.2-1.6-0.6-2.1
			c-0.4-0.5-0.9-0.7-1.6-0.7c-0.4,0-0.8,0.1-1.2,0.3c-0.4,0.2-0.8,0.6-1.2,1c-0.2-0.5-0.5-0.8-0.7-1c-0.3-0.2-0.7-0.3-1.2-0.3
			c-0.4,0-0.8,0.1-1.1,0.3c-0.4,0.2-0.9,0.6-1.4,1.1c0-0.2,0-0.3,0-0.4l0-1.1l0,0c0,0-0.1-0.1-0.2-0.1c-0.1,0-0.1,0-0.1,0h-0.1l0,0
			c-0.3,0.5-0.6,0.8-0.8,1c-0.2,0.2-0.4,0.3-0.7,0.4l-0.1,0v0.5l0.1,0c0.2,0.1,0.3,0.1,0.4,0.1c0.2,0,0.3,0.1,0.4,0.2
			c0.1,0.4,0.1,1.2,0.1,2.5c0,1.6,0,2.2-0.1,2.3c0,0.1-0.1,0.3-0.1,0.3c-0.1,0.1-0.3,0.1-0.5,0.1c-0.2,0-0.3,0.1-0.4,0.2l0,0l0,0
			c0,0.1,0,0.2,0,0.2c0,0,0,0.1,0,0.1l0,0.1l1,0h0.3l0.4,0c0.2,0,0.4,0,0.6,0c0.2,0,0.6,0,1.2,0.1l0.1,0l0-0.1c0-0.1,0-0.1,0-0.2
			c0-0.1-0.1-0.2-0.1-0.3c-0.1-0.1-0.3-0.2-0.7-0.2c-0.2,0-0.3-0.1-0.3-0.1c0,0-0.1-0.2-0.1-1.1l0-3.1c0-0.1,0-0.3,0-0.4
			c0.2-0.3,0.5-0.6,0.9-0.8c0.4-0.2,0.7-0.3,1.1-0.3c0.4,0,0.7,0.2,0.9,0.5c0.3,0.3,0.4,0.9,0.4,1.6l0,0.7l0,1.2l0,1.1
			c0,0.5,0,0.7-0.1,0.7c0,0,0,0,0,0.1c-0.2,0.1-0.3,0.1-0.5,0.1c-0.3,0.1-0.6,0.1-0.7,0.2l0,0l0,0.2c0,0,0,0.1,0,0.2l0,0.1l3.7,0
			l0,0c0.1,0,0.1-0.1,0.1-0.3c0-0.1,0-0.2-0.1-0.3l0,0c-0.1,0-0.2,0-0.4-0.1c-0.5-0.1-0.6-0.1-0.6-0.2c-0.1-0.1-0.1-0.1-0.1-0.3
			c0-0.1,0-0.5,0-1.9l0-1.1v-1.4l0-0.2c0.3-0.4,0.6-0.6,0.9-0.8c0.3-0.2,0.6-0.3,0.9-0.3c0.4,0,0.7,0.1,1,0.4c0.3,0.2,0.4,0.6,0.5,1
			c0,0.3,0.1,1.3,0.1,3.1c0,1.1-0.1,1.3-0.1,1.4c0,0.1-0.2,0.2-0.4,0.2c-0.3,0-0.5,0.1-0.6,0.2l0,0l0,0c0,0.1-0.1,0.2-0.1,0.2
			c0,0,0,0.1,0,0.2l0,0.1l0.1,0c0.2,0,0.3,0,0.3,0h0.4c0.8,0,1.3,0,1.5,0l0.8,0.1h0.1l0-0.1c0-0.1,0.1-0.2,0.1-0.3
			c0-0.1,0-0.2-0.1-0.2C112,67.7,111.9,67.7,111.6,67.6z"/>
		<path id="XMLID_55_" d="M118,66.8c-0.3,0.2-0.6,0.4-0.7,0.5c-0.2,0.1-0.4,0.1-0.7,0.1c-0.5,0-1-0.2-1.4-0.4
			c-0.4-0.3-0.6-0.7-0.9-1.2c-0.2-0.5-0.3-1-0.3-1.3l0-0.5l0-0.2c0,0,0-0.1,0.1-0.3c0.2,0,0.5,0,0.7,0l0.6,0l3.3,0v-0.2
			c0-0.4-0.1-0.8-0.3-1.2c-0.2-0.5-0.6-0.8-1-1.1c-0.3-0.2-0.8-0.3-1.3-0.3c-0.5,0-0.9,0.1-1.3,0.3c-0.3,0.1-0.5,0.3-0.9,0.6
			c-0.2,0.2-0.4,0.5-0.6,0.8c-0.2,0.5-0.4,0.9-0.5,1.4c-0.1,0.4-0.1,0.8-0.1,1.1c0,0.9,0.2,1.6,0.5,2.2c0.3,0.6,0.8,1.1,1.3,1.3
			c0.4,0.2,0.8,0.3,1.2,0.3c0.4,0,0.7,0,0.9-0.1c0.4-0.1,0.8-0.3,1.2-0.6c0.4-0.3,0.7-0.6,0.9-0.9l0,0l0,0c0-0.1,0-0.1,0-0.2
			l-0.1-0.6L118,66.8z M114.2,62.9c0-0.3,0.2-0.6,0.4-1c0.4-0.5,0.8-0.8,1.4-0.8c0.3,0,0.5,0.1,0.7,0.2c0.2,0.1,0.4,0.3,0.5,0.5
			c0.1,0.2,0.2,0.4,0.2,0.6c0,0.1,0,0.1-0.1,0.2c0,0-0.1,0-0.3,0.1c-1.3,0.1-2.2,0.1-2.4,0.1H114.2z"/>
		<path id="XMLID_54_" d="M126.5,67.5c-0.1-0.1-0.1-0.1-0.1-0.2c0-0.1,0-0.3,0-0.8c0-0.3,0-0.5,0-0.7l0-0.2c0-0.1,0-0.1,0-0.2V64
			c0-1.1,0-1.8-0.1-2.2c-0.1-0.4-0.3-0.7-0.7-1c-0.3-0.3-0.7-0.4-1.2-0.4c-0.2,0-0.4,0-0.6,0.1c-0.3,0.1-0.6,0.2-0.9,0.4
			c-0.3,0.2-0.7,0.4-1,0.7c0,0,0,0-0.1,0V61c0-0.1,0-0.3,0-0.6l0-0.1l-0.4,0l0,0.1c-0.2,0.5-0.5,0.8-0.7,1.1
			c-0.2,0.2-0.5,0.3-0.9,0.5l-0.1,0v0.5l0.1,0c0.4,0.1,0.6,0.2,0.7,0.3c0,0,0.1,0.2,0.1,0.7l0,2.8c0,0.2,0,0.3,0,0.5l0,0.3
			c0,0.3-0.1,0.4-0.1,0.4c0,0-0.1,0.1-0.6,0.2c-0.2,0-0.3,0.1-0.5,0.1l-0.1,0l0,0.1c0,0.1,0,0.2,0,0.2l0,0.2h0.3c0.1,0,0.4,0,0.8,0
			l1.7,0h0.9l0-0.3l0,0c-0.1-0.1-0.1-0.2-0.3-0.2c-0.1,0-0.2,0-0.3-0.1c-0.2-0.1-0.3-0.1-0.5-0.1c-0.1,0-0.2-0.1-0.2-0.1
			c0,0,0,0,0-0.2c0-0.2,0-0.9,0-1.9l0-2c0-0.2,0-0.4,0-0.7c0.3-0.3,0.6-0.6,0.9-0.8c0.3-0.2,0.7-0.3,1-0.3c0.4,0,0.8,0.1,1,0.4
			c0.3,0.3,0.4,0.8,0.4,1.6l0,0.7v0.5c0,1.1,0,1.8,0,2.1c0,0.1,0,0.2,0,0.3c0,0.1,0,0.2-0.1,0.3c-0.1,0.1-0.1,0.1-0.2,0.1
			c0,0-0.1,0-0.3,0c-0.3,0-0.5,0.1-0.7,0.2l0,0l0,0c-0.1,0.1-0.1,0.1-0.1,0.2l0.1,0.3l0.1,0c0.2,0,0.4,0,0.6,0c0.1,0,0.3,0,0.5,0
			l1,0l1.1,0h0.2l0-0.1c0-0.1,0.1-0.2,0.1-0.3v-0.1l0,0C127.4,67.7,127.2,67.6,126.5,67.5z"/>
		<path id="XMLID_53_" d="M132.2,67.2h-0.1l0,0c-0.2,0.2-0.4,0.3-0.4,0.3c-0.5,0.1-0.7,0.1-0.8,0.1c-0.2,0-0.4-0.1-0.5-0.3
			c-0.1-0.2-0.2-0.6-0.2-1.2l0-2.4l0-1.4c0-0.2,0-0.3,0-0.4l1.9-0.1h0.2l0-0.1c0-0.2,0.1-0.3,0.1-0.4c0-0.1,0-0.2,0-0.3l0-0.1
			l-0.1,0c-0.2,0-0.4,0-0.5,0c-0.2,0-0.5,0-0.7,0c-0.4,0-0.6,0-0.8,0c0,0,0,0-0.1,0l0-1l0-1l-0.4,0l0,0.1c0,0.1-0.1,0.3-0.2,0.5
			c-0.1,0.3-0.2,0.6-0.3,0.7c-0.1,0.2-0.3,0.4-0.5,0.6c-0.2,0.2-0.3,0.3-0.5,0.4c-0.3,0.1-0.4,0.2-0.4,0.2c-0.1,0.1-0.1,0.2-0.1,0.3
			c0,0.1,0,0.1,0.1,0.2c0.1,0.1,0.1,0.1,0.2,0.1l0.7,0l0,0c0,0.1,0,0.3,0,0.4l0,1.4l0,2.1c0,0.9,0,1.4,0.1,1.7
			c0.1,0.3,0.2,0.5,0.5,0.7c0.2,0.2,0.6,0.3,0.9,0.3c0.5,0,0.9-0.1,1.2-0.2c0.3-0.1,0.6-0.4,0.8-0.7l0,0l0-0.1c0-0.1,0-0.1-0.1-0.2
			C132.4,67.2,132.3,67.2,132.2,67.2z"/>
		<path id="XMLID_52_" d="M139.6,56.3l-2.1-0.1h-0.8l0,0.1c0,0.2,0,0.3,0.1,0.4c0.1,0,0.2,0.1,0.8,0.2c0.4,0,0.7,0.1,0.9,0.2
			c0,0.1,0.1,0.1,0.1,0.2c0,0.4,0,0.8,0,1.2c0,0.1,0,0.3,0,0.4l0,0.5l0,1.9l0,0.7l0,1.1l0,2c0,1.8-0.1,2.2-0.2,2.3
			c0,0.1-0.3,0.2-1.3,0.3c-0.1,0-0.3,0.1-0.4,0.1l-0.1,0l0,0.4l2.2,0l1.1,0c0.4,0,0.6,0,0.7,0c0.2,0,0.6,0,1.1,0l0.1,0v-0.2
			c0-0.1,0-0.1,0-0.2l0,0l0,0c-0.1-0.1-0.3-0.2-0.6-0.2c-0.1,0-0.3,0-0.6-0.1c-0.1,0-0.2-0.1-0.3-0.2c0,0-0.1-0.1-0.1-0.4
			c0-0.2,0-0.6,0-1.3c0-0.2,0-0.5,0-1l0-5.7l0-1.2c0-0.4,0.1-0.5,0.1-0.6c0,0,0.1-0.1,0.1-0.1c0.1,0,0.3-0.1,0.9-0.2
			c0.3,0,0.4-0.1,0.6-0.1l0.1,0l0-0.1c0-0.1,0-0.2,0-0.3v-0.1l-0.1,0C140.9,56.3,140.2,56.3,139.6,56.3z"/>
		<path id="XMLID_51_" d="M149.7,67.5c-0.1-0.1-0.1-0.1-0.1-0.2c0-0.1,0-0.4,0-0.8c0-0.3,0-0.5,0-0.7l0-0.2c0-0.1,0-0.1,0-0.1V64
			c0-1.1,0-1.8-0.1-2.2c-0.1-0.4-0.3-0.7-0.7-1c-0.3-0.3-0.7-0.4-1.2-0.4c-0.2,0-0.4,0-0.6,0.1c-0.3,0.1-0.6,0.2-0.9,0.4
			c-0.3,0.2-0.7,0.4-1,0.7c0,0,0,0-0.1,0V61c0-0.1,0-0.3,0-0.6l0-0.1l-0.4,0l0,0.1c-0.2,0.5-0.5,0.8-0.7,1.1
			c-0.2,0.2-0.5,0.3-0.9,0.5l-0.1,0v0.5l0.1,0c0.4,0.1,0.6,0.2,0.7,0.3c0,0,0.1,0.2,0.1,0.7l0,2.8c0,0.2,0,0.3,0,0.5l0,0.3
			c0,0.3-0.1,0.4-0.1,0.4c0,0-0.1,0.1-0.5,0.2c-0.2,0-0.3,0.1-0.5,0.1l-0.1,0l0,0.1c0,0.1,0,0.2,0,0.2l0,0.2h0.3c0.1,0,0.4,0,0.8,0
			l1.7,0h0.9l0-0.3l0,0c0-0.1-0.1-0.2-0.3-0.2c-0.1,0-0.2,0-0.3-0.1c-0.2-0.1-0.3-0.1-0.5-0.1c-0.1,0-0.2-0.1-0.2-0.1c0,0,0,0,0-0.2
			c0-0.2,0-0.9,0-1.9l0-2c0-0.2,0-0.4,0-0.7c0.3-0.3,0.6-0.6,0.9-0.8c0.3-0.2,0.7-0.3,1-0.3c0.4,0,0.8,0.1,1,0.4
			c0.3,0.3,0.4,0.8,0.4,1.6l0,0.7v0.5c0,1.1,0,1.8,0,2.1c0,0.1,0,0.2,0,0.3c0,0.1,0,0.2-0.1,0.3c-0.1,0.1-0.1,0.1-0.2,0.1
			c0,0-0.1,0-0.3,0c-0.3,0-0.5,0.1-0.6,0.2l0,0l0,0c0,0.1-0.1,0.1-0.1,0.2l0.1,0.3l0.1,0c0.2,0,0.4,0,0.6,0c0.1,0,0.3,0,0.5,0l1,0
			l1.1,0h0.2l0-0.1c0-0.1,0.1-0.2,0.1-0.3v-0.1l0,0C150.6,67.7,150.4,67.6,149.7,67.5z"/>
		<path id="XMLID_50_" d="M155.3,64.3c-0.3-0.2-0.7-0.5-1.3-0.8c-0.6-0.3-0.9-0.5-1.1-0.7c-0.1-0.2-0.2-0.4-0.2-0.7
			c0-0.3,0.1-0.6,0.3-0.8c0.2-0.2,0.4-0.3,0.7-0.3c0.3,0,0.6,0.1,0.9,0.4c0.3,0.3,0.6,0.7,0.7,1.2l0,0.1h0.2c0.1,0,0.1,0,0.2,0
			l0.1,0l0-0.4c0-0.6-0.1-1.1-0.1-1.4l0,0l0,0c-0.2-0.1-0.5-0.3-0.8-0.3c-0.3-0.1-0.7-0.1-1.1-0.1c-0.3,0-0.7,0.1-1,0.3
			c-0.4,0.2-0.7,0.4-0.9,0.8c-0.2,0.3-0.3,0.7-0.3,1.2c0,0.5,0.1,0.9,0.4,1.2c0.3,0.4,0.7,0.7,1.5,1c0.7,0.3,1.2,0.6,1.4,0.9
			c0.2,0.3,0.4,0.7,0.4,1c0,0.3-0.1,0.5-0.3,0.7c-0.3,0.3-0.6,0.4-0.8,0.4c-0.3,0-0.6-0.1-0.9-0.3c-0.3-0.2-0.5-0.4-0.7-0.8
			c-0.1-0.1-0.2-0.4-0.4-1.1l0-0.1h-0.1c-0.2,0-0.2,0-0.3,0.1c-0.1,0.1-0.1,0.2-0.1,0.2c0,0.2,0,0.6,0.1,1.5c0,0.1,0,0.2,0,0.3
			c0,0.2,0,0.3,0.1,0.4l0,0c0.6,0.3,1.2,0.4,1.9,0.4c0.3,0,0.6-0.1,1-0.2c0.4-0.2,0.7-0.4,1-0.8c0.3-0.4,0.4-0.8,0.4-1.2
			c0-0.3-0.1-0.7-0.2-1C155.8,64.9,155.6,64.6,155.3,64.3z"/>
		<path id="XMLID_49_" d="M161.7,67.6l0-0.1c0-0.1,0-0.1-0.1-0.2c-0.1-0.1-0.1-0.1-0.2-0.1h-0.1l0,0c-0.2,0.2-0.4,0.3-0.4,0.3
			c-0.5,0.1-0.7,0.1-0.8,0.1c-0.2,0-0.4-0.1-0.5-0.3c-0.1-0.1-0.2-0.4-0.2-1.2l0-2.4l0-1.4c0-0.2,0-0.3,0-0.4l1.9-0.1h0.2l0-0.1
			c0-0.2,0.1-0.3,0.1-0.4c0-0.1,0-0.2,0-0.3l0-0.1l-0.1,0c-0.2,0-0.4,0-0.5,0c-0.2,0-0.5,0-0.7,0c-0.5,0-0.7,0-0.8,0c0,0,0,0-0.1,0
			l0-1l0-1l-0.4,0l0,0.1c0,0.1-0.1,0.3-0.2,0.5c-0.1,0.3-0.2,0.6-0.3,0.7c-0.1,0.2-0.3,0.4-0.5,0.6c-0.2,0.2-0.3,0.3-0.5,0.4
			c-0.3,0.1-0.4,0.2-0.4,0.2c-0.1,0.1-0.1,0.2-0.1,0.3c0,0.1,0,0.1,0.1,0.2c0.1,0.1,0.1,0.1,0.2,0.1l0.7,0l0,0c0,0.1,0,0.3,0,0.4
			l0,1.4l0,2.1c0,0.9,0,1.4,0.1,1.7c0.1,0.3,0.2,0.5,0.5,0.7c0.2,0.2,0.6,0.3,0.9,0.3c0.5,0,0.9-0.1,1.2-0.2
			C161.2,68.1,161.4,67.9,161.7,67.6L161.7,67.6z"/>
		<path id="XMLID_48_" d="M165.3,67.9L165.3,67.9c-0.2-0.1-0.3-0.1-0.5-0.2c-0.4-0.1-0.5-0.2-0.6-0.3c0,0-0.1-0.2-0.1-0.4l0-2.8
			l0-3.1c0-0.2,0-0.4,0-0.4c0-0.1,0-0.3,0-0.7l0-0.1l-0.2,0c0,0-0.1,0-0.2,0l0,0l0,0c-0.1,0.2-0.3,0.5-0.5,0.7
			c-0.2,0.2-0.4,0.3-0.6,0.4c0,0-0.1,0-0.5,0.2l-0.1,0l0,0.4l0.1,0c0.4,0.1,0.6,0.2,0.7,0.3c0.1,0.1,0.2,0.2,0.2,0.2
			c0,0.1,0,0.2,0,0.8c0,2.2,0,3.4,0,3.9c0,0.3,0,0.4-0.1,0.6c0,0.1-0.1,0.1-0.3,0.1c-0.8,0.2-0.8,0.2-0.8,0.2
			c-0.2,0.1-0.2,0.2-0.2,0.3c0,0.1,0,0.1,0.1,0.2l0,0l0,0c0.1,0,0.1,0,0.2,0c0.1,0,0.3,0,0.5,0c0.8,0,1.2,0,1.3,0
			c0.1,0,0.3,0,0.9,0.1c0.3,0,0.6,0,0.8,0l0.1,0l0-0.1c0-0.1,0.1-0.1,0.1-0.2C165.3,68,165.3,68,165.3,67.9L165.3,67.9z"/>
		<path id="XMLID_47_" d="M163.4,57.8c0.2,0,0.4-0.1,0.6-0.3c0.2-0.2,0.3-0.4,0.3-0.6c0-0.2-0.1-0.4-0.3-0.6
			c-0.2-0.2-0.4-0.3-0.6-0.3c-0.2,0-0.4,0.1-0.6,0.3c-0.2,0.2-0.2,0.4-0.2,0.6c0,0.3,0.1,0.5,0.2,0.7
			C163,57.7,163.2,57.8,163.4,57.8z"/>
		<path id="XMLID_46_" d="M170,67.2h-0.1l0,0c-0.2,0.2-0.4,0.3-0.4,0.3c-0.5,0.1-0.7,0.1-0.8,0.1c-0.2,0-0.4-0.1-0.5-0.3
			c-0.1-0.2-0.2-0.6-0.2-1.2l0-2.4l0-1.4c0-0.2,0-0.3,0-0.4l1.9-0.1h0.2l0-0.1c0-0.2,0.1-0.3,0.1-0.4c0-0.1,0-0.2,0-0.3l0-0.1
			l-0.1,0c-0.2,0-0.4,0-0.5,0c-0.2,0-0.5,0-0.7,0c-0.4,0-0.6,0-0.8,0c0,0,0,0-0.1,0l0-1l0-1l-0.4,0l0,0.1c0,0.1-0.1,0.3-0.2,0.5
			c-0.1,0.3-0.2,0.6-0.3,0.7c-0.1,0.2-0.3,0.4-0.5,0.6c-0.2,0.2-0.3,0.3-0.5,0.4c-0.3,0.1-0.4,0.2-0.4,0.2c-0.1,0.1-0.1,0.2-0.1,0.3
			c0,0.1,0,0.1,0.1,0.2c0,0.1,0.1,0.1,0.2,0.1c0,0,0,0,0,0l0.7,0l0,0c0,0.1,0,0.3,0,0.4l0,1.4l0,2.1c0,0.9,0,1.4,0.1,1.7
			c0.1,0.3,0.2,0.5,0.5,0.7c0.2,0.2,0.6,0.3,0.9,0.3c0.5,0,0.9-0.1,1.2-0.2c0.3-0.1,0.6-0.4,0.8-0.7l0,0l0-0.1c0-0.1,0-0.2-0.1-0.2
			C170.2,67.2,170.1,67.2,170,67.2z"/>
		<path id="XMLID_45_" d="M178.2,67.2L178.2,67.2c-0.5-0.1-0.7-0.1-0.7-0.1h-0.1c-0.3,0-0.3,0-0.3,0c0,0,0,0-0.1-0.1l0-1.2l0-0.7
			c0-1.4,0-2.5,0.1-3.5l0-0.8l-0.1,0c-0.1,0-0.1,0-0.2,0c0,0-0.2,0-0.4,0l-0.3,0l-1.3,0c-0.1,0-0.3,0-0.4,0l-0.1,0l0,0.2
			c0,0.1,0,0.1,0.1,0.2l0,0l0,0c0.1,0,0.2,0,0.4,0.1c0.7,0.1,0.9,0.2,0.9,0.2c0,0,0.1,0.3,0.1,1.6c0,0.1,0,0.3,0,0.4l0,0.1
			c0,0.3,0,0.9,0,1.9c0,0.3,0,0.5,0,0.7c-0.2,0.3-0.5,0.5-0.9,0.6c-0.3,0.2-0.7,0.3-1.1,0.3c-0.3,0-0.6-0.1-0.8-0.2
			c-0.2-0.1-0.3-0.3-0.4-0.6c-0.1-0.3-0.1-0.9-0.1-2c0-0.1,0-0.3,0-0.8c0-0.8,0-1.6,0-2.5l0-0.3l-0.1,0c-0.1,0-0.5,0-1,0
			c0,0,0,0-0.1,0l-0.2,0l-0.3,0h-0.7v0.5l0.1,0c0.1,0,0.2,0.1,0.3,0.1c0.1,0,0.2,0,0.6,0.2c0.1,0.1,0.1,0.1,0.1,0.2l0,0.3l0,0.5
			c0,0.1,0,0.2,0,0.3c0,0.1,0,0.2,0,0.4l0,0c0,0.2,0,0.3,0,0.3c0,0.1,0,0.2,0,0.3c0,0.2,0,0.3,0,0.4c0,0.1,0,0.3,0,0.6
			c0,0.2,0,0.3,0,0.3c0,1.2,0.2,2,0.6,2.5c0.4,0.5,0.9,0.8,1.5,0.8c0.3,0,0.6-0.1,1-0.3c0.5-0.3,0.9-0.6,1.4-1c0,0,0,0,0.1-0.1
			c0,0,0,0,0,0v0.7c0,0.1,0,0.2,0,0.4l0,0.1l0.1,0c0.1,0,0.3-0.1,0.5-0.2c0.4-0.2,1-0.4,1.7-0.5l0.1,0v-0.2c0,0,0-0.1,0-0.1
			L178.2,67.2z"/>
		<path id="XMLID_44_" d="M182.9,67.2h-0.1l0,0c-0.2,0.2-0.4,0.3-0.4,0.3c-0.5,0.1-0.7,0.1-0.8,0.1c-0.2,0-0.4-0.1-0.5-0.3
			c-0.1-0.1-0.2-0.4-0.2-1.2l0-2.4l0-1.4c0-0.2,0-0.3,0-0.4l1.9-0.1h0.2l0-0.1c0-0.2,0.1-0.3,0.1-0.4c0-0.1,0-0.2,0-0.3l0-0.1
			l-0.1,0c-0.2,0-0.4,0-0.5,0c-0.2,0-0.5,0-0.7,0c-0.5,0-0.7,0-0.8,0c0,0,0,0-0.1,0l0-1l0-1l-0.4,0l0,0.1c0,0.1-0.1,0.3-0.2,0.5
			c-0.1,0.4-0.2,0.6-0.3,0.7c-0.1,0.2-0.3,0.4-0.5,0.6c-0.2,0.2-0.3,0.3-0.5,0.4c-0.3,0.1-0.4,0.2-0.4,0.2c-0.1,0.1-0.1,0.2-0.1,0.3
			c0,0.1,0,0.1,0.1,0.2c0,0.1,0.1,0.1,0.2,0.1l0.7,0l0,0c0,0.1,0,0.3,0,0.4l0,1.4l0,2.1c0,0.9,0,1.4,0.1,1.7
			c0.1,0.3,0.2,0.5,0.5,0.7c0.2,0.2,0.6,0.3,0.9,0.3c0.5,0,0.9-0.1,1.2-0.2c0.3-0.1,0.6-0.4,0.8-0.7l0,0l0-0.1c0-0.1,0-0.1-0.1-0.2
			C183.1,67.2,183,67.2,182.9,67.2z"/>
		<path id="XMLID_41_" d="M189.5,66.1l-0.7,0.7c-0.3,0.2-0.6,0.4-0.7,0.5c-0.2,0.1-0.4,0.1-0.7,0.1c-0.5,0-1-0.2-1.4-0.4
			c-0.4-0.3-0.6-0.7-0.9-1.2c-0.2-0.5-0.3-1-0.3-1.3l0-0.5l0-0.2c0,0,0-0.1,0.1-0.3c0.2,0,0.5,0,0.7,0l0.6,0l3.3,0v-0.2
			c0-0.4-0.1-0.8-0.3-1.2c-0.2-0.4-0.6-0.8-1-1.1c-0.3-0.2-0.8-0.3-1.3-0.3c-0.5,0-0.9,0.1-1.3,0.3c-0.3,0.1-0.5,0.3-0.9,0.6
			c-0.2,0.2-0.4,0.5-0.6,0.8c-0.2,0.5-0.4,1-0.5,1.4c-0.1,0.4-0.1,0.8-0.1,1.1c0,0.9,0.2,1.6,0.5,2.2c0.3,0.6,0.8,1.1,1.3,1.3
			c0.4,0.2,0.8,0.3,1.2,0.3c0.4,0,0.7,0,0.9-0.1c0.4-0.1,0.8-0.3,1.2-0.6c0.4-0.3,0.7-0.6,0.9-0.9l0,0l0,0c0-0.1,0-0.1,0-0.2
			L189.5,66.1z M185,62.9c0-0.3,0.2-0.6,0.4-1c0.4-0.5,0.8-0.8,1.4-0.8c0.3,0,0.5,0.1,0.7,0.2c0.2,0.1,0.4,0.3,0.5,0.5
			c0.1,0.2,0.2,0.4,0.2,0.6c0,0.1,0,0.1-0.1,0.2c0,0-0.1,0-0.3,0.1c-1.3,0.1-2.2,0.1-2.4,0.1H185z"/>
	</g>
	<g id="XMLID_3_">
		<g id="XMLID_11_">
			<g id="XMLID_19_">
				<rect id="XMLID_39_" x="0.4" y="0" class="st0" width="52.2" height="52.2"/>
				<path id="XMLID_38_" class="st1" d="M0.4,5.5v46.7h49.1c0.1-3.4-0.1-6.9-0.8-10.4C44.2,18.1,23.2,2.1,0.4,5.5z"/>
				<g id="XMLID_20_">
					<path id="XMLID_37_" class="st2" d="M48.1,46.4c-2.2-15.3-10.2-26.5-18.6-32.1c2.1,2.8,7.2,7.8,9.8,17.3
						C41.8,33.9,45.5,39,48.1,46.4z"/>
					<path id="XMLID_36_" class="st2" d="M6.6,14.6c3.7,0.6,7.3,1.5,10.7,2.5c-0.6-6.9-1.7-9.7-3.1-10C12.3,6.8,8.1,12.2,6.6,14.6z"
						/>
					<path id="XMLID_35_" class="st2" d="M6.1,16c-1.9,3.2-3.7,6.8-5.2,10.5c5.4,1,10.4,2.6,15.2,4.2c0.7-3.7,1.1-7.7,1.2-11.6
						C13.4,17.3,6.2,15.9,6.1,16z"/>
					<path id="XMLID_34_" class="st2" d="M18.8,19.3c-0.1,3.6-0.5,7.7-0.8,11.5c4,1.1,7.3,2.9,10.9,4.5c-0.1-3.6-0.4-8.5-1.4-11.8
						C24.9,21.9,21.8,20.5,18.8,19.3z"/>
					<path id="XMLID_33_" class="st2" d="M15.1,46c4.4,1.2,8.5,2.6,12.5,4.2c0.5-4.4,1.1-8.3,1.2-12.6c-3.3-2.1-7.2-3.6-11.1-5.1
						C16.9,37,16.2,41.8,15.1,46z"/>
					<path id="XMLID_32_" class="st2" d="M26.6,21.6C23.2,10,17,7.9,17,8.1c1.3,2.6,1.7,6.1,1.8,9.9C21.6,19,24,20.4,26.6,21.6z"/>
					<path id="XMLID_31_" class="st2" d="M37.1,29.3c-1.6-3.9-6.5-13.9-14.8-19.1c0,0,5.6,7,6.1,12.5C30.8,24.2,34.8,26.8,37.1,29.3
						z"/>
					<path id="XMLID_30_" class="st2" d="M38.1,32.5c-0.6-0.7-8.3-7.4-8.8-7.5c0.3,2.1,1,11.8,1,11.8c3.1,1.8,8.6,5.9,9.7,7
						c-0.3-3.1-0.6-5.8-1.2-8.4C38.6,34.6,38.4,33.1,38.1,32.5z"/>
					<path id="XMLID_29_" class="st2" d="M0.4,6.9v1.8c1.2-0.8,3.5-1.9,5.4-2.4C4.6,6.3,1.8,6.7,0.4,6.9z"/>
					<path id="XMLID_28_" class="st2" d="M11.4,6.8c0,0-4.8-0.6-11,3.8v3.6c1.6,0.1,3.3,0.2,4.5,0.3C7.2,10.2,11.5,6.8,11.4,6.8z"/>
					<path id="XMLID_27_" class="st2" d="M0.4,15.5v8.3c1-2.4,3.3-6.6,3.8-7.9C3,15.7,1.7,15.5,0.4,15.5z"/>
					<path id="XMLID_26_" class="st2" d="M16.1,32C11,30.3,5.6,28.5,0.4,28v14.1c4.4,0.9,9.4,2.4,13.4,3.4
						C14.6,41.1,15.5,36.6,16.1,32z"/>
					<path id="XMLID_25_" class="st2" d="M0.4,52.2c3.7,0,8.1,0,11.7,0c0.3-1.8,0.9-3.3,1.2-5.2c-3.8-1.1-8.7-2.5-12.9-3.4V52.2z"/>
					<path id="XMLID_24_" class="st2" d="M13.8,52.2c0.1,0,0.3,0,0.4,0h13.1c0-0.3,0-0.5,0-0.6c-1.3-0.6-9-3-12.5-4.1
						C14.5,49.3,14.1,50.6,13.8,52.2z"/>
					<path id="XMLID_23_" class="st2" d="M30.3,38.5c0,4.2-0.5,8-1.2,12c1,0.4,2.1,1.1,3.2,1.7h7.3c0.2-2.5,0.4-5.6,0.4-6.4
						C39.1,45,34.1,40.9,30.3,38.5z"/>
					<path id="XMLID_22_" class="st2" d="M41.5,47.7c0.1,1.7-0.1,3.1-0.3,4.5h3.7c0-0.1,0-0.1,0-0.2C43.8,50.5,42.8,49,41.5,47.7z"
						/>
					<path id="XMLID_21_" class="st2" d="M43,39.2c-0.8-1.3-1.7-2.8-2.6-3.8c0.6,3.3,1.2,6.4,1.1,10c1.5,1.7,3.9,4.2,4.9,6.7
						c0,0.1,0,0.1,0.1,0.2h1.3c-0.5-2.7-1.5-5.8-1.9-7C45,42.9,44.1,41,43,39.2z"/>
				</g>
			</g>
			<polygon id="XMLID_18_" class="st0" points="106.3,0 117.7,0 106.4,17.3 106.3,0 			"/>
			<polygon id="XMLID_17_" class="st0" points="121.2,31.5 121.2,52.2 108,52.2 121.2,31.5 			"/>
			<polygon id="XMLID_16_" class="st0" points="151.5,31.5 151.5,52.2 138.1,52.2 151.5,31.5 			"/>
			<polygon id="XMLID_15_" class="st0" points="140.3,0 140.3,14.3 149.9,0 140.3,0 			"/>
			<polygon id="XMLID_14_" class="st0" points="171.5,52.2 190,52.2 190,0 171.5,0 171.5,52.2 			"/>
			<rect id="XMLID_13_" x="60.3" class="st0" width="17" height="52.2"/>
			<path id="XMLID_12_" class="st0" d="M84.8,0H60.3v10.3v41.9h17V35V24v-9.3h3.4H82c2.6,0,4.7,2.1,4.7,4.7c0,2.6-2.1,4.7-4.7,4.7
				h-1.3v12.2v0.5v0.1l0.1-0.1h4.1c10.1,0,18.3-8.2,18.3-18.3C103.2,8.2,95,0,84.8,0z"/>
		</g>
		<g id="XMLID_4_">
			<path id="XMLID_8_" d="M195.9,43.7l-0.6,0c-2.3,0.3-3.7,1.7-4,4l0,0.6c0.3,2.3,1.7,3.7,4,4.1h0.7l0,0c2.3-0.4,3.7-1.7,4-4.1
				l0-0.6C199.6,45.4,198.3,44,195.9,43.7z M198.3,50.3c-0.7,0.7-1.6,1.2-2.7,1.2c-0.1,0-0.3,0-0.4,0c-0.9-0.1-1.9-0.7-2.4-1.5
				c-0.4-0.6-0.8-1.5-0.5-2.7c0.4-1.6,1.7-2.6,3.3-2.6c0,0,0.1,0,0.1,0c1.8,0,3.2,1.3,3.4,3C199.2,48.9,198.7,49.8,198.3,50.3z"/>
			<path id="XMLID_5_" d="M196.3,48.4c0.3-0.1,0.6-0.3,0.8-0.5c0.2-0.3,0.3-0.7,0.2-1.1c-0.2-1-1.2-1-2.2-1c-0.2,0-0.4,0-0.6,0
				c-0.3,0-0.5,0-0.8,0l-0.1,0v4.7l0.1,0c0.1,0,0.3,0,0.4,0c0.2,0,0.3,0,0.4,0l0.1,0v-1.9c1-0.1,1.3,0.5,1.6,1.2
				c0.1,0.2,0.3,0.5,0.4,0.7l0,0l0,0c0.1,0,0.2,0,0.3,0c0.1,0,0.1,0,0.2,0c0.1,0,0.2,0,0.3,0l0.2,0.1l-0.1-0.2
				C197.2,49.5,196.8,48.8,196.3,48.4z M196.3,47.5c-0.2,0.3-0.8,0.3-1.2,0.3c-0.2,0-0.3,0-0.5,0v-1.2c0.1,0,0.2,0,0.4,0
				c0.1,0,0.2,0,0.3,0c0.7,0,1.1,0.1,1.1,0.5C196.5,47.2,196.4,47.4,196.3,47.5z"/>
		</g>
	</g>
</g>
</svg>
