<?xml version="1.0" encoding="utf-8"?>
<!-- Generator: Adobe Illustrator 19.0.0, SVG Export Plug-In . SVG Version: 6.00 Build 0)  -->
<svg version="1.1" id="Layer_1" xmlns="http://www.w3.org/2000/svg" xmlns:xlink="http://www.w3.org/1999/xlink" x="0px" y="0px"
	 viewBox="60.6 345.7 275 101.9" style="enable-background:new 60.6 345.7 275 101.9;" xml:space="preserve">
<style type="text/css">
	.st0{fill:#089E4A;}
	.st1{fill:#0DA04A;}
	.st2{fill:#0CA04B;}
	.st3{fill:#0AA44F;}
	.st4{fill:#149F49;}
	.st5{fill:none;stroke:#149F49;stroke-width:8;stroke-miterlimit:10;}
</style>
<g id="XMLID_21_">
	<g id="XMLID_35_">
		<path id="XMLID_75_" class="st0" d="M317.7,407.9c0,1.4,0,2.5,0,3.6c-5,3.5-12.5,2.9-16.7-1.4c-4.7-4.8-5.1-14-0.9-19.7
			c3.9-5.2,11.5-6.9,17.5-3.8c0.3,1.3,0.3,2.6,0,3.9c-7.2-2.4-11-1.8-13.8,2.3c-2.8,4-2.6,10.7,0.4,14.2
			C307,410.3,311.4,410.7,317.7,407.9z"/>
		<path id="XMLID_74_" class="st1" d="M335.4,409.4c0.3,1.2,0.3,2.2,0,3.2c-6.3,2.9-11,0-11.1-6.8c0-5.3,0-10.7,0-16.1
			c-1.7-0.1-3.1-0.2-4.4-0.3c-0.6-1.1-0.4-2.1-0.2-3.2c1.3-1,2.8,0,4.3-0.8c0.8-1.9-0.1-4.1,0.5-6.2c1.1-0.7,2.4-1.1,4.1-1.3
			c0,2.6,0,5.1,0,7.9c2.5,0,4.6,0,6.7,0c0.4,1.4,0.5,2.4-0.1,3.8c-2,0-4.1,0-6.4,0c0,5.7-0.2,11.2,0.1,16.6
			C328.9,409.4,330.9,410.3,335.4,409.4z"/>
		<path id="XMLID_73_" class="st1" d="M260.8,385.8c1.6,0,2.8,0,4,0c0.8,1.1,0.4,2.2,0.4,3.3c0,7.6,0,15.2,0,22.9
			c0,2.6-0.2,5.1-1.2,7.6c-2.2,5.3-7,7.4-12.6,5.4c-0.6-1.1-0.3-2.3-0.2-3.5c0.9-0.7,1.6,0.2,2.3,0.4c3.1,0.6,5.3-0.5,6.4-3.4
			c0.8-1.9,0.9-4,0.9-6.1C260.8,403.6,260.8,394.9,260.8,385.8z"/>
		<path id="XMLID_72_" class="st2" d="M218.3,412.9c-1.6,0-2.8,0-4.3,0c0-9,0-17.9,0-26.8c1.2-0.7,2.5-0.3,3.8-0.3
			c0.9,1.2,0.1,2.6,0.6,4.4c2.3-3.5,5-5.9,9.3-4.6c0.6,1.3,0.3,2.6,0.2,4.3c-2.5-0.6-4.9-1-6.9,1c-2.2,2.2-2.8,5-2.9,7.9
			C218.3,403.4,218.3,408,218.3,412.9z"/>
		<path id="XMLID_71_" class="st3" d="M266.1,376c-0.2,1.8-1.2,2.9-3,2.8c-1.6,0-2.8-1-2.8-2.7c-0.1-1.8,1.1-3,2.8-3
			C264.8,373.1,265.8,374.2,266.1,376z"/>
		<g>
			<path class="st0" d="M199,375.1c-4.4-0.5-9-0.1-13.5-0.1c0,12.7,0,25.3,0,37.9c1.4,0,2.6,0,4.3,0c0-4.9,0-9.4,0-14.1
				c3-0.2,5.8-0.2,8.5-0.6c6.4-0.9,10.5-5.8,10.5-12.1C208.8,380,205.4,375.8,199,375.1z M203,390.6c-3.1,4.9-8.1,3.8-13,3.8
				c0-5.3,0-10.2,0-15.6c4.6,0.5,9.6-1.3,12.9,3.3C204.7,384.7,204.6,387.9,203,390.6z"/>
		</g>
		<g>
			<path class="st0" d="M294.2,395.2c-0.7-5.3-3.6-8.9-8-9.8c-5.3-1.2-10.3,0.7-13.2,5.2c-2.6,3.9-3,8.3-2.2,12.7
				c1.8,10,13.6,14.1,21.6,7.5c0.1-1.1,0.3-2.2-0.1-3.3c-11,4.3-16.8,2-16.9-7c6.2,0,12.5,0,18.8,0
				C294.7,398.5,294.4,396.8,294.2,395.2z M289.6,396.6c-4.7,0-9.3,0-14,0c0.5-5.1,3.8-8.1,8.3-7.7
				C287.6,389.2,289.8,392.1,289.6,396.6z"/>
		</g>
		<g>
			<path class="st0" d="M253.8,391.1c-3-5.3-7.9-6.5-13.5-5.9c-7.2,0.7-11.7,6.2-11.7,14.5c0,6.8,3.4,12,9.1,13.4
				c5.7,1.4,10.9,0.6,14.8-4.2C256.2,404.6,256.7,396.4,253.8,391.1z M239.4,409.5c-2.1-0.6-3.8-1.8-4.7-3.7
				c-2.2-4.4-2.2-9,0.3-13.2c1.9-3.2,5.1-4,8.6-3.6c3.3,0.3,5.4,2.2,6.6,5.3c0.6,1.7,0.8,3.4,0.8,5.1
				C251,407.3,246.1,411.5,239.4,409.5z"/>
		</g>
	</g>
	<g id="XMLID_22_">
		<g id="XMLID_23_">
			<g>
				<path class="st4" d="M93.6,387.4c0-2.6-1.8-3.6-7.2-3.6v11.1c7.6,0,7.2-3.5,7.2-3.5S93.6,390.1,93.6,387.4z"/>
				<path class="st4" d="M60.6,356V437l60.2,10.5V345.7L60.6,356z M101.3,391.6C101.3,391.6,101.3,391.6,101.3,391.6
					c0,0,0,0.2,0,0.8c0,2.5-1.6,9-9.6,9h-5.4v13.9l-7.1-0.8v-37l13.5-0.9c0,0,8.7,0.1,8.7,9.1C101.3,390.9,101.3,391.5,101.3,391.6z
					"/>
			</g>
			<g id="XMLID_24_">
				<path id="XMLID_29_" class="st5" d="M120.8,434.5h36.9c1.5,0,2.7-1.2,2.7-2.6V360c0-1.4-1.2-2.6-2.7-2.6h-36.9"/>
				<g id="XMLID_25_">
					<path id="XMLID_28_" class="st4" d="M140.8,413.4c0.9-0.9,0.9-2.5,0-3.4l-10-10c-0.9-0.9-2.5-0.9-3.4,0l-10,10
						c-0.9,0.9-0.9,2.5,0,3.4l10,10c0.9,0.9,2.5,0.9,3.4,0L140.8,413.4z"/>
					<path id="XMLID_27_" class="st4" d="M132.6,387.7l10,10c0.9,0.9,2.5,0.9,3.4,0l10-10"/>
					<polyline id="XMLID_26_" class="st5" points="144.3,390.9 144.3,369.9 120.8,369.9 					"/>
				</g>
			</g>
		</g>
	</g>
</g>
<g id="XMLID_79_">
</g>
<g id="XMLID_80_">
</g>
<g id="XMLID_81_">
</g>
<g id="XMLID_82_">
</g>
<g id="XMLID_83_">
</g>
<g id="XMLID_84_">
</g>
</svg>
