<?xml version="1.0" encoding="utf-8"?>
<!-- Generator: Adobe Illustrator 19.0.0, SVG Export Plug-In . SVG Version: 6.00 Build 0)  -->
<svg version="1.1" id="Layer_1" xmlns="http://www.w3.org/2000/svg" xmlns:xlink="http://www.w3.org/1999/xlink" x="0px" y="0px"
	 viewBox="64 343.1 282 107.9" style="enable-background:new 64 343.1 282 107.9;" xml:space="preserve">
<style type="text/css">
	.st0{fill:#231F20;}
	.st1{fill:none;stroke:#404041;stroke-miterlimit:10;}
	.st2{fill:url(#SVGID_1_);}
	.st3{fill:url(#SVGID_2_);}
	.st4{fill:url(#SVGID_3_);}
	.st5{fill:url(#SVGID_4_);}
	.st6{fill:url(#SVGID_5_);}
	.st7{fill:#26285F;}
	.st8{fill:url(#SVGID_6_);}
	.st9{fill:#1E1B4E;}
	.st10{fill:#272E69;}
	.st11{fill:url(#SVGID_7_);}
	.st12{fill:url(#SVGID_8_);}
	.st13{fill:url(#SVGID_9_);}
	.st14{fill:#121325;}
	.st15{fill:url(#SVGID_10_);}
</style>
<g id="XMLID_21_">
</g>
<g id="XMLID_22_">
</g>
<g id="XMLID_23_">
</g>
<g id="XMLID_24_">
</g>
<g id="XMLID_25_">
</g>
<g id="XMLID_26_">
</g>
<g>
	<g>
		<path d="M194.3,419.8c3.3,1.1,5.3,4.3,6.3,9c1.4,6.2,2.3,10,3.2,11.7h-4.9c-0.7-1.2-1.6-5-2.8-10.4c-1.2-6-3.6-8.7-8.7-8.7h-5.3
			v19.1h-4.7v-42.5c2.7-0.6,6.4-0.9,9.8-0.9c5.6,0,9.3,1.1,11.8,3.5c2,1.9,3.2,4.8,3.2,8c0,5.7-3.5,9.4-8,11v0.2H194.3z
			 M187.7,417.8c6,0,9.9-3.4,9.9-8.6c0-6.4-4.8-8.4-10.1-8.4c-2.5,0-4.4,0.2-5.3,0.5v16.5H187.7z"/>
		<path d="M232.9,440.4h-22.8v-43.2h21.8v4h-17.1v14.6h16.1v3.9h-16.1v16.7h18.1V440.4z"/>
		<path d="M268.8,397.3l-14.9,43.2h-5l-13.7-43.1h5.1l6.6,21.6c1.8,5.8,3.4,11.3,4.5,16.3h0.2c1.1-5,2.9-10.6,4.8-16.3l7.2-21.7
			H268.8z"/>
		<path d="M273.5,397.3h4.7v43.2h-4.7V397.3z"/>
		<path d="M313.1,401.3h-12.7v39.2h-4.7v-39.1H283v-4h30.1V401.3z"/>
	</g>
	<g>
		<path class="st0" d="M196.2,380.9H195l-3.6-9.7h-10.9l-3.5,9.7h-1.3l9.9-26.6h0.9L196.2,380.9z M191,370l-3.5-9.5
			c-0.7-1.9-1.1-3.2-1.5-4.7h-0.1c-0.5,1.8-0.9,2.9-1.5,4.6l-3.6,9.5H191V370z"/>
		<path class="st0" d="M218.1,370.3c0,8.2-4.4,11-9.2,11c-4.3,0-8.6-2.5-8.6-10.6v-16.4h1.2v16.1c0,7.1,3.4,9.9,7.4,9.9
			c4.6,0,7.8-3.1,7.8-9.9v-16.1h1.2v16H218.1z"/>
		<path class="st0" d="M239.9,355.4H231v25.5h-1.2v-25.5h-8.9v-1.1h19V355.4z"/>
		<path class="st0" d="M264,367.3c0,9.5-5.8,14-11.7,14c-6.3,0-11.5-5-11.5-13.5c0-8.9,5.2-14,11.8-14
			C259.2,353.8,264,359,264,367.3z M242.1,367.8c0,5.7,3.6,12.5,10.2,12.5s10.4-6.1,10.4-12.9c0-5.7-3.1-12.5-10.1-12.5
			C245.4,354.9,242.1,361.4,242.1,367.8z"/>
		<path class="st0" d="M268.8,354.5c2-0.3,4.2-0.6,6.6-0.6c8.3,0,13.8,4.1,13.8,12.9c0,12.7-10.1,14.1-14.7,14.1
			c-1.9,0-3.7,0-5.7-0.2L268.8,354.5L268.8,354.5z M270,379.8c1.2,0.2,2.6,0.3,4.5,0.3c9,0,13.4-5.2,13.4-13.1
			c0-7.3-4-11.9-12.7-11.9c-2.2,0-3.9,0.2-5.1,0.5L270,379.8L270,379.8z"/>
		<path class="st0" d="M307.2,380.9H294v-26.6h12.6v1.1h-11.4v10.9h10.7v1.1h-10.7v12.4h12V380.9z"/>
		<path class="st0" d="M322.9,356c-0.7-0.5-2.2-1.3-4.4-1.3c-4.5,0-6.1,3-6.1,5.2c0,3.1,1.6,4.8,5.6,6.3c4.3,1.8,6.7,3.7,6.7,7.7
			c0,3.8-2.8,7.1-8.1,7.1c-2.2,0-4.7-0.7-6.2-1.8l0.6-1c1.5,1.1,3.5,1.8,5.6,1.8c4.2,0,6.7-2.6,6.7-6c0-3.2-1.5-5-5.4-6.5
			c-4.3-1.5-6.8-3.7-6.8-7.3c0-3.8,3.1-6.6,7.4-6.6c2.4,0,4.3,0.7,5.1,1.3L322.9,356z"/>
		<path class="st0" d="M346,380.9h-1.5l-13.4-11.5v0.1v11.4h-1.4v-26.6h1.2v13.7h0.1c0.8-1,1.6-1.8,2.3-2.6l10-11.1h1.5l-13.1,14.3
			L346,380.9z"/>
	</g>
	<line class="st1" x1="161.1" y1="343.1" x2="161.1" y2="451"/>
	<g>
		
			<linearGradient id="SVGID_1_" gradientUnits="userSpaceOnUse" x1="117.935" y1="414.7909" x2="107.7675" y2="432.2608" gradientTransform="matrix(1 0 0 -1 0 794.4)">
			<stop  offset="0" style="stop-color:#293D7B"/>
			<stop  offset="0.9951" style="stop-color:#263A7D"/>
		</linearGradient>
		<polygon class="st2" points="103.3,345.9 125.7,380.4 106.9,373.3 		"/>
		
			<linearGradient id="SVGID_2_" gradientUnits="userSpaceOnUse" x1="121.7061" y1="399.0063" x2="110.479" y2="417.3307" gradientTransform="matrix(1 0 0 -1 0 794.4)">
			<stop  offset="0" style="stop-color:#2F4786"/>
			<stop  offset="1" style="stop-color:#224082"/>
		</linearGradient>
		<polygon class="st3" points="123.7,395 125.7,380.4 106.9,373.3 110,397.9 		"/>
		
			<linearGradient id="SVGID_3_" gradientUnits="userSpaceOnUse" x1="108.8175" y1="361.3722" x2="123.529" y2="382.278" gradientTransform="matrix(1 0 0 -1 0 794.4)">
			<stop  offset="4.926070e-003" style="stop-color:#27397C"/>
			<stop  offset="1" style="stop-color:#253C7F"/>
		</linearGradient>
		<polygon class="st4" points="145.4,435.4 110,397.9 90.1,404.6 87.8,419.4 138.2,446.3 		"/>
		
			<linearGradient id="SVGID_4_" gradientUnits="userSpaceOnUse" x1="100.453" y1="391.3029" x2="97.3561" y2="405.4974" gradientTransform="matrix(1 0 0 -1 0 794.4)">
			<stop  offset="0" style="stop-color:#201D50"/>
			<stop  offset="1" style="stop-color:#24285D"/>
		</linearGradient>
		<polygon class="st5" points="90.1,404.6 95.3,382 110,397.9 		"/>
		
			<linearGradient id="SVGID_5_" gradientUnits="userSpaceOnUse" x1="111.4471" y1="421.2436" x2="103.3172" y2="423.3729" gradientTransform="matrix(1 0 0 -1 0 794.4)">
			<stop  offset="0" style="stop-color:#272C66"/>
			<stop  offset="1" style="stop-color:#283270"/>
		</linearGradient>
		<polygon class="st6" points="103.3,345.9 95.3,382 110,397.9 		"/>
		<polygon class="st7" points="76,360.5 95.3,382 98,369.9 		"/>
		
			<linearGradient id="SVGID_6_" gradientUnits="userSpaceOnUse" x1="79.0392" y1="395.3913" x2="84.7169" y2="418.6192" gradientTransform="matrix(1 0 0 -1 0 794.4)">
			<stop  offset="0" style="stop-color:#15123E"/>
			<stop  offset="1" style="stop-color:#212053"/>
		</linearGradient>
		<polygon class="st8" points="72,394.1 76,360.5 95.3,382 90.1,404.6 		"/>
		<polygon class="st9" points="103.3,345.9 76,360.5 98,369.9 		"/>
		<polygon class="st10" points="90.1,404.6 81.3,416.8 87.8,419.4 		"/>
		
			<linearGradient id="SVGID_7_" gradientUnits="userSpaceOnUse" x1="72.1962" y1="346.9705" x2="83.0364" y2="369.6188" gradientTransform="matrix(1 0 0 -1 0 794.4)">
			<stop  offset="0" style="stop-color:#283270"/>
			<stop  offset="1" style="stop-color:#27397C"/>
		</linearGradient>
		<polygon class="st11" points="87.8,419.4 82,448.1 64,443.4 81.3,416.8 		"/>
		
			<linearGradient id="SVGID_8_" gradientUnits="userSpaceOnUse" x1="64.3381" y1="353.9818" x2="73.6295" y2="377.791" gradientTransform="matrix(1 0 0 -1 0 794.4)">
			<stop  offset="0" style="stop-color:#272962"/>
			<stop  offset="1" style="stop-color:#262860"/>
		</linearGradient>
		<polygon class="st12" points="81.3,416.8 69.4,407.6 64,443.4 		"/>
		
			<linearGradient id="SVGID_9_" gradientUnits="userSpaceOnUse" x1="80.2673" y1="378.1529" x2="79.7516" y2="388.22" gradientTransform="matrix(1 0 0 -1 0 794.4)">
			<stop  offset="4.926070e-003" style="stop-color:#212053"/>
			<stop  offset="1" style="stop-color:#232459"/>
		</linearGradient>
		<polygon class="st13" points="69.4,407.6 90.1,404.6 81.3,416.8 		"/>
		<polygon class="st14" points="69.4,407.6 72,394.1 90.1,404.6 		"/>
		
			<linearGradient id="SVGID_10_" gradientUnits="userSpaceOnUse" x1="102.4443" y1="422.693" x2="103.2187" y2="437.2111" gradientTransform="matrix(1 0 0 -1 0 794.4)">
			<stop  offset="0" style="stop-color:#27316D"/>
			<stop  offset="1" style="stop-color:#28316F"/>
		</linearGradient>
		<polygon class="st15" points="106.9,373.3 98,369.9 103.3,345.9 		"/>
	</g>
</g>
</svg>
