<?xml version="1.0" encoding="utf-8"?>
<!-- Generator: Adobe Illustrator 19.0.0, SVG Export Plug-In . SVG Version: 6.00 Build 0)  -->
<svg version="1.1" id="Layer_1" xmlns="http://www.w3.org/2000/svg" xmlns:xlink="http://www.w3.org/1999/xlink" x="0px" y="0px"
	 viewBox="-164 343.1 282 93.7" style="enable-background:new -164 343.1 282 93.7;" xml:space="preserve">
<style type="text/css">
	.st0{fill:#231F20;}
	.st1{fill:none;stroke:#404041;stroke-miterlimit:10;}
	.st2{fill:url(#SVGID_1_);}
	.st3{fill:url(#SVGID_2_);}
	.st4{fill:url(#SVGID_3_);}
	.st5{fill:url(#SVGID_4_);}
	.st6{fill:url(#SVGID_5_);}
	.st7{fill:#26285F;}
	.st8{fill:url(#SVGID_6_);}
	.st9{fill:#1E1B4E;}
	.st10{fill:#272E69;}
	.st11{fill:url(#SVGID_7_);}
	.st12{fill:url(#SVGID_8_);}
	.st13{fill:url(#SVGID_9_);}
	.st14{fill:#121325;}
	.st15{fill:url(#SVGID_10_);}
</style>
<g id="XMLID_21_">
</g>
<g id="XMLID_22_">
</g>
<g id="XMLID_23_">
</g>
<g id="XMLID_24_">
</g>
<g id="XMLID_25_">
</g>
<g id="XMLID_26_">
</g>
<g>
	<g>
		<path d="M-33.7,409.9c3.3,0.9,5.3,3.7,6.3,7.7c1.4,5.3,2.3,8.6,3.2,10.1h-4.9c-0.7-1-1.6-4.3-2.8-9c-1.2-5.2-3.6-7.5-8.7-7.5h-5.3
			v16.4h-4.7v-36.6c2.7-0.5,6.4-0.8,9.8-0.8c5.6,0,9.3,0.9,11.8,3c2,1.6,3.2,4.1,3.2,6.9c0,4.9-3.5,8.1-8,9.5L-33.7,409.9
			L-33.7,409.9L-33.7,409.9z M-40.3,408.2c6,0,9.9-2.9,9.9-7.4c0-5.5-4.8-7.2-10.1-7.2c-2.5,0-4.4,0.2-5.3,0.4v14.2H-40.3z"/>
		<path d="M4.9,427.7h-22.8v-37.2H3.9v3.4h-17.1v12.6H2.9v3.4h-16.1v14.4H4.9V427.7z"/>
		<path d="M40.8,390.5l-14.9,37.2h-5L7.2,390.6h5.1l6.6,18.6c1.8,5,3.4,9.7,4.5,14h0.2c1.1-4.3,2.9-9.1,4.8-14l7.2-18.7H40.8z"/>
		<path d="M45.5,390.5h4.7v37.2h-4.7V390.5z"/>
		<path d="M85.1,394H72.4v33.7h-4.7v-33.7H55v-3.4h30.1V394z"/>
	</g>
	<g>
		<path class="st0" d="M-31.8,376.4H-33l-3.6-8.4h-10.9l-3.5,8.4h-1.3l9.9-22.9h0.9L-31.8,376.4z M-37,367l-3.5-8.2
			c-0.7-1.6-1.1-2.8-1.5-4h-0.1c-0.5,1.5-0.9,2.5-1.5,4l-3.6,8.2L-37,367L-37,367z"/>
		<path class="st0" d="M-9.9,367.3c0,7.1-4.4,9.5-9.2,9.5c-4.3,0-8.6-2.2-8.6-9.1v-14.1h1.2v13.9c0,6.1,3.4,8.5,7.4,8.5
			c4.6,0,7.8-2.7,7.8-8.5v-13.9h1.2v13.8H-9.9z"/>
		<path class="st0" d="M11.9,354.5H3v22H1.8v-22h-8.9v-0.9h19L11.9,354.5L11.9,354.5z"/>
		<path class="st0" d="M36,364.7c0,8.2-5.8,12.1-11.7,12.1c-6.3,0-11.5-4.3-11.5-11.6c0-7.7,5.2-12.1,11.8-12.1S36,357.6,36,364.7z
			 M14.1,365.2c0,4.9,3.6,10.8,10.2,10.8s10.4-5.3,10.4-11.1c0-4.9-3.1-10.8-10.1-10.8C17.4,354,14.1,359.6,14.1,365.2z"/>
		<path class="st0" d="M40.8,353.7c2-0.3,4.2-0.5,6.6-0.5c8.3,0,13.8,3.5,13.8,11.1c0,10.9-10.1,12.1-14.7,12.1
			c-1.9,0-3.7,0-5.7-0.2L40.8,353.7L40.8,353.7z M42,375.5c1.2,0.2,2.6,0.3,4.5,0.3c9,0,13.4-4.5,13.4-11.3c0-6.3-4-10.2-12.7-10.2
			c-2.2,0-3.9,0.2-5.1,0.4L42,375.5L42,375.5z"/>
		<path class="st0" d="M79.2,376.4H66v-22.9h12.6v0.9H67.2v9.4h10.7v0.9H67.2v10.7h12V376.4z"/>
		<path class="st0" d="M94.9,355c-0.7-0.4-2.2-1.1-4.4-1.1c-4.5,0-6.1,2.6-6.1,4.5c0,2.7,1.6,4.1,5.6,5.4c4.3,1.5,6.7,3.2,6.7,6.6
			c0,3.3-2.8,6.1-8.1,6.1c-2.2,0-4.7-0.6-6.2-1.5l0.6-0.9c1.5,0.9,3.5,1.5,5.6,1.5c4.2,0,6.7-2.2,6.7-5.2c0-2.8-1.5-4.3-5.4-5.6
			c-4.3-1.3-6.8-3.2-6.8-6.3c0-3.3,3.1-5.7,7.4-5.7c2.4,0,4.3,0.6,5.1,1.1L94.9,355z"/>
		<path class="st0" d="M118,376.4h-1.5l-13.4-9.9v0.1v9.8h-1.4v-22.9h1.2v11.8h0.1c0.8-0.9,1.6-1.5,2.3-2.2l10-9.6h1.5l-13.1,12.3
			L118,376.4z"/>
	</g>
	<line class="st1" x1="-66.9" y1="343.9" x2="-66.9" y2="436.8"/>
	<g>
		
			<linearGradient id="SVGID_1_" gradientUnits="userSpaceOnUse" x1="-102.0684" y1="373.0247" x2="-111.2092" y2="357.3189" gradientTransform="matrix(1 0 0 1 0 2.4)">
			<stop  offset="0" style="stop-color:#293D7B"/>
			<stop  offset="0.9951" style="stop-color:#263A7D"/>
		</linearGradient>
		<polygon class="st2" points="-116.7,346 -94.3,375.7 -113.1,369.6 		"/>
		
			<linearGradient id="SVGID_2_" gradientUnits="userSpaceOnUse" x1="-98.644" y1="386.5322" x2="-108.8115" y2="369.9372" gradientTransform="matrix(1 0 0 1 0 2.4)">
			<stop  offset="0" style="stop-color:#2F4786"/>
			<stop  offset="1" style="stop-color:#224082"/>
		</linearGradient>
		<polygon class="st3" points="-96.3,388.2 -94.3,375.7 -113.1,369.6 -110,390.7 		"/>
		
			<linearGradient id="SVGID_3_" gradientUnits="userSpaceOnUse" x1="-111.4232" y1="420.403" x2="-97.8972" y2="401.1819" gradientTransform="matrix(1 0 0 1 0 2.4)">
			<stop  offset="4.926070e-003" style="stop-color:#27397C"/>
			<stop  offset="1" style="stop-color:#253C7F"/>
		</linearGradient>
		<polygon class="st4" points="-74.6,423 -110,390.7 -129.9,396.5 -132.2,409.3 -81.8,432.4 		"/>
		
			<linearGradient id="SVGID_4_" gradientUnits="userSpaceOnUse" x1="-119.6671" y1="392.5227" x2="-122.3104" y2="380.4077" gradientTransform="matrix(1 0 0 1 0 2.4)">
			<stop  offset="0" style="stop-color:#201D50"/>
			<stop  offset="1" style="stop-color:#24285D"/>
		</linearGradient>
		<polygon class="st5" points="-129.9,396.5 -124.7,377.1 -110,390.7 		"/>
		
			<linearGradient id="SVGID_5_" gradientUnits="userSpaceOnUse" x1="-109.0003" y1="367.0993" x2="-116.372" y2="365.1685" gradientTransform="matrix(1 0 0 1 0 2.4)">
			<stop  offset="0" style="stop-color:#272C66"/>
			<stop  offset="1" style="stop-color:#283270"/>
		</linearGradient>
		<polygon class="st6" points="-116.7,346 -124.7,377.1 -110,390.7 		"/>
		<polygon class="st7" points="-144,358.5 -124.7,377.1 -122,366.6 		"/>
		
			<linearGradient id="SVGID_6_" gradientUnits="userSpaceOnUse" x1="-140.1556" y1="389.1515" x2="-135.3349" y2="369.4296" gradientTransform="matrix(1 0 0 1 0 2.4)">
			<stop  offset="0" style="stop-color:#15123E"/>
			<stop  offset="1" style="stop-color:#212053"/>
		</linearGradient>
		<polygon class="st8" points="-148,387.5 -144,358.5 -124.7,377.1 -129.9,396.5 		"/>
		<polygon class="st9" points="-116.7,346 -144,358.5 -122,366.6 		"/>
		<polygon class="st10" points="-129.9,396.5 -138.7,407 -132.2,409.3 		"/>
		
			<linearGradient id="SVGID_7_" gradientUnits="userSpaceOnUse" x1="-147.9273" y1="431.4719" x2="-138.1099" y2="410.9605" gradientTransform="matrix(1 0 0 1 0 2.4)">
			<stop  offset="0" style="stop-color:#283270"/>
			<stop  offset="1" style="stop-color:#27397C"/>
		</linearGradient>
		<polygon class="st11" points="-132.2,409.3 -138,434 -156,429.9 -138.7,407 		"/>
		
			<linearGradient id="SVGID_8_" gradientUnits="userSpaceOnUse" x1="-154.3303" y1="425.4585" x2="-146.2599" y2="404.778" gradientTransform="matrix(1 0 0 1 0 2.4)">
			<stop  offset="0" style="stop-color:#272962"/>
			<stop  offset="1" style="stop-color:#262860"/>
		</linearGradient>
		<polygon class="st12" points="-138.7,407 -150.6,399.1 -156,429.9 		"/>
		
			<linearGradient id="SVGID_9_" gradientUnits="userSpaceOnUse" x1="-139.8018" y1="404.1508" x2="-140.243" y2="395.5382" gradientTransform="matrix(1 0 0 1 0 2.4)">
			<stop  offset="4.926070e-003" style="stop-color:#212053"/>
			<stop  offset="1" style="stop-color:#232459"/>
		</linearGradient>
		<polygon class="st13" points="-150.6,399.1 -129.9,396.5 -138.7,407 		"/>
		<polygon class="st14" points="-150.6,399.1 -148,387.5 -129.9,396.5 		"/>
		
			<linearGradient id="SVGID_10_" gradientUnits="userSpaceOnUse" x1="-117.5532" y1="365.7623" x2="-116.8873" y2="353.2785" gradientTransform="matrix(1 0 0 1 0 2.4)">
			<stop  offset="0" style="stop-color:#27316D"/>
			<stop  offset="1" style="stop-color:#28316F"/>
		</linearGradient>
		<polygon class="st15" points="-113.1,369.6 -122,366.6 -116.7,346 		"/>
	</g>
</g>
</svg>
