<svg id="Layer_1" data-name="Layer 1" xmlns="http://www.w3.org/2000/svg" viewBox="0 0 2807.33 723.75"><title>root</title><path d="M152.25,909.48a99.09,99.09,0,0,1-10.57-23.55c-5.73-7-5.49-16.12-8.46-24.11-1.34-3.6-2-7.47-3.1-11.18q-9.57-36.15-19.25-72.28c-2.93-11.9-6.63-23.61-9.2-35.6-.88-8.67-1.15-17.27,2.88-25.38,9.57-19.25,32.94-21.61,47.25-4.37,8,9.62,15.11,20,25.69,27.1a43.81,43.81,0,0,0,10.31,5.54c12.54,5,24.29,4.19,34.94-4.72,10.49-8.5,14.93-20.32,18-32.89,3.09-13.49,3-27.1,1.56-40.75a172.26,172.26,0,0,0-7.3-31.48c-3.2-9.85-8.2-18.81-13.54-27.6-1.82-3.25-4.31-6-6.47-9.05-8.06-10.08-17.33-18.6-29.76-23-12.08-4.62-23.14-2.71-33.29,5.12-6.26,4.65-10,11.14-13.15,18.07-3.77,7.64-5.31,15.9-6.76,24.19-1.71,5.05-.44,10.57-2.55,15.59-3.15,7.49-7.09,14.23-14.88,17.82-14.67,6-25.91.58-35.45-10.6-3.86-4.82-6-10.48-7.93-16.26-2.66-9.89-5.6-19.7-7.95-29.68-3.84-12.64-6.54-25.59-10.21-38.27-7-24-12.71-48.46-19.85-72.48-3.15-11.39-3.63-22.82-.52-34.3A63.57,63.57,0,0,1,40.83,439c8.32-11.93,20.31-18.31,33.85-22.35a24.49,24.49,0,0,1,4-1c12.56-3,25-6.65,37.42-10,11.25-3.32,22.77-5.64,33.93-9.27,13.31-2.87,26.27-7.1,39.48-10.31,5.38-1,10.53-2.84,15.78-4.3,5.52-1.32,11.11-2.38,16.36-4.65,11.7-6.05,20.86-13.85,19.83-28.69-3.46-12.2-10.63-18.08-24-19.62-9.9-.19-19.34-2.51-28.55-6-7-3.32-13.93-6.7-19.95-11.67-5.85-6.68-11.1-13.68-11.94-23-.06-3.68-.1-7.37,0-11.06a15.33,15.33,0,0,1,.33-2.69c4.41-15.24,12.28-28.11,25.54-37.31,1-.84,2-1.68,3-2.54,11.43-8.62,24.12-14.9,37.44-20a132.36,132.36,0,0,1,35.76-7.68c11.29.11,22.65-1.31,33.78,1.66,13.51,2.85,26.38,7.08,36.43,17.25a43.51,43.51,0,0,1,9.95,14.86c4.5,11.48,2,22.27-3.27,32.79-1.7,3.08-3.68,6-5.61,9-7.92,11-19,18.53-29.31,26.86a27,27,0,0,0-6.42,11c-2.06,4.15-.92,8.24.27,12.33,2.23,6.44,6.79,10.73,12.68,13.81,12.66,5.62,24.77,1.46,36.92-2,7.25-2.18,14.63-3.83,21.92-5.86,3.8-.85,7.44-2.35,11.29-2.94s7.29-.14,8.28,4.59c-1.76,14.84-6,29.26-6.94,44.29-2.6,40.73,3.89,79.6,24.78,115,35.37,59.89,89.24,91.76,157.24,101.63,12.54,1.82,25.06,1.72,37.64,1.83,4.15,0,8.42-.55,12.35,1.51,6.23,6.64,5.72,15.76,8.68,23.62.69,2.21,1.34,4.44,2,6.66,2.71,11.83,6.23,23.44,9.35,35.16s6.42,23.67,9.29,35.59c3.48,12.2,6.58,24.5,10.12,36.67,1.23,6.52,3.5,12.81,4.26,19.44,2.1,23.18-7,40.93-26.13,53.81a49.77,49.77,0,0,1-10.31,4.51c-11.9,4.05-24.21,6.67-36.23,10.32-11.93,2.53-23.46,6.59-35.34,9.28-12.26,3.86-25.16,5.54-37,10.73a370.11,370.11,0,0,0-36.07,9.07c-11.77,3.37-23.4,3.82-34.71-1.79-3.72-2.35-6.65-5.58-9.59-8.79-7.26-12.28-5.65-23.78,3.09-34.64,1.53-1.64,3.19-3.16,4.87-4.64,12.41-8.08,23.28-17.66,30.19-31.08,5.76-12.48,6.77-24.71-1.78-36.48-7-9.34-15.93-15.7-27.39-18.36-11.69-3.62-23.67-4.62-35.82-4.09-11.14-.21-21.85,2.48-32.58,4.95-25.58,6.66-47.61,18.89-63.83,40.38a39.4,39.4,0,0,0-6.71,13.56c-4.81,12.89-1,24,6.94,34.34,6.45,7.24,14.78,11.33,23.85,14.17,11.59,3.79,24,3.37,35.59,7.26,8.39,4.29,14.29,10.62,16.43,20,1.5,15.44-6.66,28.22-22.19,34.84-6,2.57-12.62,3.44-18.71,5.84-3.62.92-7.24,1.83-10.87,2.7-12.77,3-25.36,6.74-38,10.2-20,4.74-39.33,12-59.89,14.16l-10.27,2.38c-11.89,2.67-23.61,6.44-36.06,5.24l-20.92-7.77A20.62,20.62,0,0,1,152.25,909.48Z" transform="translate(-30.61 -206)" style="fill:#28a1c6"/><path d="M696,577.9C683.14,563.08,683.14,563.08,666,571c-114.35,52.93-245-13.33-270.12-137C374,326.12,452.26,219.34,561.79,207.3,600,203.09,636.3,209,670.58,226.62c9.19,7.07,19.67,12.1,29,19.15,36.49,27.66,59.9,63.94,70.3,108.08,10.69,45.4,5.43,89.42-16.23,131.15-7.2,13.87-7,13.91,5.24,24.32,2.5,2.12,5.66,3.45,7.54,6.29C777.27,527.5,789,538.56,800.34,550c12.85,12.92,25.61,25.94,38.71,38.6,7.74,7.49,14.67,15.73,22.48,23.13,5.71,6.35,6.28,14.35,7.24,22.24-1.49,9-2.08,18.39-8.63,25.73-2.47,2.21-5.2,4.21-6.27,7.6a13.85,13.85,0,0,1-2.94,4.24,54.77,54.77,0,0,1-17.45,9.84c-12.3,3.46-24.24,2.79-35.68-3.23-4.45-1.7-7.75-5.16-11.67-7.67a16.32,16.32,0,0,1-1.85-1.57c-2.18-2.25-4.37-4.49-6.62-6.67-1.39-1.38-2.78-2.76-4.19-4.12-3.11-3.1-6.19-6.21-9.36-9.24-.6-.53-1.16-1.1-1.71-1.68-3.75-4.1-7.79-7.91-11.71-11.85-1.92-2-3.89-4-5.91-5.89-4-4-8-8-12-12-1.93-2-3.88-4-5.9-5.92q-7.11-7.24-14.4-14.32C707.22,590.58,699,586.46,696,577.9Z" transform="translate(-30.61 -206)" style="fill:#373735"/><path d="M492.35,473.24c-13.6-18.64-23.12-38.81-25.94-62.15-7.28-60.42,35.11-118.7,95.08-129.89,65-12.12,127.75,30.16,139.54,94C713.26,441.44,669.6,503.89,602.91,515c-31.27,5.19-59.94-2.6-86.39-19.48A69,69,0,0,1,492.35,473.24Z" transform="translate(-30.61 -206)" style="fill:#fefefe"/><text transform="translate(914.27 286.12)" style="font-size:250px;fill:#28a1c6;font-family:OpenSans-Regular, Open Sans">Root Cause <tspan x="0" y="300">Analysis</tspan><tspan x="941.65" y="300" style="font-size:200px"> </tspan><tspan x="993.6" y="300">&amp; FMEA</tspan></text></svg>