<?xml version="1.0" encoding="utf-8"?>
<!-- Generator: Adobe Illustrator 19.0.0, SVG Export Plug-In . SVG Version: 6.00 Build 0)  -->
<svg version="1.1" id="Layer_1" xmlns="http://www.w3.org/2000/svg" xmlns:xlink="http://www.w3.org/1999/xlink" x="0px" y="0px"
	 viewBox="0 0 200 96.8" style="enable-background:new 0 0 200 96.8;" xml:space="preserve">
<style type="text/css">
	.st0{fill:#0365A3;}
	.st1{fill:#1171A9;}
	.st2{fill:#FBDD0F;}
	.st3{fill:#FFFFFF;}
	.st4{fill:#FDFEFF;}
	.st5{fill:#005D9E;}
	.st6{fill:#ABB537;}
	.st7{fill:#0361AA;}
	.st8{fill:#005E9E;}
	.st9{fill:#005C9C;}
	.st10{fill:#00609F;}
	.st11{fill:#005F9F;}
	.st12{fill:#035EA0;}
	.st13{fill:#005D9F;}
	.st14{fill:#015E9E;}
	.st15{fill:#025F9F;}
	.st16{fill:#FBD900;}
	.st17{fill:#FDE000;}
	.st18{fill:#0566A3;}
	.st19{fill:#005E9F;}
	.st20{fill:#0466A4;}
</style>
<g>
	<path class="st0" d="M189.4,96.8c-0.1,0-0.1,0-0.2,0c-0.4-0.2-0.9-0.1-1.3-0.1c-62.1,0-124.3,0-186.4,0c-0.4,0-0.9,0-1.3,0
		c-0.3-0.3-0.1-0.7-0.1-1c0-26.2,0-52.4,0-78.6c0-0.3,0-0.6,0.1-0.9c0.2-0.4,0.6-0.4,1-0.4c0.6,0,1.1,0,1.7,0c56,0,112,0,168,0
		c0.9,0,1.8-0.2,2.6,0.3c0.4,0.5,0.2,1.1,0.2,1.6c0,20,0,39.9,0,59.9c0,0.8,0.1,1.7,0.3,2.5c0.1,0.1,0.1,0.2,0.2,0.3
		c0.4,0.4,1,0.3,1.5,0.3c4.2,0,8.4,0,12.5,0c0.5,0,0.9-0.1,1.3,0.2c0.3,0.3,0.3,0.8,0.3,1.2c0,4.4,0,8.9,0,13.3
		C189.8,95.9,189.9,96.4,189.4,96.8z"/>
	<path class="st1" d="M0,16.2c0.1,0,0.1,0,0.2,0c0,26.7,0,53.5,0,80.1c0.6,0.4,1.1,0.3,1.6,0.3c61.9,0,123.9,0,185.8,0
		c0.5,0,1.1-0.1,1.6,0.2c-63.1,0-126.1,0-189.2,0C0,69.9,0,43.1,0,16.2z"/>
	<path class="st2" d="M200,80.8c-3.5,0-6.9,0-10.4-0.1c0-0.1,0.1-0.3,0.2-0.4c0.4-0.3,1-0.2,1.4-0.2c2.2,0,4.4,0,6.6,0
		c1.3,0,1.5-0.2,1.5-1.5c0-1,0-2.1,0-3.1c0-24.2,0-48.4,0-72.6c0-2.3,0-2.3-2.3-2.3c-6.9,0-13.9,0-20.8,0c-0.4,0-0.9,0-1.3,0
		c-0.5,0.1-0.8,0.4-0.9,0.9c-0.1,0.5,0,1.1,0,1.6c0,24.9,0,49.8,0,74.8c0,0.7,0.1,1.5-0.1,2.2c0,0.1-0.1,0.2-0.2,0.4
		c-0.1,0.1-0.2,0.1-0.3,0.1c0-0.4,0-0.8,0-1.2c0-20.7,0-41.4,0-62.1c0-0.4,0-0.8,0-1.2c0-5.4,0-10.8,0-16.1c8.9,0,17.7,0,26.6,0
		C200,26.9,200,53.9,200,80.8z"/>
	<path class="st3" d="M20.6,51.2c-0.1,0.2-0.2,0.4-0.5,0.4c-1.3,0-2.5,0-3.8,0c0-7.5,0-14.9,0-22.2c0.2-0.3,0.5-0.2,0.8-0.2
		c3.5,0,6.9,0,10.4,0c1.4,0,2.8,0.3,4.1,0.9c2.5,1.3,3.4,3.5,3.3,6.1c-0.1,2.7-1.5,4.6-4,5.7c-0.3,0.1-0.6,0.2-0.8,0.3
		c0,0,0,0.1-0.1,0.2c0.8,1,1.6,2.1,2.4,3.2c0.3,0.4,0.5,0.8,0.9,1.1c1.5,1.3,0.9,3,1,4.7c-1.5,0.3-2.6,0.2-3.5-1.1
		c-1.5-2.2-3.2-4.2-4.8-6.3c-0.8-1.1-1.7-1.7-3.1-1.5c-0.7,0.1-1.4-0.3-2.1,0.2C20.7,45.6,20.8,48.4,20.6,51.2z"/>
	<path class="st3" d="M20.6,73c0.1,2.7,1.5,4.2,4.3,4.3c2.6,0.1,4.3-1.2,4.7-3.7c-0.1-0.2-0.1-0.4,0.1-0.5c0.2-0.4,0.1-0.9,0.1-1.3
		c0-4.1,0-8.2,0-12.3c0-0.4,0-0.7,0-1.2c1.4,0,2.8,0,4.1,0c0.3,0.3,0.2,0.7,0.2,1.1c0,4.2,0,8.4,0,12.6c0,2.5-0.4,5-2.4,6.8
		c-3.1,2.8-6.7,2.8-10.4,1.7c-3.4-1.1-5-3.8-5.1-7.2c-0.1-4.8-0.1-9.5-0.1-14.3c0-0.2,0.1-0.4,0.1-0.7c1.3,0,2.5,0,3.8,0
		c0.3,0,0.4,0.2,0.5,0.4c0.2,0.2,0.1,0.4,0.1,0.6c0,4.4,0,8.9,0,13.3C20.7,72.7,20.7,72.8,20.6,73z"/>
	<path class="st3" d="M58,45.2c-0.1,1.3,0.5,2.3,1.6,2.8c1.5,0.7,3,0.3,4.3-1c1.1,0,2.3,0,3.5,0c0.1,0,0.2,0,0.5,0.1
		c-0.3,1.7-1.1,3.1-2.6,3.9c-3,1.5-6.1,1.5-8.9-0.4c-2.9-2-3.5-5.1-3.1-8.4c0.7-5.8,5.7-7.8,10.4-6.4c2.9,0.9,4.6,3.6,4.8,7.2
		c0,0.7,0.2,1.4-0.2,2.2C64.9,45.2,61.5,45.2,58,45.2z"/>
	<path class="st3" d="M94.2,74.3c-3.6,0-7,0-10.6,0c0.1,1.4,0.6,2.3,1.7,2.7c1.6,0.6,3.1,0.5,4.2-0.9c1.4,0,2.6,0,3.9,0
		c0.3,0.4,0.1,0.7,0,1c-0.9,2.5-2.9,3.6-5.4,3.9c-6.6,0.6-9.9-4.4-8.9-10.3c0.7-4.1,3.8-6.5,8-6.3c3.9,0.2,6.7,2.8,7.1,6.9
		C94.3,72.2,94.4,73.2,94.2,74.3z"/>
	<path class="st3" d="M51.8,39.1c-1.5,3.6-2.9,7.2-4.4,10.8c-0.6,1.4-1.1,2.9-1.8,4.3c-1.2,2.5-3.2,3.8-6,3.7
		c-0.8,0-1.7,0.5-2.3-0.4c-0.2-1-0.2-1.9,0-2.9c0.6-0.7,1.4-0.3,2.2-0.4c1.3-0.1,1.9-0.5,2.3-1.8c0.2-0.6,0-1.1-0.2-1.6
		c-1.7-4-3.3-8-4.9-12c-0.2-1-0.2-1.9,0-2.9c0.1-0.3,0.3-0.4,0.7-0.4c0.8,0,1.7,0,2.6,0c1.4,3.8,2.7,7.7,4,11.5c0.1,0,0.2,0,0.4,0
		c1.3-3.8,2.7-7.6,4.1-11.5c0.9,0,1.8,0,2.7,0c0.3,0,0.5,0.2,0.6,0.4C52,37.1,52,38.1,51.8,39.1z"/>
	<path class="st3" d="M145.4,64.8c1.2,0,2.1,0,3.3,0c1.4,3.8,2.7,7.6,4.1,11.4c0.1,0,0.2,0,0.3,0c1.4-3.8,2.7-7.6,4.1-11.5
		c1.1-0.1,2.1-0.1,3.3,0c0,1.3,0.3,2.6-0.2,3.8c-1.8,4.6-3.6,9.1-5.5,13.6c-0.1,0.3-0.3,0.6-0.4,0.9c-1.5,3.1-3.4,4.3-7.9,3.8
		c-0.2-1.1,0-2.2-0.1-3.3c0.6-0.4,1.1-0.2,1.6-0.2c1.9-0.1,2.9-1.6,2.2-3.4c-1.4-3.5-2.8-7-4.3-10.5C145.2,68,145.4,66.4,145.4,64.8
		z"/>
	<path class="st3" d="M114.8,43.7c0,8.1-7.7,9.8-12.5,7.1c-1.2-0.7-2-1.7-2.6-2.9c-1.4-3.1-1.3-6.2,0.4-9.1c1.4-2.6,5-3.9,8.5-3.2
		C112.6,36.3,114.8,39.3,114.8,43.7z"/>
	<path class="st3" d="M47.8,70c-0.3-1.3-0.9-1.8-2.2-1.9c-1.5-0.2-2.9,0.5-3.4,1.6c-0.2,0.5-0.5,1-0.4,1.5c0.1,0,0.1,0.1,0.1,0.1
		c0,0,0,0-0.1,0c-0.3,1.2-0.1,2.4-0.1,3.7c0,1.6,0,3.1,0,4.7c0,0.4,0.1,0.7-0.3,1c-1.2,0.3-2.5,0.2-3.7,0c-0.1-0.1-0.3-0.3-0.4-0.4
		c-0.2-0.2-0.1-0.4-0.1-0.6c0-4.7,0-9.5,0-14.2c0-0.2,0-0.4,0.1-0.6c0.4-0.5,0.9-0.3,1.4-0.3c0.8,0,1.7,0,2.4,0
		c0.6,0.4,0.4,1.1,0.9,1.5c1.7-1.6,3.6-2.1,5.9-1.6c2.4,0.5,4,2.1,4.4,4.5c0,0.3,0.1,0.5,0.2,0.8c0.2,0.2,0.1,0.4,0.1,0.6
		c0,3.1,0,6.3,0,9.4c0,0.2,0,0.4-0.1,0.6c-0.1,0.1-0.3,0.3-0.4,0.4c-1.2,0.2-2.5,0.3-3.7,0C47.9,80.4,48,80,48,79.6
		c0-2.7,0-5.4,0-8.1c0-0.4,0.1-0.8-0.1-1.2C47.7,70.2,47.7,70.1,47.8,70z"/>
	<path class="st3" d="M132.3,51.4c-1.4,0.5-2.7,0.1-4,0.2c-0.4-0.4-0.3-0.8-0.3-1.1c0-2.8,0-5.6,0-8.4c0-1.8-0.7-2.8-2.1-3
		c-1.7-0.3-3.3,0.5-3.9,2.1c-0.3,0.8-0.4,1.6-0.4,2.4c0,2.3,0,4.6,0,6.9c0,0.4,0,0.7,0,1.2c-1.5,0-2.8,0-4.2,0c0-5.3,0-10.5,0-15.8
		c1.3,0,2.5,0,3.7,0c0.4,0.3,0.3,0.9,0.7,1.3c0.3,0.1,0.4-0.1,0.5-0.2c2-1.7,4.3-1.7,6.6-0.9c2.1,0.7,3,2.5,3.3,4.6
		c0,0.2,0.1,0.3,0.1,0.5c0.1,0.1,0.1,0.3,0.1,0.5c0,3.2,0,6.4,0,9.6C132.5,51.1,132.5,51.3,132.3,51.4z"/>
	<path class="st3" d="M92.6,40.3c-0.8-1.3-3.1-1.8-4.4-1c-0.4,0.2-0.6,0.6-0.6,1.1c0,0.5,0.3,0.9,0.8,1.1c0.8,0.4,1.7,0.4,2.5,0.6
		c1.2,0.2,2.3,0.3,3.4,0.8c1.7,0.7,2.6,2,2.7,3.8c0.1,2-0.7,3.5-2.5,4.3c-3,1.4-6.1,1.4-9.1-0.1c-1.5-0.7-2.2-2.1-2.4-3.8
		c0-0.3,0-0.6,0.2-0.8c1.2-0.3,2.5-0.2,3.7,0c0.1,0.1,0.2,0.1,0.2,0.2c0.3,0.7,0.4,1.4,1.3,1.6c1.2,0.3,2.3,0.3,3.4-0.1
		c0.5-0.2,0.8-0.6,0.8-1.2c0-0.6-0.3-0.9-0.8-1.1c-1-0.4-2.2-0.4-3.2-0.7c-1-0.2-2.1-0.5-3-1.1c-1.6-0.9-2.4-2.3-2.3-4.1
		c0.1-1.9,1-3.2,2.8-3.9c2.6-0.9,5.2-0.9,7.7,0c1.4,0.5,2.3,1.5,2.7,3c0.1,0.5,0.3,1-0.2,1.4C95.1,40.6,93.9,40.6,92.6,40.3z"/>
	<path class="st3" d="M122.2,69.3c-1.3,0-2.6,0-3.9,0c-0.9-1.2-3-1.7-4.3-1c-0.5,0.2-0.7,0.6-0.6,1.1c0,0.6,0.3,0.9,0.8,1.1
		c1,0.4,2,0.4,3,0.6c0.9,0.1,1.8,0.3,2.6,0.6c1.7,0.7,2.8,2,2.9,3.8c0.1,1.9-0.6,3.4-2.3,4.3c-3,1.6-6.1,1.6-9.2,0.1
		c-1.8-0.9-2.8-2.9-2.4-4.5c1.3,0,2.6,0,3.9,0c0.9,1.7,3.1,2.4,4.8,1.5c0.4-0.2,0.8-0.5,0.8-1.1c0-0.6-0.3-1-0.9-1.2
		c-0.8-0.3-1.8-0.4-2.6-0.5c-1.7-0.3-3.3-0.7-4.6-2c-2.1-2.1-1.6-5.5,1-6.8c2.9-1.4,5.9-1.4,8.9,0C121.8,66.2,122.5,67.8,122.2,69.3
		z"/>
	<path class="st3" d="M62.4,65.1c1-0.8,2.1-0.1,3.2-0.4c1.6,3.5,2.7,7.1,4.4,10.6c1.4-3.5,2.7-7,4.1-10.5c1.1,0,2.1,0,3.2,0
		c0,1.4,0.3,2.7-0.3,4.1c-1.6,3.6-3.3,7.3-4.9,10.9c-0.1,0.3-0.4,0.6-0.5,0.9c-1.1,0.4-2.2,0.2-3.3,0.1c-0.3-0.2-0.5-0.4-0.6-0.7
		c-1.8-4-3.6-8.1-5.4-12.1C62.2,67,62.2,66,62.4,65.1z"/>
	<path class="st3" d="M131.8,65.1c0.4-0.5,0.9-0.3,1.4-0.3c0.5,0,1,0.1,1.6-0.2c0-1,0-2.1,0-3.3c1.5,0,2.8,0,4.2,0
		c0.3,0.8,0.1,1.6,0.1,2.4c0,0.3-0.2,0.7,0.2,1l0,0c1.3,0.4,2.6-0.1,3.9,0.3c0,1.1,0,2.2,0,3.5c-1.3,0-2.7,0-3.9,0
		c-0.4,0.6-0.2,1.1-0.2,1.5c0,1.8,0,3.7,0,5.5c0,1.5,0.2,1.6,1.7,1.6c0.7,0,1.5,0,2.2,0c0.1,0,0.1,0.1,0.2,0.1c0,1.1,0,2.2,0,3.5
		c-2.1,0-4.2,0.3-6.1-0.6c-1.7-0.8-2.3-2.3-2.4-4.1c0-2.1,0-4.3,0-6.4c0-0.4,0.1-0.7-0.2-1.1c-0.6-0.2-1.2-0.1-1.8-0.1
		c-0.4,0-0.8,0-1-0.5C131.6,67,131.6,66,131.8,65.1z"/>
	<path class="st3" d="M96.8,65.1c0.3-0.4,0.8-0.3,1.2-0.3c0.9,0,1.8,0,2.5,0c0.6,0.4,0.4,1.1,0.9,1.4c1.7-1.4,3.3-1.8,5.8-1.3
		c0.3,0.7,0.3,2.4,0.1,3.5c-0.6,0.2-1.3,0.1-2,0.1c-2.8,0-3.9,1.1-4,3.9c0,2.4,0,4.9,0,7.3c0,0.4,0.1,0.8-0.2,1.1
		c-1.2,0.3-2.5,0.2-3.7,0.1c-0.1-0.1-0.3-0.3-0.4-0.4c-0.2-0.2-0.1-0.4-0.1-0.7c0-4.7,0-9.3,0-14C96.7,65.5,96.6,65.3,96.8,65.1z"/>
	<path class="st3" d="M75.6,51.1c-0.1,0.3-0.3,0.5-0.7,0.5c-1.2,0-2.3,0-3.6,0c0-5.3,0-10.5,0-15.9c1.2,0,2.4,0,3.7,0
		c0.4,0.3,0.3,0.9,0.7,1.4c1.6-1.9,3.7-1.4,5.8-1.4c0,1.2,0,2.4,0,3.7c-1,0-1.9,0-2.8,0c-2,0.1-3.1,1.2-3.1,3.2c0.2,2.5,0,5,0.1,7.5
		C75.7,50.4,75.8,50.8,75.6,51.1z"/>
	<path class="st3" d="M125.7,80.8c-0.3-0.2-0.3-0.5-0.3-0.9c0-4.8,0-9.6,0-14.5c0-0.2,0-0.3,0.1-0.6c1.4,0,2.7,0,4,0
		c0.3,0.3,0.2,0.7,0.2,1c0,4.6,0,9.2,0,13.8c0,0.4,0.1,0.8-0.3,1.1C128.1,81,126.9,81,125.7,80.8z"/>
	<path class="st3" d="M55.8,80.7c-0.2-0.2-0.3-0.5-0.3-0.8c0-4.9,0-9.8,0-14.7c0-0.1,0-0.2,0.1-0.4c1.3-0.2,2.7-0.1,4,0
		c0.3,0.3,0.2,0.7,0.2,1c0,4.7,0,9.3,0,14c0,0.4,0.1,0.8-0.3,1.1C58.3,81,57.1,81,55.8,80.7z"/>
	<path class="st4" d="M55.8,61.9c-0.5-1.2-0.2-2.4-0.2-3.6c1.4,0,2.8,0,4.2,0c-0.1,1.3,0.4,2.5-0.3,3.7
		C58.3,62.2,57.1,62.2,55.8,61.9z"/>
	<path class="st4" d="M125.7,62c-0.7-1.1-0.1-2.4-0.4-3.7c1.5,0,2.8,0,4.3,0c0,1.2,0.4,2.4-0.2,3.6C128.1,62.2,126.9,62.2,125.7,62z
		"/>
	<path class="st5" d="M15.8,51c0-7.1,0-14.2,0-21.2c0,0,0.1,0,0.1,0C15.9,36.9,15.9,43.9,15.8,51C15.9,51,15.9,51,15.8,51z"/>
	<path class="st6" d="M189.5,80.6c0,0,0,0.1,0.1,0.1c0,0.1-0.1,0.1-0.1,0.1c-1.7,0.1-3.4,0-5.1,0.1c-3.3,0-6.6,0-9.9,0
		c-0.4,0-0.7,0.1-1.1-0.1c0-0.1,0-0.1,0-0.2c0.1,0,0.1,0,0.2,0c0.3-0.2,0.6-0.3,0.9-0.3c4.7,0,9.5,0,14.2,0c0.2,0,0.3,0,0.5,0.1
		C189.4,80.4,189.5,80.5,189.5,80.6z"/>
	<path class="st7" d="M173.4,80.8c5,0,9.9,0,14.9,0c0.4,0,0.8,0,1.2,0c0,0.1,0,0.1,0,0.2c-4.9,0-9.8,0-14.8,0
		C174.2,81,173.8,81.1,173.4,80.8z"/>
	<path class="st5" d="M96.8,65.1c0,5.1,0,10.2,0,15.3c-0.4-0.1-0.2-0.4-0.2-0.6c0-4.7,0-9.3,0-14C96.6,65.5,96.4,65.2,96.8,65.1z"/>
	<path class="st8" d="M37.2,65c0,5.1,0,10.2,0,15.3c-0.4-0.1-0.2-0.4-0.2-0.7c0-4.7,0-9.3,0-14C37,65.5,36.8,65.2,37.2,65z"/>
	<path class="st5" d="M125.1,80.3c0-5,0-9.9,0-14.9c0,0,0.1,0,0.1,0C125.1,70.3,125.1,75.3,125.1,80.3
		C125.1,80.3,125.1,80.3,125.1,80.3z"/>
	<path class="st9" d="M60.1,80.3c0-5,0-9.9,0-14.9c0,0,0.1,0,0.1,0C60.2,70.3,60.2,75.3,60.1,80.3C60.1,80.3,60.1,80.3,60.1,80.3z"
		/>
	<path class="st9" d="M117.2,36.2c0,4.9,0,9.9,0,14.8c0,0-0.1,0-0.1,0C117.1,46.1,117.1,41.1,117.2,36.2
		C117.1,36.2,117.1,36.2,117.2,36.2z"/>
	<path class="st10" d="M70.9,36.1c0,5,0,9.9,0,14.9c0,0-0.1,0-0.1,0C70.9,46.1,70.9,41.1,70.9,36.1C70.9,36.1,70.9,36.1,70.9,36.1z"
		/>
	<path class="st11" d="M55.4,65.4c0,4.9,0,9.8,0,14.6c0,0-0.1,0-0.1,0C55.3,75.1,55.3,70.3,55.4,65.4C55.3,65.4,55.3,65.4,55.4,65.4
		z"/>
	<path class="st8" d="M129.9,65.3c0,4.9,0,9.8,0,14.7c0,0-0.1,0-0.1,0C129.9,75.2,129.9,70.2,129.9,65.3
		C129.9,65.3,129.9,65.3,129.9,65.3z"/>
	<path class="st12" d="M29.6,73.1c0,0.2,0,0.3-0.1,0.5c-0.2-0.3-0.2-0.6-0.2-0.9c0-4.6,0-9.1,0-13.7c0-0.1,0-0.2,0.2-0.3
		C29.6,63.5,29.6,68.3,29.6,73.1z"/>
	<path class="st13" d="M15.9,73.1c0-4.8,0-9.5,0-14.3c0,0,0.1,0,0.1,0C15.9,63.5,15.9,68.3,15.9,73.1C15.9,73.1,15.9,73.1,15.9,73.1
		z"/>
	<path class="st14" d="M34.4,58.8c0,4.7,0,9.5,0,14.2c0,0-0.1,0-0.1,0C34.3,68.3,34.3,63.5,34.4,58.8C34.3,58.8,34.3,58.8,34.4,58.8
		z"/>
	<path class="st5" d="M20.6,73c-0.2-1.6-0.1-3.3-0.1-4.9c0-3.2,0-6.3,0-9.5c0.4,0.1,0.2,0.4,0.2,0.6c0,4.2,0,8.5,0,12.7
		C20.8,72.4,20.8,72.7,20.6,73z"/>
	<path class="st10" d="M16.7,28.9c3.6,0,7.1,0,10.7,0c0,0,0,0.1,0,0.1C23.9,28.9,20.3,28.9,16.7,28.9C16.7,28.9,16.7,28.9,16.7,28.9
		z"/>
	<path class="st12" d="M52.4,80.4c0-3.5,0-7,0-10.5c0-0.1,0-0.2,0.1-0.3c0.2-0.1,0.2,0.1,0.2,0.2c0,3.3,0,6.7,0,10
		C52.6,80,52.7,80.3,52.4,80.4z"/>
	<path class="st11" d="M132.3,51.4c0-3.5,0-7,0-10.5c0-0.1,0-0.2,0.1-0.3c0.3,0.1,0.2,0.3,0.2,0.4c0,3.1,0,6.2,0,9.4
		C132.6,50.7,132.7,51.1,132.3,51.4z"/>
	<path class="st10" d="M47.8,70c0,0.1,0,0.2,0.1,0.3c0,3.3,0,6.6,0,9.9c-0.3-0.1-0.2-0.4-0.2-0.5c0-2.9,0-5.9,0-8.8
		C47.6,70.6,47.6,70.3,47.8,70z"/>
	<path class="st15" d="M41.8,71.4c0-0.1,0-0.1,0-0.2c0.1,0.2,0.2,0.4,0.2,0.6c0,2.8,0,5.6-0.2,8.5C41.8,77.3,41.8,74.3,41.8,71.4z"
		/>
	<path class="st9" d="M75.6,51.1c-0.1-2.8-0.2-5.7,0-8.5c0.2,0.2,0.2,0.5,0.2,0.8c0,2.5,0,4.9,0,7.4C75.8,50.9,75.9,51.1,75.6,51.1z
		"/>
	<path class="st5" d="M20.6,51.2c0-2.8-0.2-5.6,0.1-8.4c0.3,0.7,0.1,1.4,0.1,2.1c0,1.8,0,3.6,0,5.5C20.8,50.6,21,51,20.6,51.2z"/>
	<path class="st8" d="M138.7,60.9c-1.1,0-2.2,0-3.3,0c0,0,0-0.1,0-0.1C136.4,60.9,137.6,60.9,138.7,60.9
		C138.7,60.9,138.7,60.9,138.7,60.9z"/>
	<path class="st5" d="M86.9,46.2c-1.2,0-2.5,0-3.7,0C84.5,45.8,85.7,45.8,86.9,46.2z"/>
	<path class="st5" d="M55.8,61.9c1.2,0,2.5,0,3.7,0C58.3,62.4,57.1,62.4,55.8,61.9z"/>
	<path class="st5" d="M92.6,40.3c1.2,0,2.5,0,3.7,0C95.1,40.8,93.9,40.7,92.6,40.3z"/>
	<path class="st8" d="M64.2,46.7c1.1,0,2.2,0,3.3,0c0,0,0,0.1,0,0.1C66.3,46.7,65.3,46.7,64.2,46.7C64.2,46.7,64.2,46.7,64.2,46.7z"
		/>
	<path class="st5" d="M125.7,62c1.2,0,2.5,0,3.7,0C128.1,62.3,126.9,62.4,125.7,62z"/>
	<path class="st5" d="M37.6,80.8c1.2,0,2.5,0,3.7,0C40.1,81.2,38.9,81.1,37.6,80.8z"/>
	<path class="st5" d="M48.2,80.7c1.2,0,2.5,0,3.7,0C50.7,81.1,49.5,81.2,48.2,80.7z"/>
	<path class="st5" d="M55.8,80.7c1.2,0,2.5,0,3.7,0C58.3,81.2,57.1,81.2,55.8,80.7z"/>
	<path class="st5" d="M97.3,80.8c1.2,0,2.5,0,3.7-0.1C99.7,81.2,98.5,81.1,97.3,80.8z"/>
	<path class="st5" d="M125.7,80.8c1.2,0,2.5,0,3.7,0C128.1,81.1,126.9,81.2,125.7,80.8z"/>
	<path class="st9" d="M129,64.6c-1,0-2,0-3,0c0,0,0-0.1,0-0.1C127,64.5,128,64.5,129,64.6C129,64.5,129,64.5,129,64.6z"/>
	<path class="st9" d="M139.4,64.6c1.1-0.4,2.3-0.1,3.4,0C141.7,64.6,140.6,64.6,139.4,64.6L139.4,64.6z"/>
	<path class="st5" d="M40.8,64.5c-1,0-2.1,0-3.1,0c0,0,0-0.1,0-0.1C38.8,64.4,39.8,64.4,40.8,64.5C40.8,64.5,40.8,64.5,40.8,64.5z"
		/>
	<path class="st9" d="M56.2,64.5c1,0,2.1,0,3.1,0c0,0,0,0.1,0,0.1C58.2,64.5,57.2,64.5,56.2,64.5C56.2,64.5,56.2,64.5,56.2,64.5z"/>
	<path class="st9" d="M97.4,64.5c1,0,1.9,0,2.9,0c0,0,0,0.1,0,0.1C99.3,64.5,98.3,64.5,97.4,64.5C97.4,64.5,97.4,64.5,97.4,64.5z"/>
	<path class="st5" d="M36.6,36.1c0.1,1,0.1,1.9,0,2.9c0,0,0,0.1,0,0.1c0,0,0,0-0.1,0.1C36.4,38.1,36.2,37.1,36.6,36.1z"/>
	<path class="st5" d="M62.4,65.1c0.1,1,0.1,1.9,0,2.9c0,0,0,0.1,0,0.1c0,0,0,0-0.1,0.1C62.2,67.1,62,66.1,62.4,65.1z"/>
	<path class="st5" d="M68.4,80.8c1.1,0,2.2,0,3.3-0.1C70.7,81.2,69.6,81.1,68.4,80.8z"/>
	<path class="st5" d="M51.8,39.1c0-1,0-2.1,0-3.1C52.1,37.1,52.2,38.1,51.8,39.1z"/>
	<path class="st13" d="M125.1,58.7c0,0.9,0,1.8,0,2.7c0,0-0.1,0-0.1,0C125,60.5,125,59.6,125.1,58.7
		C125.1,58.7,125.1,58.7,125.1,58.7z"/>
	<path class="st5" d="M131.8,65.1c0,1,0,1.9,0,2.9C131.5,67,131.4,66,131.8,65.1z"/>
	<path class="st5" d="M37.2,54.7c0.1,1,0.1,1.9,0,2.9C36.9,56.6,36.8,55.6,37.2,54.7z"/>
	<path class="st5" d="M60.1,61.4c0-0.9,0-1.8,0-2.7c0,0,0.1,0,0.1,0C60.2,59.6,60.2,60.5,60.1,61.4C60.1,61.4,60.1,61.4,60.1,61.4z"
		/>
	<path class="st5" d="M34.2,51c0-0.9,0-1.8,0-2.6c0,0,0.1,0,0.1,0C34.3,49.3,34.3,50.1,34.2,51C34.3,51,34.3,51,34.2,51z"/>
	<path class="st9" d="M146.1,84c0,0.8,0,1.7,0,2.5c0,0-0.1,0-0.1,0C146.1,85.6,146.1,84.8,146.1,84C146.1,83.9,146.1,83.9,146.1,84z
		"/>
	<path class="st5" d="M62.9,64.4c0.8,0,1.5,0,2.3,0c0,0,0,0.1,0,0.1C64.5,64.5,63.7,64.5,62.9,64.4C62.9,64.5,62.9,64.5,62.9,64.4z"
		/>
	<path class="st5" d="M74.8,64.4c0.7,0,1.5,0,2.2,0c0,0,0,0.1,0,0.1C76.3,64.5,75.5,64.5,74.8,64.4C74.8,64.5,74.8,64.5,74.8,64.4z"
		/>
	<path class="st5" d="M157.5,64.4c0.8,0,1.5,0,2.3,0c0,0,0,0.1,0,0.1C159.1,64.5,158.3,64.5,157.5,64.4
		C157.5,64.5,157.5,64.5,157.5,64.4z"/>
	<path class="st9" d="M146,64.4c0.7,0,1.4,0,2,0c0,0,0,0.1,0,0.1C147.3,64.5,146.7,64.5,146,64.4C146,64.5,146,64.5,146,64.4z"/>
	<path class="st16" d="M189.5,80.6c-0.1,0-0.1,0-0.2,0c-0.3-0.2-0.7-0.1-1.1-0.1c-4.5,0-9.1,0-13.6,0c-0.4,0-0.7,0.1-1.1-0.1
		c0-26.7,0-53.3,0-80.1c8.7,0,17.4,0,26.1,0c0,26.7,0,53.4,0,80.3C196.3,80.6,192.9,80.6,189.5,80.6z"/>
	<path class="st17" d="M173.6,80.4c4.9,0,9.8,0,14.6,0c0.4,0,0.8-0.1,1.2,0.2c-5.3,0-10.5,0-15.8,0
		C173.6,80.5,173.6,80.5,173.6,80.4z"/>
	<path class="st18" d="M20.8,38.8c-0.1-0.1-0.2-0.1-0.2-0.2c-0.1-1.9-0.1-3.8,0-5.8c1.4,0,2.6,0,3.9,0c1.2,0,2.4-0.1,3.6,0.1
		c1.8,0.3,2.5,1.3,2.4,3.3c-0.1,1.7-1,2.5-2.8,2.6C25.3,38.6,23.1,38.7,20.8,38.8z"/>
	<path class="st19" d="M20.8,38.8c1.4-0.4,2.8-0.1,4.2-0.2c0.8,0,1.7-0.2,2.5,0.2C25.3,38.9,23.1,38.9,20.8,38.8z"/>
	<path class="st20" d="M58,41.2c0.4-1.4,1.3-2.1,2.7-2.2c1.5-0.1,2.5,0.6,3,1.9c0.1,0.4,0.5,0.8-0.1,1.1c-1.4-0.2-2.8,0-4.2-0.1
		c-0.4,0-0.8,0.1-1.2-0.1C58,41.7,58.2,41.4,58,41.2z"/>
	<path class="st5" d="M58,41.2c0.2,0.5,0.6,0.6,1.1,0.6c1.1,0,2.3,0,3.4,0c0.4,0,0.7-0.1,1.1,0.2c-1.8,0-3.7,0-5.5,0
		C57.8,41.8,57.9,41.5,58,41.2z"/>
	<path class="st20" d="M83.7,71.1c0.2-2.1,1.4-3.2,3.2-3c1.7,0.2,2.7,1.3,2.6,3C87.6,71.1,85.7,71.1,83.7,71.1z"/>
	<path class="st18" d="M103.2,43.6c0-0.8,0.1-1.6,0.4-2.3c0.5-1.5,1.7-2.3,3.3-2.3c1.6,0,2.8,0.8,3.3,2.3c0.5,1.5,0.5,3,0.1,4.5
		c-0.5,1.7-1.8,2.5-3.5,2.5c-1.6,0-2.8-1-3.2-2.6C103.2,45,103.2,44.3,103.2,43.6z"/>
</g>
</svg>
