<?xml version="1.0" encoding="iso-8859-1"?>
<!-- Generator: Adobe Illustrator 19.0.0, SVG Export Plug-In . SVG Version: 6.00 Build 0)  -->
<svg version="1.1" id="Layer_1" xmlns="http://www.w3.org/2000/svg" xmlns:xlink="http://www.w3.org/1999/xlink" x="0px" y="0px"
	 viewBox="0 0 500 102.776" style="enable-background:new 0 0 500 102.776;" xml:space="preserve">
<path id="XMLID_21_" style="fill:#E2231A;" d="M35.539,4.637c-0.557-1.801,8.386-4.148,18.19-4.58
	c9.876-0.433,21.556,1.532,23.742,8.047c3.567,10.678-14.514,26.249-30.275,33.899c-3.869,1.871-6.207,2.386-7.187,2.256
	c-0.926-0.124-1.072-0.99-0.769-1.587c0.557-1.123,3.106-3.409,6.503-5.897c17.741-12.958,23.506-22.464,20.157-26.312
	c-2.149-2.47-11.141-4.187-20.478-4.187C42.884,6.275,36.224,6.829,35.539,4.637 M55.436,53.429
	c-5.595-3.839-15.568-5.12-23.772-4.693c-7.314,0.384-19.879,2.71-19.412,5.023c0.448,2.5,8.405,1.726,12.05,1.726
	c8.017,0,20.739,0.484,22.743,5.655c4.323,11.129-24.983,31.111-31.232,29.185c-2.828-0.86,5.74-15.386,8.847-20.611
	c1.853-3.112,4.663-8.017,2.265-8.344c-2.682-0.376-5.643,4.238-7.563,6.896C14.147,75.491,8.806,83.375,4.519,91.482
	c-1.32,2.501-5.716,10.033-4.208,11.014c1.411,0.902,8.114-0.387,16.639-3.766c26.794-10.609,38.862-24.438,42.095-35.858
	C60.177,58.851,58.221,55.339,55.436,53.429 M95.642,35.246c-8.725-1.435-24.317-1.986-29.652,6.185
	c-4.117,6.312,3.669,14.962,10.754,23.342c5.679,6.71,11.862,13.116,9.337,16.863c-2.059,3.058-15.271,3.058-19.824,3.3
	c-5.522,0.291-13.485,0.303-14.871,1.066c-1.247,0.666-1.944,2.748,2.731,3.584c3.76,0.678,12.709,2.047,22.143,2.047
	c9.852,0,20.2-1.622,22.446-9.252c1.804-6.121-4.445-12.691-9.954-19.346c-6.013-7.297-12.11-12.489-11.596-17.654
	c0.388-4.018,8.271-4.248,21.338-4.478c2.719-0.048,8.138-0.178,7.091-2.325C104.652,36.684,100.601,36.057,95.642,35.246
	 M202.29,70.95c-1.919,11.65-9.803,21.41-24.468,21.41c-14.678,0-19.358-9.76-17.439-21.41c1.907-11.65,9.803-21.402,24.468-21.402
	C199.516,49.548,204.203,59.3,202.29,70.95 M183.694,56.581c-8.325,0-12.691,4.838-14.254,14.369
	c-1.562,9.542,1.205,14.369,9.537,14.369c8.325,0,12.685-4.826,14.247-14.369C194.793,61.419,192.02,56.581,183.694,56.581
	 M254.684,49.542h-7.678l-7.496,41.051h9.125l7.242-39.655C256.004,50.274,255.508,49.542,254.684,49.542 M232.946,83.932h-17.445
	l6.025-32.988c0.115-0.663-0.376-1.396-1.193-1.396h-7.678l-7.496,41.045h28.901l0.744-4.094
	C235.139,84.658,234.521,83.932,232.946,83.932 M285.408,49.542h-22.101l-0.109,0.663c-0.515,2.786-0.285,6.019,4.123,6.019h16.367
	c6.479,0,8.961,4.687,7.35,13.478c-1.465,8.066-5.812,14.218-12.413,14.218h-8.87l4.208-23.082h-7.544
	c-1.017,0-1.72,0.733-1.834,1.393l-5.177,28.362h17.305c12.777,0,21.69-6.013,24.451-21.181
	C303.294,57.749,298.438,49.542,285.408,49.542 M126.577,58.488c-0.514,3.306,0.503,7.187,4.184,9.761l13.121,9.155
	c1.374,0.95,2.059,1.61,1.889,2.718c-0.248,1.533-1.048,2.15-3.766,2.15h-15.265c-1.629,0-2.513,0.799-2.81,2.64v5.692h17.874
	c7.835,0,11.711-4.626,12.492-9.531c0.733-4.625-0.817-7.92-3.797-10.051l-13.951-9.894c-1.12-0.8-1.399-1.224-1.32-1.829
	c0.127-1.006,1.041-1.417,2.634-1.417h15.931c1.95,0,3.058-1.993,3.367-3.963v-4.372h-21.065
	C131.421,49.548,127.334,53.729,126.577,58.488 M430.136,53.475c1.829,2.076,1.961,5.934,1.441,8.307
	c-0.629,2.9-3.391,10.221-13.732,11.148l8.713,14.925c0,0,0.594,0.896,0.594,1.478c0.006,0.393-0.164,0.878-0.521,1.12
	c-0.345,0.261-0.721,0.328-1.114,0.328h-2.302L413,73.172l-8.229-0.036l-3.197,17.645h-4.518l7.635-41.057h10.548
	C421.471,49.724,426.939,49.814,430.136,53.475 M425.988,55.957c-0.824-0.802-2.083-1.186-4.033-1.553
	c-0.508-0.094-1.344-0.169-2.294-0.218c-2.35-0.13-9.332-0.024-11.468-0.006l-2.706,14.929c1.61,0.024,3.451,0.048,4.747,0.061
	c3.651,0,7.187-0.121,9.682-0.799C426.345,66.626,429.536,59.336,425.988,55.957 M468.404,50.114
	c-0.345-0.26-0.739-0.312-1.127-0.318h-2.004l-21.126,18.065l2.81-15.964c0.176-0.884-0.254-1.487-0.611-1.741
	c-0.376-0.285-0.842-0.433-1.29-0.433h-2.034l-7.63,41.044h4.518l3.343-18.165l16.724,18.178h2.004
	c0.4-0.012,0.781-0.067,1.12-0.328c0.351-0.242,0.538-0.726,0.521-1.12c0-0.739-0.6-1.478-0.6-1.478l-15.827-17.196l21.132-17.947
	c0,0,0.594-0.509,0.594-1.484C468.925,50.838,468.749,50.365,468.404,50.114 M393.66,72.591
	c-2.773,11.668-11.177,20.872-24.607,19.842v-0.012c-12.486-1.441-16.064-12.425-13.431-22.961
	c2.913-11.65,11.287-20.859,24.517-19.836v0.012C392.467,51.074,396.149,62.073,393.66,72.591 M379.098,53.838
	c-7.527-0.415-16.131,4.021-19.092,15.985c-2.912,11.735,2.531,17.427,9.913,18.384l0.769,0.036c7.611,0.4,15.719-4.045,18.57-16.01
	C392.037,60.499,386.582,54.601,379.098,53.838 M499.993,49.724h-16.936c-7.914,0.018-8.749,6.512-8.786,9.576
	c0,3.227,2.343,5.788,3.506,6.836l11.535,11.293c1.369,1.344,2.034,2.936,2.034,4.408c0,2.506-1.913,4.547-5.002,4.535
	c-0.005,0.018-14.925,0.03-15.065,0.066c-0.49,0.085-1.005,0.727-0.993,1.242h-0.042l0.042,0.019c0,0.012,0,2.495,0,3.082h16.766
	c7.921-0.03,8.756-6.516,8.792-9.58c0-0.012-0.006-0.012-0.006-0.024c0.006-4.244-3.893-7.52-3.923-7.532l-10.935-10.766
	c-1.369-1.345-2.211-2.731-2.217-4.215c0.006-2.512,1.92-4.544,4.99-4.544c0.018-0.005,15.119-0.018,15.24-0.057l0.043,0.112
	L499,54.062c0.49-0.094,1.017-0.736,0.999-1.244c0,0-0.006-0.006,0-0.015C500,52.778,499.993,50.305,499.993,49.724 M355.646,51.352
	c0.012-0.427-0.182-0.972-0.551-1.265c-0.381-0.303-0.793-0.363-1.193-0.363h-2.065l-15.937,36.109l-4.154-19.346
	c-0.242-1.702-1.605-2.859-3.216-2.768h-2.682l-12.576,21.908l0.121-34.169c0.012-0.457-0.169-1.017-0.569-1.332
	c-0.394-0.324-0.829-0.403-1.272-0.403h-2.689v41.044h3.427v-0.006c0.018,0,0.048,0.006,0.073,0.006
	c1.005,0.012,1.913-0.236,2.658-0.781c0.678-0.484,1.259-1.162,1.775-1.974l11.014-19.642l4.591,22.397h2.852h0.085
	c1.872,0,3.44-1.09,4.263-2.948l15.834-35.61C355.544,51.916,355.634,51.725,355.646,51.352"/>
<g id="XMLID_70_">
</g>
<g id="XMLID_71_">
</g>
<g id="XMLID_72_">
</g>
<g id="XMLID_73_">
</g>
<g id="XMLID_74_">
</g>
<g id="XMLID_75_">
</g>
</svg>
