<svg id="Layer_1" data-name="Layer 1" xmlns="http://www.w3.org/2000/svg" viewBox="0 0 2522.9 577"><title>systems</title><path d="M63.33,394.18c12.13-.6,24.26-1.14,36.39-1.85,3.2-.18,5.4.34,7.3,3.48a106,106,0,0,0,22.84,26.27,5.52,5.52,0,0,1,2.13,6c-2.89,15.36-5.58,30.76-8.54,46.11-.62,3.22,0,4.67,3.3,5.71q29,9,57.87,18.61c3.32,1.1,4.59.28,6.07-2.64,7-13.78,14.3-27.4,21.32-41.16,1.21-2.37,2.51-3.43,5.23-3.54a109,109,0,0,0,34.5-7.25c2.8-1.06,4.52-.58,6.65,1.25,12,10.31,24.14,20.45,36.12,30.77,2.23,1.92,3.61,2.3,6,.06q22.77-21,45.89-41.58c2-1.8,2.2-3,.71-5.3-8.78-13.54-17.32-27.23-26.08-40.78-1.52-2.34-1.75-4.11-.44-6.73a112.83,112.83,0,0,0,10.6-32c.45-2.64,1.61-3.88,4.18-4.78,15.21-5.32,30.3-11,45.51-16.28,3-1,4.16-1.95,3.37-5.45-4.52-20.1-8.81-40.27-13.05-60.44-.57-2.73-1.66-3.29-4.4-3.14-15.78.87-31.58,1.43-47.37,2.18-2.55.12-4.29-.43-5.75-2.81a112.45,112.45,0,0,0-23.52-27c-2.2-1.88-2.27-3.75-1.83-6.14,2.8-15.21,5.46-30.45,8.44-45.62.68-3.46.07-4.87-3.46-6q-28.78-8.94-57.39-18.48c-3.41-1.13-4.85-.48-6.45,2.69-6.94,13.81-14.24,27.44-21.27,41.2-1.12,2.18-2.4,3.18-4.89,3.31a115.24,115.24,0,0,0-35.92,7.75c-2.52,1-3.68-.19-5.18-1.46C150.17,198.9,138,188.78,126.09,178.4c-2.75-2.4-4.2-2.25-6.85.19q-22.18,20.52-44.8,40.56c-2.56,2.27-2.65,3.77-.84,6.54,8.53,13.1,16.74,26.41,25.3,39.5,1.87,2.87,1.88,5,.4,8.05a112.33,112.33,0,0,0-10.2,31.14c-.45,2.77-1.78,4.12-4.52,5.07-15.22,5.27-30.32,10.89-45.53,16.19-2.92,1-3.73,2.06-3,5.28,4.53,20.11,8.81,40.27,13.05,60.45.48,2.31.92,3.49,3.76,3.13,3.44-.44,7-.11,10.48-.11Z" transform="translate(-35.79 -155.12)" style="fill:#003660"/><path d="M488.51,588.19c8.5,0,17-.32,25.49.14,4.22.23,5.32-1.43,5.91-5,2-12,4.24-23.92,6.21-35.91.45-2.73,1.28-4.37,4.14-5.37,9.6-3.36,18.9-7.46,27-13.83,2-1.59,3.61-.85,5.5-.07,12.58,5.22,25.21,10.31,37.74,15.65,2.82,1.2,4.16.9,5.75-1.91q12.94-23,26.41-45.81c1.69-2.86,1.09-4.15-1.19-6-10.47-8.51-20.75-17.26-31.25-25.72-2.33-1.88-3.4-3.62-2.91-6.67a93.81,93.81,0,0,0,.13-29.35c-.38-2.45.75-3.6,2.43-4.88,11.12-8.49,22.14-17.11,33.31-25.53,2.35-1.77,3.08-3,1.36-5.88Q621,369.25,608.07,346.2c-1.53-2.7-2.86-3.24-5.84-2.08-12.55,4.86-25.24,9.35-37.82,14.12-2.44.93-4.14.86-6.25-.94a95.6,95.6,0,0,0-25.89-15.78,5.55,5.55,0,0,1-3.87-5.07c-1.67-13.21-3.58-26.39-5.08-39.61-.39-3.46-1.18-4.79-5-4.74-17.33.23-34.66.27-52,0-3.94-.07-4.65,1.55-5.16,4.72-2.1,13-4.49,25.9-6.5,38.88-.45,2.93-1.76,4.22-4.34,5.22A95,95,0,0,0,425,355.61c-2.31,1.85-4.12,2.3-7.06,1-12.18-5.3-24.57-10.14-36.79-15.35-3.09-1.32-4.76-1.33-6.64,2-8.52,15.24-17.31,30.33-26.19,45.35-1.65,2.78-1.16,4.16,1.2,6.07,10.62,8.59,21,17.43,31.62,26.06a5.88,5.88,0,0,1,2.45,6.3,91.7,91.7,0,0,0-.32,27.87c.51,3.18-.35,5.09-3,7.06-10.95,8.15-21.6,16.7-32.54,24.87-2.57,1.93-2.82,3.26-1.21,6q13.32,22.54,26.21,45.35c1.66,3,3,3.48,6.18,2.17,12.44-5.11,25-9.86,37.56-14.78,2-.8,3.7-1.46,5.82.35,7.8,6.64,16.77,11.36,26.25,15.13,2.35.94,3.56,2,3.91,4.87,1.56,12.89,3.61,25.71,5.27,38.58.38,2.92,1.36,3.77,4.33,3.7C470.84,588.05,479.68,588.19,488.51,588.19Z" transform="translate(-35.79 -155.12)" style="fill:#003660"/><path d="M207.49,586.38c0,1.53,1.44,2,2.39,2.84,7.91,6.63,15.82,13.27,23.83,19.78,1.74,1.4,2.45,2.64,2,5a76.35,76.35,0,0,0-.3,20.92,5.44,5.44,0,0,1-2.56,5.76c-8.05,5.92-15.83,12.19-23.93,18-2.84,2-2.89,3.49-1.15,6.35q9.85,16.18,19.12,32.73c1.71,3.06,3.18,3.19,6.15,1.92,9.15-3.93,18.44-7.53,27.69-11.23,1.66-.67,3.09-1.29,5,.24a51.91,51.91,0,0,0,17.63,9.08c4.25,1.34,5.51,3.72,5.94,7.82.81,7.6,2.3,15.13,3.32,22.71.37,2.78,1.32,3.83,4.38,3.78,13.16-.21,26.33-.18,39.49,0,2.71,0,3.77-.84,4.23-3.42,1.42-8,3.12-16,4.51-24,.54-3.12,1.83-4.79,5.09-5.62,6.73-1.73,13.66-3.13,19.43-7.4,1.76-1.29,3.15-.17,4.64.43,9.07,3.71,18.2,7.3,27.17,11.22,3,1.32,4.52,1.12,6.24-2,6.28-11.34,12.82-22.54,19.46-33.69,1.48-2.49,1.3-3.84-1-5.67-7.95-6.33-15.64-13-23.56-19.33a5.53,5.53,0,0,1-2.25-6,68.13,68.13,0,0,0,.16-20.9,4.57,4.57,0,0,1,2.08-5c8.26-6.19,16.33-12.63,24.59-18.82,2.33-1.75,3.15-3,1.39-5.9q-10.05-16.65-19.44-33.7c-1.68-3-3.23-3.32-6.25-2.15-9,3.5-18.09,6.61-27.08,10-2.41.92-4.14,1-6.26-.89a69.4,69.4,0,0,0-19-11.77c-2.38-1-3.13-2.45-3.42-4.85-1.19-10.08-2.71-20.12-3.82-30.21-.31-2.8-1.26-3.57-4-3.54-13.16.12-26.32.21-39.48-.06-3.49-.07-4.15,1.52-4.59,4.23-1.6,9.85-3.42,19.67-4.88,29.54a4.76,4.76,0,0,1-3.39,4.25A74.9,74.9,0,0,0,268,558.52c-2.09,1.67-3.72,2-6.24.86-9.3-4-18.74-7.73-28.08-11.64-1.85-.77-3.15-1.35-4.46,1-6.89,12.15-13.93,24.21-20.92,36.3C208,585.42,207.77,585.86,207.49,586.38Z" transform="translate(-35.79 -155.12)" style="fill:#003660"/><path d="M151,327.22c0,33.06,26.47,59,60,59,31.95-.05,58.44-27,58.28-59.33-.16-32.53-26.74-59.1-59.14-59.13A59.29,59.29,0,0,0,151,327.22Z" transform="translate(-35.79 -155.12)" style="fill:#f6f6f6"/><path d="M542.36,442.22c-.05-28.31-23.71-51.92-52-51.86s-51.83,23.63-52,51.95c-.2,28.5,23.69,51.94,52.88,51.89C519.2,494.14,542.41,470.53,542.36,442.22Z" transform="translate(-35.79 -155.12)" style="fill:#f6f6f6"/><path d="M278.2,625.63c0,22,18.2,40.18,40,40A40.26,40.26,0,0,0,358,625.45c-.07-21.66-18-39.56-39.79-39.73S278.21,603.67,278.2,625.63Z" transform="translate(-35.79 -155.12)" style="fill:#f6f6f6"/><text transform="translate(699.78 339.07)" style="font-size:250px;fill:#003660;font-family:OpenSans-Regular, Open Sans">Systems Design</text></svg>