<svg id="Layer_1" data-name="Layer 1" xmlns="http://www.w3.org/2000/svg" viewBox="0 0 1674.17 368.39"><title>webDesign</title><path d="M62.15,603.67V352.91c.48-4.23,2.63-6.82,6.65-7.6H443.23c6.12,1.54,8.36,4.47,8.36,11.31q.07,64.68,0,129.38c0,5.94,0,5.95,5.64,5.95q34.72,0,69.46,0c1.93,0,3.88-.17,5.71.76a10.53,10.53,0,0,1,6.15,10.17q0,27.6,0,55.19c0,5.76,0,5.76,5.54,5.76,1.29,0,2.58,0,3.88,0,7.2.11,10.49,2.82,12.11,10V704.79c-.75,1.6-.73,3.46-1.88,5-1.7,2.27-4.1,2.57-6.43,3.2H497c-6.93-2.27-8.88-5.08-8.92-12.87,0-3,0-6,0-9,0-2.23-1-3.2-3-3.14-1.1,0-2.21,0-3.32,0-26.08,0-52.16,0-78.23,0-6.23,0-10.07-3.79-10.6-10.19a37.57,37.57,0,0,0,.28-4.37c.2-21.33-.61-42.65-.39-64,0-4-.41-4.35-4.12-4.41-1.2,0-2.4,0-3.6,0q-158.26,0-316.54,0C66.33,604.89,64,605.64,62.15,603.67Z" transform="translate(-61.83 -344.97)" style="fill:#103753"/><path d="M393.88,677.92c-.65-1.07-.4-2.27-.4-3.42,0-9.33-.07-18.67,0-28,0-2.37-.59-3.19-2.93-3.18-27.38.08-54.75.05-82.13.06-.89,0-1.87-.24-2.58.63-1.06.8-2.29.66-3.48.66h-92.2c-1.19,0-2.42.14-3.48-.66-1.09-1.1-2.45-.62-3.69-.62-41.85,0-83.69-.1-125.54.07-6.33,0-12-.48-15.33-7.05V603.67c1.29,0,2.58,0,3.87,0H390.14c4.19,0,3.74-.5,3.75,3.83q.08,33.59.12,67.17C394,675.79,393.93,676.85,393.88,677.92Z" transform="translate(-61.83 -344.97)" style="fill:#b5bac5"/><path d="M551.8,713c3.87-1.48,6.45-4.42,8.31-8.18,0,2.73,1,6.52-.29,7.88s-4.88.3-7.47.3Z" transform="translate(-61.83 -344.97)" style="fill:#fafbfb"/><path d="M68.8,345.31c-2.86,1.91-5.33,4.19-6.65,7.6v-.58c0-2.34-.86-5.59.24-6.76S66.58,345.31,68.8,345.31Z" transform="translate(-61.83 -344.97)" style="fill:#f9fafb"/><path d="M393.36,586.67c-1,0-2,.1-3,.1q-154.35,0-308.72.07c-2.87,0-3.59-.73-3.59-3.77q.13-109.14,0-218.27c0-3,.72-3.63,3.48-3.63q174.86.12,349.71,0c2.62,0,3.37.58,3.36,3.46q-.15,62.52,0,125.06c0,2.6-.53,3.44-3.14,3.39-9.14-.19-18.28-.09-27.41-.06-5.89,0-9,2.81-10.13,8.93a28.45,28.45,0,0,0-.18,6.39c0,2-.81,2.86-2.58,3-1.29.09-2.58.07-3.88.07H324.12a13.14,13.14,0,0,0-3.75.22,20,20,0,0,0,4.46.19h62.29c1.2,0,2.4,0,3.59,0,2,0,3.05.84,3,3.18-.2,6.6,1.19,6.82-6.44,6.81q-32-.06-63.94,0c-.95,0-2-.49-2.8.4,1.25.74,2.57.44,3.84.44q32.4,0,64.79,0A9.72,9.72,0,0,1,393,523a1.62,1.62,0,0,1,.65.85c.08,1.65,0,3.31.05,5,.13,2-.88,2.81-2.62,2.93-1.29.09-2.58.07-3.87.07H323.86a17.29,17.29,0,0,0-4.17.25,29.45,29.45,0,0,0,4.3.16h62.77c1.3,0,2.59,0,3.88,0,2.15,0,3.26,1,3,3.4-.17,1.83.21,3.69-.2,5.52-1.3,1.57-3.07,1.12-4.68,1.12q-32.1.06-64.22,0a32.61,32.61,0,0,0-4.52.16,15.6,15.6,0,0,0,3.75.25h62.29c1.2,0,2.4,0,3.6,0,3.66.11,4,.43,4,4.2q0,18.4,0,36.81C393.64,584.77,393.9,585.77,393.36,586.67Z" transform="translate(-61.83 -344.97)" style="fill:#fefefe"/><path d="M489.07,597.18l.05.62c-.53,3.72.13,7.48-.35,11.2-.93,1.27-2.28,1.13-3.55,1.14-3.79.05-7.57,0-11.36,0a9.84,9.84,0,0,0-2.48.17,1.55,1.55,0,0,0,0,3,16.51,16.51,0,0,0,3.58.17c3.51,0,7,0,10.53,0,1.19,0,2.43,0,3.26,1.17a52.42,52.42,0,0,1,.08,7.52c-.72,1.24-1.92,1-3,1-3.77,0-7.55,0-11.32,0a5.3,5.3,0,0,0-2.61.34c4.5.34,9,.18,13.48.26,1.16,0,2.44-.35,3.36.82a24.44,24.44,0,0,1,.07,5.2c-.83,1.4-2.17,1.26-3.45,1.26-4.15,0-8.3,0-12.44,0h12.61c1.2,0,2.43-.06,3.24,1.17a33.35,33.35,0,0,1,0,5.74c-.82,1.4-2.17,1.26-3.45,1.27h.22c1.2,0,2.44-.05,3.21,1.22.32,7.93.39,6.53-6,6.66-3.59.08-7.19-.15-10.73.12,2,1,4.11.33,6.14.44,2.64.14,5.29,0,7.93,0,1,0,2.06-.17,2.66,1a31,31,0,0,1-.06,5.1c-.79,1.16-2,.86-3,.88-4.59.07-9.19-.07-13.79.33,4.53.28,9.06.24,13.59.29,1.15,0,2.45-.37,3.28,1,0,3.91.4,7.82-.22,11.72a7.65,7.65,0,0,1-2.48.15H413.32c-3,0-3,0-3-3.1q0-75.25,0-150.51c0-1-.47-2.17.59-3,15.13-.15,30.27,0,45.4-.06q30.32,0,60.64,0c4.12,0,4.13,0,4.13,4.35q0,22.5,0,45c0,4.25.58,3.8-3.74,3.84a9.12,9.12,0,0,1-1.38-.07c-1.55-1-1.22-2.69-1.31-4.2-.18-3.14-.46-3.52-3.47-3.53q-19-.06-37.93,0c-2.82,0-3.28.49-3.3,3.37q-.09,15.78,0,31.55c0,3,.44,3.41,3.21,3.47,4.15.08,8.3,0,12.46.05C487,595.46,488.39,595.52,489.07,597.18Z" transform="translate(-61.83 -344.97)" style="fill:#fefefe"/><path d="M555.37,635.8c0,15.18,0,30.37,0,45.55,0,2.16-.5,2.81-2.6,2.8q-28.23-.14-56.45,0c-2.05,0-2.64-.52-2.64-2.75q.12-45.4,0-90.81c0-2.31.59-2.91,2.76-2.9q28.1.14,56.18,0c2.12,0,2.78.51,2.76,2.86C555.32,605.62,555.37,620.71,555.37,635.8Z" transform="translate(-61.83 -344.97)" style="fill:#fefefe"/><path d="M489.07,597.18c-1-.8-2.1-.54-3.18-.54-5,0-10-.08-14.94,0-1.82,0-2.36-.58-2.34-2.49q.11-18,0-35.9c0-1.81.35-2.57,2.27-2.56q21.3.1,42.6,0c1.74,0,2.23.65,2.17,2.38-.08,2.13.07,4.27.12,6.41.37.28.33.48-.12.58-5,0-9.94,0-14.91.08-7.15.07-11.57,4.71-11.61,12.19C489.09,584,489.09,590.57,489.07,597.18Z" transform="translate(-61.83 -344.97)" style="fill:#2cacb6"/><path d="M317,523c-.51-2.77,1.34-2.43,2.9-2.43H366.1c8.22,0,16.44-.13,24.65.06,3.25.08,2.62-2,2.71-4,.1-2.13.05-3.64-2.79-3.63-23.26.12-46.52.07-69.78.07q-1.25,0-2.49,0c-.83,0-1.44-.32-1.49-1.33s.53-1.57,1.52-1.58l2.49,0h68.95c3.57,0,3.53,0,3.59-3.88,0-1.44-.36-2.93.41-4.29v21.64q-.24.57-.48,0h0c-1-.53-2-.27-3-.27l-70.46,0C319,523.28,317.91,523.55,317,523Z" transform="translate(-61.83 -344.97)" style="fill:#b7c8ca"/><path d="M393.36,586.67c0-13.34,0-26.69.13-40,0-2.79-1.49-2.57-3.22-2.57q-34.75,0-69.5,0c-.83,0-1.67,0-2.5,0a1.29,1.29,0,0,1-1.37-1.45,1.27,1.27,0,0,1,1.38-1.44c.83,0,1.66,0,2.49,0l72.55,0c.19-.39.37-.38.53,0q.07,21.66.13,43.31C394,585.18,394.49,586.21,393.36,586.67Z" transform="translate(-61.83 -344.97)" style="fill:#b7c8ca"/><path d="M393.85,541.12l-.53,0c.47-7.47.47-7.47-6.42-7.47H320.22c-.74,0-1.48,0-2.21,0s-1.45-.36-1.44-1.36a1.36,1.36,0,0,1,1.33-1.54c.83-.05,1.66-.06,2.49-.06q34.31,0,68.62,0c4.87,0,4.39.54,4.42-4.72,0-.78,0-1.56,0-2.33h.48Z" transform="translate(-61.83 -344.97)" style="fill:#bacacc"/><path d="M411.12,512c-1.28.46-.75,1.63-.75,2.47q0,75.45,0,150.91c0,1.7.17,2.61,2.19,2.6q38-.15,76.07-.12c.18-.26.36-.25.52,0-.81,1-1.89.6-2.86.6q-36.56,0-73.1,0c-2.14,0-3.33-.2-3.32-3.07q.12-75.83.06-151.64c0-.78.08-1.56.12-2.33.65-.86,1.55-.45,2.33-.45q53.3,0,106.59,0c.8,0,1.67-.3,2.4.36l-.07.59a5.74,5.74,0,0,1-2.47.19q-52.59,0-105.2,0A6.45,6.45,0,0,1,411.12,512Z" transform="translate(-61.83 -344.97)" style="fill:#61798c"/><path d="M77.55,362v223.7h-.26V362.07Z" transform="translate(-61.83 -344.97)" style="fill:#0d3451"/><path d="M411.12,512c2.12,0,4.24-.1,6.36-.1H517.66c1.2,0,2.4.06,3.6.09q0,25.62.09,51.22c0,1.48-.35,2.16-1.85,2-1.27-.12-2.56-.09-3.85-.13l.12-.58c5.62-.07,5,.68,5-5.34q0-21.31,0-42.64c0-4,0-4-3.73-4q-51.21,0-102.42,0C413.45,512.47,412.21,512.79,411.12,512Z" transform="translate(-61.83 -344.97)" style="fill:#f7f8f9"/><path d="M489.11,667.88h-.26l-.26,0V656.44c-.75-.88-1.74-.43-2.6-.44-5.06,0-10.12,0-15.18,0-.66,0-1.69.33-1.69-.86s1-.85,1.7-.86c5.05,0,10.11,0,15.17,0,.88,0,1.85.36,2.65-.37,0-1.7,0-3.4,0-5.1-3.27-.78-6.59-.22-9.88-.34-2.67-.1-5.35,0-8,0-1.43,0-2.17-.43-1.47-2.06,5.3,0,10.61-.21,15.91,0,2.75.11,4-.68,3.49-3.68a15.19,15.19,0,0,1-.07-2,2.07,2.07,0,0,1,0-2.58l-.06-5.49a2.16,2.16,0,0,1,.09-2.62c0-1.71,0-3.42,0-5.13a2.06,2.06,0,0,1,0-2.58q0-3.69,0-7.37a4.54,4.54,0,0,1,0-6c.35-3.66-.53-7.39.51-11q0,20.07.06,40.14C489.18,647.92,489.14,657.9,489.11,667.88Z" transform="translate(-61.83 -344.97)" style="fill:#b6c7c9"/><path d="M435,492.24V362.06h.27V492.22Z" transform="translate(-61.83 -344.97)" style="fill:#0c3450"/><path d="M521.33,511.4c-10.06,0-20.12-.08-30.18-.08H413.6c-1.19,0-2.39.11-3.59.17.75-1.05,1.84-.75,2.81-.75H518.47C519.45,510.74,520.52,510.47,521.33,511.4Z" transform="translate(-61.83 -344.97)" style="fill:#0c3450"/><path d="M524.68,576.15H516.1c-.75,0-1.64,0-1.67-1S515.25,574,516,574h17.17c.76,0,1.63.12,1.53,1.2s-1,1-1.72,1C530.22,576.16,527.45,576.15,524.68,576.15Z" transform="translate(-61.83 -344.97)" style="fill:#e2e7ea"/><path d="M554.17,587.17H494.51v-.28h59.74Z" transform="translate(-61.83 -344.97)" style="fill:#0c3350"/><path d="M206.71,644a6.36,6.36,0,0,1,3.51-.59h92.14a6.27,6.27,0,0,1,3.51.59q3.61,15.75,7.24,31.49c.56,1.69-.62,2.06-1.7,2.33a14.07,14.07,0,0,1-3.31.16H204.48a14,14,0,0,1-3.31-.16c-1.08-.27-2.25-.66-1.7-2.33Q203.08,659.74,206.71,644Z" transform="translate(-61.83 -344.97)" style="fill:#a5aab4"/><path d="M199.47,675.49c.7,2,2.33,1.2,3.58,1.21q49.79.06,99.57,0c2.67,0,5.34,0,8,0,1,0,2.1.2,2.47-1.23a2.52,2.52,0,0,0,2.61,1.23c1.29-.06,2.58,0,3.88,0,4.64,0,7.39,3.08,7.28,7.91,0,1.44-.46,2.21-1.92,2.12-.83-.06-1.67,0-2.5,0q-65.9,0-131.8-.07c-1.6,0-3.9,1.37-4.84-1.2-.87-2.4,1.17-6.75,3.41-8s4.35-.58,6.53-.73C197.09,676.62,198.59,677.12,199.47,675.49Z" transform="translate(-61.83 -344.97)" style="fill:#b5bac5"/><path d="M256.29,423.38c15,0,30.09.05,45.14-.05,2.42,0,3.33.5,3.3,3.33-.14,15.68-.1,31.36,0,47,0,2.24-.5,3-2.75,3q-45.69-.12-91.38,0c-2.29,0-2.73-.83-2.72-3,.08-15.59.11-31.17,0-46.76,0-2.75.59-3.63,3.32-3.61C226.2,423.45,241.25,423.38,256.29,423.38Z" transform="translate(-61.83 -344.97)" style="fill:#2cacb6"/><path d="M364.82,476.66c-14.95,0-29.89-.05-44.84,0-2.43,0-3.34-.52-3.32-3.34q.21-23.37,0-46.74c0-2.56.65-3.29,3.1-3.28q45.26.12,90.52,0c2.37,0,3.15.57,3.13,3.21q-.18,23.52,0,47c0,2.41-.58,3.14-2.91,3.13C395.27,476.61,380.05,476.66,364.82,476.66Z" transform="translate(-61.83 -344.97)" style="fill:#efa547"/><path d="M147.73,423.36c15.14,0,30.28.05,45.41-.05,2.21,0,2.78.67,2.76,2.95q-.12,23.81,0,47.62c0,2.16-.53,2.81-2.62,2.81q-45.69-.1-91.38,0c-2.21,0-2.75-.68-2.74-2.95q.14-23.67,0-47.33c0-2.4.57-3.12,2.89-3.1C117.28,423.41,132.51,423.36,147.73,423.36Z" transform="translate(-61.83 -344.97)" style="fill:#fb601f"/><path d="M239.93,492.62c9.67,0,19.35.11,29-.07,2.88-.06,3.35,1.14,3.27,3.76-.07,2.37,0,3.94-3.12,3.92q-29.16-.23-58.33,0c-3.34,0-2.83-1.91-2.94-4.06-.13-2.41.23-3.68,3.07-3.63C220.57,492.74,230.25,492.62,239.93,492.62Z" transform="translate(-61.83 -344.97)" style="fill:#b7c7c9"/><path d="M158,391.51c9.77,0,19.55.13,29.31-.07,3.11-.07,2.86,1.7,2.86,3.84s.23,3.86-2.87,3.84q-29.29-.21-58.61,0c-3.1,0-2.86-1.7-2.86-3.84s-.23-3.91,2.87-3.84C138.43,391.64,148.21,391.51,158,391.51Z" transform="translate(-61.83 -344.97)" style="fill:#b7c7c9"/><path d="M131.42,500.15c-9.77,0-19.54-.12-29.3.08-3.05.06-3-1.6-2.91-3.8s-.31-3.91,2.83-3.88q29.31.21,58.61,0c3,0,2.94,1.6,2.91,3.79s.31,4-2.83,3.89C151,500,141.19,500.15,131.42,500.15Z" transform="translate(-61.83 -344.97)" style="fill:#b7c7c9"/><path d="M348.79,500.15c-9.69,0-19.38-.12-29.06.07-3.05.07-2.92-1.63-2.91-3.82s-.2-3.87,2.88-3.85q29.34.21,58.67,0c2.52,0,3,1.1,2.79,3.31-.16,2,.68,4.38-2.76,4.33C368.53,500.06,358.66,500.15,348.79,500.15Z" transform="translate(-61.83 -344.97)" style="fill:#b7c7c9"/><path d="M256.58,530.65h44.54c.83,0,1.67,0,2.49.07s1.08.65,1.06,1.42-.31,1.35-1.09,1.42-1.66.06-2.49.06H211.45c-.37,0-.74,0-1.1,0-1-.07-2.44.31-2.43-1.51s1.44-1.44,2.46-1.45Q233.48,530.63,256.58,530.65Z" transform="translate(-61.83 -344.97)" style="fill:#bacacc"/><path d="M256,544.08H211.46c-.83,0-1.66,0-2.49-.07s-1.06-.66-1.06-1.42.3-1.35,1.09-1.41,1.66-.06,2.49-.06h89.63c.36,0,.74,0,1.1,0,1,.09,2.44-.37,2.43,1.48s-1.43,1.46-2.45,1.46Q279.1,544.1,256,544.08Z" transform="translate(-61.83 -344.97)" style="fill:#b7c8ca"/><path d="M256.29,510.12h44.82c.83,0,1.66,0,2.49.06s1.07.66,1.07,1.42-.29,1.35-1.08,1.41-1.66.06-2.49.06H211.47a5.73,5.73,0,0,1-.83,0c-1.07-.16-2.71.57-2.7-1.48s1.64-1.45,2.7-1.45Q233.47,510.1,256.29,510.12Z" transform="translate(-61.83 -344.97)" style="fill:#b7c8ca"/><path d="M256.28,520.58h44.84c.74,0,1.48,0,2.22,0a1.17,1.17,0,0,1,1.29,1.2c0,.9-.32,1.53-1.2,1.64a23,23,0,0,1-2.49.09H209.59c-.92,0-1.67-.22-1.68-1.41s.61-1.53,1.58-1.53h46.79Z" transform="translate(-61.83 -344.97)" style="fill:#b8c8ca"/><path d="M147.44,530.65H192c.83,0,1.66,0,2.49.06a1.19,1.19,0,0,1,1.19,1.31c0,.93-.36,1.49-1.26,1.55-.64,0-1.29,0-1.94,0H102.54a18.07,18.07,0,0,1-2.21-.08c-.79-.08-1-.69-1-1.45s.34-1.32,1.12-1.38,1.66-.06,2.49-.06Z" transform="translate(-61.83 -344.97)" style="fill:#b9cacb"/><path d="M147.73,541.12H192l2.22,0c.85,0,1.41.37,1.45,1.36,0,1.15-.58,1.54-1.55,1.55l-1.66,0H102.53c-.65,0-1.29,0-1.94,0-.9,0-1.32-.55-1.31-1.49a1.27,1.27,0,0,1,1.41-1.4c.74,0,1.47,0,2.21,0Z" transform="translate(-61.83 -344.97)" style="fill:#b7c8ca"/><path d="M147.39,513.08H102.84c-.83,0-1.67,0-2.49-.06s-1.07-.66-1.07-1.43.31-1.33,1.1-1.4,1.47-.06,2.21-.06h89.66l1.93,0c.83,0,1.44.31,1.49,1.32a1.33,1.33,0,0,1-1.51,1.59l-2.22,0Z" transform="translate(-61.83 -344.97)" style="fill:#b7c8ca"/><path d="M147.17,523.54H102.9c-.74,0-1.47,0-2.21,0a1.26,1.26,0,0,1-1.41-1.4c0-.93.42-1.46,1.32-1.49.74,0,1.47,0,2.21,0h89.37c.37,0,.74,0,1.11,0,1.06.07,2.42-.25,2.36,1.58-.05,1.62-1.3,1.36-2.27,1.37-4.52,0-9,0-13.56,0Z" transform="translate(-61.83 -344.97)" style="fill:#b8c8ca"/><path d="M99.25,395.17c0-5.25,4-9.5,8.92-9.51a9.56,9.56,0,0,1,9.29,9.54c.06,5.09-4.37,9.76-9.18,9.7C103.18,404.84,99.21,400.56,99.25,395.17Z" transform="translate(-61.83 -344.97)" style="fill:#b6c7c9"/><path d="M242.46,554.54H211.21c-.74,0-1.48,0-2.21-.06s-1.09-.62-1.09-1.4.27-1.35,1.06-1.43,1.47-.07,2.21-.07h62.51l1.93,0a1.27,1.27,0,0,1,1.37,1.45c0,1-.45,1.43-1.34,1.45l-2.22,0Z" transform="translate(-61.83 -344.97)" style="fill:#b8c8ca"/><path d="M133.6,551.58q16.05,0,32.11,0c1,0,2.5-.56,2.58,1.28s-1.46,1.65-2.61,1.65q-32,0-63.95,0c-1,0-2.44.37-2.43-1.48s1.43-1.45,2.46-1.45Q117.68,551.56,133.6,551.58Z" transform="translate(-61.83 -344.97)" style="fill:#b8c8ca"/><path d="M351,554.54H318.63c-.9,0-1.68-.19-1.72-1.38,0-1.38.83-1.56,1.84-1.56h63.63c.64,0,1.29,0,1.93,0,.91,0,1.32.57,1.3,1.51a1.26,1.26,0,0,1-1.41,1.39l-2.22,0Z" transform="translate(-61.83 -344.97)" style="fill:#b8c8ca"/><path d="M289.55,396.76c-4.43,0-8.85,0-13.27,0-1,0-2.44.46-2.51-1.38s1.31-1.55,2.36-1.55q13.68,0,27.36,0c1,0,2.2-.24,2.24,1.39,0,1.85-1.31,1.55-2.37,1.55C298.76,396.77,294.15,396.76,289.55,396.76Z" transform="translate(-61.83 -344.97)" style="fill:#b8c8ca"/><path d="M361.54,393.8c4.52,0,9,0,13.55,0,1,0,2.18-.22,2.23,1.41s-1.1,1.53-2.12,1.53q-13.81,0-27.64,0c-1,0-2.2.22-2.22-1.41,0-1.84,1.33-1.53,2.38-1.53C352.33,393.78,356.94,393.8,361.54,393.8Z" transform="translate(-61.83 -344.97)" style="fill:#b7c8ca"/><path d="M253.81,396.76c-4.61,0-9.22,0-13.83,0-1,0-2.17.2-2.2-1.44s1.13-1.5,2.14-1.5h27.64c1,0,2.18-.2,2.21,1.44s-1.13,1.5-2.14,1.5Z" transform="translate(-61.83 -344.97)" style="fill:#b6c7c9"/><path d="M397.26,396.76H383.44c-1,0-2.16.12-2.14-1.5s1.22-1.44,2.21-1.44h27.64c1,0,2.16-.12,2.14,1.5s-1.22,1.43-2.21,1.44C406.48,396.77,401.87,396.76,397.26,396.76Z" transform="translate(-61.83 -344.97)" style="fill:#b6c7c9"/><path d="M325.54,396.76c-4.43,0-8.86,0-13.28,0-1,0-2.44.45-2.52-1.38s1.32-1.55,2.37-1.55q13.41,0,26.83,0c1.05,0,2.45-.3,2.38,1.54s-1.49,1.38-2.51,1.39C334.39,396.79,330,396.76,325.54,396.76Z" transform="translate(-61.83 -344.97)" style="fill:#b7c8ca"/><path d="M317,523q36.48,0,73,0c1.17,0,2.42-.36,3.46.56q-36.48,0-73-.06C319.26,523.52,318,523.92,317,523Z" transform="translate(-61.83 -344.97)" style="fill:#b8c8ca"/><path d="M439.19,596.63c-7,0-14-.06-21,0-1.81,0-2.37-.55-2.36-2.48q.12-18,0-35.94c0-1.82.39-2.55,2.29-2.54q21.18.13,42.37,0c1.82,0,2.33.57,2.32,2.47q-.12,18,0,35.94c0,2.14-.7,2.57-2.55,2.54C453.22,596.57,446.21,596.63,439.19,596.63Z" transform="translate(-61.83 -344.97)" style="fill:#fb601f"/><path d="M473.94,526c6,0,12,.07,17.95,0,2.17,0,3,.76,2.85,3s-1.47,1.8-2.9,1.79c-11.78-.09-23.56-.08-35.34-.1-1.4,0-2.81.19-2.81-2.1,0-1.79.41-2.66,2.31-2.63C462,526.06,468,526,473.94,526Z" transform="translate(-61.83 -344.97)" style="fill:#b8c8ca"/><path d="M431.61,614.72c-4.43,0-8.85,0-13.28,0-1.28,0-2.86.2-2.53-2,.25-1.7-.42-4,2.7-3.88,8.66.19,17.33.13,26,0,2.11,0,2.69.77,2.66,2.89s-.31,3.08-2.56,3C440.27,614.61,435.94,614.72,431.61,614.72Z" transform="translate(-61.83 -344.97)" style="fill:#b7c8ca"/><path d="M488.61,608.81q0,3,0,6c-5.8-.05-11.6-.18-17.39-.08-2.16,0-2.62-.88-2.62-2.94s.41-3,2.6-3C477,609,482.81,608.85,488.61,608.81Z" transform="translate(-61.83 -344.97)" style="fill:#b7c8ca"/><path d="M448.24,528.72c-.07,3.21-2.75,6-5.7,5.94a6.11,6.11,0,0,1,.12-12.22A5.84,5.84,0,0,1,448.24,528.72Z" transform="translate(-61.83 -344.97)" style="fill:#b7c8ca"/><path d="M438.82,632.4c-6.92,0-13.83,0-20.75,0-.83,0-2.15.42-2.23-1-.08-1.59,1.31-1.34,2.27-1.35q21.15,0,42.31,0c.85,0,2.11-.3,2.09,1.17s-1.28,1.14-2.12,1.14C453.2,632.41,446,632.4,438.82,632.4Z" transform="translate(-61.83 -344.97)" style="fill:#bacacc"/><path d="M439.08,646.25c7,0,14,0,21,0,.9,0,2.36-.5,2.39,1.12s-1.43,1.18-2.33,1.18q-20.88.06-41.76,0h-.56c-.91-.07-2.07.06-2-1.34s1.18-1,1.95-1c2.49,0,5,0,7.47,0Z" transform="translate(-61.83 -344.97)" style="fill:#bacacc"/><path d="M439.39,638.16c6.91,0,13.81,0,20.72,0,.9,0,2.34-.5,2.38,1.11s-1.42,1.19-2.31,1.19q-21,0-42,0c-.92,0-2.35.39-2.28-1.26.06-1.37,1.35-1.05,2.21-1.05C425.22,638.14,432.31,638.16,439.39,638.16Z" transform="translate(-61.83 -344.97)" style="fill:#b9c9cb"/><path d="M439.06,624.69c-6.91,0-13.81,0-20.71,0-.92,0-2.37.46-2.42-1.11s1.41-1.2,2.33-1.2q21,0,42,0c.9,0,2.38-.45,2.26,1.24s-1.54,1-2.44,1C453.05,624.71,446.05,624.69,439.06,624.69Z" transform="translate(-61.83 -344.97)" style="fill:#b9c9cb"/><path d="M432.44,656.31c-4.88,0-9.76,0-14.64,0-.76,0-1.89.3-2-.95s1.06-1.37,2-1.37h29.55c.8,0,1.83-.13,1.83,1.16s-1,1.16-1.83,1.16C442.39,656.32,437.41,656.31,432.44,656.31Z" transform="translate(-61.83 -344.97)" style="fill:#b9cacb"/><path d="M501.67,547.46c-2,0-4.05,0-6.08,0-.88,0-1.77-.2-1.78-1.36s.87-1.37,1.76-1.38h12.72c.88,0,1.76.21,1.77,1.36s-.87,1.37-1.75,1.38C506.1,547.47,503.89,547.46,501.67,547.46Z" transform="translate(-61.83 -344.97)" style="fill:#c1cfd1"/><path d="M447.33,547.46c-2,0-4.05,0-6.08,0-.87,0-1.76-.22-1.74-1.4s.92-1.33,1.79-1.34H454c.89,0,1.74.24,1.73,1.4s-.91,1.34-1.79,1.35Z" transform="translate(-61.83 -344.97)" style="fill:#c1cfd1"/><path d="M488.64,629.93l-.09,2.62-15.72-.15c-.74,0-1.47,0-2.21,0s-1.84.08-1.79-1.21,1.08-1.11,1.87-1.11c4.79,0,9.57,0,14.36,0C486.25,630,487.44,630,488.64,629.93Z" transform="translate(-61.83 -344.97)" style="fill:#bacacc"/><path d="M488.61,638c0,.86,0,1.72,0,2.58-5.8,0-11.6-.06-17.4-.14-.89,0-2.35.49-2.35-1.15s1.46-1.14,2.36-1.15C477,638.09,482.81,638.08,488.61,638Z" transform="translate(-61.83 -344.97)" style="fill:#b9cacb"/><path d="M466,544.71c2,0,4.06,0,6.08,0,.78,0,1.53.14,1.55,1.21a1.31,1.31,0,0,1-1.4,1.46q-6.63,0-13.26,0a1.27,1.27,0,0,1-1.26-1.57c.07-.88.7-1.07,1.38-1.07,2.3,0,4.61,0,6.91,0Z" transform="translate(-61.83 -344.97)" style="fill:#bfced0"/><path d="M484,547.06c-2.11,0-4.22,0-6.33,0-.73,0-1.58,0-1.66-1.06s.7-1.25,1.47-1.26c4.22,0,8.43,0,12.65,0,.87,0,1.79.22,1.67,1.4s-1,.91-1.75.91C488,547.08,486,547.06,484,547.06Z" transform="translate(-61.83 -344.97)" style="fill:#bccccd"/><path d="M429.39,547c-2.12,0-4.24,0-6.36,0-.68,0-1.31-.2-1.34-1.1s.62-1.14,1.3-1.15c4.33,0,8.66,0,13,0,.78,0,1.57.27,1.48,1.3s-1,1-1.71,1c-2.12,0-4.24,0-6.36,0Z" transform="translate(-61.83 -344.97)" style="fill:#b6c7c9"/><path d="M488.59,622.22l0,2.58c-5.8,0-11.59-.06-17.39-.14-.9,0-2.35.5-2.37-1.13s1.45-1.14,2.34-1.16C477,622.28,482.8,622.26,488.59,622.22Z" transform="translate(-61.83 -344.97)" style="fill:#b7c8ca"/><path d="M488.64,653.84c-.79.95-1.87.67-2.85.67-4.5,0-9,0-13.52,0-.83,0-1.78-.31-2.58.52.81,1,1.78.6,2.62.61,4.87,0,9.75,0,14.62,0,.65,0,1.56-.56,1.66.77-5.8,0-11.61-.06-17.41-.15-.89,0-2.35.48-2.32-1.17s1.48-1.11,2.38-1.13C477,653.91,482.84,653.89,488.64,653.84Z" transform="translate(-61.83 -344.97)" style="fill:#b9c9cb"/><path d="M469.27,646.33c0,1.93,1.3,1.75,2.5,1.75,4.68,0,9.35,0,14,0,1,0,2-.28,2.85.64-5.87,0-11.75-.08-17.62-.14C469.65,648.58,467.92,648.75,469.27,646.33Z" transform="translate(-61.83 -344.97)" style="fill:#bacacc"/><path d="M524.66,639.52c-8.21,0-16.42-.06-24.64.05-1.95,0-2.74-.38-2.7-2.69.14-8.08.1-16.16,0-24.25,0-1.93.35-2.7,2.39-2.69q24.91.12,49.83,0c1.89,0,2.29.7,2.27,2.53-.08,8.18-.1,16.36,0,24.53,0,2.13-.69,2.58-2.54,2.56C541.09,639.47,532.87,639.52,524.66,639.52Z" transform="translate(-61.83 -344.97)" style="fill:#fb601f"/><path d="M532.14,601.35c-5.72,0-11.45,0-17.17,0-1.35,0-2.57.07-2.59-2s1.09-2.11,2.51-2.11q17.16,0,34.32,0c1.36,0,2.58-.07,2.59,2s-1.07,2.12-2.5,2.11C543.58,601.33,537.86,601.35,532.14,601.35Z" transform="translate(-61.83 -344.97)" style="fill:#b7c8ca"/><path d="M515.53,651.54c-5.24,0-10.49,0-15.73,0-1.31,0-2.34-.1-2.37-2s1-2.19,2.44-2.19q15.6,0,31.2,0c1.43,0,2.51.12,2.5,2.12s-1.22,2-2.57,2Z" transform="translate(-61.83 -344.97)" style="fill:#b7c8ca"/><path d="M524.94,658.59c8.11,0,16.21,0,24.32,0,.82,0,2.26-.48,2.23.87s-1.45.82-2.28.82q-24.6,0-49.2,0a12.63,12.63,0,0,1-1.38-.06c-.48,0-.95-.25-.93-.83s.51-.77,1-.79c1,0,2,0,3,0Z" transform="translate(-61.83 -344.97)" style="fill:#b5c6c8"/><path d="M525,664.43c8,0,16,0,24,0,.88,0,2.44-.62,2.46.89,0,1.24-1.47.78-2.3.79q-24.6,0-49.19,0c-.8,0-2.25.49-2.19-.89s1.48-.78,2.31-.78C508.39,664.42,516.68,664.43,525,664.43Z" transform="translate(-61.83 -344.97)" style="fill:#b5c6c8"/><path d="M524.66,672H500.6a11.52,11.52,0,0,1-2.2-.14,1.11,1.11,0,0,1-.7-.73.68.68,0,0,1,.65-.77,20.13,20.13,0,0,1,2.2-.12h48.12c.65,0,1.3,0,1.94,0,.48,0,.95.23,1,.81s-.44.82-.93.85c-.73.06-1.47.06-2.21.06Z" transform="translate(-61.83 -344.97)" style="fill:#bccbcd"/><path d="M502.29,604.74a5.29,5.29,0,0,1-4.82-5.65,5.23,5.23,0,0,1,5.21-5.25,5.3,5.3,0,0,1,4.82,5.66A5.22,5.22,0,0,1,502.29,604.74Z" transform="translate(-61.83 -344.97)" style="fill:#b7c8ca"/><path d="M517.33,676.1c5.71,0,11.42,0,17.14,0,.75,0,2-.37,2.07.76.06,1.44-1.33,1-2.13,1q-17.26,0-34.55,0c-.76,0-2,.36-2.08-.76,0-1.44,1.33-1,2.13-1C505.72,676.07,511.52,676.1,517.33,676.1Z" transform="translate(-61.83 -344.97)" style="fill:#bdccce"/><ellipse cx="416.85" cy="278.6" rx="12.53" ry="0.37" style="fill:#b6c7c9"/><text transform="translate(535.17 224.72)" style="font-size:200px;fill:#103753;font-family:OpenSans-Regular, Open Sans">Web Design</text></svg>